G04 MADE WITH FRITZING*
G04 WWW.FRITZING.ORG*
G04 DOUBLE SIDED*
G04 HOLES PLATED*
G04 CONTOUR ON CENTER OF CONTOUR VECTOR*
%ASAXBY*%
%FSLAX23Y23*%
%MOIN*%
%OFA0B0*%
%SFA1.0B1.0*%
%ADD10C,0.080000*%
%ADD11C,0.075000*%
%ADD12C,0.085000*%
%ADD13C,0.088000*%
%ADD14C,0.062000*%
%ADD15C,0.049370*%
%ADD16R,0.088000X0.088000*%
%ADD17C,0.030000*%
%ADD18C,0.010000*%
%ADD19R,0.001000X0.001000*%
%LNMASK1*%
G90*
G70*
G54D10*
X3342Y661D03*
X3442Y661D03*
X142Y1961D03*
X242Y1961D03*
G54D11*
X142Y1561D03*
X242Y1561D03*
X142Y1561D03*
X242Y1561D03*
X3342Y261D03*
X3442Y261D03*
X3342Y261D03*
X3442Y261D03*
G54D12*
X142Y261D03*
X542Y261D03*
G54D13*
X3342Y1461D03*
X3342Y1361D03*
X3342Y1261D03*
X3342Y1161D03*
X142Y2261D03*
X242Y2261D03*
X342Y2261D03*
X442Y2261D03*
X1442Y261D03*
X1342Y261D03*
G54D14*
X3042Y661D03*
X3042Y761D03*
X3042Y861D03*
X3042Y961D03*
X3042Y1061D03*
X3042Y1161D03*
X3042Y1261D03*
X3042Y1361D03*
X3042Y1461D03*
X3042Y1561D03*
X3042Y1661D03*
X3042Y1761D03*
X3042Y1861D03*
X3042Y1961D03*
X3042Y2061D03*
X2042Y2061D03*
X2042Y1961D03*
X2042Y1861D03*
X2042Y1761D03*
X2042Y1661D03*
X2042Y1561D03*
X2042Y1461D03*
X2042Y1361D03*
X2042Y1261D03*
X2042Y1161D03*
X2042Y1061D03*
X2042Y961D03*
X2042Y861D03*
X2042Y761D03*
X2042Y661D03*
G54D15*
X1642Y1461D03*
X1642Y1661D03*
X1642Y1561D03*
X3142Y2561D03*
X2242Y361D03*
X2142Y861D03*
X2342Y861D03*
X2742Y561D03*
X2342Y561D03*
X2642Y561D03*
X3142Y61D03*
G54D10*
X442Y1060D03*
X442Y1161D03*
G54D16*
X3342Y1461D03*
X142Y2261D03*
G54D17*
G36*
X1471Y232D02*
X1413Y232D01*
X1413Y290D01*
X1471Y290D01*
X1471Y232D01*
G37*
D02*
G54D18*
G36*
X658Y2190D02*
X658Y2131D01*
X599Y2131D01*
X599Y2190D01*
G37*
D02*
G36*
X658Y2090D02*
X658Y2031D01*
X599Y2031D01*
X599Y2090D01*
G37*
D02*
G36*
X658Y1990D02*
X658Y1931D01*
X599Y1931D01*
X599Y1990D01*
G37*
D02*
G36*
X658Y1691D02*
X658Y1632D01*
X599Y1632D01*
X599Y1691D01*
G37*
D02*
G36*
X658Y1591D02*
X658Y1532D01*
X599Y1532D01*
X599Y1591D01*
G37*
D02*
G36*
X658Y1491D02*
X658Y1432D01*
X599Y1432D01*
X599Y1491D01*
G37*
D02*
G36*
X658Y1391D02*
X658Y1332D01*
X599Y1332D01*
X599Y1391D01*
G37*
D02*
G36*
X658Y1291D02*
X658Y1232D01*
X599Y1232D01*
X599Y1291D01*
G37*
D02*
G36*
X658Y1191D02*
X658Y1132D01*
X599Y1132D01*
X599Y1191D01*
G37*
D02*
G36*
X658Y1091D02*
X658Y1032D01*
X599Y1032D01*
X599Y1091D01*
G37*
D02*
G36*
X658Y991D02*
X658Y932D01*
X599Y932D01*
X599Y991D01*
G37*
D02*
G36*
X1571Y991D02*
X1571Y932D01*
X1512Y932D01*
X1512Y991D01*
G37*
D02*
G36*
X1571Y1091D02*
X1571Y1032D01*
X1512Y1032D01*
X1512Y1091D01*
G37*
D02*
G36*
X1571Y1191D02*
X1571Y1132D01*
X1512Y1132D01*
X1512Y1191D01*
G37*
D02*
G36*
X1571Y1291D02*
X1571Y1232D01*
X1512Y1232D01*
X1512Y1291D01*
G37*
D02*
G36*
X1571Y1391D02*
X1571Y1332D01*
X1512Y1332D01*
X1512Y1391D01*
G37*
D02*
G36*
X1571Y1491D02*
X1571Y1432D01*
X1512Y1432D01*
X1512Y1491D01*
G37*
D02*
G36*
X1571Y1591D02*
X1571Y1532D01*
X1512Y1532D01*
X1512Y1591D01*
G37*
D02*
G36*
X1571Y1691D02*
X1571Y1632D01*
X1512Y1632D01*
X1512Y1691D01*
G37*
D02*
G36*
X1571Y1990D02*
X1571Y1931D01*
X1512Y1931D01*
X1512Y1990D01*
G37*
D02*
G36*
X1571Y2090D02*
X1571Y2031D01*
X1512Y2031D01*
X1512Y2090D01*
G37*
D02*
G36*
X1571Y2190D02*
X1571Y2131D01*
X1512Y2131D01*
X1512Y2190D01*
G37*
D02*
G54D19*
X2011Y2097D02*
X2075Y2097D01*
X3009Y2097D02*
X3072Y2097D01*
X2007Y2096D02*
X2079Y2096D01*
X3005Y2096D02*
X3076Y2096D01*
X2005Y2095D02*
X2082Y2095D01*
X3002Y2095D02*
X3079Y2095D01*
X2002Y2094D02*
X2084Y2094D01*
X3000Y2094D02*
X3081Y2094D01*
X2000Y2093D02*
X2086Y2093D01*
X2998Y2093D02*
X3083Y2093D01*
X1998Y2092D02*
X2088Y2092D01*
X2996Y2092D02*
X3085Y2092D01*
X1997Y2091D02*
X2089Y2091D01*
X2994Y2091D02*
X3087Y2091D01*
X1995Y2090D02*
X2091Y2090D01*
X2993Y2090D02*
X3088Y2090D01*
X1994Y2089D02*
X2092Y2089D01*
X2992Y2089D02*
X3089Y2089D01*
X1993Y2088D02*
X2093Y2088D01*
X2991Y2088D02*
X3091Y2088D01*
X1992Y2087D02*
X2094Y2087D01*
X2990Y2087D02*
X3092Y2087D01*
X1991Y2086D02*
X2095Y2086D01*
X2989Y2086D02*
X3092Y2086D01*
X1990Y2085D02*
X2096Y2085D01*
X2988Y2085D02*
X3093Y2085D01*
X1989Y2084D02*
X2097Y2084D01*
X2987Y2084D02*
X3094Y2084D01*
X1989Y2083D02*
X2097Y2083D01*
X2986Y2083D02*
X3095Y2083D01*
X1988Y2082D02*
X2098Y2082D01*
X2986Y2082D02*
X3096Y2082D01*
X1987Y2081D02*
X2099Y2081D01*
X2985Y2081D02*
X3096Y2081D01*
X1987Y2080D02*
X2099Y2080D01*
X2984Y2080D02*
X3097Y2080D01*
X1986Y2079D02*
X2100Y2079D01*
X2984Y2079D02*
X3097Y2079D01*
X1986Y2078D02*
X2100Y2078D01*
X2983Y2078D02*
X3098Y2078D01*
X1985Y2077D02*
X2101Y2077D01*
X2983Y2077D02*
X3098Y2077D01*
X1985Y2076D02*
X2101Y2076D01*
X2982Y2076D02*
X3099Y2076D01*
X1984Y2075D02*
X2102Y2075D01*
X2982Y2075D02*
X3099Y2075D01*
X1984Y2074D02*
X2102Y2074D01*
X2981Y2074D02*
X3100Y2074D01*
X1984Y2073D02*
X2102Y2073D01*
X2981Y2073D02*
X3100Y2073D01*
X1983Y2072D02*
X2103Y2072D01*
X2981Y2072D02*
X3100Y2072D01*
X1983Y2071D02*
X2103Y2071D01*
X2980Y2071D02*
X3101Y2071D01*
X1983Y2070D02*
X2103Y2070D01*
X2980Y2070D02*
X3101Y2070D01*
X1982Y2069D02*
X2104Y2069D01*
X2980Y2069D02*
X3101Y2069D01*
X1982Y2068D02*
X2104Y2068D01*
X2980Y2068D02*
X3101Y2068D01*
X1982Y2067D02*
X2040Y2067D01*
X2046Y2067D02*
X2104Y2067D01*
X2980Y2067D02*
X3036Y2067D01*
X3043Y2067D02*
X3102Y2067D01*
X1982Y2066D02*
X2038Y2066D01*
X2048Y2066D02*
X2104Y2066D01*
X2979Y2066D02*
X3035Y2066D01*
X3045Y2066D02*
X3102Y2066D01*
X1982Y2065D02*
X2037Y2065D01*
X2049Y2065D02*
X2104Y2065D01*
X2979Y2065D02*
X3034Y2065D01*
X3045Y2065D02*
X3102Y2065D01*
X1982Y2064D02*
X2037Y2064D01*
X2049Y2064D02*
X2104Y2064D01*
X2979Y2064D02*
X3034Y2064D01*
X3046Y2064D02*
X3102Y2064D01*
X1982Y2063D02*
X2037Y2063D01*
X2050Y2063D02*
X2104Y2063D01*
X2979Y2063D02*
X3033Y2063D01*
X3046Y2063D02*
X3102Y2063D01*
X1982Y2062D02*
X2036Y2062D01*
X2050Y2062D02*
X2105Y2062D01*
X2979Y2062D02*
X3033Y2062D01*
X3046Y2062D02*
X3102Y2062D01*
X1982Y2061D02*
X2036Y2061D01*
X2050Y2061D02*
X2105Y2061D01*
X2979Y2061D02*
X3033Y2061D01*
X3046Y2061D02*
X3102Y2061D01*
X1982Y2060D02*
X2037Y2060D01*
X2050Y2060D02*
X2104Y2060D01*
X2979Y2060D02*
X3033Y2060D01*
X3046Y2060D02*
X3102Y2060D01*
X1982Y2059D02*
X2037Y2059D01*
X2049Y2059D02*
X2104Y2059D01*
X2979Y2059D02*
X3034Y2059D01*
X3046Y2059D02*
X3102Y2059D01*
X1982Y2058D02*
X2038Y2058D01*
X2049Y2058D02*
X2104Y2058D01*
X2979Y2058D02*
X3034Y2058D01*
X3045Y2058D02*
X3102Y2058D01*
X1982Y2057D02*
X2039Y2057D01*
X2048Y2057D02*
X2104Y2057D01*
X2979Y2057D02*
X3035Y2057D01*
X3044Y2057D02*
X3102Y2057D01*
X1982Y2056D02*
X2040Y2056D01*
X2046Y2056D02*
X2104Y2056D01*
X2980Y2056D02*
X3037Y2056D01*
X3043Y2056D02*
X3101Y2056D01*
X1982Y2055D02*
X2104Y2055D01*
X2980Y2055D02*
X3101Y2055D01*
X1983Y2054D02*
X2104Y2054D01*
X2980Y2054D02*
X3101Y2054D01*
X1983Y2053D02*
X2103Y2053D01*
X2980Y2053D02*
X3101Y2053D01*
X1983Y2052D02*
X2103Y2052D01*
X2981Y2052D02*
X3101Y2052D01*
X1983Y2051D02*
X2103Y2051D01*
X2981Y2051D02*
X3100Y2051D01*
X1984Y2050D02*
X2102Y2050D01*
X2981Y2050D02*
X3100Y2050D01*
X1984Y2049D02*
X2102Y2049D01*
X2982Y2049D02*
X3099Y2049D01*
X1984Y2048D02*
X2102Y2048D01*
X2982Y2048D02*
X3099Y2048D01*
X1985Y2047D02*
X2101Y2047D01*
X2982Y2047D02*
X3099Y2047D01*
X1985Y2046D02*
X2101Y2046D01*
X2983Y2046D02*
X3098Y2046D01*
X1986Y2045D02*
X2100Y2045D01*
X2983Y2045D02*
X3098Y2045D01*
X1986Y2044D02*
X2100Y2044D01*
X2984Y2044D02*
X3097Y2044D01*
X1987Y2043D02*
X2099Y2043D01*
X2985Y2043D02*
X3097Y2043D01*
X1988Y2042D02*
X2098Y2042D01*
X2985Y2042D02*
X3096Y2042D01*
X1988Y2041D02*
X2098Y2041D01*
X2986Y2041D02*
X3095Y2041D01*
X1989Y2040D02*
X2097Y2040D01*
X2986Y2040D02*
X3095Y2040D01*
X1990Y2039D02*
X2096Y2039D01*
X2987Y2039D02*
X3094Y2039D01*
X1991Y2038D02*
X2096Y2038D01*
X2988Y2038D02*
X3093Y2038D01*
X1991Y2037D02*
X2095Y2037D01*
X2989Y2037D02*
X3092Y2037D01*
X1992Y2036D02*
X2094Y2036D01*
X2990Y2036D02*
X3091Y2036D01*
X1994Y2035D02*
X2093Y2035D01*
X2991Y2035D02*
X3090Y2035D01*
X1995Y2034D02*
X2091Y2034D01*
X2992Y2034D02*
X3089Y2034D01*
X1996Y2033D02*
X2090Y2033D01*
X2994Y2033D02*
X3088Y2033D01*
X1997Y2032D02*
X2089Y2032D01*
X2995Y2032D02*
X3086Y2032D01*
X1999Y2031D02*
X2087Y2031D01*
X2997Y2031D02*
X3084Y2031D01*
X2001Y2030D02*
X2085Y2030D01*
X2998Y2030D02*
X3083Y2030D01*
X2003Y2029D02*
X2083Y2029D01*
X3001Y2029D02*
X3081Y2029D01*
X2006Y2028D02*
X2081Y2028D01*
X3003Y2028D02*
X3078Y2028D01*
X2009Y2027D02*
X2077Y2027D01*
X3006Y2027D02*
X3075Y2027D01*
X2014Y2026D02*
X2073Y2026D01*
X3011Y2026D02*
X3070Y2026D01*
X2011Y1997D02*
X2075Y1997D01*
X3009Y1997D02*
X3073Y1997D01*
X2007Y1996D02*
X2079Y1996D01*
X3005Y1996D02*
X3076Y1996D01*
X2004Y1995D02*
X2082Y1995D01*
X3002Y1995D02*
X3079Y1995D01*
X2002Y1994D02*
X2084Y1994D01*
X3000Y1994D02*
X3081Y1994D01*
X2000Y1993D02*
X2086Y1993D01*
X2998Y1993D02*
X3084Y1993D01*
X1998Y1992D02*
X2088Y1992D01*
X2996Y1992D02*
X3085Y1992D01*
X1997Y1991D02*
X2089Y1991D01*
X2994Y1991D02*
X3087Y1991D01*
X1995Y1990D02*
X2091Y1990D01*
X2993Y1990D02*
X3088Y1990D01*
X1994Y1989D02*
X2092Y1989D01*
X2992Y1989D02*
X3089Y1989D01*
X1993Y1988D02*
X2093Y1988D01*
X2991Y1988D02*
X3091Y1988D01*
X1992Y1987D02*
X2094Y1987D01*
X2990Y1987D02*
X3092Y1987D01*
X1991Y1986D02*
X2095Y1986D01*
X2989Y1986D02*
X3093Y1986D01*
X1990Y1985D02*
X2096Y1985D01*
X2988Y1985D02*
X3093Y1985D01*
X1989Y1984D02*
X2097Y1984D01*
X2987Y1984D02*
X3094Y1984D01*
X1989Y1983D02*
X2097Y1983D01*
X2986Y1983D02*
X3095Y1983D01*
X1988Y1982D02*
X2098Y1982D01*
X2985Y1982D02*
X3096Y1982D01*
X1987Y1981D02*
X2099Y1981D01*
X2985Y1981D02*
X3096Y1981D01*
X1987Y1980D02*
X2099Y1980D01*
X2984Y1980D02*
X3097Y1980D01*
X1986Y1979D02*
X2100Y1979D01*
X2984Y1979D02*
X3097Y1979D01*
X1986Y1978D02*
X2100Y1978D01*
X2983Y1978D02*
X3098Y1978D01*
X1985Y1977D02*
X2101Y1977D01*
X2983Y1977D02*
X3098Y1977D01*
X1985Y1976D02*
X2101Y1976D01*
X2982Y1976D02*
X3099Y1976D01*
X1984Y1975D02*
X2102Y1975D01*
X2982Y1975D02*
X3099Y1975D01*
X1984Y1974D02*
X2102Y1974D01*
X2981Y1974D02*
X3100Y1974D01*
X1984Y1973D02*
X2102Y1973D01*
X2981Y1973D02*
X3100Y1973D01*
X1983Y1972D02*
X2103Y1972D01*
X2981Y1972D02*
X3100Y1972D01*
X1983Y1971D02*
X2103Y1971D01*
X2980Y1971D02*
X3101Y1971D01*
X1983Y1970D02*
X2103Y1970D01*
X2980Y1970D02*
X3101Y1970D01*
X1982Y1969D02*
X2104Y1969D01*
X2980Y1969D02*
X3101Y1969D01*
X1982Y1968D02*
X2104Y1968D01*
X2980Y1968D02*
X3101Y1968D01*
X1982Y1967D02*
X2040Y1967D01*
X2046Y1967D02*
X2104Y1967D01*
X2980Y1967D02*
X3036Y1967D01*
X3043Y1967D02*
X3102Y1967D01*
X1982Y1966D02*
X2038Y1966D01*
X2048Y1966D02*
X2104Y1966D01*
X2979Y1966D02*
X3035Y1966D01*
X3045Y1966D02*
X3102Y1966D01*
X1982Y1965D02*
X2037Y1965D01*
X2049Y1965D02*
X2104Y1965D01*
X2979Y1965D02*
X3034Y1965D01*
X3045Y1965D02*
X3102Y1965D01*
X1982Y1964D02*
X2037Y1964D01*
X2049Y1964D02*
X2104Y1964D01*
X2979Y1964D02*
X3034Y1964D01*
X3046Y1964D02*
X3102Y1964D01*
X1982Y1963D02*
X2037Y1963D01*
X2050Y1963D02*
X2104Y1963D01*
X2979Y1963D02*
X3033Y1963D01*
X3046Y1963D02*
X3102Y1963D01*
X1982Y1962D02*
X2036Y1962D01*
X2050Y1962D02*
X2105Y1962D01*
X2979Y1962D02*
X3033Y1962D01*
X3046Y1962D02*
X3102Y1962D01*
X1982Y1961D02*
X2036Y1961D01*
X2050Y1961D02*
X2105Y1961D01*
X2979Y1961D02*
X3033Y1961D01*
X3046Y1961D02*
X3102Y1961D01*
X1982Y1960D02*
X2037Y1960D01*
X2050Y1960D02*
X2104Y1960D01*
X2979Y1960D02*
X3033Y1960D01*
X3046Y1960D02*
X3102Y1960D01*
X1982Y1959D02*
X2037Y1959D01*
X2049Y1959D02*
X2104Y1959D01*
X2979Y1959D02*
X3034Y1959D01*
X3046Y1959D02*
X3102Y1959D01*
X1982Y1958D02*
X2038Y1958D01*
X2048Y1958D02*
X2104Y1958D01*
X2979Y1958D02*
X3034Y1958D01*
X3045Y1958D02*
X3102Y1958D01*
X1982Y1957D02*
X2039Y1957D01*
X2048Y1957D02*
X2104Y1957D01*
X2979Y1957D02*
X3035Y1957D01*
X3044Y1957D02*
X3102Y1957D01*
X1982Y1956D02*
X2040Y1956D01*
X2046Y1956D02*
X2104Y1956D01*
X2980Y1956D02*
X3037Y1956D01*
X3043Y1956D02*
X3102Y1956D01*
X1982Y1955D02*
X2104Y1955D01*
X2980Y1955D02*
X3101Y1955D01*
X1983Y1954D02*
X2104Y1954D01*
X2980Y1954D02*
X3101Y1954D01*
X1983Y1953D02*
X2103Y1953D01*
X2980Y1953D02*
X3101Y1953D01*
X1983Y1952D02*
X2103Y1952D01*
X2981Y1952D02*
X3101Y1952D01*
X1983Y1951D02*
X2103Y1951D01*
X2981Y1951D02*
X3100Y1951D01*
X1984Y1950D02*
X2102Y1950D01*
X2981Y1950D02*
X3100Y1950D01*
X1984Y1949D02*
X2102Y1949D01*
X2982Y1949D02*
X3100Y1949D01*
X1984Y1948D02*
X2102Y1948D01*
X2982Y1948D02*
X3099Y1948D01*
X1985Y1947D02*
X2101Y1947D01*
X2982Y1947D02*
X3099Y1947D01*
X1985Y1946D02*
X2101Y1946D01*
X2983Y1946D02*
X3098Y1946D01*
X1986Y1945D02*
X2100Y1945D01*
X2983Y1945D02*
X3098Y1945D01*
X1986Y1944D02*
X2100Y1944D01*
X2984Y1944D02*
X3097Y1944D01*
X1987Y1943D02*
X2099Y1943D01*
X2985Y1943D02*
X3097Y1943D01*
X1988Y1942D02*
X2098Y1942D01*
X2985Y1942D02*
X3096Y1942D01*
X1988Y1941D02*
X2098Y1941D01*
X2986Y1941D02*
X3095Y1941D01*
X1989Y1940D02*
X2097Y1940D01*
X2987Y1940D02*
X3095Y1940D01*
X1990Y1939D02*
X2096Y1939D01*
X2987Y1939D02*
X3094Y1939D01*
X1991Y1938D02*
X2096Y1938D01*
X2988Y1938D02*
X3093Y1938D01*
X1991Y1937D02*
X2095Y1937D01*
X2989Y1937D02*
X3092Y1937D01*
X1992Y1936D02*
X2094Y1936D01*
X2990Y1936D02*
X3091Y1936D01*
X1994Y1935D02*
X2093Y1935D01*
X2991Y1935D02*
X3090Y1935D01*
X1995Y1934D02*
X2091Y1934D01*
X2992Y1934D02*
X3089Y1934D01*
X1996Y1933D02*
X2090Y1933D01*
X2994Y1933D02*
X3088Y1933D01*
X1997Y1932D02*
X2089Y1932D01*
X2995Y1932D02*
X3086Y1932D01*
X1999Y1931D02*
X2087Y1931D01*
X2997Y1931D02*
X3084Y1931D01*
X2001Y1930D02*
X2085Y1930D01*
X2998Y1930D02*
X3083Y1930D01*
X2003Y1929D02*
X2083Y1929D01*
X3001Y1929D02*
X3081Y1929D01*
X2006Y1928D02*
X2080Y1928D01*
X3003Y1928D02*
X3078Y1928D01*
X2009Y1927D02*
X2077Y1927D01*
X3006Y1927D02*
X3075Y1927D01*
X2014Y1926D02*
X2072Y1926D01*
X3011Y1926D02*
X3070Y1926D01*
X2011Y1897D02*
X2075Y1897D01*
X3009Y1897D02*
X3073Y1897D01*
X2007Y1896D02*
X2079Y1896D01*
X3005Y1896D02*
X3076Y1896D01*
X2004Y1895D02*
X2082Y1895D01*
X3002Y1895D02*
X3079Y1895D01*
X2002Y1894D02*
X2084Y1894D01*
X3000Y1894D02*
X3081Y1894D01*
X2000Y1893D02*
X2086Y1893D01*
X2998Y1893D02*
X3084Y1893D01*
X1998Y1892D02*
X2088Y1892D01*
X2996Y1892D02*
X3085Y1892D01*
X1997Y1891D02*
X2089Y1891D01*
X2994Y1891D02*
X3087Y1891D01*
X1995Y1890D02*
X2091Y1890D01*
X2993Y1890D02*
X3088Y1890D01*
X1994Y1889D02*
X2092Y1889D01*
X2992Y1889D02*
X3089Y1889D01*
X1993Y1888D02*
X2093Y1888D01*
X2991Y1888D02*
X3091Y1888D01*
X1992Y1887D02*
X2094Y1887D01*
X2989Y1887D02*
X3092Y1887D01*
X1991Y1886D02*
X2095Y1886D01*
X2989Y1886D02*
X3093Y1886D01*
X1990Y1885D02*
X2096Y1885D01*
X2988Y1885D02*
X3093Y1885D01*
X1989Y1884D02*
X2097Y1884D01*
X2987Y1884D02*
X3094Y1884D01*
X1989Y1883D02*
X2097Y1883D01*
X2986Y1883D02*
X3095Y1883D01*
X1988Y1882D02*
X2098Y1882D01*
X2985Y1882D02*
X3096Y1882D01*
X1987Y1881D02*
X2099Y1881D01*
X2985Y1881D02*
X3096Y1881D01*
X1987Y1880D02*
X2099Y1880D01*
X2984Y1880D02*
X3097Y1880D01*
X1986Y1879D02*
X2100Y1879D01*
X2984Y1879D02*
X3097Y1879D01*
X1986Y1878D02*
X2100Y1878D01*
X2983Y1878D02*
X3098Y1878D01*
X1985Y1877D02*
X2101Y1877D01*
X2983Y1877D02*
X3098Y1877D01*
X1985Y1876D02*
X2101Y1876D01*
X2982Y1876D02*
X3099Y1876D01*
X1984Y1875D02*
X2102Y1875D01*
X2982Y1875D02*
X3099Y1875D01*
X1984Y1874D02*
X2102Y1874D01*
X2981Y1874D02*
X3100Y1874D01*
X1984Y1873D02*
X2103Y1873D01*
X2981Y1873D02*
X3100Y1873D01*
X1983Y1872D02*
X2103Y1872D01*
X2981Y1872D02*
X3100Y1872D01*
X1983Y1871D02*
X2103Y1871D01*
X2980Y1871D02*
X3101Y1871D01*
X1983Y1870D02*
X2103Y1870D01*
X2980Y1870D02*
X3101Y1870D01*
X1982Y1869D02*
X2104Y1869D01*
X2980Y1869D02*
X3101Y1869D01*
X1982Y1868D02*
X2104Y1868D01*
X2980Y1868D02*
X3101Y1868D01*
X1982Y1867D02*
X2040Y1867D01*
X2046Y1867D02*
X2104Y1867D01*
X2980Y1867D02*
X3036Y1867D01*
X3043Y1867D02*
X3102Y1867D01*
X1982Y1866D02*
X2038Y1866D01*
X2048Y1866D02*
X2104Y1866D01*
X2979Y1866D02*
X3035Y1866D01*
X3045Y1866D02*
X3102Y1866D01*
X1982Y1865D02*
X2037Y1865D01*
X2049Y1865D02*
X2104Y1865D01*
X2979Y1865D02*
X3034Y1865D01*
X3045Y1865D02*
X3102Y1865D01*
X1982Y1864D02*
X2037Y1864D01*
X2049Y1864D02*
X2104Y1864D01*
X2979Y1864D02*
X3034Y1864D01*
X3046Y1864D02*
X3102Y1864D01*
X1982Y1863D02*
X2037Y1863D01*
X2050Y1863D02*
X2104Y1863D01*
X2979Y1863D02*
X3033Y1863D01*
X3046Y1863D02*
X3102Y1863D01*
X1982Y1862D02*
X2036Y1862D01*
X2050Y1862D02*
X2105Y1862D01*
X2979Y1862D02*
X3033Y1862D01*
X3046Y1862D02*
X3102Y1862D01*
X1982Y1861D02*
X2036Y1861D01*
X2050Y1861D02*
X2105Y1861D01*
X2979Y1861D02*
X3033Y1861D01*
X3046Y1861D02*
X3102Y1861D01*
X1982Y1860D02*
X2037Y1860D01*
X2050Y1860D02*
X2104Y1860D01*
X2979Y1860D02*
X3033Y1860D01*
X3046Y1860D02*
X3102Y1860D01*
X1982Y1859D02*
X2037Y1859D01*
X2049Y1859D02*
X2104Y1859D01*
X2979Y1859D02*
X3034Y1859D01*
X3046Y1859D02*
X3102Y1859D01*
X1982Y1858D02*
X2038Y1858D01*
X2048Y1858D02*
X2104Y1858D01*
X2979Y1858D02*
X3034Y1858D01*
X3045Y1858D02*
X3102Y1858D01*
X1982Y1857D02*
X2039Y1857D01*
X2047Y1857D02*
X2104Y1857D01*
X2979Y1857D02*
X3035Y1857D01*
X3044Y1857D02*
X3102Y1857D01*
X1982Y1856D02*
X2040Y1856D01*
X2046Y1856D02*
X2104Y1856D01*
X2980Y1856D02*
X3037Y1856D01*
X3042Y1856D02*
X3101Y1856D01*
X1982Y1855D02*
X2104Y1855D01*
X2980Y1855D02*
X3101Y1855D01*
X1983Y1854D02*
X2104Y1854D01*
X2980Y1854D02*
X3101Y1854D01*
X1983Y1853D02*
X2103Y1853D01*
X2980Y1853D02*
X3101Y1853D01*
X1983Y1852D02*
X2103Y1852D01*
X2981Y1852D02*
X3100Y1852D01*
X1983Y1851D02*
X2103Y1851D01*
X2981Y1851D02*
X3100Y1851D01*
X1984Y1850D02*
X2102Y1850D01*
X2981Y1850D02*
X3100Y1850D01*
X1984Y1849D02*
X2102Y1849D01*
X2982Y1849D02*
X3099Y1849D01*
X1985Y1848D02*
X2102Y1848D01*
X2982Y1848D02*
X3099Y1848D01*
X1985Y1847D02*
X2101Y1847D01*
X2982Y1847D02*
X3099Y1847D01*
X1985Y1846D02*
X2101Y1846D01*
X2983Y1846D02*
X3098Y1846D01*
X1986Y1845D02*
X2100Y1845D01*
X2983Y1845D02*
X3098Y1845D01*
X1986Y1844D02*
X2100Y1844D01*
X2984Y1844D02*
X3097Y1844D01*
X1987Y1843D02*
X2099Y1843D01*
X2985Y1843D02*
X3097Y1843D01*
X1988Y1842D02*
X2098Y1842D01*
X2985Y1842D02*
X3096Y1842D01*
X1988Y1841D02*
X2098Y1841D01*
X2986Y1841D02*
X3095Y1841D01*
X1989Y1840D02*
X2097Y1840D01*
X2987Y1840D02*
X3095Y1840D01*
X1990Y1839D02*
X2096Y1839D01*
X2987Y1839D02*
X3094Y1839D01*
X1991Y1838D02*
X2095Y1838D01*
X2988Y1838D02*
X3093Y1838D01*
X1991Y1837D02*
X2095Y1837D01*
X2989Y1837D02*
X3092Y1837D01*
X1992Y1836D02*
X2094Y1836D01*
X2990Y1836D02*
X3091Y1836D01*
X1994Y1835D02*
X2093Y1835D01*
X2991Y1835D02*
X3090Y1835D01*
X1995Y1834D02*
X2091Y1834D01*
X2992Y1834D02*
X3089Y1834D01*
X1996Y1833D02*
X2090Y1833D01*
X2994Y1833D02*
X3087Y1833D01*
X1998Y1832D02*
X2089Y1832D01*
X2995Y1832D02*
X3086Y1832D01*
X1999Y1831D02*
X2087Y1831D01*
X2997Y1831D02*
X3084Y1831D01*
X2001Y1830D02*
X2085Y1830D01*
X2999Y1830D02*
X3083Y1830D01*
X2003Y1829D02*
X2083Y1829D01*
X3001Y1829D02*
X3080Y1829D01*
X2006Y1828D02*
X2080Y1828D01*
X3003Y1828D02*
X3078Y1828D01*
X2009Y1827D02*
X2077Y1827D01*
X3006Y1827D02*
X3075Y1827D01*
X2014Y1826D02*
X2072Y1826D01*
X3011Y1826D02*
X3070Y1826D01*
X2011Y1797D02*
X2075Y1797D01*
X3008Y1797D02*
X3073Y1797D01*
X2007Y1796D02*
X2079Y1796D01*
X3005Y1796D02*
X3077Y1796D01*
X2004Y1795D02*
X2082Y1795D01*
X3002Y1795D02*
X3079Y1795D01*
X2002Y1794D02*
X2084Y1794D01*
X3000Y1794D02*
X3082Y1794D01*
X2000Y1793D02*
X2086Y1793D01*
X2998Y1793D02*
X3084Y1793D01*
X1998Y1792D02*
X2088Y1792D01*
X2996Y1792D02*
X3085Y1792D01*
X1997Y1791D02*
X2089Y1791D01*
X2994Y1791D02*
X3087Y1791D01*
X1995Y1790D02*
X2091Y1790D01*
X2993Y1790D02*
X3088Y1790D01*
X1994Y1789D02*
X2092Y1789D01*
X2992Y1789D02*
X3090Y1789D01*
X1993Y1788D02*
X2093Y1788D01*
X2991Y1788D02*
X3091Y1788D01*
X1992Y1787D02*
X2094Y1787D01*
X2989Y1787D02*
X3092Y1787D01*
X1991Y1786D02*
X2095Y1786D01*
X2989Y1786D02*
X3093Y1786D01*
X1990Y1785D02*
X2096Y1785D01*
X2988Y1785D02*
X3094Y1785D01*
X1989Y1784D02*
X2097Y1784D01*
X2987Y1784D02*
X3094Y1784D01*
X1989Y1783D02*
X2097Y1783D01*
X2986Y1783D02*
X3095Y1783D01*
X1988Y1782D02*
X2098Y1782D01*
X2985Y1782D02*
X3096Y1782D01*
X1987Y1781D02*
X2099Y1781D01*
X2985Y1781D02*
X3096Y1781D01*
X1987Y1780D02*
X2099Y1780D01*
X2984Y1780D02*
X3097Y1780D01*
X1986Y1779D02*
X2100Y1779D01*
X2984Y1779D02*
X3097Y1779D01*
X1986Y1778D02*
X2100Y1778D01*
X2983Y1778D02*
X3098Y1778D01*
X1985Y1777D02*
X2101Y1777D01*
X2983Y1777D02*
X3098Y1777D01*
X1985Y1776D02*
X2101Y1776D01*
X2982Y1776D02*
X3099Y1776D01*
X1984Y1775D02*
X2102Y1775D01*
X2982Y1775D02*
X3099Y1775D01*
X1984Y1774D02*
X2102Y1774D01*
X2981Y1774D02*
X3100Y1774D01*
X1984Y1773D02*
X2103Y1773D01*
X2981Y1773D02*
X3100Y1773D01*
X1983Y1772D02*
X2103Y1772D01*
X2981Y1772D02*
X3100Y1772D01*
X1983Y1771D02*
X2103Y1771D01*
X2980Y1771D02*
X3101Y1771D01*
X1983Y1770D02*
X2103Y1770D01*
X2980Y1770D02*
X3101Y1770D01*
X1982Y1769D02*
X2104Y1769D01*
X2980Y1769D02*
X3101Y1769D01*
X1982Y1768D02*
X2104Y1768D01*
X2980Y1768D02*
X3101Y1768D01*
X1982Y1767D02*
X2039Y1767D01*
X2047Y1767D02*
X2104Y1767D01*
X2980Y1767D02*
X3036Y1767D01*
X3043Y1767D02*
X3102Y1767D01*
X1982Y1766D02*
X2038Y1766D01*
X2048Y1766D02*
X2104Y1766D01*
X2979Y1766D02*
X3035Y1766D01*
X3045Y1766D02*
X3102Y1766D01*
X1982Y1765D02*
X2037Y1765D01*
X2049Y1765D02*
X2104Y1765D01*
X2979Y1765D02*
X3034Y1765D01*
X3046Y1765D02*
X3102Y1765D01*
X1982Y1764D02*
X2037Y1764D01*
X2049Y1764D02*
X2104Y1764D01*
X2979Y1764D02*
X3033Y1764D01*
X3046Y1764D02*
X3102Y1764D01*
X1982Y1763D02*
X2036Y1763D01*
X2050Y1763D02*
X2104Y1763D01*
X2979Y1763D02*
X3033Y1763D01*
X3047Y1763D02*
X3102Y1763D01*
X1982Y1762D02*
X2036Y1762D01*
X2050Y1762D02*
X2105Y1762D01*
X2979Y1762D02*
X3033Y1762D01*
X3047Y1762D02*
X3102Y1762D01*
X1982Y1761D02*
X2036Y1761D01*
X2050Y1761D02*
X2105Y1761D01*
X2979Y1761D02*
X3033Y1761D01*
X3047Y1761D02*
X3102Y1761D01*
X1982Y1760D02*
X2036Y1760D01*
X2050Y1760D02*
X2104Y1760D01*
X2979Y1760D02*
X3033Y1760D01*
X3046Y1760D02*
X3102Y1760D01*
X1982Y1759D02*
X2037Y1759D01*
X2049Y1759D02*
X2104Y1759D01*
X2979Y1759D02*
X3034Y1759D01*
X3046Y1759D02*
X3102Y1759D01*
X1982Y1758D02*
X2038Y1758D01*
X2049Y1758D02*
X2104Y1758D01*
X2979Y1758D02*
X3034Y1758D01*
X3045Y1758D02*
X3102Y1758D01*
X1982Y1757D02*
X2039Y1757D01*
X2048Y1757D02*
X2104Y1757D01*
X2979Y1757D02*
X3035Y1757D01*
X3044Y1757D02*
X3102Y1757D01*
X1982Y1756D02*
X2040Y1756D01*
X2046Y1756D02*
X2104Y1756D01*
X2980Y1756D02*
X3037Y1756D01*
X3043Y1756D02*
X3102Y1756D01*
X1982Y1755D02*
X2104Y1755D01*
X2980Y1755D02*
X3101Y1755D01*
X1983Y1754D02*
X2104Y1754D01*
X2980Y1754D02*
X3101Y1754D01*
X1983Y1753D02*
X2103Y1753D01*
X2980Y1753D02*
X3101Y1753D01*
X1983Y1752D02*
X2103Y1752D01*
X2981Y1752D02*
X3101Y1752D01*
X1983Y1751D02*
X2103Y1751D01*
X2981Y1751D02*
X3100Y1751D01*
X1984Y1750D02*
X2102Y1750D01*
X2981Y1750D02*
X3100Y1750D01*
X1984Y1749D02*
X2102Y1749D01*
X2982Y1749D02*
X3100Y1749D01*
X1985Y1748D02*
X2102Y1748D01*
X2982Y1748D02*
X3099Y1748D01*
X1985Y1747D02*
X2101Y1747D01*
X2982Y1747D02*
X3099Y1747D01*
X1985Y1746D02*
X2101Y1746D01*
X2983Y1746D02*
X3098Y1746D01*
X1986Y1745D02*
X2100Y1745D01*
X2983Y1745D02*
X3098Y1745D01*
X1986Y1744D02*
X2100Y1744D01*
X2984Y1744D02*
X3097Y1744D01*
X1987Y1743D02*
X2099Y1743D01*
X2985Y1743D02*
X3097Y1743D01*
X1988Y1742D02*
X2098Y1742D01*
X2985Y1742D02*
X3096Y1742D01*
X1988Y1741D02*
X2098Y1741D01*
X2986Y1741D02*
X3095Y1741D01*
X1989Y1740D02*
X2097Y1740D01*
X2987Y1740D02*
X3095Y1740D01*
X1990Y1739D02*
X2096Y1739D01*
X2987Y1739D02*
X3094Y1739D01*
X1991Y1738D02*
X2095Y1738D01*
X2988Y1738D02*
X3093Y1738D01*
X1991Y1737D02*
X2095Y1737D01*
X2989Y1737D02*
X3092Y1737D01*
X1992Y1736D02*
X2094Y1736D01*
X2990Y1736D02*
X3091Y1736D01*
X1994Y1735D02*
X2092Y1735D01*
X2991Y1735D02*
X3090Y1735D01*
X1995Y1734D02*
X2091Y1734D01*
X2992Y1734D02*
X3089Y1734D01*
X1996Y1733D02*
X2090Y1733D01*
X2994Y1733D02*
X3088Y1733D01*
X1998Y1732D02*
X2089Y1732D01*
X2995Y1732D02*
X3086Y1732D01*
X1999Y1731D02*
X2087Y1731D01*
X2997Y1731D02*
X3084Y1731D01*
X2001Y1730D02*
X2085Y1730D01*
X2999Y1730D02*
X3083Y1730D01*
X2003Y1729D02*
X2083Y1729D01*
X3001Y1729D02*
X3080Y1729D01*
X2006Y1728D02*
X2080Y1728D01*
X3003Y1728D02*
X3078Y1728D01*
X2009Y1727D02*
X2077Y1727D01*
X3006Y1727D02*
X3075Y1727D01*
X2014Y1726D02*
X2072Y1726D01*
X3012Y1726D02*
X3070Y1726D01*
X2010Y1697D02*
X2074Y1697D01*
X3008Y1697D02*
X3073Y1697D01*
X2006Y1696D02*
X2078Y1696D01*
X3005Y1696D02*
X3077Y1696D01*
X2003Y1695D02*
X2081Y1695D01*
X3002Y1695D02*
X3079Y1695D01*
X2001Y1694D02*
X2083Y1694D01*
X3000Y1694D02*
X3082Y1694D01*
X1999Y1693D02*
X2085Y1693D01*
X2998Y1693D02*
X3084Y1693D01*
X1997Y1692D02*
X2087Y1692D01*
X2996Y1692D02*
X3085Y1692D01*
X1996Y1691D02*
X2088Y1691D01*
X2994Y1691D02*
X3087Y1691D01*
X1994Y1690D02*
X2090Y1690D01*
X2993Y1690D02*
X3088Y1690D01*
X1993Y1689D02*
X2091Y1689D01*
X2992Y1689D02*
X3089Y1689D01*
X1992Y1688D02*
X2092Y1688D01*
X2990Y1688D02*
X3091Y1688D01*
X1991Y1687D02*
X2093Y1687D01*
X2989Y1687D02*
X3092Y1687D01*
X1990Y1686D02*
X2094Y1686D01*
X2989Y1686D02*
X3093Y1686D01*
X1989Y1685D02*
X2095Y1685D01*
X2988Y1685D02*
X3093Y1685D01*
X1988Y1684D02*
X2096Y1684D01*
X2987Y1684D02*
X3094Y1684D01*
X1988Y1683D02*
X2096Y1683D01*
X2986Y1683D02*
X3095Y1683D01*
X1987Y1682D02*
X2097Y1682D01*
X2985Y1682D02*
X3096Y1682D01*
X1986Y1681D02*
X2098Y1681D01*
X2985Y1681D02*
X3096Y1681D01*
X1986Y1680D02*
X2098Y1680D01*
X2984Y1680D02*
X3097Y1680D01*
X1985Y1679D02*
X2099Y1679D01*
X2984Y1679D02*
X3097Y1679D01*
X1985Y1678D02*
X2099Y1678D01*
X2983Y1678D02*
X3098Y1678D01*
X1984Y1677D02*
X2100Y1677D01*
X2983Y1677D02*
X3098Y1677D01*
X1984Y1676D02*
X2100Y1676D01*
X2982Y1676D02*
X3099Y1676D01*
X1983Y1675D02*
X2101Y1675D01*
X2982Y1675D02*
X3099Y1675D01*
X1983Y1674D02*
X2101Y1674D01*
X2981Y1674D02*
X3100Y1674D01*
X1983Y1673D02*
X2101Y1673D01*
X2981Y1673D02*
X3100Y1673D01*
X1982Y1672D02*
X2102Y1672D01*
X2981Y1672D02*
X3100Y1672D01*
X1982Y1671D02*
X2102Y1671D01*
X2980Y1671D02*
X3101Y1671D01*
X1982Y1670D02*
X2102Y1670D01*
X2980Y1670D02*
X3101Y1670D01*
X1981Y1669D02*
X2103Y1669D01*
X2980Y1669D02*
X3101Y1669D01*
X1981Y1668D02*
X2103Y1668D01*
X2980Y1668D02*
X3101Y1668D01*
X1981Y1667D02*
X2039Y1667D01*
X2045Y1667D02*
X2103Y1667D01*
X2980Y1667D02*
X3036Y1667D01*
X3043Y1667D02*
X3102Y1667D01*
X1981Y1666D02*
X2037Y1666D01*
X2047Y1666D02*
X2103Y1666D01*
X2979Y1666D02*
X3035Y1666D01*
X3044Y1666D02*
X3102Y1666D01*
X1981Y1665D02*
X2037Y1665D01*
X2048Y1665D02*
X2103Y1665D01*
X2979Y1665D02*
X3034Y1665D01*
X3045Y1665D02*
X3102Y1665D01*
X1981Y1664D02*
X2036Y1664D01*
X2048Y1664D02*
X2104Y1664D01*
X2979Y1664D02*
X3034Y1664D01*
X3046Y1664D02*
X3102Y1664D01*
X1981Y1663D02*
X2036Y1663D01*
X2048Y1663D02*
X2104Y1663D01*
X2979Y1663D02*
X3033Y1663D01*
X3046Y1663D02*
X3102Y1663D01*
X1981Y1662D02*
X2036Y1662D01*
X2049Y1662D02*
X2104Y1662D01*
X2979Y1662D02*
X3033Y1662D01*
X3046Y1662D02*
X3102Y1662D01*
X1981Y1661D02*
X2036Y1661D01*
X2049Y1661D02*
X2103Y1661D01*
X2979Y1661D02*
X3033Y1661D01*
X3046Y1661D02*
X3102Y1661D01*
X1981Y1660D02*
X2036Y1660D01*
X2048Y1660D02*
X2103Y1660D01*
X2979Y1660D02*
X3033Y1660D01*
X3046Y1660D02*
X3102Y1660D01*
X1981Y1659D02*
X2036Y1659D01*
X2048Y1659D02*
X2103Y1659D01*
X2979Y1659D02*
X3034Y1659D01*
X3046Y1659D02*
X3102Y1659D01*
X1981Y1658D02*
X2037Y1658D01*
X2047Y1658D02*
X2103Y1658D01*
X2979Y1658D02*
X3035Y1658D01*
X3045Y1658D02*
X3102Y1658D01*
X1981Y1657D02*
X2038Y1657D01*
X2046Y1657D02*
X2103Y1657D01*
X2980Y1657D02*
X3036Y1657D01*
X3044Y1657D02*
X3102Y1657D01*
X1981Y1656D02*
X2039Y1656D01*
X2045Y1656D02*
X2103Y1656D01*
X2980Y1656D02*
X3037Y1656D01*
X3042Y1656D02*
X3101Y1656D01*
X1981Y1655D02*
X2103Y1655D01*
X2980Y1655D02*
X3101Y1655D01*
X1982Y1654D02*
X2102Y1654D01*
X2980Y1654D02*
X3101Y1654D01*
X1982Y1653D02*
X2102Y1653D01*
X2980Y1653D02*
X3101Y1653D01*
X1982Y1652D02*
X2102Y1652D01*
X2981Y1652D02*
X3100Y1652D01*
X1982Y1651D02*
X2102Y1651D01*
X2981Y1651D02*
X3100Y1651D01*
X1983Y1650D02*
X2101Y1650D01*
X2981Y1650D02*
X3100Y1650D01*
X1983Y1649D02*
X2101Y1649D01*
X2982Y1649D02*
X3099Y1649D01*
X1983Y1648D02*
X2101Y1648D01*
X2982Y1648D02*
X3099Y1648D01*
X1984Y1647D02*
X2100Y1647D01*
X2982Y1647D02*
X3099Y1647D01*
X1984Y1646D02*
X2100Y1646D01*
X2983Y1646D02*
X3098Y1646D01*
X1985Y1645D02*
X2099Y1645D01*
X2983Y1645D02*
X3098Y1645D01*
X1985Y1644D02*
X2099Y1644D01*
X2984Y1644D02*
X3097Y1644D01*
X1986Y1643D02*
X2098Y1643D01*
X2985Y1643D02*
X3097Y1643D01*
X1987Y1642D02*
X2097Y1642D01*
X2985Y1642D02*
X3096Y1642D01*
X1987Y1641D02*
X2097Y1641D01*
X2986Y1641D02*
X3095Y1641D01*
X1988Y1640D02*
X2096Y1640D01*
X2987Y1640D02*
X3095Y1640D01*
X1989Y1639D02*
X2095Y1639D01*
X2987Y1639D02*
X3094Y1639D01*
X1990Y1638D02*
X2094Y1638D01*
X2988Y1638D02*
X3093Y1638D01*
X1991Y1637D02*
X2094Y1637D01*
X2989Y1637D02*
X3092Y1637D01*
X1991Y1636D02*
X2093Y1636D01*
X2990Y1636D02*
X3091Y1636D01*
X1993Y1635D02*
X2091Y1635D01*
X2991Y1635D02*
X3090Y1635D01*
X1994Y1634D02*
X2090Y1634D01*
X2992Y1634D02*
X3089Y1634D01*
X1995Y1633D02*
X2089Y1633D01*
X2994Y1633D02*
X3087Y1633D01*
X1997Y1632D02*
X2087Y1632D01*
X2995Y1632D02*
X3086Y1632D01*
X1998Y1631D02*
X2086Y1631D01*
X2997Y1631D02*
X3084Y1631D01*
X2000Y1630D02*
X2084Y1630D01*
X2999Y1630D02*
X3082Y1630D01*
X2002Y1629D02*
X2082Y1629D01*
X3001Y1629D02*
X3080Y1629D01*
X2005Y1628D02*
X2079Y1628D01*
X3003Y1628D02*
X3078Y1628D01*
X2008Y1627D02*
X2076Y1627D01*
X3007Y1627D02*
X3075Y1627D01*
X2013Y1626D02*
X2071Y1626D01*
X3012Y1626D02*
X3069Y1626D01*
X205Y1599D02*
X279Y1599D01*
X205Y1598D02*
X279Y1598D01*
X205Y1597D02*
X279Y1597D01*
X2011Y1597D02*
X2075Y1597D01*
X3008Y1597D02*
X3073Y1597D01*
X205Y1596D02*
X279Y1596D01*
X2007Y1596D02*
X2079Y1596D01*
X3004Y1596D02*
X3077Y1596D01*
X205Y1595D02*
X279Y1595D01*
X2004Y1595D02*
X2082Y1595D01*
X3002Y1595D02*
X3079Y1595D01*
X205Y1594D02*
X279Y1594D01*
X2002Y1594D02*
X2084Y1594D01*
X2999Y1594D02*
X3082Y1594D01*
X205Y1593D02*
X279Y1593D01*
X2000Y1593D02*
X2086Y1593D01*
X2997Y1593D02*
X3084Y1593D01*
X205Y1592D02*
X279Y1592D01*
X1998Y1592D02*
X2088Y1592D01*
X2996Y1592D02*
X3085Y1592D01*
X205Y1591D02*
X279Y1591D01*
X1997Y1591D02*
X2089Y1591D01*
X2994Y1591D02*
X3087Y1591D01*
X205Y1590D02*
X279Y1590D01*
X1995Y1590D02*
X2091Y1590D01*
X2993Y1590D02*
X3088Y1590D01*
X205Y1589D02*
X279Y1589D01*
X1994Y1589D02*
X2092Y1589D01*
X2992Y1589D02*
X3090Y1589D01*
X205Y1588D02*
X279Y1588D01*
X1993Y1588D02*
X2093Y1588D01*
X2990Y1588D02*
X3091Y1588D01*
X205Y1587D02*
X279Y1587D01*
X1992Y1587D02*
X2094Y1587D01*
X2989Y1587D02*
X3092Y1587D01*
X205Y1586D02*
X279Y1586D01*
X1991Y1586D02*
X2095Y1586D01*
X2989Y1586D02*
X3093Y1586D01*
X205Y1585D02*
X279Y1585D01*
X1990Y1585D02*
X2096Y1585D01*
X2988Y1585D02*
X3093Y1585D01*
X205Y1584D02*
X279Y1584D01*
X1989Y1584D02*
X2097Y1584D01*
X2987Y1584D02*
X3094Y1584D01*
X205Y1583D02*
X279Y1583D01*
X1989Y1583D02*
X2097Y1583D01*
X2986Y1583D02*
X3095Y1583D01*
X205Y1582D02*
X279Y1582D01*
X1988Y1582D02*
X2098Y1582D01*
X2985Y1582D02*
X3096Y1582D01*
X205Y1581D02*
X279Y1581D01*
X1987Y1581D02*
X2099Y1581D01*
X2985Y1581D02*
X3096Y1581D01*
X205Y1580D02*
X279Y1580D01*
X1987Y1580D02*
X2099Y1580D01*
X2984Y1580D02*
X3097Y1580D01*
X205Y1579D02*
X279Y1579D01*
X1986Y1579D02*
X2100Y1579D01*
X2984Y1579D02*
X3097Y1579D01*
X205Y1578D02*
X279Y1578D01*
X1986Y1578D02*
X2100Y1578D01*
X2983Y1578D02*
X3098Y1578D01*
X205Y1577D02*
X279Y1577D01*
X1985Y1577D02*
X2101Y1577D01*
X2983Y1577D02*
X3098Y1577D01*
X205Y1576D02*
X279Y1576D01*
X1985Y1576D02*
X2101Y1576D01*
X2982Y1576D02*
X3099Y1576D01*
X205Y1575D02*
X279Y1575D01*
X1984Y1575D02*
X2102Y1575D01*
X2982Y1575D02*
X3099Y1575D01*
X205Y1574D02*
X279Y1574D01*
X1984Y1574D02*
X2102Y1574D01*
X2981Y1574D02*
X3100Y1574D01*
X205Y1573D02*
X279Y1573D01*
X1984Y1573D02*
X2103Y1573D01*
X2981Y1573D02*
X3100Y1573D01*
X205Y1572D02*
X279Y1572D01*
X1983Y1572D02*
X2103Y1572D01*
X2981Y1572D02*
X3100Y1572D01*
X205Y1571D02*
X279Y1571D01*
X1983Y1571D02*
X2103Y1571D01*
X2980Y1571D02*
X3101Y1571D01*
X205Y1570D02*
X238Y1570D01*
X245Y1570D02*
X279Y1570D01*
X1983Y1570D02*
X2103Y1570D01*
X2980Y1570D02*
X3101Y1570D01*
X205Y1569D02*
X236Y1569D01*
X247Y1569D02*
X279Y1569D01*
X1982Y1569D02*
X2104Y1569D01*
X2980Y1569D02*
X3101Y1569D01*
X205Y1568D02*
X235Y1568D01*
X249Y1568D02*
X279Y1568D01*
X1982Y1568D02*
X2104Y1568D01*
X2980Y1568D02*
X3101Y1568D01*
X205Y1567D02*
X234Y1567D01*
X249Y1567D02*
X279Y1567D01*
X1982Y1567D02*
X2040Y1567D01*
X2047Y1567D02*
X2104Y1567D01*
X2980Y1567D02*
X3036Y1567D01*
X3043Y1567D02*
X3102Y1567D01*
X205Y1566D02*
X233Y1566D01*
X250Y1566D02*
X279Y1566D01*
X1982Y1566D02*
X2038Y1566D01*
X2048Y1566D02*
X2104Y1566D01*
X2979Y1566D02*
X3035Y1566D01*
X3044Y1566D02*
X3102Y1566D01*
X205Y1565D02*
X233Y1565D01*
X250Y1565D02*
X279Y1565D01*
X1982Y1565D02*
X2038Y1565D01*
X2049Y1565D02*
X2104Y1565D01*
X2979Y1565D02*
X3034Y1565D01*
X3045Y1565D02*
X3102Y1565D01*
X205Y1564D02*
X233Y1564D01*
X251Y1564D02*
X279Y1564D01*
X1982Y1564D02*
X2037Y1564D01*
X2049Y1564D02*
X2104Y1564D01*
X2979Y1564D02*
X3034Y1564D01*
X3046Y1564D02*
X3102Y1564D01*
X205Y1563D02*
X233Y1563D01*
X251Y1563D02*
X279Y1563D01*
X1982Y1563D02*
X2037Y1563D01*
X2050Y1563D02*
X2104Y1563D01*
X2979Y1563D02*
X3033Y1563D01*
X3046Y1563D02*
X3102Y1563D01*
X205Y1562D02*
X232Y1562D01*
X251Y1562D02*
X279Y1562D01*
X1982Y1562D02*
X2037Y1562D01*
X2050Y1562D02*
X2105Y1562D01*
X2979Y1562D02*
X3033Y1562D01*
X3046Y1562D02*
X3102Y1562D01*
X205Y1561D02*
X232Y1561D01*
X251Y1561D02*
X279Y1561D01*
X1982Y1561D02*
X2037Y1561D01*
X2050Y1561D02*
X2105Y1561D01*
X2979Y1561D02*
X3033Y1561D01*
X3046Y1561D02*
X3102Y1561D01*
X205Y1560D02*
X233Y1560D01*
X251Y1560D02*
X279Y1560D01*
X1982Y1560D02*
X2037Y1560D01*
X2049Y1560D02*
X2104Y1560D01*
X2979Y1560D02*
X3033Y1560D01*
X3046Y1560D02*
X3102Y1560D01*
X205Y1559D02*
X233Y1559D01*
X251Y1559D02*
X279Y1559D01*
X1982Y1559D02*
X2037Y1559D01*
X2049Y1559D02*
X2104Y1559D01*
X2979Y1559D02*
X3034Y1559D01*
X3046Y1559D02*
X3102Y1559D01*
X205Y1558D02*
X233Y1558D01*
X250Y1558D02*
X279Y1558D01*
X1982Y1558D02*
X2038Y1558D01*
X2048Y1558D02*
X2104Y1558D01*
X2979Y1558D02*
X3035Y1558D01*
X3045Y1558D02*
X3102Y1558D01*
X205Y1557D02*
X234Y1557D01*
X250Y1557D02*
X279Y1557D01*
X1982Y1557D02*
X2039Y1557D01*
X2047Y1557D02*
X2104Y1557D01*
X2980Y1557D02*
X3036Y1557D01*
X3044Y1557D02*
X3102Y1557D01*
X205Y1556D02*
X235Y1556D01*
X249Y1556D02*
X279Y1556D01*
X1982Y1556D02*
X2040Y1556D01*
X2046Y1556D02*
X2104Y1556D01*
X2980Y1556D02*
X3037Y1556D01*
X3042Y1556D02*
X3101Y1556D01*
X205Y1555D02*
X236Y1555D01*
X248Y1555D02*
X279Y1555D01*
X1982Y1555D02*
X2104Y1555D01*
X2980Y1555D02*
X3101Y1555D01*
X205Y1554D02*
X237Y1554D01*
X246Y1554D02*
X279Y1554D01*
X1983Y1554D02*
X2104Y1554D01*
X2980Y1554D02*
X3101Y1554D01*
X205Y1553D02*
X240Y1553D01*
X243Y1553D02*
X279Y1553D01*
X1983Y1553D02*
X2103Y1553D01*
X2980Y1553D02*
X3101Y1553D01*
X205Y1552D02*
X279Y1552D01*
X1983Y1552D02*
X2103Y1552D01*
X2981Y1552D02*
X3100Y1552D01*
X205Y1551D02*
X279Y1551D01*
X1983Y1551D02*
X2103Y1551D01*
X2981Y1551D02*
X3100Y1551D01*
X205Y1550D02*
X279Y1550D01*
X1984Y1550D02*
X2102Y1550D01*
X2981Y1550D02*
X3100Y1550D01*
X205Y1549D02*
X279Y1549D01*
X1984Y1549D02*
X2102Y1549D01*
X2982Y1549D02*
X3099Y1549D01*
X205Y1548D02*
X279Y1548D01*
X1985Y1548D02*
X2102Y1548D01*
X2982Y1548D02*
X3099Y1548D01*
X205Y1547D02*
X279Y1547D01*
X1985Y1547D02*
X2101Y1547D01*
X2983Y1547D02*
X3099Y1547D01*
X205Y1546D02*
X279Y1546D01*
X1985Y1546D02*
X2101Y1546D01*
X2983Y1546D02*
X3098Y1546D01*
X205Y1545D02*
X279Y1545D01*
X1986Y1545D02*
X2100Y1545D01*
X2983Y1545D02*
X3098Y1545D01*
X205Y1544D02*
X279Y1544D01*
X1986Y1544D02*
X2100Y1544D01*
X2984Y1544D02*
X3097Y1544D01*
X205Y1543D02*
X279Y1543D01*
X1987Y1543D02*
X2099Y1543D01*
X2985Y1543D02*
X3097Y1543D01*
X205Y1542D02*
X279Y1542D01*
X1988Y1542D02*
X2098Y1542D01*
X2985Y1542D02*
X3096Y1542D01*
X205Y1541D02*
X279Y1541D01*
X1988Y1541D02*
X2098Y1541D01*
X2986Y1541D02*
X3095Y1541D01*
X205Y1540D02*
X279Y1540D01*
X1989Y1540D02*
X2097Y1540D01*
X2987Y1540D02*
X3095Y1540D01*
X205Y1539D02*
X279Y1539D01*
X1990Y1539D02*
X2096Y1539D01*
X2987Y1539D02*
X3094Y1539D01*
X205Y1538D02*
X279Y1538D01*
X1991Y1538D02*
X2095Y1538D01*
X2988Y1538D02*
X3093Y1538D01*
X205Y1537D02*
X279Y1537D01*
X1992Y1537D02*
X2095Y1537D01*
X2989Y1537D02*
X3092Y1537D01*
X205Y1536D02*
X279Y1536D01*
X1993Y1536D02*
X2094Y1536D01*
X2990Y1536D02*
X3091Y1536D01*
X205Y1535D02*
X279Y1535D01*
X1994Y1535D02*
X2092Y1535D01*
X2991Y1535D02*
X3090Y1535D01*
X205Y1534D02*
X279Y1534D01*
X1995Y1534D02*
X2091Y1534D01*
X2992Y1534D02*
X3089Y1534D01*
X205Y1533D02*
X279Y1533D01*
X1996Y1533D02*
X2090Y1533D01*
X2994Y1533D02*
X3087Y1533D01*
X205Y1532D02*
X279Y1532D01*
X1998Y1532D02*
X2088Y1532D01*
X2995Y1532D02*
X3086Y1532D01*
X205Y1531D02*
X279Y1531D01*
X1999Y1531D02*
X2087Y1531D01*
X2997Y1531D02*
X3084Y1531D01*
X205Y1530D02*
X279Y1530D01*
X2001Y1530D02*
X2085Y1530D01*
X2999Y1530D02*
X3082Y1530D01*
X205Y1529D02*
X279Y1529D01*
X2003Y1529D02*
X2083Y1529D01*
X3001Y1529D02*
X3080Y1529D01*
X205Y1528D02*
X279Y1528D01*
X2006Y1528D02*
X2080Y1528D01*
X3003Y1528D02*
X3078Y1528D01*
X205Y1527D02*
X279Y1527D01*
X2009Y1527D02*
X2077Y1527D01*
X3007Y1527D02*
X3074Y1527D01*
X205Y1526D02*
X279Y1526D01*
X2015Y1526D02*
X2072Y1526D01*
X3012Y1526D02*
X3069Y1526D01*
X205Y1525D02*
X279Y1525D01*
X2011Y1497D02*
X2076Y1497D01*
X3008Y1497D02*
X3073Y1497D01*
X2007Y1496D02*
X2079Y1496D01*
X3004Y1496D02*
X3077Y1496D01*
X2004Y1495D02*
X2082Y1495D01*
X3002Y1495D02*
X3079Y1495D01*
X2002Y1494D02*
X2084Y1494D01*
X2999Y1494D02*
X3082Y1494D01*
X2000Y1493D02*
X2086Y1493D01*
X2997Y1493D02*
X3084Y1493D01*
X1998Y1492D02*
X2088Y1492D01*
X2996Y1492D02*
X3085Y1492D01*
X1997Y1491D02*
X2089Y1491D01*
X2994Y1491D02*
X3087Y1491D01*
X1995Y1490D02*
X2091Y1490D01*
X2993Y1490D02*
X3088Y1490D01*
X1994Y1489D02*
X2092Y1489D01*
X2992Y1489D02*
X3090Y1489D01*
X1993Y1488D02*
X2093Y1488D01*
X2990Y1488D02*
X3091Y1488D01*
X1992Y1487D02*
X2094Y1487D01*
X2989Y1487D02*
X3092Y1487D01*
X1991Y1486D02*
X2095Y1486D01*
X2988Y1486D02*
X3093Y1486D01*
X1990Y1485D02*
X2096Y1485D01*
X2988Y1485D02*
X3093Y1485D01*
X1989Y1484D02*
X2097Y1484D01*
X2987Y1484D02*
X3094Y1484D01*
X1989Y1483D02*
X2097Y1483D01*
X2986Y1483D02*
X3095Y1483D01*
X1988Y1482D02*
X2098Y1482D01*
X2985Y1482D02*
X3096Y1482D01*
X1987Y1481D02*
X2099Y1481D01*
X2985Y1481D02*
X3096Y1481D01*
X1987Y1480D02*
X2099Y1480D01*
X2984Y1480D02*
X3097Y1480D01*
X1986Y1479D02*
X2100Y1479D01*
X2984Y1479D02*
X3097Y1479D01*
X1986Y1478D02*
X2100Y1478D01*
X2983Y1478D02*
X3098Y1478D01*
X1985Y1477D02*
X2101Y1477D01*
X2983Y1477D02*
X3098Y1477D01*
X1985Y1476D02*
X2101Y1476D01*
X2982Y1476D02*
X3099Y1476D01*
X1984Y1475D02*
X2102Y1475D01*
X2982Y1475D02*
X3099Y1475D01*
X1984Y1474D02*
X2102Y1474D01*
X2981Y1474D02*
X3100Y1474D01*
X1984Y1473D02*
X2103Y1473D01*
X2981Y1473D02*
X3100Y1473D01*
X1983Y1472D02*
X2103Y1472D01*
X2981Y1472D02*
X3100Y1472D01*
X1983Y1471D02*
X2103Y1471D01*
X2980Y1471D02*
X3101Y1471D01*
X1983Y1470D02*
X2103Y1470D01*
X2980Y1470D02*
X3101Y1470D01*
X1982Y1469D02*
X2104Y1469D01*
X2980Y1469D02*
X3101Y1469D01*
X1982Y1468D02*
X2104Y1468D01*
X2980Y1468D02*
X3101Y1468D01*
X1982Y1467D02*
X2040Y1467D01*
X2047Y1467D02*
X2104Y1467D01*
X2980Y1467D02*
X3036Y1467D01*
X3043Y1467D02*
X3102Y1467D01*
X1982Y1466D02*
X2038Y1466D01*
X2048Y1466D02*
X2104Y1466D01*
X2979Y1466D02*
X3035Y1466D01*
X3044Y1466D02*
X3102Y1466D01*
X1982Y1465D02*
X2038Y1465D01*
X2049Y1465D02*
X2104Y1465D01*
X2979Y1465D02*
X3034Y1465D01*
X3045Y1465D02*
X3102Y1465D01*
X1982Y1464D02*
X2037Y1464D01*
X2049Y1464D02*
X2104Y1464D01*
X2979Y1464D02*
X3034Y1464D01*
X3046Y1464D02*
X3102Y1464D01*
X1982Y1463D02*
X2037Y1463D01*
X2050Y1463D02*
X2104Y1463D01*
X2979Y1463D02*
X3033Y1463D01*
X3046Y1463D02*
X3102Y1463D01*
X1982Y1462D02*
X2037Y1462D01*
X2050Y1462D02*
X2105Y1462D01*
X2979Y1462D02*
X3033Y1462D01*
X3046Y1462D02*
X3102Y1462D01*
X1982Y1461D02*
X2037Y1461D01*
X2050Y1461D02*
X2104Y1461D01*
X2979Y1461D02*
X3033Y1461D01*
X3046Y1461D02*
X3102Y1461D01*
X1982Y1460D02*
X2037Y1460D01*
X2049Y1460D02*
X2104Y1460D01*
X2979Y1460D02*
X3033Y1460D01*
X3046Y1460D02*
X3102Y1460D01*
X1982Y1459D02*
X2037Y1459D01*
X2049Y1459D02*
X2104Y1459D01*
X2979Y1459D02*
X3034Y1459D01*
X3046Y1459D02*
X3102Y1459D01*
X1982Y1458D02*
X2038Y1458D01*
X2048Y1458D02*
X2104Y1458D01*
X2979Y1458D02*
X3035Y1458D01*
X3045Y1458D02*
X3102Y1458D01*
X1982Y1457D02*
X2039Y1457D01*
X2047Y1457D02*
X2104Y1457D01*
X2980Y1457D02*
X3036Y1457D01*
X3044Y1457D02*
X3102Y1457D01*
X1982Y1456D02*
X2041Y1456D01*
X2046Y1456D02*
X2104Y1456D01*
X2980Y1456D02*
X3037Y1456D01*
X3042Y1456D02*
X3101Y1456D01*
X1982Y1455D02*
X2104Y1455D01*
X2980Y1455D02*
X3101Y1455D01*
X1983Y1454D02*
X2103Y1454D01*
X2980Y1454D02*
X3101Y1454D01*
X1983Y1453D02*
X2103Y1453D01*
X2980Y1453D02*
X3101Y1453D01*
X1983Y1452D02*
X2103Y1452D01*
X2981Y1452D02*
X3100Y1452D01*
X1983Y1451D02*
X2103Y1451D01*
X2981Y1451D02*
X3100Y1451D01*
X1984Y1450D02*
X2102Y1450D01*
X2981Y1450D02*
X3100Y1450D01*
X1984Y1449D02*
X2102Y1449D01*
X2982Y1449D02*
X3099Y1449D01*
X1985Y1448D02*
X2102Y1448D01*
X2982Y1448D02*
X3099Y1448D01*
X1985Y1447D02*
X2101Y1447D01*
X2983Y1447D02*
X3099Y1447D01*
X1985Y1446D02*
X2101Y1446D01*
X2983Y1446D02*
X3098Y1446D01*
X1986Y1445D02*
X2100Y1445D01*
X2983Y1445D02*
X3098Y1445D01*
X1986Y1444D02*
X2100Y1444D01*
X2984Y1444D02*
X3097Y1444D01*
X1987Y1443D02*
X2099Y1443D01*
X2985Y1443D02*
X3096Y1443D01*
X1988Y1442D02*
X2098Y1442D01*
X2985Y1442D02*
X3096Y1442D01*
X1988Y1441D02*
X2098Y1441D01*
X2986Y1441D02*
X3095Y1441D01*
X1989Y1440D02*
X2097Y1440D01*
X2987Y1440D02*
X3095Y1440D01*
X1990Y1439D02*
X2096Y1439D01*
X2987Y1439D02*
X3094Y1439D01*
X1991Y1438D02*
X2095Y1438D01*
X2988Y1438D02*
X3093Y1438D01*
X1992Y1437D02*
X2095Y1437D01*
X2989Y1437D02*
X3092Y1437D01*
X1993Y1436D02*
X2094Y1436D01*
X2990Y1436D02*
X3091Y1436D01*
X1994Y1435D02*
X2092Y1435D01*
X2991Y1435D02*
X3090Y1435D01*
X1995Y1434D02*
X2091Y1434D01*
X2992Y1434D02*
X3089Y1434D01*
X1996Y1433D02*
X2090Y1433D01*
X2994Y1433D02*
X3087Y1433D01*
X1998Y1432D02*
X2088Y1432D01*
X2995Y1432D02*
X3086Y1432D01*
X1999Y1431D02*
X2087Y1431D01*
X2997Y1431D02*
X3084Y1431D01*
X2001Y1430D02*
X2085Y1430D01*
X2999Y1430D02*
X3082Y1430D01*
X2003Y1429D02*
X2083Y1429D01*
X3001Y1429D02*
X3080Y1429D01*
X2006Y1428D02*
X2080Y1428D01*
X3003Y1428D02*
X3078Y1428D01*
X2009Y1427D02*
X2077Y1427D01*
X3007Y1427D02*
X3074Y1427D01*
X2015Y1426D02*
X2071Y1426D01*
X3013Y1426D02*
X3069Y1426D01*
X2010Y1397D02*
X2076Y1397D01*
X3008Y1397D02*
X3073Y1397D01*
X2007Y1396D02*
X2079Y1396D01*
X3004Y1396D02*
X3077Y1396D01*
X2004Y1395D02*
X2082Y1395D01*
X3002Y1395D02*
X3080Y1395D01*
X2002Y1394D02*
X2084Y1394D01*
X2999Y1394D02*
X3082Y1394D01*
X2000Y1393D02*
X2086Y1393D01*
X2997Y1393D02*
X3084Y1393D01*
X1998Y1392D02*
X2088Y1392D01*
X2996Y1392D02*
X3085Y1392D01*
X1997Y1391D02*
X2089Y1391D01*
X2994Y1391D02*
X3087Y1391D01*
X1995Y1390D02*
X2091Y1390D01*
X2993Y1390D02*
X3088Y1390D01*
X1994Y1389D02*
X2092Y1389D01*
X2992Y1389D02*
X3090Y1389D01*
X1993Y1388D02*
X2093Y1388D01*
X2990Y1388D02*
X3091Y1388D01*
X1992Y1387D02*
X2094Y1387D01*
X2989Y1387D02*
X3092Y1387D01*
X1991Y1386D02*
X2095Y1386D01*
X2988Y1386D02*
X3093Y1386D01*
X1990Y1385D02*
X2096Y1385D01*
X2988Y1385D02*
X3094Y1385D01*
X1989Y1384D02*
X2097Y1384D01*
X2987Y1384D02*
X3094Y1384D01*
X1989Y1383D02*
X2097Y1383D01*
X2986Y1383D02*
X3095Y1383D01*
X1988Y1382D02*
X2098Y1382D01*
X2985Y1382D02*
X3096Y1382D01*
X1987Y1381D02*
X2099Y1381D01*
X2985Y1381D02*
X3096Y1381D01*
X1987Y1380D02*
X2099Y1380D01*
X2984Y1380D02*
X3097Y1380D01*
X1986Y1379D02*
X2100Y1379D01*
X2984Y1379D02*
X3098Y1379D01*
X1986Y1378D02*
X2100Y1378D01*
X2983Y1378D02*
X3098Y1378D01*
X1985Y1377D02*
X2101Y1377D01*
X2983Y1377D02*
X3098Y1377D01*
X1985Y1376D02*
X2101Y1376D01*
X2982Y1376D02*
X3099Y1376D01*
X1984Y1375D02*
X2102Y1375D01*
X2982Y1375D02*
X3099Y1375D01*
X1984Y1374D02*
X2102Y1374D01*
X2981Y1374D02*
X3100Y1374D01*
X1984Y1373D02*
X2103Y1373D01*
X2981Y1373D02*
X3100Y1373D01*
X1983Y1372D02*
X2103Y1372D01*
X2981Y1372D02*
X3100Y1372D01*
X1983Y1371D02*
X2103Y1371D01*
X2980Y1371D02*
X3101Y1371D01*
X1983Y1370D02*
X2103Y1370D01*
X2980Y1370D02*
X3101Y1370D01*
X1982Y1369D02*
X2104Y1369D01*
X2980Y1369D02*
X3101Y1369D01*
X1982Y1368D02*
X2104Y1368D01*
X2980Y1368D02*
X3101Y1368D01*
X1982Y1367D02*
X2040Y1367D01*
X2047Y1367D02*
X2104Y1367D01*
X2980Y1367D02*
X3036Y1367D01*
X3043Y1367D02*
X3102Y1367D01*
X1982Y1366D02*
X2038Y1366D01*
X2048Y1366D02*
X2104Y1366D01*
X2979Y1366D02*
X3035Y1366D01*
X3045Y1366D02*
X3102Y1366D01*
X1982Y1365D02*
X2037Y1365D01*
X2049Y1365D02*
X2104Y1365D01*
X2979Y1365D02*
X3034Y1365D01*
X3045Y1365D02*
X3102Y1365D01*
X1982Y1364D02*
X2037Y1364D01*
X2049Y1364D02*
X2104Y1364D01*
X2979Y1364D02*
X3034Y1364D01*
X3046Y1364D02*
X3102Y1364D01*
X1982Y1363D02*
X2037Y1363D01*
X2050Y1363D02*
X2104Y1363D01*
X2979Y1363D02*
X3033Y1363D01*
X3046Y1363D02*
X3102Y1363D01*
X1982Y1362D02*
X2037Y1362D01*
X2050Y1362D02*
X2105Y1362D01*
X2979Y1362D02*
X3033Y1362D01*
X3046Y1362D02*
X3102Y1362D01*
X1982Y1361D02*
X2037Y1361D01*
X2050Y1361D02*
X2104Y1361D01*
X2979Y1361D02*
X3033Y1361D01*
X3046Y1361D02*
X3102Y1361D01*
X1982Y1360D02*
X2037Y1360D01*
X2049Y1360D02*
X2104Y1360D01*
X2979Y1360D02*
X3034Y1360D01*
X3046Y1360D02*
X3102Y1360D01*
X1982Y1359D02*
X2037Y1359D01*
X2049Y1359D02*
X2104Y1359D01*
X2979Y1359D02*
X3034Y1359D01*
X3046Y1359D02*
X3102Y1359D01*
X1982Y1358D02*
X2038Y1358D01*
X2048Y1358D02*
X2104Y1358D01*
X2979Y1358D02*
X3035Y1358D01*
X3045Y1358D02*
X3102Y1358D01*
X1982Y1357D02*
X2039Y1357D01*
X2047Y1357D02*
X2104Y1357D01*
X2980Y1357D02*
X3036Y1357D01*
X3044Y1357D02*
X3102Y1357D01*
X1982Y1356D02*
X2041Y1356D01*
X2045Y1356D02*
X2104Y1356D01*
X2980Y1356D02*
X3038Y1356D01*
X3042Y1356D02*
X3101Y1356D01*
X1982Y1355D02*
X2104Y1355D01*
X2980Y1355D02*
X3101Y1355D01*
X1983Y1354D02*
X2103Y1354D01*
X2980Y1354D02*
X3101Y1354D01*
X1983Y1353D02*
X2103Y1353D01*
X2980Y1353D02*
X3101Y1353D01*
X1983Y1352D02*
X2103Y1352D01*
X2981Y1352D02*
X3101Y1352D01*
X1983Y1351D02*
X2103Y1351D01*
X2981Y1351D02*
X3100Y1351D01*
X1984Y1350D02*
X2102Y1350D01*
X2981Y1350D02*
X3100Y1350D01*
X1984Y1349D02*
X2102Y1349D01*
X2982Y1349D02*
X3099Y1349D01*
X1985Y1348D02*
X2102Y1348D01*
X2982Y1348D02*
X3099Y1348D01*
X1985Y1347D02*
X2101Y1347D01*
X2983Y1347D02*
X3099Y1347D01*
X1985Y1346D02*
X2101Y1346D01*
X2983Y1346D02*
X3098Y1346D01*
X1986Y1345D02*
X2100Y1345D01*
X2983Y1345D02*
X3098Y1345D01*
X1987Y1344D02*
X2100Y1344D01*
X2984Y1344D02*
X3097Y1344D01*
X1987Y1343D02*
X2099Y1343D01*
X2985Y1343D02*
X3097Y1343D01*
X1988Y1342D02*
X2098Y1342D01*
X2985Y1342D02*
X3096Y1342D01*
X1988Y1341D02*
X2098Y1341D01*
X2986Y1341D02*
X3095Y1341D01*
X1989Y1340D02*
X2097Y1340D01*
X2987Y1340D02*
X3095Y1340D01*
X1990Y1339D02*
X2096Y1339D01*
X2987Y1339D02*
X3094Y1339D01*
X1991Y1338D02*
X2095Y1338D01*
X2988Y1338D02*
X3093Y1338D01*
X1992Y1337D02*
X2095Y1337D01*
X2989Y1337D02*
X3092Y1337D01*
X1993Y1336D02*
X2094Y1336D01*
X2990Y1336D02*
X3091Y1336D01*
X1994Y1335D02*
X2092Y1335D01*
X2991Y1335D02*
X3090Y1335D01*
X1995Y1334D02*
X2091Y1334D01*
X2992Y1334D02*
X3089Y1334D01*
X1996Y1333D02*
X2090Y1333D01*
X2994Y1333D02*
X3087Y1333D01*
X1998Y1332D02*
X2088Y1332D01*
X2995Y1332D02*
X3086Y1332D01*
X1999Y1331D02*
X2087Y1331D01*
X2997Y1331D02*
X3084Y1331D01*
X2001Y1330D02*
X2085Y1330D01*
X2999Y1330D02*
X3082Y1330D01*
X2003Y1329D02*
X2083Y1329D01*
X3001Y1329D02*
X3080Y1329D01*
X2006Y1328D02*
X2080Y1328D01*
X3004Y1328D02*
X3078Y1328D01*
X2009Y1327D02*
X2077Y1327D01*
X3007Y1327D02*
X3074Y1327D01*
X2015Y1326D02*
X2071Y1326D01*
X3013Y1326D02*
X3068Y1326D01*
X2010Y1297D02*
X2076Y1297D01*
X3008Y1297D02*
X3073Y1297D01*
X2007Y1296D02*
X2079Y1296D01*
X3004Y1296D02*
X3077Y1296D01*
X2004Y1295D02*
X2082Y1295D01*
X3002Y1295D02*
X3080Y1295D01*
X2002Y1294D02*
X2084Y1294D01*
X2999Y1294D02*
X3082Y1294D01*
X2000Y1293D02*
X2086Y1293D01*
X2997Y1293D02*
X3084Y1293D01*
X1998Y1292D02*
X2088Y1292D01*
X2996Y1292D02*
X3085Y1292D01*
X1997Y1291D02*
X2089Y1291D01*
X2994Y1291D02*
X3087Y1291D01*
X1995Y1290D02*
X2091Y1290D01*
X2993Y1290D02*
X3088Y1290D01*
X1994Y1289D02*
X2092Y1289D01*
X2992Y1289D02*
X3090Y1289D01*
X1993Y1288D02*
X2093Y1288D01*
X2990Y1288D02*
X3091Y1288D01*
X1992Y1287D02*
X2094Y1287D01*
X2989Y1287D02*
X3092Y1287D01*
X1991Y1286D02*
X2095Y1286D01*
X2988Y1286D02*
X3093Y1286D01*
X1990Y1285D02*
X2096Y1285D01*
X2988Y1285D02*
X3094Y1285D01*
X1989Y1284D02*
X2097Y1284D01*
X2987Y1284D02*
X3094Y1284D01*
X1989Y1283D02*
X2097Y1283D01*
X2986Y1283D02*
X3095Y1283D01*
X1988Y1282D02*
X2098Y1282D01*
X2985Y1282D02*
X3096Y1282D01*
X1987Y1281D02*
X2099Y1281D01*
X2985Y1281D02*
X3096Y1281D01*
X1987Y1280D02*
X2099Y1280D01*
X2984Y1280D02*
X3097Y1280D01*
X1986Y1279D02*
X2100Y1279D01*
X2984Y1279D02*
X3097Y1279D01*
X1986Y1278D02*
X2100Y1278D01*
X2983Y1278D02*
X3098Y1278D01*
X1985Y1277D02*
X2101Y1277D01*
X2983Y1277D02*
X3098Y1277D01*
X1985Y1276D02*
X2101Y1276D01*
X2982Y1276D02*
X3099Y1276D01*
X1984Y1275D02*
X2102Y1275D01*
X2982Y1275D02*
X3099Y1275D01*
X1984Y1274D02*
X2102Y1274D01*
X2981Y1274D02*
X3100Y1274D01*
X1984Y1273D02*
X2103Y1273D01*
X2981Y1273D02*
X3100Y1273D01*
X1983Y1272D02*
X2103Y1272D01*
X2981Y1272D02*
X3100Y1272D01*
X1983Y1271D02*
X2103Y1271D01*
X2980Y1271D02*
X3101Y1271D01*
X1983Y1270D02*
X2103Y1270D01*
X2980Y1270D02*
X3101Y1270D01*
X1982Y1269D02*
X2104Y1269D01*
X2980Y1269D02*
X3101Y1269D01*
X1982Y1268D02*
X2104Y1268D01*
X2980Y1268D02*
X3101Y1268D01*
X1982Y1267D02*
X2039Y1267D01*
X2047Y1267D02*
X2104Y1267D01*
X2980Y1267D02*
X3036Y1267D01*
X3043Y1267D02*
X3102Y1267D01*
X1982Y1266D02*
X2038Y1266D01*
X2048Y1266D02*
X2104Y1266D01*
X2979Y1266D02*
X3035Y1266D01*
X3045Y1266D02*
X3102Y1266D01*
X1982Y1265D02*
X2037Y1265D01*
X2049Y1265D02*
X2104Y1265D01*
X2979Y1265D02*
X3034Y1265D01*
X3045Y1265D02*
X3102Y1265D01*
X1982Y1264D02*
X2037Y1264D01*
X2049Y1264D02*
X2104Y1264D01*
X2979Y1264D02*
X3034Y1264D01*
X3046Y1264D02*
X3102Y1264D01*
X1982Y1263D02*
X2036Y1263D01*
X2050Y1263D02*
X2104Y1263D01*
X2979Y1263D02*
X3033Y1263D01*
X3046Y1263D02*
X3102Y1263D01*
X1982Y1262D02*
X2036Y1262D01*
X2050Y1262D02*
X2105Y1262D01*
X2979Y1262D02*
X3033Y1262D01*
X3046Y1262D02*
X3102Y1262D01*
X1982Y1261D02*
X2036Y1261D01*
X2050Y1261D02*
X2105Y1261D01*
X2979Y1261D02*
X3033Y1261D01*
X3046Y1261D02*
X3102Y1261D01*
X1982Y1260D02*
X2037Y1260D01*
X2050Y1260D02*
X2104Y1260D01*
X2979Y1260D02*
X3033Y1260D01*
X3046Y1260D02*
X3102Y1260D01*
X1982Y1259D02*
X2037Y1259D01*
X2049Y1259D02*
X2104Y1259D01*
X2979Y1259D02*
X3034Y1259D01*
X3046Y1259D02*
X3102Y1259D01*
X1982Y1258D02*
X2038Y1258D01*
X2048Y1258D02*
X2104Y1258D01*
X2979Y1258D02*
X3035Y1258D01*
X3045Y1258D02*
X3102Y1258D01*
X1982Y1257D02*
X2039Y1257D01*
X2047Y1257D02*
X2104Y1257D01*
X2980Y1257D02*
X3036Y1257D01*
X3044Y1257D02*
X3102Y1257D01*
X1982Y1256D02*
X2041Y1256D01*
X2045Y1256D02*
X2104Y1256D01*
X2980Y1256D02*
X3037Y1256D01*
X3042Y1256D02*
X3101Y1256D01*
X1982Y1255D02*
X2104Y1255D01*
X2980Y1255D02*
X3101Y1255D01*
X1983Y1254D02*
X2103Y1254D01*
X2980Y1254D02*
X3101Y1254D01*
X1983Y1253D02*
X2103Y1253D01*
X2980Y1253D02*
X3101Y1253D01*
X1983Y1252D02*
X2103Y1252D01*
X2981Y1252D02*
X3100Y1252D01*
X1983Y1251D02*
X2103Y1251D01*
X2981Y1251D02*
X3100Y1251D01*
X1984Y1250D02*
X2102Y1250D01*
X2981Y1250D02*
X3100Y1250D01*
X1984Y1249D02*
X2102Y1249D01*
X2982Y1249D02*
X3099Y1249D01*
X1985Y1248D02*
X2102Y1248D01*
X2982Y1248D02*
X3099Y1248D01*
X1985Y1247D02*
X2101Y1247D01*
X2983Y1247D02*
X3099Y1247D01*
X1985Y1246D02*
X2101Y1246D01*
X2983Y1246D02*
X3098Y1246D01*
X1986Y1245D02*
X2100Y1245D01*
X2983Y1245D02*
X3098Y1245D01*
X1987Y1244D02*
X2100Y1244D01*
X2984Y1244D02*
X3097Y1244D01*
X1987Y1243D02*
X2099Y1243D01*
X2985Y1243D02*
X3096Y1243D01*
X1988Y1242D02*
X2098Y1242D01*
X2985Y1242D02*
X3096Y1242D01*
X1988Y1241D02*
X2098Y1241D01*
X2986Y1241D02*
X3095Y1241D01*
X1989Y1240D02*
X2097Y1240D01*
X2987Y1240D02*
X3094Y1240D01*
X1990Y1239D02*
X2096Y1239D01*
X2987Y1239D02*
X3094Y1239D01*
X1991Y1238D02*
X2095Y1238D01*
X2988Y1238D02*
X3093Y1238D01*
X1992Y1237D02*
X2094Y1237D01*
X2989Y1237D02*
X3092Y1237D01*
X1993Y1236D02*
X2093Y1236D01*
X2990Y1236D02*
X3091Y1236D01*
X1994Y1235D02*
X2092Y1235D01*
X2991Y1235D02*
X3090Y1235D01*
X1995Y1234D02*
X2091Y1234D01*
X2992Y1234D02*
X3089Y1234D01*
X1996Y1233D02*
X2090Y1233D01*
X2994Y1233D02*
X3087Y1233D01*
X1998Y1232D02*
X2088Y1232D01*
X2995Y1232D02*
X3086Y1232D01*
X1999Y1231D02*
X2087Y1231D01*
X2997Y1231D02*
X3084Y1231D01*
X2001Y1230D02*
X2085Y1230D01*
X2999Y1230D02*
X3082Y1230D01*
X2003Y1229D02*
X2083Y1229D01*
X3001Y1229D02*
X3080Y1229D01*
X2006Y1228D02*
X2080Y1228D01*
X3004Y1228D02*
X3078Y1228D01*
X2009Y1227D02*
X2077Y1227D01*
X3007Y1227D02*
X3074Y1227D01*
X2016Y1226D02*
X2070Y1226D01*
X3013Y1226D02*
X3068Y1226D01*
X2010Y1197D02*
X2076Y1197D01*
X3008Y1197D02*
X3073Y1197D01*
X2007Y1196D02*
X2079Y1196D01*
X3004Y1196D02*
X3077Y1196D01*
X2004Y1195D02*
X2082Y1195D01*
X3002Y1195D02*
X3080Y1195D01*
X2002Y1194D02*
X2084Y1194D01*
X2999Y1194D02*
X3082Y1194D01*
X2000Y1193D02*
X2086Y1193D01*
X2997Y1193D02*
X3084Y1193D01*
X1998Y1192D02*
X2088Y1192D01*
X2996Y1192D02*
X3085Y1192D01*
X1997Y1191D02*
X2089Y1191D01*
X2994Y1191D02*
X3087Y1191D01*
X1995Y1190D02*
X2091Y1190D01*
X2993Y1190D02*
X3088Y1190D01*
X1994Y1189D02*
X2092Y1189D01*
X2991Y1189D02*
X3090Y1189D01*
X1993Y1188D02*
X2093Y1188D01*
X2990Y1188D02*
X3091Y1188D01*
X1992Y1187D02*
X2094Y1187D01*
X2989Y1187D02*
X3092Y1187D01*
X1991Y1186D02*
X2095Y1186D01*
X2988Y1186D02*
X3093Y1186D01*
X1990Y1185D02*
X2096Y1185D01*
X2988Y1185D02*
X3094Y1185D01*
X1989Y1184D02*
X2097Y1184D01*
X2987Y1184D02*
X3094Y1184D01*
X1989Y1183D02*
X2098Y1183D01*
X2986Y1183D02*
X3095Y1183D01*
X1988Y1182D02*
X2098Y1182D01*
X2985Y1182D02*
X3096Y1182D01*
X1987Y1181D02*
X2099Y1181D01*
X2985Y1181D02*
X3096Y1181D01*
X1987Y1180D02*
X2099Y1180D01*
X2984Y1180D02*
X3097Y1180D01*
X1986Y1179D02*
X2100Y1179D01*
X2984Y1179D02*
X3097Y1179D01*
X1986Y1178D02*
X2100Y1178D01*
X2983Y1178D02*
X3098Y1178D01*
X1985Y1177D02*
X2101Y1177D01*
X2983Y1177D02*
X3098Y1177D01*
X1985Y1176D02*
X2101Y1176D01*
X2982Y1176D02*
X3099Y1176D01*
X1984Y1175D02*
X2102Y1175D01*
X2982Y1175D02*
X3099Y1175D01*
X1984Y1174D02*
X2102Y1174D01*
X2981Y1174D02*
X3100Y1174D01*
X1984Y1173D02*
X2103Y1173D01*
X2981Y1173D02*
X3100Y1173D01*
X1983Y1172D02*
X2103Y1172D01*
X2981Y1172D02*
X3100Y1172D01*
X1983Y1171D02*
X2103Y1171D01*
X2980Y1171D02*
X3101Y1171D01*
X1983Y1170D02*
X2103Y1170D01*
X2980Y1170D02*
X3101Y1170D01*
X1982Y1169D02*
X2104Y1169D01*
X2980Y1169D02*
X3101Y1169D01*
X1982Y1168D02*
X2104Y1168D01*
X2980Y1168D02*
X3101Y1168D01*
X1982Y1167D02*
X2039Y1167D01*
X2047Y1167D02*
X2104Y1167D01*
X2980Y1167D02*
X3036Y1167D01*
X3043Y1167D02*
X3102Y1167D01*
X1982Y1166D02*
X2038Y1166D01*
X2048Y1166D02*
X2104Y1166D01*
X2979Y1166D02*
X3035Y1166D01*
X3045Y1166D02*
X3102Y1166D01*
X1982Y1165D02*
X2037Y1165D01*
X2049Y1165D02*
X2104Y1165D01*
X2979Y1165D02*
X3034Y1165D01*
X3045Y1165D02*
X3102Y1165D01*
X1982Y1164D02*
X2037Y1164D01*
X2049Y1164D02*
X2104Y1164D01*
X2979Y1164D02*
X3034Y1164D01*
X3046Y1164D02*
X3102Y1164D01*
X1982Y1163D02*
X2037Y1163D01*
X2050Y1163D02*
X2104Y1163D01*
X2979Y1163D02*
X3033Y1163D01*
X3046Y1163D02*
X3102Y1163D01*
X1982Y1162D02*
X2037Y1162D01*
X2050Y1162D02*
X2105Y1162D01*
X2979Y1162D02*
X3033Y1162D01*
X3046Y1162D02*
X3102Y1162D01*
X1982Y1161D02*
X2037Y1161D01*
X2050Y1161D02*
X2105Y1161D01*
X2979Y1161D02*
X3033Y1161D01*
X3046Y1161D02*
X3102Y1161D01*
X1982Y1160D02*
X2037Y1160D01*
X2049Y1160D02*
X2105Y1160D01*
X2979Y1160D02*
X3033Y1160D01*
X3046Y1160D02*
X3102Y1160D01*
X1982Y1159D02*
X2037Y1159D01*
X2049Y1159D02*
X2105Y1159D01*
X2979Y1159D02*
X3034Y1159D01*
X3046Y1159D02*
X3102Y1159D01*
X1982Y1158D02*
X2038Y1158D01*
X2048Y1158D02*
X2105Y1158D01*
X2979Y1158D02*
X3035Y1158D01*
X3045Y1158D02*
X3102Y1158D01*
X1982Y1157D02*
X2039Y1157D01*
X2047Y1157D02*
X2105Y1157D01*
X2980Y1157D02*
X3036Y1157D01*
X3044Y1157D02*
X3102Y1157D01*
X1982Y1156D02*
X2041Y1156D01*
X2045Y1156D02*
X2105Y1156D01*
X2980Y1156D02*
X3037Y1156D01*
X3042Y1156D02*
X3101Y1156D01*
X1982Y1155D02*
X2105Y1155D01*
X2980Y1155D02*
X3101Y1155D01*
X1983Y1154D02*
X2105Y1154D01*
X2980Y1154D02*
X3101Y1154D01*
X1983Y1153D02*
X2105Y1153D01*
X2980Y1153D02*
X3101Y1153D01*
X1983Y1152D02*
X2104Y1152D01*
X2981Y1152D02*
X3100Y1152D01*
X1983Y1151D02*
X2103Y1151D01*
X2981Y1151D02*
X3100Y1151D01*
X1984Y1150D02*
X2102Y1150D01*
X2981Y1150D02*
X3100Y1150D01*
X1984Y1149D02*
X2102Y1149D01*
X2982Y1149D02*
X3099Y1149D01*
X1985Y1148D02*
X2102Y1148D01*
X2982Y1148D02*
X3099Y1148D01*
X1985Y1147D02*
X2101Y1147D01*
X2983Y1147D02*
X3099Y1147D01*
X1986Y1146D02*
X2101Y1146D01*
X2983Y1146D02*
X3098Y1146D01*
X1986Y1145D02*
X2100Y1145D01*
X2984Y1145D02*
X3098Y1145D01*
X1987Y1144D02*
X2100Y1144D01*
X2984Y1144D02*
X3097Y1144D01*
X1987Y1143D02*
X2099Y1143D01*
X2985Y1143D02*
X3096Y1143D01*
X1988Y1142D02*
X2098Y1142D01*
X2985Y1142D02*
X3096Y1142D01*
X1988Y1141D02*
X2098Y1141D01*
X2986Y1141D02*
X3095Y1141D01*
X1989Y1140D02*
X2097Y1140D01*
X2987Y1140D02*
X3094Y1140D01*
X1990Y1139D02*
X2096Y1139D01*
X2987Y1139D02*
X3094Y1139D01*
X1991Y1138D02*
X2095Y1138D01*
X2988Y1138D02*
X3093Y1138D01*
X1992Y1137D02*
X2094Y1137D01*
X2989Y1137D02*
X3092Y1137D01*
X1993Y1136D02*
X2093Y1136D01*
X2990Y1136D02*
X3091Y1136D01*
X1994Y1135D02*
X2092Y1135D01*
X2991Y1135D02*
X3090Y1135D01*
X1995Y1134D02*
X2091Y1134D01*
X2992Y1134D02*
X3089Y1134D01*
X1996Y1133D02*
X2090Y1133D01*
X2994Y1133D02*
X3087Y1133D01*
X1998Y1132D02*
X2088Y1132D01*
X2995Y1132D02*
X3086Y1132D01*
X1999Y1131D02*
X2087Y1131D01*
X2997Y1131D02*
X3084Y1131D01*
X2001Y1130D02*
X2085Y1130D01*
X2999Y1130D02*
X3082Y1130D01*
X2003Y1129D02*
X2083Y1129D01*
X3001Y1129D02*
X3080Y1129D01*
X2006Y1128D02*
X2080Y1128D01*
X3004Y1128D02*
X3077Y1128D01*
X2009Y1127D02*
X2077Y1127D01*
X3007Y1127D02*
X3074Y1127D01*
X2016Y1126D02*
X2070Y1126D01*
X3014Y1126D02*
X3068Y1126D01*
X2010Y1097D02*
X2076Y1097D01*
X3008Y1097D02*
X3074Y1097D01*
X2007Y1096D02*
X2079Y1096D01*
X3004Y1096D02*
X3077Y1096D01*
X2004Y1095D02*
X2082Y1095D01*
X3001Y1095D02*
X3080Y1095D01*
X2002Y1094D02*
X2084Y1094D01*
X2999Y1094D02*
X3082Y1094D01*
X2000Y1093D02*
X2086Y1093D01*
X2997Y1093D02*
X3084Y1093D01*
X1998Y1092D02*
X2088Y1092D01*
X2996Y1092D02*
X3086Y1092D01*
X1997Y1091D02*
X2090Y1091D01*
X2994Y1091D02*
X3087Y1091D01*
X1995Y1090D02*
X2091Y1090D01*
X2993Y1090D02*
X3088Y1090D01*
X1994Y1089D02*
X2092Y1089D01*
X2991Y1089D02*
X3090Y1089D01*
X1993Y1088D02*
X2093Y1088D01*
X2990Y1088D02*
X3091Y1088D01*
X1992Y1087D02*
X2094Y1087D01*
X2989Y1087D02*
X3092Y1087D01*
X1991Y1086D02*
X2095Y1086D01*
X2988Y1086D02*
X3093Y1086D01*
X1990Y1085D02*
X2096Y1085D01*
X2988Y1085D02*
X3094Y1085D01*
X1989Y1084D02*
X2097Y1084D01*
X2987Y1084D02*
X3094Y1084D01*
X1989Y1083D02*
X2098Y1083D01*
X2986Y1083D02*
X3095Y1083D01*
X1988Y1082D02*
X2098Y1082D01*
X2985Y1082D02*
X3096Y1082D01*
X1987Y1081D02*
X2099Y1081D01*
X2985Y1081D02*
X3096Y1081D01*
X1987Y1080D02*
X2099Y1080D01*
X2984Y1080D02*
X3097Y1080D01*
X1986Y1079D02*
X2100Y1079D01*
X2984Y1079D02*
X3098Y1079D01*
X1986Y1078D02*
X2100Y1078D01*
X2983Y1078D02*
X3098Y1078D01*
X1985Y1077D02*
X2101Y1077D01*
X2983Y1077D02*
X3099Y1077D01*
X1985Y1076D02*
X2101Y1076D01*
X2982Y1076D02*
X3099Y1076D01*
X1984Y1075D02*
X2102Y1075D01*
X2982Y1075D02*
X3099Y1075D01*
X1984Y1074D02*
X2102Y1074D01*
X2981Y1074D02*
X3100Y1074D01*
X1984Y1073D02*
X2103Y1073D01*
X2981Y1073D02*
X3100Y1073D01*
X1983Y1072D02*
X2103Y1072D01*
X2981Y1072D02*
X3100Y1072D01*
X1983Y1071D02*
X2103Y1071D01*
X2980Y1071D02*
X3101Y1071D01*
X1983Y1070D02*
X2103Y1070D01*
X2980Y1070D02*
X3101Y1070D01*
X1982Y1069D02*
X2104Y1069D01*
X2980Y1069D02*
X3101Y1069D01*
X1982Y1068D02*
X2104Y1068D01*
X2980Y1068D02*
X3101Y1068D01*
X1982Y1067D02*
X2039Y1067D01*
X2047Y1067D02*
X2104Y1067D01*
X2980Y1067D02*
X3036Y1067D01*
X3043Y1067D02*
X3102Y1067D01*
X1982Y1066D02*
X2038Y1066D01*
X2048Y1066D02*
X2104Y1066D01*
X2979Y1066D02*
X3035Y1066D01*
X3045Y1066D02*
X3102Y1066D01*
X1982Y1065D02*
X2037Y1065D01*
X2049Y1065D02*
X2104Y1065D01*
X2979Y1065D02*
X3034Y1065D01*
X3045Y1065D02*
X3102Y1065D01*
X1982Y1064D02*
X2037Y1064D01*
X2049Y1064D02*
X2104Y1064D01*
X2979Y1064D02*
X3034Y1064D01*
X3046Y1064D02*
X3102Y1064D01*
X1982Y1063D02*
X2037Y1063D01*
X2050Y1063D02*
X2104Y1063D01*
X2979Y1063D02*
X3033Y1063D01*
X3046Y1063D02*
X3102Y1063D01*
X1982Y1062D02*
X2037Y1062D01*
X2050Y1062D02*
X2105Y1062D01*
X2979Y1062D02*
X3033Y1062D01*
X3046Y1062D02*
X3102Y1062D01*
X1982Y1061D02*
X2037Y1061D01*
X2050Y1061D02*
X2105Y1061D01*
X2979Y1061D02*
X3033Y1061D01*
X3046Y1061D02*
X3102Y1061D01*
X1982Y1060D02*
X2037Y1060D01*
X2049Y1060D02*
X2105Y1060D01*
X2979Y1060D02*
X3033Y1060D01*
X3046Y1060D02*
X3102Y1060D01*
X1982Y1059D02*
X2037Y1059D01*
X2049Y1059D02*
X2105Y1059D01*
X2979Y1059D02*
X3034Y1059D01*
X3046Y1059D02*
X3102Y1059D01*
X1982Y1058D02*
X2038Y1058D01*
X2048Y1058D02*
X2105Y1058D01*
X2979Y1058D02*
X3035Y1058D01*
X3045Y1058D02*
X3102Y1058D01*
X1982Y1057D02*
X2039Y1057D01*
X2047Y1057D02*
X2105Y1057D01*
X2980Y1057D02*
X3036Y1057D01*
X3044Y1057D02*
X3102Y1057D01*
X1982Y1056D02*
X2041Y1056D01*
X2045Y1056D02*
X2105Y1056D01*
X2980Y1056D02*
X3038Y1056D01*
X3042Y1056D02*
X3101Y1056D01*
X1982Y1055D02*
X2105Y1055D01*
X2980Y1055D02*
X3101Y1055D01*
X1983Y1054D02*
X2105Y1054D01*
X2980Y1054D02*
X3101Y1054D01*
X1983Y1053D02*
X2105Y1053D01*
X2980Y1053D02*
X3101Y1053D01*
X1983Y1052D02*
X2104Y1052D01*
X2981Y1052D02*
X3101Y1052D01*
X1983Y1051D02*
X2103Y1051D01*
X2981Y1051D02*
X3100Y1051D01*
X1984Y1050D02*
X2102Y1050D01*
X2981Y1050D02*
X3100Y1050D01*
X1984Y1049D02*
X2102Y1049D01*
X2982Y1049D02*
X3099Y1049D01*
X1985Y1048D02*
X2101Y1048D01*
X2982Y1048D02*
X3099Y1048D01*
X1985Y1047D02*
X2101Y1047D01*
X2983Y1047D02*
X3099Y1047D01*
X1986Y1046D02*
X2101Y1046D01*
X2983Y1046D02*
X3098Y1046D01*
X1986Y1045D02*
X2100Y1045D01*
X2984Y1045D02*
X3098Y1045D01*
X1987Y1044D02*
X2100Y1044D01*
X2984Y1044D02*
X3097Y1044D01*
X1987Y1043D02*
X2099Y1043D01*
X2985Y1043D02*
X3097Y1043D01*
X1988Y1042D02*
X2098Y1042D01*
X2985Y1042D02*
X3096Y1042D01*
X1988Y1041D02*
X2098Y1041D01*
X2986Y1041D02*
X3095Y1041D01*
X1989Y1040D02*
X2097Y1040D01*
X2987Y1040D02*
X3095Y1040D01*
X1990Y1039D02*
X2096Y1039D01*
X2987Y1039D02*
X3094Y1039D01*
X1991Y1038D02*
X2095Y1038D01*
X2988Y1038D02*
X3093Y1038D01*
X1992Y1037D02*
X2094Y1037D01*
X2989Y1037D02*
X3092Y1037D01*
X1993Y1036D02*
X2093Y1036D01*
X2990Y1036D02*
X3091Y1036D01*
X1994Y1035D02*
X2092Y1035D01*
X2991Y1035D02*
X3090Y1035D01*
X1995Y1034D02*
X2091Y1034D01*
X2992Y1034D02*
X3089Y1034D01*
X1996Y1033D02*
X2090Y1033D01*
X2994Y1033D02*
X3087Y1033D01*
X1998Y1032D02*
X2088Y1032D01*
X2995Y1032D02*
X3086Y1032D01*
X1999Y1031D02*
X2087Y1031D01*
X2997Y1031D02*
X3084Y1031D01*
X2001Y1030D02*
X2085Y1030D01*
X2999Y1030D02*
X3082Y1030D01*
X2004Y1029D02*
X2083Y1029D01*
X3001Y1029D02*
X3080Y1029D01*
X2006Y1028D02*
X2080Y1028D01*
X3004Y1028D02*
X3077Y1028D01*
X2010Y1027D02*
X2077Y1027D01*
X3007Y1027D02*
X3074Y1027D01*
X2016Y1026D02*
X2070Y1026D01*
X3014Y1026D02*
X3067Y1026D01*
X2010Y997D02*
X2076Y997D01*
X3008Y997D02*
X3074Y997D01*
X2007Y996D02*
X2080Y996D01*
X3004Y996D02*
X3077Y996D01*
X2004Y995D02*
X2082Y995D01*
X3001Y995D02*
X3080Y995D01*
X2002Y994D02*
X2084Y994D01*
X2999Y994D02*
X3082Y994D01*
X2000Y993D02*
X2086Y993D01*
X2997Y993D02*
X3084Y993D01*
X1998Y992D02*
X2088Y992D01*
X2996Y992D02*
X3086Y992D01*
X1997Y991D02*
X2090Y991D01*
X2994Y991D02*
X3087Y991D01*
X1995Y990D02*
X2091Y990D01*
X2993Y990D02*
X3088Y990D01*
X1994Y989D02*
X2092Y989D01*
X2991Y989D02*
X3090Y989D01*
X1993Y988D02*
X2093Y988D01*
X2990Y988D02*
X3091Y988D01*
X1992Y987D02*
X2094Y987D01*
X2989Y987D02*
X3092Y987D01*
X1991Y986D02*
X2095Y986D01*
X2988Y986D02*
X3093Y986D01*
X1990Y985D02*
X2096Y985D01*
X2988Y985D02*
X3094Y985D01*
X1989Y984D02*
X2097Y984D01*
X2987Y984D02*
X3094Y984D01*
X1989Y983D02*
X2098Y983D01*
X2986Y983D02*
X3095Y983D01*
X1988Y982D02*
X2098Y982D01*
X2985Y982D02*
X3096Y982D01*
X1987Y981D02*
X2099Y981D01*
X2985Y981D02*
X3096Y981D01*
X1987Y980D02*
X2099Y980D01*
X2984Y980D02*
X3097Y980D01*
X1986Y979D02*
X2100Y979D01*
X2984Y979D02*
X3098Y979D01*
X1986Y978D02*
X2100Y978D01*
X2983Y978D02*
X3098Y978D01*
X1985Y977D02*
X2101Y977D01*
X2983Y977D02*
X3098Y977D01*
X1985Y976D02*
X2101Y976D01*
X2982Y976D02*
X3099Y976D01*
X1984Y975D02*
X2102Y975D01*
X2982Y975D02*
X3099Y975D01*
X1984Y974D02*
X2102Y974D01*
X2981Y974D02*
X3100Y974D01*
X1984Y973D02*
X2103Y973D01*
X2981Y973D02*
X3100Y973D01*
X1983Y972D02*
X2103Y972D01*
X2981Y972D02*
X3100Y972D01*
X1983Y971D02*
X2103Y971D01*
X2980Y971D02*
X3101Y971D01*
X1983Y970D02*
X2103Y970D01*
X2980Y970D02*
X3101Y970D01*
X1982Y969D02*
X2104Y969D01*
X2980Y969D02*
X3101Y969D01*
X1982Y968D02*
X2104Y968D01*
X2980Y968D02*
X3101Y968D01*
X1982Y967D02*
X2039Y967D01*
X2047Y967D02*
X2104Y967D01*
X2980Y967D02*
X3036Y967D01*
X3044Y967D02*
X3102Y967D01*
X1982Y966D02*
X2038Y966D01*
X2048Y966D02*
X2104Y966D01*
X2979Y966D02*
X3035Y966D01*
X3045Y966D02*
X3102Y966D01*
X1982Y965D02*
X2037Y965D01*
X2049Y965D02*
X2104Y965D01*
X2979Y965D02*
X3034Y965D01*
X3046Y965D02*
X3102Y965D01*
X1982Y964D02*
X2037Y964D01*
X2049Y964D02*
X2104Y964D01*
X2979Y964D02*
X3033Y964D01*
X3046Y964D02*
X3102Y964D01*
X1982Y963D02*
X2036Y963D01*
X2050Y963D02*
X2104Y963D01*
X2979Y963D02*
X3033Y963D01*
X3046Y963D02*
X3102Y963D01*
X1982Y962D02*
X2036Y962D01*
X2050Y962D02*
X2105Y962D01*
X2979Y962D02*
X3033Y962D01*
X3046Y962D02*
X3102Y962D01*
X1982Y961D02*
X2036Y961D01*
X2050Y961D02*
X2105Y961D01*
X2979Y961D02*
X3033Y961D01*
X3046Y961D02*
X3102Y961D01*
X1982Y960D02*
X2037Y960D01*
X2049Y960D02*
X2105Y960D01*
X2979Y960D02*
X3033Y960D01*
X3046Y960D02*
X3102Y960D01*
X1982Y959D02*
X2037Y959D01*
X2049Y959D02*
X2105Y959D01*
X2979Y959D02*
X3034Y959D01*
X3046Y959D02*
X3102Y959D01*
X1982Y958D02*
X2038Y958D01*
X2048Y958D02*
X2105Y958D01*
X2979Y958D02*
X3035Y958D01*
X3045Y958D02*
X3102Y958D01*
X1982Y957D02*
X2039Y957D01*
X2047Y957D02*
X2105Y957D01*
X2980Y957D02*
X3036Y957D01*
X3044Y957D02*
X3102Y957D01*
X1982Y956D02*
X2041Y956D01*
X2045Y956D02*
X2105Y956D01*
X2980Y956D02*
X3038Y956D01*
X3042Y956D02*
X3101Y956D01*
X1982Y955D02*
X2105Y955D01*
X2980Y955D02*
X3101Y955D01*
X1983Y954D02*
X2105Y954D01*
X2980Y954D02*
X3101Y954D01*
X1983Y953D02*
X2105Y953D01*
X2980Y953D02*
X3101Y953D01*
X1983Y952D02*
X2104Y952D01*
X2981Y952D02*
X3100Y952D01*
X1983Y951D02*
X2103Y951D01*
X2981Y951D02*
X3100Y951D01*
X1984Y950D02*
X2102Y950D01*
X2981Y950D02*
X3100Y950D01*
X1984Y949D02*
X2102Y949D01*
X2982Y949D02*
X3099Y949D01*
X1985Y948D02*
X2101Y948D01*
X2982Y948D02*
X3099Y948D01*
X1985Y947D02*
X2101Y947D01*
X2983Y947D02*
X3099Y947D01*
X1986Y946D02*
X2101Y946D01*
X2983Y946D02*
X3098Y946D01*
X1986Y945D02*
X2100Y945D01*
X2984Y945D02*
X3098Y945D01*
X1987Y944D02*
X2100Y944D01*
X2984Y944D02*
X3097Y944D01*
X1987Y943D02*
X2099Y943D01*
X2985Y943D02*
X3096Y943D01*
X1988Y942D02*
X2098Y942D01*
X2985Y942D02*
X3096Y942D01*
X1988Y941D02*
X2098Y941D01*
X2986Y941D02*
X3095Y941D01*
X1989Y940D02*
X2097Y940D01*
X2987Y940D02*
X3094Y940D01*
X1990Y939D02*
X2096Y939D01*
X2987Y939D02*
X3094Y939D01*
X1991Y938D02*
X2095Y938D01*
X2988Y938D02*
X3093Y938D01*
X1992Y937D02*
X2094Y937D01*
X2989Y937D02*
X3092Y937D01*
X1993Y936D02*
X2093Y936D01*
X2990Y936D02*
X3091Y936D01*
X1994Y935D02*
X2092Y935D01*
X2991Y935D02*
X3090Y935D01*
X1995Y934D02*
X2091Y934D01*
X2992Y934D02*
X3089Y934D01*
X1996Y933D02*
X2090Y933D01*
X2994Y933D02*
X3087Y933D01*
X1998Y932D02*
X2088Y932D01*
X2995Y932D02*
X3086Y932D01*
X2000Y931D02*
X2087Y931D01*
X2997Y931D02*
X3084Y931D01*
X2001Y930D02*
X2085Y930D01*
X2999Y930D02*
X3082Y930D01*
X2004Y929D02*
X2083Y929D01*
X3001Y929D02*
X3080Y929D01*
X2006Y928D02*
X2080Y928D01*
X3004Y928D02*
X3077Y928D01*
X2010Y927D02*
X2076Y927D01*
X3007Y927D02*
X3074Y927D01*
X2017Y926D02*
X2069Y926D01*
X3014Y926D02*
X3067Y926D01*
X2010Y897D02*
X2076Y897D01*
X3008Y897D02*
X3074Y897D01*
X2006Y896D02*
X2080Y896D01*
X3004Y896D02*
X3077Y896D01*
X2004Y895D02*
X2082Y895D01*
X3001Y895D02*
X3080Y895D01*
X2002Y894D02*
X2084Y894D01*
X2999Y894D02*
X3082Y894D01*
X2000Y893D02*
X2086Y893D01*
X2997Y893D02*
X3084Y893D01*
X1998Y892D02*
X2088Y892D01*
X2996Y892D02*
X3086Y892D01*
X1997Y891D02*
X2090Y891D01*
X2994Y891D02*
X3087Y891D01*
X1995Y890D02*
X2091Y890D01*
X2993Y890D02*
X3089Y890D01*
X1994Y889D02*
X2092Y889D01*
X2991Y889D02*
X3090Y889D01*
X1993Y888D02*
X2093Y888D01*
X2990Y888D02*
X3091Y888D01*
X1992Y887D02*
X2094Y887D01*
X2989Y887D02*
X3092Y887D01*
X1991Y886D02*
X2095Y886D01*
X2988Y886D02*
X3093Y886D01*
X1990Y885D02*
X2096Y885D01*
X2987Y885D02*
X3094Y885D01*
X1989Y884D02*
X2097Y884D01*
X2987Y884D02*
X3094Y884D01*
X1988Y883D02*
X2098Y883D01*
X2986Y883D02*
X3095Y883D01*
X1988Y882D02*
X2098Y882D01*
X2985Y882D02*
X3096Y882D01*
X1987Y881D02*
X2099Y881D01*
X2985Y881D02*
X3096Y881D01*
X1987Y880D02*
X2099Y880D01*
X2984Y880D02*
X3097Y880D01*
X1986Y879D02*
X2100Y879D01*
X2984Y879D02*
X3098Y879D01*
X1986Y878D02*
X2100Y878D01*
X2983Y878D02*
X3098Y878D01*
X1985Y877D02*
X2101Y877D01*
X2983Y877D02*
X3099Y877D01*
X1985Y876D02*
X2101Y876D01*
X2982Y876D02*
X3099Y876D01*
X1984Y875D02*
X2102Y875D01*
X2982Y875D02*
X3099Y875D01*
X1984Y874D02*
X2102Y874D01*
X2981Y874D02*
X3100Y874D01*
X1984Y873D02*
X2103Y873D01*
X2981Y873D02*
X3100Y873D01*
X1983Y872D02*
X2103Y872D01*
X2981Y872D02*
X3100Y872D01*
X1983Y871D02*
X2103Y871D01*
X2980Y871D02*
X3101Y871D01*
X1983Y870D02*
X2103Y870D01*
X2980Y870D02*
X3101Y870D01*
X1982Y869D02*
X2104Y869D01*
X2980Y869D02*
X3101Y869D01*
X1982Y868D02*
X2104Y868D01*
X2980Y868D02*
X3101Y868D01*
X1982Y867D02*
X2039Y867D01*
X2047Y867D02*
X2104Y867D01*
X2980Y867D02*
X3036Y867D01*
X3044Y867D02*
X3102Y867D01*
X1982Y866D02*
X2038Y866D01*
X2048Y866D02*
X2104Y866D01*
X2979Y866D02*
X3035Y866D01*
X3045Y866D02*
X3102Y866D01*
X1982Y865D02*
X2037Y865D01*
X2049Y865D02*
X2104Y865D01*
X2979Y865D02*
X3034Y865D01*
X3046Y865D02*
X3102Y865D01*
X1982Y864D02*
X2037Y864D01*
X2049Y864D02*
X2104Y864D01*
X2979Y864D02*
X3034Y864D01*
X3046Y864D02*
X3102Y864D01*
X1982Y863D02*
X2036Y863D01*
X2050Y863D02*
X2104Y863D01*
X2979Y863D02*
X3033Y863D01*
X3046Y863D02*
X3102Y863D01*
X1982Y862D02*
X2036Y862D01*
X2050Y862D02*
X2105Y862D01*
X2979Y862D02*
X3033Y862D01*
X3047Y862D02*
X3102Y862D01*
X1982Y861D02*
X2036Y861D01*
X2050Y861D02*
X2105Y861D01*
X2979Y861D02*
X3033Y861D01*
X3046Y861D02*
X3102Y861D01*
X1982Y860D02*
X2037Y860D01*
X2049Y860D02*
X2105Y860D01*
X2979Y860D02*
X3033Y860D01*
X3046Y860D02*
X3102Y860D01*
X1982Y859D02*
X2037Y859D01*
X2049Y859D02*
X2105Y859D01*
X2979Y859D02*
X3034Y859D01*
X3046Y859D02*
X3102Y859D01*
X1982Y858D02*
X2038Y858D01*
X2048Y858D02*
X2105Y858D01*
X2979Y858D02*
X3035Y858D01*
X3045Y858D02*
X3102Y858D01*
X1982Y857D02*
X2039Y857D01*
X2047Y857D02*
X2105Y857D01*
X2980Y857D02*
X3036Y857D01*
X3044Y857D02*
X3102Y857D01*
X1982Y856D02*
X2041Y856D01*
X2045Y856D02*
X2105Y856D01*
X2980Y856D02*
X3038Y856D01*
X3042Y856D02*
X3101Y856D01*
X1982Y855D02*
X2105Y855D01*
X2980Y855D02*
X3101Y855D01*
X1983Y854D02*
X2105Y854D01*
X2980Y854D02*
X3101Y854D01*
X1983Y853D02*
X2105Y853D01*
X2980Y853D02*
X3101Y853D01*
X1983Y852D02*
X2104Y852D01*
X2981Y852D02*
X3100Y852D01*
X1983Y851D02*
X2103Y851D01*
X2981Y851D02*
X3100Y851D01*
X1984Y850D02*
X2102Y850D01*
X2981Y850D02*
X3100Y850D01*
X1984Y849D02*
X2102Y849D01*
X2982Y849D02*
X3099Y849D01*
X1985Y848D02*
X2101Y848D01*
X2982Y848D02*
X3099Y848D01*
X1985Y847D02*
X2101Y847D01*
X2983Y847D02*
X3099Y847D01*
X1986Y846D02*
X2101Y846D01*
X2983Y846D02*
X3098Y846D01*
X1986Y845D02*
X2100Y845D01*
X2984Y845D02*
X3098Y845D01*
X1987Y844D02*
X2099Y844D01*
X2984Y844D02*
X3097Y844D01*
X1987Y843D02*
X2099Y843D01*
X2985Y843D02*
X3096Y843D01*
X1988Y842D02*
X2098Y842D01*
X2985Y842D02*
X3096Y842D01*
X1988Y841D02*
X2098Y841D01*
X2986Y841D02*
X3095Y841D01*
X1989Y840D02*
X2097Y840D01*
X2987Y840D02*
X3094Y840D01*
X1990Y839D02*
X2096Y839D01*
X2987Y839D02*
X3094Y839D01*
X1991Y838D02*
X2095Y838D01*
X2988Y838D02*
X3093Y838D01*
X1992Y837D02*
X2094Y837D01*
X2989Y837D02*
X3092Y837D01*
X1993Y836D02*
X2093Y836D01*
X2990Y836D02*
X3091Y836D01*
X1994Y835D02*
X2092Y835D01*
X2991Y835D02*
X3090Y835D01*
X1995Y834D02*
X2091Y834D01*
X2993Y834D02*
X3089Y834D01*
X1996Y833D02*
X2090Y833D01*
X2994Y833D02*
X3087Y833D01*
X1998Y832D02*
X2088Y832D01*
X2995Y832D02*
X3086Y832D01*
X2000Y831D02*
X2086Y831D01*
X2997Y831D02*
X3084Y831D01*
X2001Y830D02*
X2085Y830D01*
X2999Y830D02*
X3082Y830D01*
X2004Y829D02*
X2082Y829D01*
X3001Y829D02*
X3080Y829D01*
X2006Y828D02*
X2080Y828D01*
X3004Y828D02*
X3077Y828D01*
X2010Y827D02*
X2076Y827D01*
X3007Y827D02*
X3074Y827D01*
X2017Y826D02*
X2069Y826D01*
X3015Y826D02*
X3066Y826D01*
X2010Y797D02*
X2076Y797D01*
X3007Y797D02*
X3074Y797D01*
X2006Y796D02*
X2080Y796D01*
X3004Y796D02*
X3077Y796D01*
X2004Y795D02*
X2082Y795D01*
X3001Y795D02*
X3080Y795D01*
X2002Y794D02*
X2084Y794D01*
X2999Y794D02*
X3082Y794D01*
X2000Y793D02*
X2086Y793D01*
X2997Y793D02*
X3084Y793D01*
X1998Y792D02*
X2088Y792D01*
X2996Y792D02*
X3086Y792D01*
X1996Y791D02*
X2090Y791D01*
X2994Y791D02*
X3087Y791D01*
X1995Y790D02*
X2091Y790D01*
X2993Y790D02*
X3088Y790D01*
X1994Y789D02*
X2092Y789D01*
X2991Y789D02*
X3090Y789D01*
X1993Y788D02*
X2093Y788D01*
X2990Y788D02*
X3091Y788D01*
X1992Y787D02*
X2094Y787D01*
X2989Y787D02*
X3092Y787D01*
X1991Y786D02*
X2095Y786D01*
X2988Y786D02*
X3093Y786D01*
X1990Y785D02*
X2096Y785D01*
X2987Y785D02*
X3094Y785D01*
X1989Y784D02*
X2097Y784D01*
X2987Y784D02*
X3094Y784D01*
X1988Y783D02*
X2098Y783D01*
X2986Y783D02*
X3095Y783D01*
X1988Y782D02*
X2098Y782D01*
X2985Y782D02*
X3096Y782D01*
X1987Y781D02*
X2099Y781D01*
X2985Y781D02*
X3096Y781D01*
X1987Y780D02*
X2099Y780D01*
X2984Y780D02*
X3097Y780D01*
X1986Y779D02*
X2100Y779D01*
X2984Y779D02*
X3098Y779D01*
X1986Y778D02*
X2101Y778D01*
X2983Y778D02*
X3098Y778D01*
X1985Y777D02*
X2101Y777D01*
X2983Y777D02*
X3098Y777D01*
X1985Y776D02*
X2101Y776D01*
X2982Y776D02*
X3099Y776D01*
X1984Y775D02*
X2102Y775D01*
X2982Y775D02*
X3099Y775D01*
X1984Y774D02*
X2102Y774D01*
X2981Y774D02*
X3100Y774D01*
X1983Y773D02*
X2103Y773D01*
X2981Y773D02*
X3100Y773D01*
X1983Y772D02*
X2103Y772D01*
X2981Y772D02*
X3100Y772D01*
X1983Y771D02*
X2103Y771D01*
X2980Y771D02*
X3101Y771D01*
X1983Y770D02*
X2103Y770D01*
X2980Y770D02*
X3101Y770D01*
X1982Y769D02*
X2104Y769D01*
X2980Y769D02*
X3101Y769D01*
X1982Y768D02*
X2104Y768D01*
X2980Y768D02*
X3101Y768D01*
X1982Y767D02*
X2039Y767D01*
X2047Y767D02*
X2104Y767D01*
X2980Y767D02*
X3036Y767D01*
X3044Y767D02*
X3102Y767D01*
X1982Y766D02*
X2038Y766D01*
X2048Y766D02*
X2104Y766D01*
X2979Y766D02*
X3035Y766D01*
X3045Y766D02*
X3102Y766D01*
X1982Y765D02*
X2037Y765D01*
X2049Y765D02*
X2104Y765D01*
X2979Y765D02*
X3034Y765D01*
X3046Y765D02*
X3102Y765D01*
X1982Y764D02*
X2037Y764D01*
X2049Y764D02*
X2104Y764D01*
X2979Y764D02*
X3033Y764D01*
X3046Y764D02*
X3102Y764D01*
X1982Y763D02*
X2036Y763D01*
X2050Y763D02*
X2104Y763D01*
X2979Y763D02*
X3033Y763D01*
X3046Y763D02*
X3102Y763D01*
X1982Y762D02*
X2036Y762D01*
X2050Y762D02*
X2105Y762D01*
X2979Y762D02*
X3033Y762D01*
X3046Y762D02*
X3102Y762D01*
X1982Y761D02*
X2036Y761D01*
X2050Y761D02*
X2105Y761D01*
X2979Y761D02*
X3033Y761D01*
X3046Y761D02*
X3102Y761D01*
X1982Y760D02*
X2037Y760D01*
X2049Y760D02*
X2105Y760D01*
X2979Y760D02*
X3033Y760D01*
X3046Y760D02*
X3102Y760D01*
X1982Y759D02*
X2037Y759D01*
X2049Y759D02*
X2105Y759D01*
X2979Y759D02*
X3034Y759D01*
X3046Y759D02*
X3102Y759D01*
X1982Y758D02*
X2038Y758D01*
X2048Y758D02*
X2105Y758D01*
X2979Y758D02*
X3035Y758D01*
X3045Y758D02*
X3102Y758D01*
X1982Y757D02*
X2039Y757D01*
X2047Y757D02*
X2105Y757D01*
X2980Y757D02*
X3036Y757D01*
X3044Y757D02*
X3102Y757D01*
X1982Y756D02*
X2041Y756D01*
X2045Y756D02*
X2105Y756D01*
X2980Y756D02*
X3038Y756D01*
X3041Y756D02*
X3101Y756D01*
X1982Y755D02*
X2105Y755D01*
X2980Y755D02*
X3101Y755D01*
X1983Y754D02*
X2105Y754D01*
X2980Y754D02*
X3101Y754D01*
X1983Y753D02*
X2105Y753D01*
X2980Y753D02*
X3101Y753D01*
X1983Y752D02*
X2104Y752D01*
X2981Y752D02*
X3100Y752D01*
X1983Y751D02*
X2103Y751D01*
X2981Y751D02*
X3100Y751D01*
X1984Y750D02*
X2102Y750D01*
X2981Y750D02*
X3100Y750D01*
X1984Y749D02*
X2102Y749D01*
X2982Y749D02*
X3099Y749D01*
X1985Y748D02*
X2101Y748D01*
X2982Y748D02*
X3099Y748D01*
X1985Y747D02*
X2101Y747D01*
X2983Y747D02*
X3099Y747D01*
X1986Y746D02*
X2101Y746D01*
X2983Y746D02*
X3098Y746D01*
X1986Y745D02*
X2100Y745D01*
X2984Y745D02*
X3098Y745D01*
X1987Y744D02*
X2099Y744D01*
X2984Y744D02*
X3097Y744D01*
X1987Y743D02*
X2099Y743D01*
X2985Y743D02*
X3096Y743D01*
X1988Y742D02*
X2098Y742D01*
X2985Y742D02*
X3096Y742D01*
X1988Y741D02*
X2098Y741D01*
X2986Y741D02*
X3095Y741D01*
X1989Y740D02*
X2097Y740D01*
X2987Y740D02*
X3094Y740D01*
X1990Y739D02*
X2096Y739D01*
X2987Y739D02*
X3094Y739D01*
X1991Y738D02*
X2095Y738D01*
X2988Y738D02*
X3093Y738D01*
X1992Y737D02*
X2094Y737D01*
X2989Y737D02*
X3092Y737D01*
X1993Y736D02*
X2093Y736D01*
X2990Y736D02*
X3091Y736D01*
X1994Y735D02*
X2092Y735D01*
X2991Y735D02*
X3090Y735D01*
X1995Y734D02*
X2091Y734D01*
X2993Y734D02*
X3089Y734D01*
X1996Y733D02*
X2090Y733D01*
X2994Y733D02*
X3087Y733D01*
X1998Y732D02*
X2088Y732D01*
X2995Y732D02*
X3086Y732D01*
X2000Y731D02*
X2086Y731D01*
X2997Y731D02*
X3084Y731D01*
X2002Y730D02*
X2085Y730D01*
X2999Y730D02*
X3082Y730D01*
X2004Y729D02*
X2082Y729D01*
X3001Y729D02*
X3080Y729D01*
X2006Y728D02*
X2080Y728D01*
X3004Y728D02*
X3077Y728D01*
X2010Y727D02*
X2076Y727D01*
X3007Y727D02*
X3074Y727D01*
X2018Y726D02*
X2068Y726D01*
X3015Y726D02*
X3066Y726D01*
X2010Y697D02*
X2076Y697D01*
X3007Y697D02*
X3074Y697D01*
X2006Y696D02*
X2080Y696D01*
X3004Y696D02*
X3077Y696D01*
X2004Y695D02*
X2082Y695D01*
X3001Y695D02*
X3080Y695D01*
X2002Y694D02*
X2085Y694D01*
X2999Y694D02*
X3082Y694D01*
X2000Y693D02*
X2086Y693D01*
X2997Y693D02*
X3084Y693D01*
X1998Y692D02*
X2088Y692D01*
X2995Y692D02*
X3086Y692D01*
X1996Y691D02*
X2090Y691D01*
X2994Y691D02*
X3087Y691D01*
X1995Y690D02*
X2091Y690D01*
X2992Y690D02*
X3088Y690D01*
X1994Y689D02*
X2092Y689D01*
X2991Y689D02*
X3090Y689D01*
X1993Y688D02*
X2093Y688D01*
X2990Y688D02*
X3091Y688D01*
X1992Y687D02*
X2094Y687D01*
X2989Y687D02*
X3092Y687D01*
X1991Y686D02*
X2095Y686D01*
X2988Y686D02*
X3093Y686D01*
X1990Y685D02*
X2096Y685D01*
X2987Y685D02*
X3094Y685D01*
X1989Y684D02*
X2097Y684D01*
X2987Y684D02*
X3094Y684D01*
X1988Y683D02*
X2098Y683D01*
X2986Y683D02*
X3095Y683D01*
X1988Y682D02*
X2098Y682D01*
X2985Y682D02*
X3096Y682D01*
X1987Y681D02*
X2099Y681D01*
X2985Y681D02*
X3096Y681D01*
X1987Y680D02*
X2099Y680D01*
X2984Y680D02*
X3097Y680D01*
X1986Y679D02*
X2100Y679D01*
X2983Y679D02*
X3097Y679D01*
X1986Y678D02*
X2101Y678D01*
X2983Y678D02*
X3098Y678D01*
X1985Y677D02*
X2101Y677D01*
X2983Y677D02*
X3098Y677D01*
X1985Y676D02*
X2101Y676D01*
X2982Y676D02*
X3099Y676D01*
X1984Y675D02*
X2102Y675D01*
X2982Y675D02*
X3099Y675D01*
X1984Y674D02*
X2102Y674D01*
X2981Y674D02*
X3100Y674D01*
X1983Y673D02*
X2103Y673D01*
X2981Y673D02*
X3100Y673D01*
X1983Y672D02*
X2103Y672D01*
X2981Y672D02*
X3100Y672D01*
X1983Y671D02*
X2103Y671D01*
X2980Y671D02*
X3101Y671D01*
X1983Y670D02*
X2103Y670D01*
X2980Y670D02*
X3101Y670D01*
X1982Y669D02*
X2104Y669D01*
X2980Y669D02*
X3101Y669D01*
X1982Y668D02*
X2104Y668D01*
X2980Y668D02*
X3101Y668D01*
X1982Y667D02*
X2039Y667D01*
X2047Y667D02*
X2104Y667D01*
X2979Y667D02*
X3036Y667D01*
X3043Y667D02*
X3101Y667D01*
X1982Y666D02*
X2038Y666D01*
X2048Y666D02*
X2104Y666D01*
X2979Y666D02*
X3035Y666D01*
X3045Y666D02*
X3102Y666D01*
X1982Y665D02*
X2037Y665D01*
X2049Y665D02*
X2104Y665D01*
X2979Y665D02*
X3034Y665D01*
X3045Y665D02*
X3102Y665D01*
X1982Y664D02*
X2037Y664D01*
X2049Y664D02*
X2104Y664D01*
X2979Y664D02*
X3033Y664D01*
X3046Y664D02*
X3102Y664D01*
X1982Y663D02*
X2037Y663D01*
X2050Y663D02*
X2104Y663D01*
X2979Y663D02*
X3033Y663D01*
X3046Y663D02*
X3102Y663D01*
X1982Y662D02*
X2037Y662D01*
X2050Y662D02*
X2105Y662D01*
X2979Y662D02*
X3033Y662D01*
X3046Y662D02*
X3102Y662D01*
X1982Y661D02*
X2037Y661D01*
X2050Y661D02*
X2105Y661D01*
X2979Y661D02*
X3033Y661D01*
X3046Y661D02*
X3102Y661D01*
X1982Y660D02*
X2037Y660D01*
X2049Y660D02*
X2105Y660D01*
X2979Y660D02*
X3033Y660D01*
X3046Y660D02*
X3102Y660D01*
X1982Y659D02*
X2037Y659D01*
X2049Y659D02*
X2105Y659D01*
X2979Y659D02*
X3034Y659D01*
X3045Y659D02*
X3102Y659D01*
X1982Y658D02*
X2038Y658D01*
X2048Y658D02*
X2105Y658D01*
X2979Y658D02*
X3035Y658D01*
X3045Y658D02*
X3102Y658D01*
X1982Y657D02*
X2039Y657D01*
X2047Y657D02*
X2105Y657D01*
X2979Y657D02*
X3036Y657D01*
X3044Y657D02*
X3101Y657D01*
X1982Y656D02*
X2041Y656D01*
X2045Y656D02*
X2105Y656D01*
X2980Y656D02*
X3038Y656D01*
X3041Y656D02*
X3101Y656D01*
X1982Y655D02*
X2105Y655D01*
X2980Y655D02*
X3101Y655D01*
X1983Y654D02*
X2105Y654D01*
X2980Y654D02*
X3101Y654D01*
X1983Y653D02*
X2105Y653D01*
X2980Y653D02*
X3101Y653D01*
X1983Y652D02*
X2104Y652D01*
X2981Y652D02*
X3100Y652D01*
X1983Y651D02*
X2103Y651D01*
X2981Y651D02*
X3100Y651D01*
X1984Y650D02*
X2102Y650D01*
X2981Y650D02*
X3100Y650D01*
X1984Y649D02*
X2102Y649D01*
X2982Y649D02*
X3099Y649D01*
X1985Y648D02*
X2101Y648D01*
X2982Y648D02*
X3099Y648D01*
X1985Y647D02*
X2101Y647D01*
X2983Y647D02*
X3098Y647D01*
X1986Y646D02*
X2101Y646D01*
X2983Y646D02*
X3098Y646D01*
X1986Y645D02*
X2100Y645D01*
X2983Y645D02*
X3097Y645D01*
X1987Y644D02*
X2099Y644D01*
X2984Y644D02*
X3097Y644D01*
X1987Y643D02*
X2099Y643D01*
X2985Y643D02*
X3096Y643D01*
X1988Y642D02*
X2098Y642D01*
X2985Y642D02*
X3096Y642D01*
X1988Y641D02*
X2098Y641D01*
X2986Y641D02*
X3095Y641D01*
X1989Y640D02*
X2097Y640D01*
X2987Y640D02*
X3094Y640D01*
X1990Y639D02*
X2096Y639D01*
X2987Y639D02*
X3094Y639D01*
X1991Y638D02*
X2095Y638D01*
X2988Y638D02*
X3093Y638D01*
X1992Y637D02*
X2094Y637D01*
X2989Y637D02*
X3092Y637D01*
X1993Y636D02*
X2093Y636D01*
X2990Y636D02*
X3091Y636D01*
X1994Y635D02*
X2092Y635D01*
X2991Y635D02*
X3090Y635D01*
X1995Y634D02*
X2091Y634D01*
X2993Y634D02*
X3088Y634D01*
X1996Y633D02*
X2090Y633D01*
X2994Y633D02*
X3087Y633D01*
X1998Y632D02*
X2088Y632D01*
X2995Y632D02*
X3086Y632D01*
X2000Y631D02*
X2086Y631D01*
X2997Y631D02*
X3084Y631D01*
X2002Y630D02*
X2084Y630D01*
X2999Y630D02*
X3082Y630D01*
X2004Y629D02*
X2082Y629D01*
X3001Y629D02*
X3080Y629D01*
X2006Y628D02*
X2080Y628D01*
X3004Y628D02*
X3077Y628D01*
X2010Y627D02*
X2076Y627D01*
X3007Y627D02*
X3074Y627D01*
X3405Y299D02*
X3479Y299D01*
X3405Y298D02*
X3479Y298D01*
X3405Y297D02*
X3479Y297D01*
X3405Y296D02*
X3479Y296D01*
X3405Y295D02*
X3479Y295D01*
X3405Y294D02*
X3479Y294D01*
X3405Y293D02*
X3479Y293D01*
X3405Y292D02*
X3479Y292D01*
X3405Y291D02*
X3479Y291D01*
X3405Y290D02*
X3479Y290D01*
X3405Y289D02*
X3479Y289D01*
X3405Y288D02*
X3479Y288D01*
X3405Y287D02*
X3479Y287D01*
X3405Y286D02*
X3479Y286D01*
X3405Y285D02*
X3479Y285D01*
X3405Y284D02*
X3479Y284D01*
X3405Y283D02*
X3479Y283D01*
X3405Y282D02*
X3479Y282D01*
X3405Y281D02*
X3479Y281D01*
X3405Y280D02*
X3479Y280D01*
X3405Y279D02*
X3479Y279D01*
X3405Y278D02*
X3479Y278D01*
X3405Y277D02*
X3479Y277D01*
X3405Y276D02*
X3479Y276D01*
X3405Y275D02*
X3479Y275D01*
X3405Y274D02*
X3479Y274D01*
X3405Y273D02*
X3479Y273D01*
X3405Y272D02*
X3479Y272D01*
X3405Y271D02*
X3441Y271D01*
X3443Y271D02*
X3479Y271D01*
X3405Y270D02*
X3437Y270D01*
X3446Y270D02*
X3479Y270D01*
X3405Y269D02*
X3436Y269D01*
X3447Y269D02*
X3479Y269D01*
X3405Y268D02*
X3434Y268D01*
X3449Y268D02*
X3479Y268D01*
X3405Y267D02*
X3434Y267D01*
X3450Y267D02*
X3479Y267D01*
X3405Y266D02*
X3433Y266D01*
X3450Y266D02*
X3479Y266D01*
X3405Y265D02*
X3433Y265D01*
X3450Y265D02*
X3479Y265D01*
X3405Y264D02*
X3432Y264D01*
X3451Y264D02*
X3479Y264D01*
X3405Y263D02*
X3432Y263D01*
X3451Y263D02*
X3479Y263D01*
X3405Y262D02*
X3432Y262D01*
X3451Y262D02*
X3479Y262D01*
X3405Y261D02*
X3432Y261D01*
X3451Y261D02*
X3479Y261D01*
X3405Y260D02*
X3433Y260D01*
X3451Y260D02*
X3479Y260D01*
X3405Y259D02*
X3433Y259D01*
X3450Y259D02*
X3479Y259D01*
X3405Y258D02*
X3433Y258D01*
X3450Y258D02*
X3479Y258D01*
X3405Y257D02*
X3434Y257D01*
X3449Y257D02*
X3479Y257D01*
X3405Y256D02*
X3435Y256D01*
X3448Y256D02*
X3479Y256D01*
X3405Y255D02*
X3436Y255D01*
X3447Y255D02*
X3479Y255D01*
X3405Y254D02*
X3438Y254D01*
X3445Y254D02*
X3479Y254D01*
X3405Y253D02*
X3479Y253D01*
X3405Y252D02*
X3479Y252D01*
X3405Y251D02*
X3479Y251D01*
X3405Y250D02*
X3479Y250D01*
X3405Y249D02*
X3479Y249D01*
X3405Y248D02*
X3479Y248D01*
X3405Y247D02*
X3479Y247D01*
X3405Y246D02*
X3479Y246D01*
X3405Y245D02*
X3479Y245D01*
X3405Y244D02*
X3479Y244D01*
X3405Y243D02*
X3479Y243D01*
X3405Y242D02*
X3479Y242D01*
X3405Y241D02*
X3479Y241D01*
X3405Y240D02*
X3479Y240D01*
X3405Y239D02*
X3479Y239D01*
X3405Y238D02*
X3479Y238D01*
X3405Y237D02*
X3479Y237D01*
X3405Y236D02*
X3479Y236D01*
X3405Y235D02*
X3479Y235D01*
X3405Y234D02*
X3479Y234D01*
X3405Y233D02*
X3479Y233D01*
X3405Y232D02*
X3479Y232D01*
X3405Y231D02*
X3479Y231D01*
X3405Y230D02*
X3479Y230D01*
X3405Y229D02*
X3479Y229D01*
X3405Y228D02*
X3479Y228D01*
X3405Y227D02*
X3479Y227D01*
X3405Y226D02*
X3479Y226D01*
X3405Y225D02*
X3479Y225D01*
D02*
G04 End of Mask1*
M02*