G04 MADE WITH FRITZING*
G04 WWW.FRITZING.ORG*
G04 DOUBLE SIDED*
G04 HOLES PLATED*
G04 CONTOUR ON CENTER OF CONTOUR VECTOR*
%ASAXBY*%
%FSLAX23Y23*%
%MOIN*%
%OFA0B0*%
%SFA1.0B1.0*%
%ADD10R,0.001000X0.001000*%
%LNSILK0*%
G90*
G70*
G54D10*
X376Y2605D02*
X3193Y2605D01*
X361Y2604D02*
X3207Y2604D01*
X351Y2603D02*
X3218Y2603D01*
X343Y2602D02*
X3226Y2602D01*
X336Y2601D02*
X3233Y2601D01*
X330Y2600D02*
X3239Y2600D01*
X324Y2599D02*
X3245Y2599D01*
X319Y2598D02*
X3250Y2598D01*
X314Y2597D02*
X375Y2597D01*
X3194Y2597D02*
X3255Y2597D01*
X309Y2596D02*
X361Y2596D01*
X3208Y2596D02*
X3260Y2596D01*
X305Y2595D02*
X351Y2595D01*
X3218Y2595D02*
X3264Y2595D01*
X301Y2594D02*
X342Y2594D01*
X3227Y2594D02*
X3268Y2594D01*
X297Y2593D02*
X335Y2593D01*
X3234Y2593D02*
X3272Y2593D01*
X293Y2592D02*
X329Y2592D01*
X3240Y2592D02*
X3276Y2592D01*
X289Y2591D02*
X323Y2591D01*
X3246Y2591D02*
X3280Y2591D01*
X286Y2590D02*
X318Y2590D01*
X3251Y2590D02*
X3283Y2590D01*
X282Y2589D02*
X313Y2589D01*
X3256Y2589D02*
X3287Y2589D01*
X279Y2588D02*
X309Y2588D01*
X3260Y2588D02*
X3290Y2588D01*
X276Y2587D02*
X304Y2587D01*
X3265Y2587D02*
X3293Y2587D01*
X273Y2586D02*
X300Y2586D01*
X3269Y2586D02*
X3296Y2586D01*
X270Y2585D02*
X296Y2585D01*
X3273Y2585D02*
X3299Y2585D01*
X267Y2584D02*
X293Y2584D01*
X3276Y2584D02*
X3302Y2584D01*
X264Y2583D02*
X289Y2583D01*
X3280Y2583D02*
X3305Y2583D01*
X261Y2582D02*
X285Y2582D01*
X3284Y2582D02*
X3308Y2582D01*
X258Y2581D02*
X282Y2581D01*
X3287Y2581D02*
X3311Y2581D01*
X256Y2580D02*
X279Y2580D01*
X3290Y2580D02*
X3313Y2580D01*
X253Y2579D02*
X276Y2579D01*
X3293Y2579D02*
X3316Y2579D01*
X251Y2578D02*
X273Y2578D01*
X3296Y2578D02*
X3318Y2578D01*
X248Y2577D02*
X270Y2577D01*
X3299Y2577D02*
X3321Y2577D01*
X246Y2576D02*
X267Y2576D01*
X3302Y2576D02*
X3323Y2576D01*
X243Y2575D02*
X264Y2575D01*
X3305Y2575D02*
X3326Y2575D01*
X241Y2574D02*
X261Y2574D01*
X3308Y2574D02*
X3328Y2574D01*
X238Y2573D02*
X258Y2573D01*
X3311Y2573D02*
X3331Y2573D01*
X236Y2572D02*
X256Y2572D01*
X3313Y2572D02*
X3333Y2572D01*
X234Y2571D02*
X253Y2571D01*
X3316Y2571D02*
X3335Y2571D01*
X232Y2570D02*
X251Y2570D01*
X3318Y2570D02*
X3337Y2570D01*
X229Y2569D02*
X248Y2569D01*
X3321Y2569D02*
X3340Y2569D01*
X227Y2568D02*
X246Y2568D01*
X3323Y2568D02*
X3342Y2568D01*
X225Y2567D02*
X243Y2567D01*
X3326Y2567D02*
X3344Y2567D01*
X223Y2566D02*
X241Y2566D01*
X3328Y2566D02*
X3346Y2566D01*
X221Y2565D02*
X239Y2565D01*
X3330Y2565D02*
X3348Y2565D01*
X219Y2564D02*
X237Y2564D01*
X3332Y2564D02*
X3350Y2564D01*
X217Y2563D02*
X234Y2563D01*
X3335Y2563D02*
X3352Y2563D01*
X215Y2562D02*
X232Y2562D01*
X3337Y2562D02*
X3354Y2562D01*
X213Y2561D02*
X230Y2561D01*
X3339Y2561D02*
X3356Y2561D01*
X211Y2560D02*
X228Y2560D01*
X3341Y2560D02*
X3358Y2560D01*
X209Y2559D02*
X226Y2559D01*
X3343Y2559D02*
X3360Y2559D01*
X207Y2558D02*
X224Y2558D01*
X3345Y2558D02*
X3362Y2558D01*
X205Y2557D02*
X222Y2557D01*
X3347Y2557D02*
X3364Y2557D01*
X204Y2556D02*
X220Y2556D01*
X3349Y2556D02*
X3365Y2556D01*
X202Y2555D02*
X218Y2555D01*
X3351Y2555D02*
X3367Y2555D01*
X200Y2554D02*
X216Y2554D01*
X3353Y2554D02*
X3369Y2554D01*
X198Y2553D02*
X214Y2553D01*
X3355Y2553D02*
X3371Y2553D01*
X197Y2552D02*
X212Y2552D01*
X3357Y2552D02*
X3372Y2552D01*
X195Y2551D02*
X210Y2551D01*
X3359Y2551D02*
X3374Y2551D01*
X193Y2550D02*
X208Y2550D01*
X3361Y2550D02*
X3376Y2550D01*
X191Y2549D02*
X206Y2549D01*
X3363Y2549D02*
X3378Y2549D01*
X190Y2548D02*
X205Y2548D01*
X3364Y2548D02*
X3379Y2548D01*
X188Y2547D02*
X203Y2547D01*
X3366Y2547D02*
X3381Y2547D01*
X187Y2546D02*
X201Y2546D01*
X3368Y2546D02*
X3382Y2546D01*
X185Y2545D02*
X199Y2545D01*
X3370Y2545D02*
X3384Y2545D01*
X184Y2544D02*
X198Y2544D01*
X3371Y2544D02*
X3385Y2544D01*
X182Y2543D02*
X196Y2543D01*
X3373Y2543D02*
X3387Y2543D01*
X180Y2542D02*
X194Y2542D01*
X3375Y2542D02*
X3389Y2542D01*
X179Y2541D02*
X192Y2541D01*
X3376Y2541D02*
X3390Y2541D01*
X177Y2540D02*
X191Y2540D01*
X3378Y2540D02*
X3392Y2540D01*
X176Y2539D02*
X189Y2539D01*
X3380Y2539D02*
X3393Y2539D01*
X174Y2538D02*
X188Y2538D01*
X3381Y2538D02*
X3395Y2538D01*
X173Y2537D02*
X186Y2537D01*
X3383Y2537D02*
X3396Y2537D01*
X171Y2536D02*
X185Y2536D01*
X3384Y2536D02*
X3398Y2536D01*
X170Y2535D02*
X183Y2535D01*
X3386Y2535D02*
X3399Y2535D01*
X168Y2534D02*
X182Y2534D01*
X3387Y2534D02*
X3401Y2534D01*
X167Y2533D02*
X180Y2533D01*
X3389Y2533D02*
X3402Y2533D01*
X166Y2532D02*
X178Y2532D01*
X3391Y2532D02*
X3403Y2532D01*
X164Y2531D02*
X177Y2531D01*
X3392Y2531D02*
X3405Y2531D01*
X163Y2530D02*
X176Y2530D01*
X3393Y2530D02*
X3406Y2530D01*
X161Y2529D02*
X174Y2529D01*
X3395Y2529D02*
X3408Y2529D01*
X160Y2528D02*
X173Y2528D01*
X3396Y2528D02*
X3409Y2528D01*
X159Y2527D02*
X171Y2527D01*
X3398Y2527D02*
X3410Y2527D01*
X157Y2526D02*
X170Y2526D01*
X3399Y2526D02*
X3412Y2526D01*
X156Y2525D02*
X168Y2525D01*
X3401Y2525D02*
X3413Y2525D01*
X155Y2524D02*
X167Y2524D01*
X3402Y2524D02*
X3414Y2524D01*
X153Y2523D02*
X166Y2523D01*
X3403Y2523D02*
X3416Y2523D01*
X152Y2522D02*
X164Y2522D01*
X3405Y2522D02*
X3417Y2522D01*
X151Y2521D02*
X163Y2521D01*
X3406Y2521D02*
X3418Y2521D01*
X150Y2520D02*
X162Y2520D01*
X3407Y2520D02*
X3419Y2520D01*
X148Y2519D02*
X160Y2519D01*
X3409Y2519D02*
X3421Y2519D01*
X147Y2518D02*
X159Y2518D01*
X3410Y2518D02*
X3422Y2518D01*
X146Y2517D02*
X158Y2517D01*
X3411Y2517D02*
X3423Y2517D01*
X144Y2516D02*
X156Y2516D01*
X3413Y2516D02*
X3425Y2516D01*
X143Y2515D02*
X155Y2515D01*
X3414Y2515D02*
X3426Y2515D01*
X142Y2514D02*
X154Y2514D01*
X3415Y2514D02*
X3427Y2514D01*
X141Y2513D02*
X153Y2513D01*
X3416Y2513D02*
X3428Y2513D01*
X140Y2512D02*
X151Y2512D01*
X3418Y2512D02*
X3429Y2512D01*
X139Y2511D02*
X150Y2511D01*
X3419Y2511D02*
X3430Y2511D01*
X137Y2510D02*
X149Y2510D01*
X3420Y2510D02*
X3432Y2510D01*
X136Y2509D02*
X148Y2509D01*
X3421Y2509D02*
X3433Y2509D01*
X135Y2508D02*
X146Y2508D01*
X3423Y2508D02*
X3434Y2508D01*
X134Y2507D02*
X145Y2507D01*
X3424Y2507D02*
X3435Y2507D01*
X133Y2506D02*
X144Y2506D01*
X3425Y2506D02*
X3436Y2506D01*
X132Y2505D02*
X143Y2505D01*
X3426Y2505D02*
X3437Y2505D01*
X130Y2504D02*
X142Y2504D01*
X3427Y2504D02*
X3439Y2504D01*
X129Y2503D02*
X141Y2503D01*
X3428Y2503D02*
X3440Y2503D01*
X128Y2502D02*
X139Y2502D01*
X3430Y2502D02*
X3441Y2502D01*
X127Y2501D02*
X138Y2501D01*
X3431Y2501D02*
X3442Y2501D01*
X126Y2500D02*
X137Y2500D01*
X3432Y2500D02*
X3443Y2500D01*
X125Y2499D02*
X136Y2499D01*
X3433Y2499D02*
X3444Y2499D01*
X124Y2498D02*
X135Y2498D01*
X3434Y2498D02*
X3445Y2498D01*
X123Y2497D02*
X134Y2497D01*
X3435Y2497D02*
X3446Y2497D01*
X122Y2496D02*
X133Y2496D01*
X3436Y2496D02*
X3447Y2496D01*
X121Y2495D02*
X132Y2495D01*
X3437Y2495D02*
X3448Y2495D01*
X120Y2494D02*
X130Y2494D01*
X3439Y2494D02*
X3449Y2494D01*
X119Y2493D02*
X129Y2493D01*
X3440Y2493D02*
X3450Y2493D01*
X118Y2492D02*
X128Y2492D01*
X3441Y2492D02*
X3451Y2492D01*
X117Y2491D02*
X127Y2491D01*
X3442Y2491D02*
X3452Y2491D01*
X116Y2490D02*
X126Y2490D01*
X3443Y2490D02*
X3453Y2490D01*
X115Y2489D02*
X125Y2489D01*
X3444Y2489D02*
X3454Y2489D01*
X114Y2488D02*
X124Y2488D01*
X3445Y2488D02*
X3455Y2488D01*
X113Y2487D02*
X123Y2487D01*
X3446Y2487D02*
X3456Y2487D01*
X112Y2486D02*
X122Y2486D01*
X3447Y2486D02*
X3457Y2486D01*
X111Y2485D02*
X121Y2485D01*
X3448Y2485D02*
X3458Y2485D01*
X110Y2484D02*
X120Y2484D01*
X3449Y2484D02*
X3459Y2484D01*
X109Y2483D02*
X119Y2483D01*
X3450Y2483D02*
X3460Y2483D01*
X108Y2482D02*
X118Y2482D01*
X3451Y2482D02*
X3461Y2482D01*
X107Y2481D02*
X117Y2481D01*
X3452Y2481D02*
X3462Y2481D01*
X106Y2480D02*
X116Y2480D01*
X3453Y2480D02*
X3463Y2480D01*
X105Y2479D02*
X115Y2479D01*
X3454Y2479D02*
X3464Y2479D01*
X104Y2478D02*
X114Y2478D01*
X3455Y2478D02*
X3465Y2478D01*
X103Y2477D02*
X113Y2477D01*
X3456Y2477D02*
X3466Y2477D01*
X102Y2476D02*
X112Y2476D01*
X3457Y2476D02*
X3467Y2476D01*
X101Y2475D02*
X111Y2475D01*
X3458Y2475D02*
X3468Y2475D01*
X101Y2474D02*
X110Y2474D01*
X3459Y2474D02*
X3468Y2474D01*
X100Y2473D02*
X109Y2473D01*
X3460Y2473D02*
X3469Y2473D01*
X99Y2472D02*
X108Y2472D01*
X3461Y2472D02*
X3470Y2472D01*
X98Y2471D02*
X108Y2471D01*
X3461Y2471D02*
X3471Y2471D01*
X97Y2470D02*
X107Y2470D01*
X3462Y2470D02*
X3472Y2470D01*
X96Y2469D02*
X106Y2469D01*
X3463Y2469D02*
X3473Y2469D01*
X95Y2468D02*
X105Y2468D01*
X3464Y2468D02*
X3474Y2468D01*
X94Y2467D02*
X104Y2467D01*
X3465Y2467D02*
X3475Y2467D01*
X94Y2466D02*
X103Y2466D01*
X3466Y2466D02*
X3475Y2466D01*
X93Y2465D02*
X102Y2465D01*
X3467Y2465D02*
X3476Y2465D01*
X92Y2464D02*
X101Y2464D01*
X3468Y2464D02*
X3477Y2464D01*
X91Y2463D02*
X101Y2463D01*
X3468Y2463D02*
X3478Y2463D01*
X90Y2462D02*
X100Y2462D01*
X3469Y2462D02*
X3479Y2462D01*
X89Y2461D02*
X99Y2461D01*
X3470Y2461D02*
X3480Y2461D01*
X89Y2460D02*
X98Y2460D01*
X3471Y2460D02*
X3480Y2460D01*
X88Y2459D02*
X97Y2459D01*
X3472Y2459D02*
X3481Y2459D01*
X87Y2458D02*
X96Y2458D01*
X3473Y2458D02*
X3482Y2458D01*
X86Y2457D02*
X95Y2457D01*
X3474Y2457D02*
X3483Y2457D01*
X85Y2456D02*
X95Y2456D01*
X3474Y2456D02*
X3484Y2456D01*
X85Y2455D02*
X94Y2455D01*
X3475Y2455D02*
X3484Y2455D01*
X84Y2454D02*
X93Y2454D01*
X3476Y2454D02*
X3485Y2454D01*
X83Y2453D02*
X92Y2453D01*
X3477Y2453D02*
X3486Y2453D01*
X82Y2452D02*
X91Y2452D01*
X3478Y2452D02*
X3487Y2452D01*
X81Y2451D02*
X91Y2451D01*
X3478Y2451D02*
X3488Y2451D01*
X81Y2450D02*
X90Y2450D01*
X3479Y2450D02*
X3488Y2450D01*
X80Y2449D02*
X89Y2449D01*
X3480Y2449D02*
X3489Y2449D01*
X79Y2448D02*
X88Y2448D01*
X3481Y2448D02*
X3490Y2448D01*
X78Y2447D02*
X87Y2447D01*
X3482Y2447D02*
X3491Y2447D01*
X78Y2446D02*
X87Y2446D01*
X3482Y2446D02*
X3491Y2446D01*
X77Y2445D02*
X86Y2445D01*
X3483Y2445D02*
X3492Y2445D01*
X76Y2444D02*
X85Y2444D01*
X3484Y2444D02*
X3493Y2444D01*
X75Y2443D02*
X84Y2443D01*
X3485Y2443D02*
X3494Y2443D01*
X75Y2442D02*
X84Y2442D01*
X3485Y2442D02*
X3494Y2442D01*
X74Y2441D02*
X83Y2441D01*
X3486Y2441D02*
X3495Y2441D01*
X73Y2440D02*
X82Y2440D01*
X3487Y2440D02*
X3496Y2440D01*
X73Y2439D02*
X81Y2439D01*
X3488Y2439D02*
X3496Y2439D01*
X72Y2438D02*
X81Y2438D01*
X3488Y2438D02*
X3497Y2438D01*
X71Y2437D02*
X80Y2437D01*
X3489Y2437D02*
X3498Y2437D01*
X70Y2436D02*
X79Y2436D01*
X3490Y2436D02*
X3499Y2436D01*
X70Y2435D02*
X78Y2435D01*
X3490Y2435D02*
X3499Y2435D01*
X69Y2434D02*
X78Y2434D01*
X3491Y2434D02*
X3500Y2434D01*
X68Y2433D02*
X77Y2433D01*
X3492Y2433D02*
X3501Y2433D01*
X68Y2432D02*
X76Y2432D01*
X3493Y2432D02*
X3501Y2432D01*
X67Y2431D02*
X76Y2431D01*
X3493Y2431D02*
X3502Y2431D01*
X66Y2430D02*
X75Y2430D01*
X3494Y2430D02*
X3503Y2430D01*
X66Y2429D02*
X74Y2429D01*
X3495Y2429D02*
X3503Y2429D01*
X65Y2428D02*
X73Y2428D01*
X3496Y2428D02*
X3504Y2428D01*
X64Y2427D02*
X73Y2427D01*
X3496Y2427D02*
X3505Y2427D01*
X64Y2426D02*
X72Y2426D01*
X3497Y2426D02*
X3505Y2426D01*
X63Y2425D02*
X72Y2425D01*
X3497Y2425D02*
X3506Y2425D01*
X62Y2424D02*
X71Y2424D01*
X3498Y2424D02*
X3507Y2424D01*
X62Y2423D02*
X70Y2423D01*
X3499Y2423D02*
X3507Y2423D01*
X61Y2422D02*
X70Y2422D01*
X3499Y2422D02*
X3508Y2422D01*
X61Y2421D02*
X69Y2421D01*
X3500Y2421D02*
X3508Y2421D01*
X60Y2420D02*
X68Y2420D01*
X3501Y2420D02*
X3509Y2420D01*
X59Y2419D02*
X68Y2419D01*
X3501Y2419D02*
X3510Y2419D01*
X59Y2418D02*
X67Y2418D01*
X3502Y2418D02*
X3510Y2418D01*
X58Y2417D02*
X66Y2417D01*
X3503Y2417D02*
X3511Y2417D01*
X57Y2416D02*
X66Y2416D01*
X3503Y2416D02*
X3512Y2416D01*
X57Y2415D02*
X65Y2415D01*
X3504Y2415D02*
X3512Y2415D01*
X56Y2414D02*
X64Y2414D01*
X3505Y2414D02*
X3513Y2414D01*
X56Y2413D02*
X64Y2413D01*
X3505Y2413D02*
X3513Y2413D01*
X55Y2412D02*
X63Y2412D01*
X3506Y2412D02*
X3514Y2412D01*
X54Y2411D02*
X63Y2411D01*
X3506Y2411D02*
X3515Y2411D01*
X54Y2410D02*
X62Y2410D01*
X3507Y2410D02*
X3515Y2410D01*
X53Y2409D02*
X61Y2409D01*
X3508Y2409D02*
X3516Y2409D01*
X53Y2408D02*
X61Y2408D01*
X3508Y2408D02*
X3516Y2408D01*
X52Y2407D02*
X60Y2407D01*
X3509Y2407D02*
X3517Y2407D01*
X52Y2406D02*
X60Y2406D01*
X3509Y2406D02*
X3517Y2406D01*
X51Y2405D02*
X59Y2405D01*
X3510Y2405D02*
X3518Y2405D01*
X50Y2404D02*
X58Y2404D01*
X3511Y2404D02*
X3519Y2404D01*
X50Y2403D02*
X58Y2403D01*
X3511Y2403D02*
X3519Y2403D01*
X49Y2402D02*
X57Y2402D01*
X3512Y2402D02*
X3520Y2402D01*
X49Y2401D02*
X57Y2401D01*
X3512Y2401D02*
X3520Y2401D01*
X48Y2400D02*
X56Y2400D01*
X3513Y2400D02*
X3521Y2400D01*
X48Y2399D02*
X56Y2399D01*
X3513Y2399D02*
X3521Y2399D01*
X47Y2398D02*
X55Y2398D01*
X3514Y2398D02*
X3522Y2398D01*
X46Y2397D02*
X54Y2397D01*
X3515Y2397D02*
X3523Y2397D01*
X46Y2396D02*
X54Y2396D01*
X3515Y2396D02*
X3523Y2396D01*
X45Y2395D02*
X53Y2395D01*
X3516Y2395D02*
X3524Y2395D01*
X45Y2394D02*
X53Y2394D01*
X3516Y2394D02*
X3524Y2394D01*
X44Y2393D02*
X52Y2393D01*
X3517Y2393D02*
X3525Y2393D01*
X44Y2392D02*
X52Y2392D01*
X3517Y2392D02*
X3525Y2392D01*
X43Y2391D02*
X51Y2391D01*
X3518Y2391D02*
X3526Y2391D01*
X43Y2390D02*
X51Y2390D01*
X3518Y2390D02*
X3526Y2390D01*
X42Y2389D02*
X50Y2389D01*
X3519Y2389D02*
X3527Y2389D01*
X42Y2388D02*
X50Y2388D01*
X3519Y2388D02*
X3527Y2388D01*
X41Y2387D02*
X49Y2387D01*
X3520Y2387D02*
X3528Y2387D01*
X41Y2386D02*
X49Y2386D01*
X3520Y2386D02*
X3528Y2386D01*
X40Y2385D02*
X48Y2385D01*
X3521Y2385D02*
X3529Y2385D01*
X40Y2384D02*
X48Y2384D01*
X3521Y2384D02*
X3529Y2384D01*
X39Y2383D02*
X47Y2383D01*
X3522Y2383D02*
X3530Y2383D01*
X39Y2382D02*
X47Y2382D01*
X3522Y2382D02*
X3530Y2382D01*
X38Y2381D02*
X46Y2381D01*
X3523Y2381D02*
X3531Y2381D01*
X38Y2380D02*
X46Y2380D01*
X3523Y2380D02*
X3531Y2380D01*
X37Y2379D02*
X45Y2379D01*
X3524Y2379D02*
X3532Y2379D01*
X37Y2378D02*
X45Y2378D01*
X3524Y2378D02*
X3532Y2378D01*
X37Y2377D02*
X44Y2377D01*
X3525Y2377D02*
X3532Y2377D01*
X36Y2376D02*
X44Y2376D01*
X3525Y2376D02*
X3533Y2376D01*
X36Y2375D02*
X43Y2375D01*
X3526Y2375D02*
X3533Y2375D01*
X35Y2374D02*
X43Y2374D01*
X3526Y2374D02*
X3534Y2374D01*
X35Y2373D02*
X42Y2373D01*
X3527Y2373D02*
X3534Y2373D01*
X34Y2372D02*
X42Y2372D01*
X3527Y2372D02*
X3535Y2372D01*
X34Y2371D02*
X41Y2371D01*
X3528Y2371D02*
X3535Y2371D01*
X33Y2370D02*
X41Y2370D01*
X3528Y2370D02*
X3536Y2370D01*
X33Y2369D02*
X41Y2369D01*
X3528Y2369D02*
X3536Y2369D01*
X32Y2368D02*
X40Y2368D01*
X3529Y2368D02*
X3537Y2368D01*
X32Y2367D02*
X40Y2367D01*
X3529Y2367D02*
X3537Y2367D01*
X32Y2366D02*
X39Y2366D01*
X3530Y2366D02*
X3537Y2366D01*
X31Y2365D02*
X39Y2365D01*
X3530Y2365D02*
X3538Y2365D01*
X31Y2364D02*
X38Y2364D01*
X3531Y2364D02*
X3538Y2364D01*
X30Y2363D02*
X38Y2363D01*
X3531Y2363D02*
X3539Y2363D01*
X30Y2362D02*
X37Y2362D01*
X3532Y2362D02*
X3539Y2362D01*
X30Y2361D02*
X37Y2361D01*
X3532Y2361D02*
X3539Y2361D01*
X29Y2360D02*
X37Y2360D01*
X3532Y2360D02*
X3540Y2360D01*
X29Y2359D02*
X36Y2359D01*
X3533Y2359D02*
X3540Y2359D01*
X28Y2358D02*
X36Y2358D01*
X3533Y2358D02*
X3541Y2358D01*
X28Y2357D02*
X35Y2357D01*
X3534Y2357D02*
X3541Y2357D01*
X28Y2356D02*
X35Y2356D01*
X3534Y2356D02*
X3541Y2356D01*
X27Y2355D02*
X35Y2355D01*
X3534Y2355D02*
X3542Y2355D01*
X27Y2354D02*
X34Y2354D01*
X3535Y2354D02*
X3542Y2354D01*
X26Y2353D02*
X34Y2353D01*
X3535Y2353D02*
X3543Y2353D01*
X26Y2352D02*
X33Y2352D01*
X3536Y2352D02*
X3543Y2352D01*
X26Y2351D02*
X33Y2351D01*
X3536Y2351D02*
X3543Y2351D01*
X25Y2350D02*
X33Y2350D01*
X3536Y2350D02*
X3544Y2350D01*
X25Y2349D02*
X32Y2349D01*
X3537Y2349D02*
X3544Y2349D01*
X24Y2348D02*
X32Y2348D01*
X3537Y2348D02*
X3545Y2348D01*
X24Y2347D02*
X31Y2347D01*
X3538Y2347D02*
X3545Y2347D01*
X24Y2346D02*
X31Y2346D01*
X3538Y2346D02*
X3545Y2346D01*
X23Y2345D02*
X31Y2345D01*
X3538Y2345D02*
X3546Y2345D01*
X23Y2344D02*
X30Y2344D01*
X3539Y2344D02*
X3546Y2344D01*
X23Y2343D02*
X30Y2343D01*
X3539Y2343D02*
X3546Y2343D01*
X22Y2342D02*
X30Y2342D01*
X3539Y2342D02*
X3547Y2342D01*
X22Y2341D02*
X29Y2341D01*
X3540Y2341D02*
X3547Y2341D01*
X21Y2340D02*
X29Y2340D01*
X3540Y2340D02*
X3548Y2340D01*
X21Y2339D02*
X29Y2339D01*
X3540Y2339D02*
X3548Y2339D01*
X21Y2338D02*
X28Y2338D01*
X3541Y2338D02*
X3548Y2338D01*
X20Y2337D02*
X28Y2337D01*
X3541Y2337D02*
X3549Y2337D01*
X20Y2336D02*
X28Y2336D01*
X3541Y2336D02*
X3549Y2336D01*
X20Y2335D02*
X27Y2335D01*
X3542Y2335D02*
X3549Y2335D01*
X19Y2334D02*
X27Y2334D01*
X3542Y2334D02*
X3550Y2334D01*
X19Y2333D02*
X27Y2333D01*
X3542Y2333D02*
X3550Y2333D01*
X19Y2332D02*
X26Y2332D01*
X3543Y2332D02*
X3550Y2332D01*
X18Y2331D02*
X26Y2331D01*
X3543Y2331D02*
X3551Y2331D01*
X18Y2330D02*
X25Y2330D01*
X3544Y2330D02*
X3551Y2330D01*
X18Y2329D02*
X25Y2329D01*
X3544Y2329D02*
X3551Y2329D01*
X18Y2328D02*
X25Y2328D01*
X3544Y2328D02*
X3551Y2328D01*
X17Y2327D02*
X24Y2327D01*
X3545Y2327D02*
X3552Y2327D01*
X17Y2326D02*
X24Y2326D01*
X3545Y2326D02*
X3552Y2326D01*
X17Y2325D02*
X24Y2325D01*
X3545Y2325D02*
X3552Y2325D01*
X16Y2324D02*
X24Y2324D01*
X3545Y2324D02*
X3553Y2324D01*
X16Y2323D02*
X23Y2323D01*
X3546Y2323D02*
X3553Y2323D01*
X16Y2322D02*
X23Y2322D01*
X3546Y2322D02*
X3553Y2322D01*
X15Y2321D02*
X23Y2321D01*
X3546Y2321D02*
X3554Y2321D01*
X15Y2320D02*
X22Y2320D01*
X3547Y2320D02*
X3554Y2320D01*
X15Y2319D02*
X22Y2319D01*
X3547Y2319D02*
X3554Y2319D01*
X15Y2318D02*
X22Y2318D01*
X3547Y2318D02*
X3554Y2318D01*
X14Y2317D02*
X21Y2317D01*
X3548Y2317D02*
X3555Y2317D01*
X14Y2316D02*
X21Y2316D01*
X3548Y2316D02*
X3555Y2316D01*
X14Y2315D02*
X21Y2315D01*
X3548Y2315D02*
X3555Y2315D01*
X13Y2314D02*
X21Y2314D01*
X3548Y2314D02*
X3556Y2314D01*
X13Y2313D02*
X20Y2313D01*
X3549Y2313D02*
X3556Y2313D01*
X13Y2312D02*
X20Y2312D01*
X3549Y2312D02*
X3556Y2312D01*
X13Y2311D02*
X20Y2311D01*
X3549Y2311D02*
X3556Y2311D01*
X12Y2310D02*
X20Y2310D01*
X3549Y2310D02*
X3557Y2310D01*
X12Y2309D02*
X19Y2309D01*
X3550Y2309D02*
X3557Y2309D01*
X12Y2308D02*
X19Y2308D01*
X3550Y2308D02*
X3557Y2308D01*
X12Y2307D02*
X19Y2307D01*
X3550Y2307D02*
X3557Y2307D01*
X11Y2306D02*
X19Y2306D01*
X3550Y2306D02*
X3558Y2306D01*
X11Y2305D02*
X18Y2305D01*
X3551Y2305D02*
X3558Y2305D01*
X11Y2304D02*
X18Y2304D01*
X3551Y2304D02*
X3558Y2304D01*
X11Y2303D02*
X18Y2303D01*
X3551Y2303D02*
X3558Y2303D01*
X10Y2302D02*
X18Y2302D01*
X3551Y2302D02*
X3559Y2302D01*
X10Y2301D02*
X17Y2301D01*
X3552Y2301D02*
X3559Y2301D01*
X10Y2300D02*
X17Y2300D01*
X3552Y2300D02*
X3559Y2300D01*
X10Y2299D02*
X17Y2299D01*
X3552Y2299D02*
X3559Y2299D01*
X10Y2298D02*
X17Y2298D01*
X3552Y2298D02*
X3559Y2298D01*
X9Y2297D02*
X16Y2297D01*
X3553Y2297D02*
X3560Y2297D01*
X9Y2296D02*
X16Y2296D01*
X3553Y2296D02*
X3560Y2296D01*
X9Y2295D02*
X16Y2295D01*
X3553Y2295D02*
X3560Y2295D01*
X9Y2294D02*
X16Y2294D01*
X3553Y2294D02*
X3560Y2294D01*
X8Y2293D02*
X16Y2293D01*
X3553Y2293D02*
X3561Y2293D01*
X8Y2292D02*
X15Y2292D01*
X3554Y2292D02*
X3561Y2292D01*
X8Y2291D02*
X15Y2291D01*
X3554Y2291D02*
X3561Y2291D01*
X8Y2290D02*
X15Y2290D01*
X3554Y2290D02*
X3561Y2290D01*
X8Y2289D02*
X15Y2289D01*
X3554Y2289D02*
X3561Y2289D01*
X7Y2288D02*
X14Y2288D01*
X3555Y2288D02*
X3562Y2288D01*
X7Y2287D02*
X14Y2287D01*
X3555Y2287D02*
X3562Y2287D01*
X7Y2286D02*
X14Y2286D01*
X3555Y2286D02*
X3562Y2286D01*
X7Y2285D02*
X14Y2285D01*
X3555Y2285D02*
X3562Y2285D01*
X7Y2284D02*
X14Y2284D01*
X3555Y2284D02*
X3562Y2284D01*
X6Y2283D02*
X14Y2283D01*
X3555Y2283D02*
X3563Y2283D01*
X6Y2282D02*
X13Y2282D01*
X3556Y2282D02*
X3563Y2282D01*
X6Y2281D02*
X13Y2281D01*
X3556Y2281D02*
X3563Y2281D01*
X6Y2280D02*
X13Y2280D01*
X3556Y2280D02*
X3563Y2280D01*
X6Y2279D02*
X13Y2279D01*
X3556Y2279D02*
X3563Y2279D01*
X6Y2278D02*
X13Y2278D01*
X3556Y2278D02*
X3563Y2278D01*
X5Y2277D02*
X12Y2277D01*
X3557Y2277D02*
X3564Y2277D01*
X5Y2276D02*
X12Y2276D01*
X3557Y2276D02*
X3564Y2276D01*
X5Y2275D02*
X12Y2275D01*
X3557Y2275D02*
X3564Y2275D01*
X5Y2274D02*
X12Y2274D01*
X3557Y2274D02*
X3564Y2274D01*
X5Y2273D02*
X12Y2273D01*
X3557Y2273D02*
X3564Y2273D01*
X5Y2272D02*
X12Y2272D01*
X3557Y2272D02*
X3564Y2272D01*
X4Y2271D02*
X11Y2271D01*
X3558Y2271D02*
X3565Y2271D01*
X4Y2270D02*
X11Y2270D01*
X3558Y2270D02*
X3565Y2270D01*
X4Y2269D02*
X11Y2269D01*
X3558Y2269D02*
X3565Y2269D01*
X4Y2268D02*
X11Y2268D01*
X3558Y2268D02*
X3565Y2268D01*
X4Y2267D02*
X11Y2267D01*
X3558Y2267D02*
X3565Y2267D01*
X4Y2266D02*
X11Y2266D01*
X3558Y2266D02*
X3565Y2266D01*
X4Y2265D02*
X11Y2265D01*
X3558Y2265D02*
X3565Y2265D01*
X3Y2264D02*
X10Y2264D01*
X3559Y2264D02*
X3566Y2264D01*
X3Y2263D02*
X10Y2263D01*
X3559Y2263D02*
X3566Y2263D01*
X3Y2262D02*
X10Y2262D01*
X3559Y2262D02*
X3566Y2262D01*
X3Y2261D02*
X10Y2261D01*
X3559Y2261D02*
X3566Y2261D01*
X3Y2260D02*
X10Y2260D01*
X3559Y2260D02*
X3566Y2260D01*
X3Y2259D02*
X10Y2259D01*
X3559Y2259D02*
X3566Y2259D01*
X3Y2258D02*
X10Y2258D01*
X3559Y2258D02*
X3566Y2258D01*
X3Y2257D02*
X10Y2257D01*
X3559Y2257D02*
X3566Y2257D01*
X2Y2256D02*
X10Y2256D01*
X3559Y2256D02*
X3567Y2256D01*
X2Y2255D02*
X9Y2255D01*
X3560Y2255D02*
X3567Y2255D01*
X2Y2254D02*
X9Y2254D01*
X3560Y2254D02*
X3567Y2254D01*
X2Y2253D02*
X9Y2253D01*
X3560Y2253D02*
X3567Y2253D01*
X2Y2252D02*
X9Y2252D01*
X3560Y2252D02*
X3567Y2252D01*
X2Y2251D02*
X9Y2251D01*
X3560Y2251D02*
X3567Y2251D01*
X2Y2250D02*
X9Y2250D01*
X3560Y2250D02*
X3567Y2250D01*
X2Y2249D02*
X9Y2249D01*
X3560Y2249D02*
X3567Y2249D01*
X2Y2248D02*
X9Y2248D01*
X3560Y2248D02*
X3567Y2248D01*
X2Y2247D02*
X9Y2247D01*
X3560Y2247D02*
X3567Y2247D01*
X1Y2246D02*
X9Y2246D01*
X3560Y2246D02*
X3568Y2246D01*
X1Y2245D02*
X8Y2245D01*
X3561Y2245D02*
X3568Y2245D01*
X1Y2244D02*
X8Y2244D01*
X3561Y2244D02*
X3568Y2244D01*
X1Y2243D02*
X8Y2243D01*
X3561Y2243D02*
X3568Y2243D01*
X1Y2242D02*
X8Y2242D01*
X3561Y2242D02*
X3568Y2242D01*
X1Y2241D02*
X8Y2241D01*
X3561Y2241D02*
X3568Y2241D01*
X1Y2240D02*
X8Y2240D01*
X3561Y2240D02*
X3568Y2240D01*
X1Y2239D02*
X8Y2239D01*
X3561Y2239D02*
X3568Y2239D01*
X1Y2238D02*
X8Y2238D01*
X3561Y2238D02*
X3568Y2238D01*
X1Y2237D02*
X8Y2237D01*
X3561Y2237D02*
X3568Y2237D01*
X1Y2236D02*
X8Y2236D01*
X3561Y2236D02*
X3568Y2236D01*
X1Y2235D02*
X8Y2235D01*
X3561Y2235D02*
X3568Y2235D01*
X1Y2234D02*
X8Y2234D01*
X3561Y2234D02*
X3568Y2234D01*
X1Y2233D02*
X8Y2233D01*
X3561Y2233D02*
X3568Y2233D01*
X0Y2232D02*
X8Y2232D01*
X3561Y2232D02*
X3568Y2232D01*
X0Y2231D02*
X7Y2231D01*
X3562Y2231D02*
X3569Y2231D01*
X0Y2230D02*
X7Y2230D01*
X3562Y2230D02*
X3569Y2230D01*
X0Y2229D02*
X7Y2229D01*
X3562Y2229D02*
X3569Y2229D01*
X0Y2228D02*
X7Y2228D01*
X3562Y2228D02*
X3569Y2228D01*
X0Y2227D02*
X7Y2227D01*
X3562Y2227D02*
X3569Y2227D01*
X0Y2226D02*
X7Y2226D01*
X3562Y2226D02*
X3569Y2226D01*
X0Y2225D02*
X7Y2225D01*
X3562Y2225D02*
X3569Y2225D01*
X0Y2224D02*
X7Y2224D01*
X3562Y2224D02*
X3569Y2224D01*
X0Y2223D02*
X7Y2223D01*
X3562Y2223D02*
X3569Y2223D01*
X0Y2222D02*
X7Y2222D01*
X3562Y2222D02*
X3569Y2222D01*
X0Y2221D02*
X7Y2221D01*
X3562Y2221D02*
X3569Y2221D01*
X0Y2220D02*
X7Y2220D01*
X3562Y2220D02*
X3569Y2220D01*
X0Y2219D02*
X7Y2219D01*
X3562Y2219D02*
X3569Y2219D01*
X0Y2218D02*
X7Y2218D01*
X3562Y2218D02*
X3569Y2218D01*
X0Y2217D02*
X7Y2217D01*
X3562Y2217D02*
X3569Y2217D01*
X0Y2216D02*
X7Y2216D01*
X3562Y2216D02*
X3569Y2216D01*
X0Y2215D02*
X7Y2215D01*
X3562Y2215D02*
X3569Y2215D01*
X0Y2214D02*
X7Y2214D01*
X3562Y2214D02*
X3569Y2214D01*
X0Y2213D02*
X7Y2213D01*
X3562Y2213D02*
X3569Y2213D01*
X0Y2212D02*
X7Y2212D01*
X3562Y2212D02*
X3569Y2212D01*
X0Y2211D02*
X7Y2211D01*
X3562Y2211D02*
X3569Y2211D01*
X0Y2210D02*
X7Y2210D01*
X3562Y2210D02*
X3569Y2210D01*
X0Y2209D02*
X7Y2209D01*
X3562Y2209D02*
X3569Y2209D01*
X0Y2208D02*
X7Y2208D01*
X3562Y2208D02*
X3569Y2208D01*
X0Y2207D02*
X7Y2207D01*
X3562Y2207D02*
X3569Y2207D01*
X0Y2206D02*
X7Y2206D01*
X3562Y2206D02*
X3569Y2206D01*
X0Y2205D02*
X7Y2205D01*
X3562Y2205D02*
X3569Y2205D01*
X0Y2204D02*
X7Y2204D01*
X3562Y2204D02*
X3569Y2204D01*
X0Y2203D02*
X7Y2203D01*
X3562Y2203D02*
X3569Y2203D01*
X0Y2202D02*
X7Y2202D01*
X3562Y2202D02*
X3569Y2202D01*
X0Y2201D02*
X7Y2201D01*
X3562Y2201D02*
X3569Y2201D01*
X0Y2200D02*
X7Y2200D01*
X3562Y2200D02*
X3569Y2200D01*
X0Y2199D02*
X7Y2199D01*
X3562Y2199D02*
X3569Y2199D01*
X0Y2198D02*
X7Y2198D01*
X3562Y2198D02*
X3569Y2198D01*
X0Y2197D02*
X7Y2197D01*
X3562Y2197D02*
X3569Y2197D01*
X0Y2196D02*
X7Y2196D01*
X3562Y2196D02*
X3569Y2196D01*
X0Y2195D02*
X7Y2195D01*
X3562Y2195D02*
X3569Y2195D01*
X0Y2194D02*
X7Y2194D01*
X3562Y2194D02*
X3569Y2194D01*
X0Y2193D02*
X7Y2193D01*
X3562Y2193D02*
X3569Y2193D01*
X0Y2192D02*
X7Y2192D01*
X3562Y2192D02*
X3569Y2192D01*
X0Y2191D02*
X7Y2191D01*
X3562Y2191D02*
X3569Y2191D01*
X0Y2190D02*
X7Y2190D01*
X3562Y2190D02*
X3569Y2190D01*
X0Y2189D02*
X7Y2189D01*
X3562Y2189D02*
X3569Y2189D01*
X0Y2188D02*
X7Y2188D01*
X3562Y2188D02*
X3569Y2188D01*
X0Y2187D02*
X7Y2187D01*
X3562Y2187D02*
X3569Y2187D01*
X0Y2186D02*
X7Y2186D01*
X3562Y2186D02*
X3569Y2186D01*
X0Y2185D02*
X7Y2185D01*
X3562Y2185D02*
X3569Y2185D01*
X0Y2184D02*
X7Y2184D01*
X3562Y2184D02*
X3569Y2184D01*
X0Y2183D02*
X7Y2183D01*
X3562Y2183D02*
X3569Y2183D01*
X0Y2182D02*
X7Y2182D01*
X3562Y2182D02*
X3569Y2182D01*
X0Y2181D02*
X7Y2181D01*
X3562Y2181D02*
X3569Y2181D01*
X0Y2180D02*
X7Y2180D01*
X3562Y2180D02*
X3569Y2180D01*
X0Y2179D02*
X7Y2179D01*
X3562Y2179D02*
X3569Y2179D01*
X0Y2178D02*
X7Y2178D01*
X3562Y2178D02*
X3569Y2178D01*
X0Y2177D02*
X7Y2177D01*
X3562Y2177D02*
X3569Y2177D01*
X0Y2176D02*
X7Y2176D01*
X3562Y2176D02*
X3569Y2176D01*
X0Y2175D02*
X7Y2175D01*
X3562Y2175D02*
X3569Y2175D01*
X0Y2174D02*
X7Y2174D01*
X3562Y2174D02*
X3569Y2174D01*
X0Y2173D02*
X7Y2173D01*
X3562Y2173D02*
X3569Y2173D01*
X0Y2172D02*
X7Y2172D01*
X3562Y2172D02*
X3569Y2172D01*
X0Y2171D02*
X7Y2171D01*
X3562Y2171D02*
X3569Y2171D01*
X0Y2170D02*
X7Y2170D01*
X3562Y2170D02*
X3569Y2170D01*
X0Y2169D02*
X7Y2169D01*
X3562Y2169D02*
X3569Y2169D01*
X0Y2168D02*
X7Y2168D01*
X3562Y2168D02*
X3569Y2168D01*
X0Y2167D02*
X7Y2167D01*
X3562Y2167D02*
X3569Y2167D01*
X0Y2166D02*
X7Y2166D01*
X3562Y2166D02*
X3569Y2166D01*
X0Y2165D02*
X7Y2165D01*
X3562Y2165D02*
X3569Y2165D01*
X0Y2164D02*
X7Y2164D01*
X3562Y2164D02*
X3569Y2164D01*
X0Y2163D02*
X7Y2163D01*
X3562Y2163D02*
X3569Y2163D01*
X0Y2162D02*
X7Y2162D01*
X3562Y2162D02*
X3569Y2162D01*
X0Y2161D02*
X7Y2161D01*
X3562Y2161D02*
X3569Y2161D01*
X0Y2160D02*
X7Y2160D01*
X3562Y2160D02*
X3569Y2160D01*
X0Y2159D02*
X7Y2159D01*
X3562Y2159D02*
X3569Y2159D01*
X0Y2158D02*
X7Y2158D01*
X3562Y2158D02*
X3569Y2158D01*
X0Y2157D02*
X7Y2157D01*
X3562Y2157D02*
X3569Y2157D01*
X0Y2156D02*
X7Y2156D01*
X3562Y2156D02*
X3569Y2156D01*
X0Y2155D02*
X7Y2155D01*
X3562Y2155D02*
X3569Y2155D01*
X0Y2154D02*
X7Y2154D01*
X3562Y2154D02*
X3569Y2154D01*
X0Y2153D02*
X7Y2153D01*
X3562Y2153D02*
X3569Y2153D01*
X0Y2152D02*
X7Y2152D01*
X3562Y2152D02*
X3569Y2152D01*
X0Y2151D02*
X7Y2151D01*
X3562Y2151D02*
X3569Y2151D01*
X0Y2150D02*
X7Y2150D01*
X3562Y2150D02*
X3569Y2150D01*
X0Y2149D02*
X7Y2149D01*
X3562Y2149D02*
X3569Y2149D01*
X0Y2148D02*
X7Y2148D01*
X3562Y2148D02*
X3569Y2148D01*
X0Y2147D02*
X7Y2147D01*
X3562Y2147D02*
X3569Y2147D01*
X0Y2146D02*
X7Y2146D01*
X3562Y2146D02*
X3569Y2146D01*
X0Y2145D02*
X7Y2145D01*
X3562Y2145D02*
X3569Y2145D01*
X0Y2144D02*
X7Y2144D01*
X3562Y2144D02*
X3569Y2144D01*
X0Y2143D02*
X7Y2143D01*
X3562Y2143D02*
X3569Y2143D01*
X0Y2142D02*
X7Y2142D01*
X3562Y2142D02*
X3569Y2142D01*
X0Y2141D02*
X7Y2141D01*
X3562Y2141D02*
X3569Y2141D01*
X0Y2140D02*
X7Y2140D01*
X3562Y2140D02*
X3569Y2140D01*
X0Y2139D02*
X7Y2139D01*
X3562Y2139D02*
X3569Y2139D01*
X0Y2138D02*
X7Y2138D01*
X3562Y2138D02*
X3569Y2138D01*
X0Y2137D02*
X7Y2137D01*
X3562Y2137D02*
X3569Y2137D01*
X0Y2136D02*
X7Y2136D01*
X3562Y2136D02*
X3569Y2136D01*
X0Y2135D02*
X7Y2135D01*
X3562Y2135D02*
X3569Y2135D01*
X0Y2134D02*
X7Y2134D01*
X3562Y2134D02*
X3569Y2134D01*
X0Y2133D02*
X7Y2133D01*
X3562Y2133D02*
X3569Y2133D01*
X0Y2132D02*
X7Y2132D01*
X3562Y2132D02*
X3569Y2132D01*
X0Y2131D02*
X7Y2131D01*
X3562Y2131D02*
X3569Y2131D01*
X0Y2130D02*
X7Y2130D01*
X3562Y2130D02*
X3569Y2130D01*
X0Y2129D02*
X7Y2129D01*
X3562Y2129D02*
X3569Y2129D01*
X0Y2128D02*
X7Y2128D01*
X3562Y2128D02*
X3569Y2128D01*
X0Y2127D02*
X7Y2127D01*
X3562Y2127D02*
X3569Y2127D01*
X0Y2126D02*
X7Y2126D01*
X3562Y2126D02*
X3569Y2126D01*
X0Y2125D02*
X7Y2125D01*
X3562Y2125D02*
X3569Y2125D01*
X0Y2124D02*
X7Y2124D01*
X3562Y2124D02*
X3569Y2124D01*
X0Y2123D02*
X7Y2123D01*
X3562Y2123D02*
X3569Y2123D01*
X0Y2122D02*
X7Y2122D01*
X3562Y2122D02*
X3569Y2122D01*
X0Y2121D02*
X7Y2121D01*
X3562Y2121D02*
X3569Y2121D01*
X0Y2120D02*
X7Y2120D01*
X3562Y2120D02*
X3569Y2120D01*
X0Y2119D02*
X7Y2119D01*
X3562Y2119D02*
X3569Y2119D01*
X0Y2118D02*
X7Y2118D01*
X3562Y2118D02*
X3569Y2118D01*
X0Y2117D02*
X7Y2117D01*
X3562Y2117D02*
X3569Y2117D01*
X0Y2116D02*
X7Y2116D01*
X3562Y2116D02*
X3569Y2116D01*
X0Y2115D02*
X7Y2115D01*
X3562Y2115D02*
X3569Y2115D01*
X0Y2114D02*
X7Y2114D01*
X3562Y2114D02*
X3569Y2114D01*
X0Y2113D02*
X7Y2113D01*
X3562Y2113D02*
X3569Y2113D01*
X0Y2112D02*
X7Y2112D01*
X3562Y2112D02*
X3569Y2112D01*
X0Y2111D02*
X7Y2111D01*
X3562Y2111D02*
X3569Y2111D01*
X0Y2110D02*
X7Y2110D01*
X3562Y2110D02*
X3569Y2110D01*
X0Y2109D02*
X7Y2109D01*
X3562Y2109D02*
X3569Y2109D01*
X0Y2108D02*
X7Y2108D01*
X3562Y2108D02*
X3569Y2108D01*
X0Y2107D02*
X7Y2107D01*
X3562Y2107D02*
X3569Y2107D01*
X0Y2106D02*
X7Y2106D01*
X3562Y2106D02*
X3569Y2106D01*
X0Y2105D02*
X7Y2105D01*
X3562Y2105D02*
X3569Y2105D01*
X0Y2104D02*
X7Y2104D01*
X3562Y2104D02*
X3569Y2104D01*
X0Y2103D02*
X7Y2103D01*
X3562Y2103D02*
X3569Y2103D01*
X0Y2102D02*
X7Y2102D01*
X3562Y2102D02*
X3569Y2102D01*
X0Y2101D02*
X7Y2101D01*
X3562Y2101D02*
X3569Y2101D01*
X0Y2100D02*
X7Y2100D01*
X3562Y2100D02*
X3569Y2100D01*
X0Y2099D02*
X7Y2099D01*
X3562Y2099D02*
X3569Y2099D01*
X0Y2098D02*
X7Y2098D01*
X3562Y2098D02*
X3569Y2098D01*
X0Y2097D02*
X7Y2097D01*
X3562Y2097D02*
X3569Y2097D01*
X0Y2096D02*
X7Y2096D01*
X3562Y2096D02*
X3569Y2096D01*
X0Y2095D02*
X7Y2095D01*
X3562Y2095D02*
X3569Y2095D01*
X0Y2094D02*
X7Y2094D01*
X3562Y2094D02*
X3569Y2094D01*
X0Y2093D02*
X7Y2093D01*
X3562Y2093D02*
X3569Y2093D01*
X0Y2092D02*
X7Y2092D01*
X3562Y2092D02*
X3569Y2092D01*
X0Y2091D02*
X7Y2091D01*
X3562Y2091D02*
X3569Y2091D01*
X0Y2090D02*
X7Y2090D01*
X3562Y2090D02*
X3569Y2090D01*
X0Y2089D02*
X7Y2089D01*
X3562Y2089D02*
X3569Y2089D01*
X0Y2088D02*
X7Y2088D01*
X3562Y2088D02*
X3569Y2088D01*
X0Y2087D02*
X7Y2087D01*
X3562Y2087D02*
X3569Y2087D01*
X0Y2086D02*
X7Y2086D01*
X3562Y2086D02*
X3569Y2086D01*
X0Y2085D02*
X7Y2085D01*
X3562Y2085D02*
X3569Y2085D01*
X0Y2084D02*
X7Y2084D01*
X3562Y2084D02*
X3569Y2084D01*
X0Y2083D02*
X7Y2083D01*
X3562Y2083D02*
X3569Y2083D01*
X0Y2082D02*
X7Y2082D01*
X3562Y2082D02*
X3569Y2082D01*
X0Y2081D02*
X7Y2081D01*
X3562Y2081D02*
X3569Y2081D01*
X0Y2080D02*
X7Y2080D01*
X3562Y2080D02*
X3569Y2080D01*
X0Y2079D02*
X7Y2079D01*
X3562Y2079D02*
X3569Y2079D01*
X0Y2078D02*
X7Y2078D01*
X3562Y2078D02*
X3569Y2078D01*
X0Y2077D02*
X7Y2077D01*
X3562Y2077D02*
X3569Y2077D01*
X0Y2076D02*
X7Y2076D01*
X3562Y2076D02*
X3569Y2076D01*
X0Y2075D02*
X7Y2075D01*
X3562Y2075D02*
X3569Y2075D01*
X0Y2074D02*
X7Y2074D01*
X3562Y2074D02*
X3569Y2074D01*
X0Y2073D02*
X7Y2073D01*
X3562Y2073D02*
X3569Y2073D01*
X0Y2072D02*
X7Y2072D01*
X3562Y2072D02*
X3569Y2072D01*
X0Y2071D02*
X7Y2071D01*
X3562Y2071D02*
X3569Y2071D01*
X0Y2070D02*
X7Y2070D01*
X3562Y2070D02*
X3569Y2070D01*
X0Y2069D02*
X7Y2069D01*
X3562Y2069D02*
X3569Y2069D01*
X0Y2068D02*
X7Y2068D01*
X3562Y2068D02*
X3569Y2068D01*
X0Y2067D02*
X7Y2067D01*
X3562Y2067D02*
X3569Y2067D01*
X0Y2066D02*
X7Y2066D01*
X3562Y2066D02*
X3569Y2066D01*
X0Y2065D02*
X7Y2065D01*
X3562Y2065D02*
X3569Y2065D01*
X0Y2064D02*
X7Y2064D01*
X3562Y2064D02*
X3569Y2064D01*
X0Y2063D02*
X7Y2063D01*
X3562Y2063D02*
X3569Y2063D01*
X0Y2062D02*
X7Y2062D01*
X3562Y2062D02*
X3569Y2062D01*
X0Y2061D02*
X7Y2061D01*
X3562Y2061D02*
X3569Y2061D01*
X0Y2060D02*
X7Y2060D01*
X3562Y2060D02*
X3569Y2060D01*
X0Y2059D02*
X7Y2059D01*
X3562Y2059D02*
X3569Y2059D01*
X0Y2058D02*
X7Y2058D01*
X3562Y2058D02*
X3569Y2058D01*
X0Y2057D02*
X7Y2057D01*
X3562Y2057D02*
X3569Y2057D01*
X0Y2056D02*
X7Y2056D01*
X3562Y2056D02*
X3569Y2056D01*
X0Y2055D02*
X7Y2055D01*
X3562Y2055D02*
X3569Y2055D01*
X0Y2054D02*
X7Y2054D01*
X3562Y2054D02*
X3569Y2054D01*
X0Y2053D02*
X7Y2053D01*
X3562Y2053D02*
X3569Y2053D01*
X0Y2052D02*
X7Y2052D01*
X3562Y2052D02*
X3569Y2052D01*
X0Y2051D02*
X7Y2051D01*
X3562Y2051D02*
X3569Y2051D01*
X0Y2050D02*
X7Y2050D01*
X3562Y2050D02*
X3569Y2050D01*
X0Y2049D02*
X7Y2049D01*
X3562Y2049D02*
X3569Y2049D01*
X0Y2048D02*
X7Y2048D01*
X3562Y2048D02*
X3569Y2048D01*
X0Y2047D02*
X7Y2047D01*
X3562Y2047D02*
X3569Y2047D01*
X0Y2046D02*
X7Y2046D01*
X3562Y2046D02*
X3569Y2046D01*
X0Y2045D02*
X7Y2045D01*
X3562Y2045D02*
X3569Y2045D01*
X0Y2044D02*
X7Y2044D01*
X3562Y2044D02*
X3569Y2044D01*
X0Y2043D02*
X7Y2043D01*
X3562Y2043D02*
X3569Y2043D01*
X0Y2042D02*
X7Y2042D01*
X3562Y2042D02*
X3569Y2042D01*
X0Y2041D02*
X7Y2041D01*
X3562Y2041D02*
X3569Y2041D01*
X0Y2040D02*
X7Y2040D01*
X3562Y2040D02*
X3569Y2040D01*
X0Y2039D02*
X7Y2039D01*
X3562Y2039D02*
X3569Y2039D01*
X0Y2038D02*
X7Y2038D01*
X3562Y2038D02*
X3569Y2038D01*
X0Y2037D02*
X7Y2037D01*
X3562Y2037D02*
X3569Y2037D01*
X0Y2036D02*
X7Y2036D01*
X3562Y2036D02*
X3569Y2036D01*
X0Y2035D02*
X7Y2035D01*
X3562Y2035D02*
X3569Y2035D01*
X0Y2034D02*
X7Y2034D01*
X3562Y2034D02*
X3569Y2034D01*
X0Y2033D02*
X7Y2033D01*
X3562Y2033D02*
X3569Y2033D01*
X0Y2032D02*
X7Y2032D01*
X3562Y2032D02*
X3569Y2032D01*
X0Y2031D02*
X7Y2031D01*
X3562Y2031D02*
X3569Y2031D01*
X0Y2030D02*
X7Y2030D01*
X3562Y2030D02*
X3569Y2030D01*
X0Y2029D02*
X7Y2029D01*
X3562Y2029D02*
X3569Y2029D01*
X0Y2028D02*
X7Y2028D01*
X3562Y2028D02*
X3569Y2028D01*
X0Y2027D02*
X7Y2027D01*
X3562Y2027D02*
X3569Y2027D01*
X0Y2026D02*
X7Y2026D01*
X3562Y2026D02*
X3569Y2026D01*
X0Y2025D02*
X7Y2025D01*
X3562Y2025D02*
X3569Y2025D01*
X0Y2024D02*
X7Y2024D01*
X3562Y2024D02*
X3569Y2024D01*
X0Y2023D02*
X7Y2023D01*
X3562Y2023D02*
X3569Y2023D01*
X0Y2022D02*
X7Y2022D01*
X3562Y2022D02*
X3569Y2022D01*
X0Y2021D02*
X7Y2021D01*
X3562Y2021D02*
X3569Y2021D01*
X0Y2020D02*
X7Y2020D01*
X3562Y2020D02*
X3569Y2020D01*
X0Y2019D02*
X7Y2019D01*
X3562Y2019D02*
X3569Y2019D01*
X0Y2018D02*
X7Y2018D01*
X3562Y2018D02*
X3569Y2018D01*
X0Y2017D02*
X7Y2017D01*
X3562Y2017D02*
X3569Y2017D01*
X0Y2016D02*
X7Y2016D01*
X3562Y2016D02*
X3569Y2016D01*
X0Y2015D02*
X7Y2015D01*
X3562Y2015D02*
X3569Y2015D01*
X0Y2014D02*
X7Y2014D01*
X3562Y2014D02*
X3569Y2014D01*
X0Y2013D02*
X7Y2013D01*
X3562Y2013D02*
X3569Y2013D01*
X0Y2012D02*
X7Y2012D01*
X3562Y2012D02*
X3569Y2012D01*
X0Y2011D02*
X7Y2011D01*
X3562Y2011D02*
X3569Y2011D01*
X0Y2010D02*
X7Y2010D01*
X3562Y2010D02*
X3569Y2010D01*
X0Y2009D02*
X7Y2009D01*
X3562Y2009D02*
X3569Y2009D01*
X0Y2008D02*
X7Y2008D01*
X3562Y2008D02*
X3569Y2008D01*
X0Y2007D02*
X7Y2007D01*
X3562Y2007D02*
X3569Y2007D01*
X0Y2006D02*
X7Y2006D01*
X3562Y2006D02*
X3569Y2006D01*
X0Y2005D02*
X7Y2005D01*
X3562Y2005D02*
X3569Y2005D01*
X0Y2004D02*
X7Y2004D01*
X3562Y2004D02*
X3569Y2004D01*
X0Y2003D02*
X7Y2003D01*
X3562Y2003D02*
X3569Y2003D01*
X0Y2002D02*
X7Y2002D01*
X3562Y2002D02*
X3569Y2002D01*
X0Y2001D02*
X7Y2001D01*
X3562Y2001D02*
X3569Y2001D01*
X0Y2000D02*
X7Y2000D01*
X3562Y2000D02*
X3569Y2000D01*
X0Y1999D02*
X7Y1999D01*
X3562Y1999D02*
X3569Y1999D01*
X0Y1998D02*
X7Y1998D01*
X3562Y1998D02*
X3569Y1998D01*
X0Y1997D02*
X7Y1997D01*
X3562Y1997D02*
X3569Y1997D01*
X0Y1996D02*
X7Y1996D01*
X3562Y1996D02*
X3569Y1996D01*
X0Y1995D02*
X7Y1995D01*
X3562Y1995D02*
X3569Y1995D01*
X0Y1994D02*
X7Y1994D01*
X3562Y1994D02*
X3569Y1994D01*
X0Y1993D02*
X7Y1993D01*
X3562Y1993D02*
X3569Y1993D01*
X0Y1992D02*
X7Y1992D01*
X3562Y1992D02*
X3569Y1992D01*
X0Y1991D02*
X7Y1991D01*
X3562Y1991D02*
X3569Y1991D01*
X0Y1990D02*
X7Y1990D01*
X3562Y1990D02*
X3569Y1990D01*
X0Y1989D02*
X7Y1989D01*
X3562Y1989D02*
X3569Y1989D01*
X0Y1988D02*
X7Y1988D01*
X3562Y1988D02*
X3569Y1988D01*
X0Y1987D02*
X7Y1987D01*
X3562Y1987D02*
X3569Y1987D01*
X0Y1986D02*
X7Y1986D01*
X3562Y1986D02*
X3569Y1986D01*
X0Y1985D02*
X7Y1985D01*
X3562Y1985D02*
X3569Y1985D01*
X0Y1984D02*
X7Y1984D01*
X3562Y1984D02*
X3569Y1984D01*
X0Y1983D02*
X7Y1983D01*
X3562Y1983D02*
X3569Y1983D01*
X0Y1982D02*
X7Y1982D01*
X3562Y1982D02*
X3569Y1982D01*
X0Y1981D02*
X7Y1981D01*
X3562Y1981D02*
X3569Y1981D01*
X0Y1980D02*
X7Y1980D01*
X3562Y1980D02*
X3569Y1980D01*
X0Y1979D02*
X7Y1979D01*
X3562Y1979D02*
X3569Y1979D01*
X0Y1978D02*
X7Y1978D01*
X3562Y1978D02*
X3569Y1978D01*
X0Y1977D02*
X7Y1977D01*
X3562Y1977D02*
X3569Y1977D01*
X0Y1976D02*
X7Y1976D01*
X3562Y1976D02*
X3569Y1976D01*
X0Y1975D02*
X7Y1975D01*
X3562Y1975D02*
X3569Y1975D01*
X0Y1974D02*
X7Y1974D01*
X3562Y1974D02*
X3569Y1974D01*
X0Y1973D02*
X7Y1973D01*
X3562Y1973D02*
X3569Y1973D01*
X0Y1972D02*
X7Y1972D01*
X3562Y1972D02*
X3569Y1972D01*
X0Y1971D02*
X7Y1971D01*
X3562Y1971D02*
X3569Y1971D01*
X0Y1970D02*
X7Y1970D01*
X3562Y1970D02*
X3569Y1970D01*
X0Y1969D02*
X7Y1969D01*
X3562Y1969D02*
X3569Y1969D01*
X0Y1968D02*
X7Y1968D01*
X3562Y1968D02*
X3569Y1968D01*
X0Y1967D02*
X7Y1967D01*
X3562Y1967D02*
X3569Y1967D01*
X0Y1966D02*
X7Y1966D01*
X3562Y1966D02*
X3569Y1966D01*
X0Y1965D02*
X7Y1965D01*
X3562Y1965D02*
X3569Y1965D01*
X0Y1964D02*
X7Y1964D01*
X3562Y1964D02*
X3569Y1964D01*
X0Y1963D02*
X7Y1963D01*
X3562Y1963D02*
X3569Y1963D01*
X0Y1962D02*
X7Y1962D01*
X3562Y1962D02*
X3569Y1962D01*
X0Y1961D02*
X7Y1961D01*
X3562Y1961D02*
X3569Y1961D01*
X0Y1960D02*
X7Y1960D01*
X3562Y1960D02*
X3569Y1960D01*
X0Y1959D02*
X7Y1959D01*
X3562Y1959D02*
X3569Y1959D01*
X0Y1958D02*
X7Y1958D01*
X3562Y1958D02*
X3569Y1958D01*
X0Y1957D02*
X7Y1957D01*
X3562Y1957D02*
X3569Y1957D01*
X0Y1956D02*
X7Y1956D01*
X3562Y1956D02*
X3569Y1956D01*
X0Y1955D02*
X7Y1955D01*
X3562Y1955D02*
X3569Y1955D01*
X0Y1954D02*
X7Y1954D01*
X3562Y1954D02*
X3569Y1954D01*
X0Y1953D02*
X7Y1953D01*
X3562Y1953D02*
X3569Y1953D01*
X0Y1952D02*
X7Y1952D01*
X3562Y1952D02*
X3569Y1952D01*
X0Y1951D02*
X7Y1951D01*
X3562Y1951D02*
X3569Y1951D01*
X0Y1950D02*
X7Y1950D01*
X3562Y1950D02*
X3569Y1950D01*
X0Y1949D02*
X7Y1949D01*
X3562Y1949D02*
X3569Y1949D01*
X0Y1948D02*
X7Y1948D01*
X3562Y1948D02*
X3569Y1948D01*
X0Y1947D02*
X7Y1947D01*
X3562Y1947D02*
X3569Y1947D01*
X0Y1946D02*
X7Y1946D01*
X3562Y1946D02*
X3569Y1946D01*
X0Y1945D02*
X7Y1945D01*
X3562Y1945D02*
X3569Y1945D01*
X0Y1944D02*
X7Y1944D01*
X3562Y1944D02*
X3569Y1944D01*
X0Y1943D02*
X7Y1943D01*
X3562Y1943D02*
X3569Y1943D01*
X0Y1942D02*
X7Y1942D01*
X3562Y1942D02*
X3569Y1942D01*
X0Y1941D02*
X7Y1941D01*
X3562Y1941D02*
X3569Y1941D01*
X0Y1940D02*
X7Y1940D01*
X3562Y1940D02*
X3569Y1940D01*
X0Y1939D02*
X7Y1939D01*
X3562Y1939D02*
X3569Y1939D01*
X0Y1938D02*
X7Y1938D01*
X3562Y1938D02*
X3569Y1938D01*
X0Y1937D02*
X7Y1937D01*
X3562Y1937D02*
X3569Y1937D01*
X0Y1936D02*
X7Y1936D01*
X3562Y1936D02*
X3569Y1936D01*
X0Y1935D02*
X7Y1935D01*
X3562Y1935D02*
X3569Y1935D01*
X0Y1934D02*
X7Y1934D01*
X3562Y1934D02*
X3569Y1934D01*
X0Y1933D02*
X7Y1933D01*
X3562Y1933D02*
X3569Y1933D01*
X0Y1932D02*
X7Y1932D01*
X3562Y1932D02*
X3569Y1932D01*
X0Y1931D02*
X7Y1931D01*
X3562Y1931D02*
X3569Y1931D01*
X0Y1930D02*
X7Y1930D01*
X3562Y1930D02*
X3569Y1930D01*
X0Y1929D02*
X7Y1929D01*
X3562Y1929D02*
X3569Y1929D01*
X0Y1928D02*
X7Y1928D01*
X3562Y1928D02*
X3569Y1928D01*
X0Y1927D02*
X7Y1927D01*
X3562Y1927D02*
X3569Y1927D01*
X0Y1926D02*
X7Y1926D01*
X3562Y1926D02*
X3569Y1926D01*
X0Y1925D02*
X7Y1925D01*
X3562Y1925D02*
X3569Y1925D01*
X0Y1924D02*
X7Y1924D01*
X3562Y1924D02*
X3569Y1924D01*
X0Y1923D02*
X7Y1923D01*
X3562Y1923D02*
X3569Y1923D01*
X0Y1922D02*
X7Y1922D01*
X3562Y1922D02*
X3569Y1922D01*
X0Y1921D02*
X7Y1921D01*
X3562Y1921D02*
X3569Y1921D01*
X0Y1920D02*
X7Y1920D01*
X3562Y1920D02*
X3569Y1920D01*
X0Y1919D02*
X7Y1919D01*
X3562Y1919D02*
X3569Y1919D01*
X0Y1918D02*
X7Y1918D01*
X3562Y1918D02*
X3569Y1918D01*
X0Y1917D02*
X7Y1917D01*
X3562Y1917D02*
X3569Y1917D01*
X0Y1916D02*
X7Y1916D01*
X3562Y1916D02*
X3569Y1916D01*
X0Y1915D02*
X7Y1915D01*
X3562Y1915D02*
X3569Y1915D01*
X0Y1914D02*
X7Y1914D01*
X3562Y1914D02*
X3569Y1914D01*
X0Y1913D02*
X7Y1913D01*
X3562Y1913D02*
X3569Y1913D01*
X0Y1912D02*
X7Y1912D01*
X3562Y1912D02*
X3569Y1912D01*
X0Y1911D02*
X7Y1911D01*
X3562Y1911D02*
X3569Y1911D01*
X0Y1910D02*
X7Y1910D01*
X3562Y1910D02*
X3569Y1910D01*
X0Y1909D02*
X7Y1909D01*
X3562Y1909D02*
X3569Y1909D01*
X0Y1908D02*
X7Y1908D01*
X3562Y1908D02*
X3569Y1908D01*
X0Y1907D02*
X7Y1907D01*
X3562Y1907D02*
X3569Y1907D01*
X0Y1906D02*
X7Y1906D01*
X3562Y1906D02*
X3569Y1906D01*
X0Y1905D02*
X7Y1905D01*
X3562Y1905D02*
X3569Y1905D01*
X0Y1904D02*
X7Y1904D01*
X3562Y1904D02*
X3569Y1904D01*
X0Y1903D02*
X7Y1903D01*
X3562Y1903D02*
X3569Y1903D01*
X0Y1902D02*
X7Y1902D01*
X3562Y1902D02*
X3569Y1902D01*
X0Y1901D02*
X7Y1901D01*
X3562Y1901D02*
X3569Y1901D01*
X0Y1900D02*
X7Y1900D01*
X3562Y1900D02*
X3569Y1900D01*
X0Y1899D02*
X7Y1899D01*
X3562Y1899D02*
X3569Y1899D01*
X0Y1898D02*
X7Y1898D01*
X3562Y1898D02*
X3569Y1898D01*
X0Y1897D02*
X7Y1897D01*
X3562Y1897D02*
X3569Y1897D01*
X0Y1896D02*
X7Y1896D01*
X3562Y1896D02*
X3569Y1896D01*
X0Y1895D02*
X7Y1895D01*
X3562Y1895D02*
X3569Y1895D01*
X0Y1894D02*
X7Y1894D01*
X3562Y1894D02*
X3569Y1894D01*
X0Y1893D02*
X7Y1893D01*
X3562Y1893D02*
X3569Y1893D01*
X0Y1892D02*
X7Y1892D01*
X3562Y1892D02*
X3569Y1892D01*
X0Y1891D02*
X7Y1891D01*
X3562Y1891D02*
X3569Y1891D01*
X0Y1890D02*
X7Y1890D01*
X3562Y1890D02*
X3569Y1890D01*
X0Y1889D02*
X7Y1889D01*
X3562Y1889D02*
X3569Y1889D01*
X0Y1888D02*
X7Y1888D01*
X3562Y1888D02*
X3569Y1888D01*
X0Y1887D02*
X7Y1887D01*
X3562Y1887D02*
X3569Y1887D01*
X0Y1886D02*
X7Y1886D01*
X3562Y1886D02*
X3569Y1886D01*
X0Y1885D02*
X7Y1885D01*
X3562Y1885D02*
X3569Y1885D01*
X0Y1884D02*
X7Y1884D01*
X3562Y1884D02*
X3569Y1884D01*
X0Y1883D02*
X7Y1883D01*
X3562Y1883D02*
X3569Y1883D01*
X0Y1882D02*
X7Y1882D01*
X3562Y1882D02*
X3569Y1882D01*
X0Y1881D02*
X7Y1881D01*
X3562Y1881D02*
X3569Y1881D01*
X0Y1880D02*
X7Y1880D01*
X3562Y1880D02*
X3569Y1880D01*
X0Y1879D02*
X7Y1879D01*
X3562Y1879D02*
X3569Y1879D01*
X0Y1878D02*
X7Y1878D01*
X3562Y1878D02*
X3569Y1878D01*
X0Y1877D02*
X7Y1877D01*
X3562Y1877D02*
X3569Y1877D01*
X0Y1876D02*
X7Y1876D01*
X3562Y1876D02*
X3569Y1876D01*
X0Y1875D02*
X7Y1875D01*
X3562Y1875D02*
X3569Y1875D01*
X0Y1874D02*
X7Y1874D01*
X3562Y1874D02*
X3569Y1874D01*
X0Y1873D02*
X7Y1873D01*
X3562Y1873D02*
X3569Y1873D01*
X0Y1872D02*
X7Y1872D01*
X3562Y1872D02*
X3569Y1872D01*
X0Y1871D02*
X7Y1871D01*
X3562Y1871D02*
X3569Y1871D01*
X0Y1870D02*
X7Y1870D01*
X3562Y1870D02*
X3569Y1870D01*
X0Y1869D02*
X7Y1869D01*
X3562Y1869D02*
X3569Y1869D01*
X0Y1868D02*
X7Y1868D01*
X3562Y1868D02*
X3569Y1868D01*
X0Y1867D02*
X7Y1867D01*
X3562Y1867D02*
X3569Y1867D01*
X0Y1866D02*
X7Y1866D01*
X3562Y1866D02*
X3569Y1866D01*
X0Y1865D02*
X7Y1865D01*
X3562Y1865D02*
X3569Y1865D01*
X0Y1864D02*
X7Y1864D01*
X3562Y1864D02*
X3569Y1864D01*
X0Y1863D02*
X7Y1863D01*
X3562Y1863D02*
X3569Y1863D01*
X0Y1862D02*
X7Y1862D01*
X3562Y1862D02*
X3569Y1862D01*
X0Y1861D02*
X7Y1861D01*
X3562Y1861D02*
X3569Y1861D01*
X0Y1860D02*
X7Y1860D01*
X3562Y1860D02*
X3569Y1860D01*
X0Y1859D02*
X7Y1859D01*
X3562Y1859D02*
X3569Y1859D01*
X0Y1858D02*
X7Y1858D01*
X3562Y1858D02*
X3569Y1858D01*
X0Y1857D02*
X7Y1857D01*
X3562Y1857D02*
X3569Y1857D01*
X0Y1856D02*
X7Y1856D01*
X3562Y1856D02*
X3569Y1856D01*
X0Y1855D02*
X7Y1855D01*
X3562Y1855D02*
X3569Y1855D01*
X0Y1854D02*
X7Y1854D01*
X3562Y1854D02*
X3569Y1854D01*
X0Y1853D02*
X7Y1853D01*
X3562Y1853D02*
X3569Y1853D01*
X0Y1852D02*
X7Y1852D01*
X3562Y1852D02*
X3569Y1852D01*
X0Y1851D02*
X7Y1851D01*
X3562Y1851D02*
X3569Y1851D01*
X0Y1850D02*
X7Y1850D01*
X3562Y1850D02*
X3569Y1850D01*
X0Y1849D02*
X7Y1849D01*
X3562Y1849D02*
X3569Y1849D01*
X0Y1848D02*
X7Y1848D01*
X3562Y1848D02*
X3569Y1848D01*
X0Y1847D02*
X7Y1847D01*
X3562Y1847D02*
X3569Y1847D01*
X0Y1846D02*
X7Y1846D01*
X3562Y1846D02*
X3569Y1846D01*
X0Y1845D02*
X7Y1845D01*
X3562Y1845D02*
X3569Y1845D01*
X0Y1844D02*
X7Y1844D01*
X3562Y1844D02*
X3569Y1844D01*
X0Y1843D02*
X7Y1843D01*
X3562Y1843D02*
X3569Y1843D01*
X0Y1842D02*
X7Y1842D01*
X3562Y1842D02*
X3569Y1842D01*
X0Y1841D02*
X7Y1841D01*
X3562Y1841D02*
X3569Y1841D01*
X0Y1840D02*
X7Y1840D01*
X3562Y1840D02*
X3569Y1840D01*
X0Y1839D02*
X7Y1839D01*
X3562Y1839D02*
X3569Y1839D01*
X0Y1838D02*
X7Y1838D01*
X3562Y1838D02*
X3569Y1838D01*
X0Y1837D02*
X7Y1837D01*
X3562Y1837D02*
X3569Y1837D01*
X0Y1836D02*
X7Y1836D01*
X3562Y1836D02*
X3569Y1836D01*
X0Y1835D02*
X7Y1835D01*
X3562Y1835D02*
X3569Y1835D01*
X0Y1834D02*
X7Y1834D01*
X3562Y1834D02*
X3569Y1834D01*
X0Y1833D02*
X7Y1833D01*
X3562Y1833D02*
X3569Y1833D01*
X0Y1832D02*
X7Y1832D01*
X3562Y1832D02*
X3569Y1832D01*
X0Y1831D02*
X7Y1831D01*
X3562Y1831D02*
X3569Y1831D01*
X0Y1830D02*
X7Y1830D01*
X3562Y1830D02*
X3569Y1830D01*
X0Y1829D02*
X7Y1829D01*
X3562Y1829D02*
X3569Y1829D01*
X0Y1828D02*
X7Y1828D01*
X3562Y1828D02*
X3569Y1828D01*
X0Y1827D02*
X7Y1827D01*
X3562Y1827D02*
X3569Y1827D01*
X0Y1826D02*
X7Y1826D01*
X3562Y1826D02*
X3569Y1826D01*
X0Y1825D02*
X7Y1825D01*
X3562Y1825D02*
X3569Y1825D01*
X0Y1824D02*
X7Y1824D01*
X3562Y1824D02*
X3569Y1824D01*
X0Y1823D02*
X7Y1823D01*
X3562Y1823D02*
X3569Y1823D01*
X0Y1822D02*
X7Y1822D01*
X3562Y1822D02*
X3569Y1822D01*
X0Y1821D02*
X7Y1821D01*
X3562Y1821D02*
X3569Y1821D01*
X0Y1820D02*
X7Y1820D01*
X3562Y1820D02*
X3569Y1820D01*
X0Y1819D02*
X7Y1819D01*
X3562Y1819D02*
X3569Y1819D01*
X0Y1818D02*
X7Y1818D01*
X3562Y1818D02*
X3569Y1818D01*
X0Y1817D02*
X7Y1817D01*
X3562Y1817D02*
X3569Y1817D01*
X0Y1816D02*
X7Y1816D01*
X3562Y1816D02*
X3569Y1816D01*
X0Y1815D02*
X7Y1815D01*
X3562Y1815D02*
X3569Y1815D01*
X0Y1814D02*
X7Y1814D01*
X3562Y1814D02*
X3569Y1814D01*
X0Y1813D02*
X7Y1813D01*
X3562Y1813D02*
X3569Y1813D01*
X0Y1812D02*
X7Y1812D01*
X3562Y1812D02*
X3569Y1812D01*
X0Y1811D02*
X7Y1811D01*
X3562Y1811D02*
X3569Y1811D01*
X0Y1810D02*
X7Y1810D01*
X3562Y1810D02*
X3569Y1810D01*
X0Y1809D02*
X7Y1809D01*
X3562Y1809D02*
X3569Y1809D01*
X0Y1808D02*
X7Y1808D01*
X3562Y1808D02*
X3569Y1808D01*
X0Y1807D02*
X7Y1807D01*
X3562Y1807D02*
X3569Y1807D01*
X0Y1806D02*
X7Y1806D01*
X3562Y1806D02*
X3569Y1806D01*
X0Y1805D02*
X7Y1805D01*
X3562Y1805D02*
X3569Y1805D01*
X0Y1804D02*
X7Y1804D01*
X3562Y1804D02*
X3569Y1804D01*
X0Y1803D02*
X7Y1803D01*
X3562Y1803D02*
X3569Y1803D01*
X0Y1802D02*
X7Y1802D01*
X3562Y1802D02*
X3569Y1802D01*
X0Y1801D02*
X7Y1801D01*
X3562Y1801D02*
X3569Y1801D01*
X0Y1800D02*
X7Y1800D01*
X3562Y1800D02*
X3569Y1800D01*
X0Y1799D02*
X7Y1799D01*
X3562Y1799D02*
X3569Y1799D01*
X0Y1798D02*
X7Y1798D01*
X3562Y1798D02*
X3569Y1798D01*
X0Y1797D02*
X7Y1797D01*
X3562Y1797D02*
X3569Y1797D01*
X0Y1796D02*
X7Y1796D01*
X3562Y1796D02*
X3569Y1796D01*
X0Y1795D02*
X7Y1795D01*
X3562Y1795D02*
X3569Y1795D01*
X0Y1794D02*
X7Y1794D01*
X3562Y1794D02*
X3569Y1794D01*
X0Y1793D02*
X7Y1793D01*
X3562Y1793D02*
X3569Y1793D01*
X0Y1792D02*
X7Y1792D01*
X3562Y1792D02*
X3569Y1792D01*
X0Y1791D02*
X7Y1791D01*
X3562Y1791D02*
X3569Y1791D01*
X0Y1790D02*
X7Y1790D01*
X3562Y1790D02*
X3569Y1790D01*
X0Y1789D02*
X7Y1789D01*
X3562Y1789D02*
X3569Y1789D01*
X0Y1788D02*
X7Y1788D01*
X3562Y1788D02*
X3569Y1788D01*
X0Y1787D02*
X7Y1787D01*
X3562Y1787D02*
X3569Y1787D01*
X0Y1786D02*
X7Y1786D01*
X3562Y1786D02*
X3569Y1786D01*
X0Y1785D02*
X7Y1785D01*
X3562Y1785D02*
X3569Y1785D01*
X0Y1784D02*
X7Y1784D01*
X3562Y1784D02*
X3569Y1784D01*
X0Y1783D02*
X7Y1783D01*
X3562Y1783D02*
X3569Y1783D01*
X0Y1782D02*
X7Y1782D01*
X3562Y1782D02*
X3569Y1782D01*
X0Y1781D02*
X7Y1781D01*
X3562Y1781D02*
X3569Y1781D01*
X0Y1780D02*
X7Y1780D01*
X3562Y1780D02*
X3569Y1780D01*
X0Y1779D02*
X7Y1779D01*
X3562Y1779D02*
X3569Y1779D01*
X0Y1778D02*
X7Y1778D01*
X3562Y1778D02*
X3569Y1778D01*
X0Y1777D02*
X7Y1777D01*
X3562Y1777D02*
X3569Y1777D01*
X0Y1776D02*
X7Y1776D01*
X3562Y1776D02*
X3569Y1776D01*
X0Y1775D02*
X7Y1775D01*
X3562Y1775D02*
X3569Y1775D01*
X0Y1774D02*
X7Y1774D01*
X3562Y1774D02*
X3569Y1774D01*
X0Y1773D02*
X7Y1773D01*
X3562Y1773D02*
X3569Y1773D01*
X0Y1772D02*
X7Y1772D01*
X3562Y1772D02*
X3569Y1772D01*
X0Y1771D02*
X7Y1771D01*
X3562Y1771D02*
X3569Y1771D01*
X0Y1770D02*
X7Y1770D01*
X3562Y1770D02*
X3569Y1770D01*
X0Y1769D02*
X7Y1769D01*
X3562Y1769D02*
X3569Y1769D01*
X0Y1768D02*
X7Y1768D01*
X3562Y1768D02*
X3569Y1768D01*
X0Y1767D02*
X7Y1767D01*
X3562Y1767D02*
X3569Y1767D01*
X0Y1766D02*
X7Y1766D01*
X3562Y1766D02*
X3569Y1766D01*
X0Y1765D02*
X7Y1765D01*
X3562Y1765D02*
X3569Y1765D01*
X0Y1764D02*
X7Y1764D01*
X3562Y1764D02*
X3569Y1764D01*
X0Y1763D02*
X7Y1763D01*
X3562Y1763D02*
X3569Y1763D01*
X0Y1762D02*
X7Y1762D01*
X3562Y1762D02*
X3569Y1762D01*
X0Y1761D02*
X7Y1761D01*
X3562Y1761D02*
X3569Y1761D01*
X0Y1760D02*
X7Y1760D01*
X3562Y1760D02*
X3569Y1760D01*
X0Y1759D02*
X7Y1759D01*
X3562Y1759D02*
X3569Y1759D01*
X0Y1758D02*
X7Y1758D01*
X3562Y1758D02*
X3569Y1758D01*
X0Y1757D02*
X7Y1757D01*
X3562Y1757D02*
X3569Y1757D01*
X0Y1756D02*
X7Y1756D01*
X3562Y1756D02*
X3569Y1756D01*
X0Y1755D02*
X7Y1755D01*
X3562Y1755D02*
X3569Y1755D01*
X0Y1754D02*
X7Y1754D01*
X3562Y1754D02*
X3569Y1754D01*
X0Y1753D02*
X7Y1753D01*
X3562Y1753D02*
X3569Y1753D01*
X0Y1752D02*
X7Y1752D01*
X3562Y1752D02*
X3569Y1752D01*
X0Y1751D02*
X7Y1751D01*
X3562Y1751D02*
X3569Y1751D01*
X0Y1750D02*
X7Y1750D01*
X3562Y1750D02*
X3569Y1750D01*
X0Y1749D02*
X7Y1749D01*
X3562Y1749D02*
X3569Y1749D01*
X0Y1748D02*
X7Y1748D01*
X3562Y1748D02*
X3569Y1748D01*
X0Y1747D02*
X7Y1747D01*
X3562Y1747D02*
X3569Y1747D01*
X0Y1746D02*
X7Y1746D01*
X3562Y1746D02*
X3569Y1746D01*
X0Y1745D02*
X7Y1745D01*
X3562Y1745D02*
X3569Y1745D01*
X0Y1744D02*
X7Y1744D01*
X3562Y1744D02*
X3569Y1744D01*
X0Y1743D02*
X7Y1743D01*
X3562Y1743D02*
X3569Y1743D01*
X0Y1742D02*
X7Y1742D01*
X3562Y1742D02*
X3569Y1742D01*
X0Y1741D02*
X7Y1741D01*
X3562Y1741D02*
X3569Y1741D01*
X0Y1740D02*
X7Y1740D01*
X3562Y1740D02*
X3569Y1740D01*
X0Y1739D02*
X7Y1739D01*
X3562Y1739D02*
X3569Y1739D01*
X0Y1738D02*
X7Y1738D01*
X3562Y1738D02*
X3569Y1738D01*
X0Y1737D02*
X7Y1737D01*
X3562Y1737D02*
X3569Y1737D01*
X0Y1736D02*
X7Y1736D01*
X3562Y1736D02*
X3569Y1736D01*
X0Y1735D02*
X7Y1735D01*
X3562Y1735D02*
X3569Y1735D01*
X0Y1734D02*
X7Y1734D01*
X3562Y1734D02*
X3569Y1734D01*
X0Y1733D02*
X7Y1733D01*
X3562Y1733D02*
X3569Y1733D01*
X0Y1732D02*
X7Y1732D01*
X3562Y1732D02*
X3569Y1732D01*
X0Y1731D02*
X7Y1731D01*
X3562Y1731D02*
X3569Y1731D01*
X0Y1730D02*
X7Y1730D01*
X3562Y1730D02*
X3569Y1730D01*
X0Y1729D02*
X7Y1729D01*
X3562Y1729D02*
X3569Y1729D01*
X0Y1728D02*
X7Y1728D01*
X3562Y1728D02*
X3569Y1728D01*
X0Y1727D02*
X7Y1727D01*
X3562Y1727D02*
X3569Y1727D01*
X0Y1726D02*
X7Y1726D01*
X3562Y1726D02*
X3569Y1726D01*
X0Y1725D02*
X7Y1725D01*
X3562Y1725D02*
X3569Y1725D01*
X0Y1724D02*
X7Y1724D01*
X3562Y1724D02*
X3569Y1724D01*
X0Y1723D02*
X7Y1723D01*
X3562Y1723D02*
X3569Y1723D01*
X0Y1722D02*
X7Y1722D01*
X3562Y1722D02*
X3569Y1722D01*
X0Y1721D02*
X7Y1721D01*
X3562Y1721D02*
X3569Y1721D01*
X0Y1720D02*
X7Y1720D01*
X3562Y1720D02*
X3569Y1720D01*
X0Y1719D02*
X7Y1719D01*
X3562Y1719D02*
X3569Y1719D01*
X0Y1718D02*
X7Y1718D01*
X3562Y1718D02*
X3569Y1718D01*
X0Y1717D02*
X7Y1717D01*
X3562Y1717D02*
X3569Y1717D01*
X0Y1716D02*
X7Y1716D01*
X3562Y1716D02*
X3569Y1716D01*
X0Y1715D02*
X7Y1715D01*
X3562Y1715D02*
X3569Y1715D01*
X0Y1714D02*
X7Y1714D01*
X3562Y1714D02*
X3569Y1714D01*
X0Y1713D02*
X7Y1713D01*
X3562Y1713D02*
X3569Y1713D01*
X0Y1712D02*
X7Y1712D01*
X3562Y1712D02*
X3569Y1712D01*
X0Y1711D02*
X7Y1711D01*
X3562Y1711D02*
X3569Y1711D01*
X0Y1710D02*
X7Y1710D01*
X3562Y1710D02*
X3569Y1710D01*
X0Y1709D02*
X7Y1709D01*
X3562Y1709D02*
X3569Y1709D01*
X0Y1708D02*
X7Y1708D01*
X3562Y1708D02*
X3569Y1708D01*
X0Y1707D02*
X7Y1707D01*
X3562Y1707D02*
X3569Y1707D01*
X0Y1706D02*
X7Y1706D01*
X3562Y1706D02*
X3569Y1706D01*
X0Y1705D02*
X7Y1705D01*
X3562Y1705D02*
X3569Y1705D01*
X0Y1704D02*
X7Y1704D01*
X3562Y1704D02*
X3569Y1704D01*
X0Y1703D02*
X7Y1703D01*
X3562Y1703D02*
X3569Y1703D01*
X0Y1702D02*
X7Y1702D01*
X3562Y1702D02*
X3569Y1702D01*
X0Y1701D02*
X7Y1701D01*
X3562Y1701D02*
X3569Y1701D01*
X0Y1700D02*
X7Y1700D01*
X3562Y1700D02*
X3569Y1700D01*
X0Y1699D02*
X7Y1699D01*
X3562Y1699D02*
X3569Y1699D01*
X0Y1698D02*
X7Y1698D01*
X3562Y1698D02*
X3569Y1698D01*
X0Y1697D02*
X7Y1697D01*
X3562Y1697D02*
X3569Y1697D01*
X0Y1696D02*
X7Y1696D01*
X3562Y1696D02*
X3569Y1696D01*
X0Y1695D02*
X7Y1695D01*
X3562Y1695D02*
X3569Y1695D01*
X0Y1694D02*
X7Y1694D01*
X3562Y1694D02*
X3569Y1694D01*
X0Y1693D02*
X7Y1693D01*
X3562Y1693D02*
X3569Y1693D01*
X0Y1692D02*
X7Y1692D01*
X3562Y1692D02*
X3569Y1692D01*
X0Y1691D02*
X7Y1691D01*
X3562Y1691D02*
X3569Y1691D01*
X0Y1690D02*
X7Y1690D01*
X3562Y1690D02*
X3569Y1690D01*
X0Y1689D02*
X7Y1689D01*
X3562Y1689D02*
X3569Y1689D01*
X0Y1688D02*
X7Y1688D01*
X3562Y1688D02*
X3569Y1688D01*
X0Y1687D02*
X7Y1687D01*
X3562Y1687D02*
X3569Y1687D01*
X0Y1686D02*
X7Y1686D01*
X3562Y1686D02*
X3569Y1686D01*
X0Y1685D02*
X7Y1685D01*
X3562Y1685D02*
X3569Y1685D01*
X0Y1684D02*
X7Y1684D01*
X3562Y1684D02*
X3569Y1684D01*
X0Y1683D02*
X7Y1683D01*
X3562Y1683D02*
X3569Y1683D01*
X0Y1682D02*
X7Y1682D01*
X3562Y1682D02*
X3569Y1682D01*
X0Y1681D02*
X7Y1681D01*
X3562Y1681D02*
X3569Y1681D01*
X0Y1680D02*
X7Y1680D01*
X3562Y1680D02*
X3569Y1680D01*
X0Y1679D02*
X7Y1679D01*
X3562Y1679D02*
X3569Y1679D01*
X0Y1678D02*
X7Y1678D01*
X3562Y1678D02*
X3569Y1678D01*
X0Y1677D02*
X7Y1677D01*
X3562Y1677D02*
X3569Y1677D01*
X0Y1676D02*
X7Y1676D01*
X3562Y1676D02*
X3569Y1676D01*
X0Y1675D02*
X7Y1675D01*
X3562Y1675D02*
X3569Y1675D01*
X0Y1674D02*
X7Y1674D01*
X3562Y1674D02*
X3569Y1674D01*
X0Y1673D02*
X7Y1673D01*
X3562Y1673D02*
X3569Y1673D01*
X0Y1672D02*
X7Y1672D01*
X3562Y1672D02*
X3569Y1672D01*
X0Y1671D02*
X7Y1671D01*
X3562Y1671D02*
X3569Y1671D01*
X0Y1670D02*
X7Y1670D01*
X3562Y1670D02*
X3569Y1670D01*
X0Y1669D02*
X7Y1669D01*
X3562Y1669D02*
X3569Y1669D01*
X0Y1668D02*
X7Y1668D01*
X3562Y1668D02*
X3569Y1668D01*
X0Y1667D02*
X7Y1667D01*
X3562Y1667D02*
X3569Y1667D01*
X0Y1666D02*
X7Y1666D01*
X3562Y1666D02*
X3569Y1666D01*
X0Y1665D02*
X7Y1665D01*
X3562Y1665D02*
X3569Y1665D01*
X0Y1664D02*
X7Y1664D01*
X3562Y1664D02*
X3569Y1664D01*
X0Y1663D02*
X7Y1663D01*
X3562Y1663D02*
X3569Y1663D01*
X0Y1662D02*
X7Y1662D01*
X3562Y1662D02*
X3569Y1662D01*
X0Y1661D02*
X7Y1661D01*
X3562Y1661D02*
X3569Y1661D01*
X0Y1660D02*
X7Y1660D01*
X3562Y1660D02*
X3569Y1660D01*
X0Y1659D02*
X7Y1659D01*
X3562Y1659D02*
X3569Y1659D01*
X0Y1658D02*
X7Y1658D01*
X3562Y1658D02*
X3569Y1658D01*
X0Y1657D02*
X7Y1657D01*
X3562Y1657D02*
X3569Y1657D01*
X0Y1656D02*
X7Y1656D01*
X3562Y1656D02*
X3569Y1656D01*
X0Y1655D02*
X7Y1655D01*
X3562Y1655D02*
X3569Y1655D01*
X0Y1654D02*
X7Y1654D01*
X3562Y1654D02*
X3569Y1654D01*
X0Y1653D02*
X7Y1653D01*
X3562Y1653D02*
X3569Y1653D01*
X0Y1652D02*
X7Y1652D01*
X3562Y1652D02*
X3569Y1652D01*
X0Y1651D02*
X7Y1651D01*
X3562Y1651D02*
X3569Y1651D01*
X0Y1650D02*
X7Y1650D01*
X3562Y1650D02*
X3569Y1650D01*
X0Y1649D02*
X7Y1649D01*
X3562Y1649D02*
X3569Y1649D01*
X0Y1648D02*
X7Y1648D01*
X3562Y1648D02*
X3569Y1648D01*
X0Y1647D02*
X7Y1647D01*
X3562Y1647D02*
X3569Y1647D01*
X0Y1646D02*
X7Y1646D01*
X3562Y1646D02*
X3569Y1646D01*
X0Y1645D02*
X7Y1645D01*
X3562Y1645D02*
X3569Y1645D01*
X0Y1644D02*
X7Y1644D01*
X3562Y1644D02*
X3569Y1644D01*
X0Y1643D02*
X7Y1643D01*
X3562Y1643D02*
X3569Y1643D01*
X0Y1642D02*
X7Y1642D01*
X3562Y1642D02*
X3569Y1642D01*
X0Y1641D02*
X7Y1641D01*
X3562Y1641D02*
X3569Y1641D01*
X0Y1640D02*
X7Y1640D01*
X3562Y1640D02*
X3569Y1640D01*
X0Y1639D02*
X7Y1639D01*
X3562Y1639D02*
X3569Y1639D01*
X0Y1638D02*
X7Y1638D01*
X3562Y1638D02*
X3569Y1638D01*
X0Y1637D02*
X7Y1637D01*
X3562Y1637D02*
X3569Y1637D01*
X0Y1636D02*
X7Y1636D01*
X3562Y1636D02*
X3569Y1636D01*
X0Y1635D02*
X7Y1635D01*
X3562Y1635D02*
X3569Y1635D01*
X0Y1634D02*
X7Y1634D01*
X3562Y1634D02*
X3569Y1634D01*
X0Y1633D02*
X7Y1633D01*
X3562Y1633D02*
X3569Y1633D01*
X0Y1632D02*
X7Y1632D01*
X3562Y1632D02*
X3569Y1632D01*
X0Y1631D02*
X7Y1631D01*
X3562Y1631D02*
X3569Y1631D01*
X0Y1630D02*
X7Y1630D01*
X3562Y1630D02*
X3569Y1630D01*
X0Y1629D02*
X7Y1629D01*
X3562Y1629D02*
X3569Y1629D01*
X0Y1628D02*
X7Y1628D01*
X3562Y1628D02*
X3569Y1628D01*
X0Y1627D02*
X7Y1627D01*
X3562Y1627D02*
X3569Y1627D01*
X0Y1626D02*
X7Y1626D01*
X3562Y1626D02*
X3569Y1626D01*
X0Y1625D02*
X7Y1625D01*
X3562Y1625D02*
X3569Y1625D01*
X0Y1624D02*
X7Y1624D01*
X3562Y1624D02*
X3569Y1624D01*
X0Y1623D02*
X7Y1623D01*
X3562Y1623D02*
X3569Y1623D01*
X0Y1622D02*
X7Y1622D01*
X3562Y1622D02*
X3569Y1622D01*
X0Y1621D02*
X7Y1621D01*
X3562Y1621D02*
X3569Y1621D01*
X0Y1620D02*
X7Y1620D01*
X3562Y1620D02*
X3569Y1620D01*
X0Y1619D02*
X7Y1619D01*
X3562Y1619D02*
X3569Y1619D01*
X0Y1618D02*
X7Y1618D01*
X3562Y1618D02*
X3569Y1618D01*
X0Y1617D02*
X7Y1617D01*
X3562Y1617D02*
X3569Y1617D01*
X0Y1616D02*
X7Y1616D01*
X3562Y1616D02*
X3569Y1616D01*
X0Y1615D02*
X7Y1615D01*
X3562Y1615D02*
X3569Y1615D01*
X0Y1614D02*
X7Y1614D01*
X3562Y1614D02*
X3569Y1614D01*
X0Y1613D02*
X7Y1613D01*
X3562Y1613D02*
X3569Y1613D01*
X0Y1612D02*
X7Y1612D01*
X3562Y1612D02*
X3569Y1612D01*
X0Y1611D02*
X7Y1611D01*
X3562Y1611D02*
X3569Y1611D01*
X0Y1610D02*
X7Y1610D01*
X3562Y1610D02*
X3569Y1610D01*
X0Y1609D02*
X7Y1609D01*
X3562Y1609D02*
X3569Y1609D01*
X0Y1608D02*
X7Y1608D01*
X3562Y1608D02*
X3569Y1608D01*
X0Y1607D02*
X7Y1607D01*
X3562Y1607D02*
X3569Y1607D01*
X0Y1606D02*
X7Y1606D01*
X3562Y1606D02*
X3569Y1606D01*
X0Y1605D02*
X7Y1605D01*
X3562Y1605D02*
X3569Y1605D01*
X0Y1604D02*
X7Y1604D01*
X3562Y1604D02*
X3569Y1604D01*
X0Y1603D02*
X7Y1603D01*
X3562Y1603D02*
X3569Y1603D01*
X0Y1602D02*
X7Y1602D01*
X3562Y1602D02*
X3569Y1602D01*
X0Y1601D02*
X7Y1601D01*
X3562Y1601D02*
X3569Y1601D01*
X0Y1600D02*
X7Y1600D01*
X3562Y1600D02*
X3569Y1600D01*
X0Y1599D02*
X7Y1599D01*
X3562Y1599D02*
X3569Y1599D01*
X0Y1598D02*
X7Y1598D01*
X3562Y1598D02*
X3569Y1598D01*
X0Y1597D02*
X7Y1597D01*
X3562Y1597D02*
X3569Y1597D01*
X0Y1596D02*
X7Y1596D01*
X3562Y1596D02*
X3569Y1596D01*
X0Y1595D02*
X7Y1595D01*
X3562Y1595D02*
X3569Y1595D01*
X0Y1594D02*
X7Y1594D01*
X3562Y1594D02*
X3569Y1594D01*
X0Y1593D02*
X7Y1593D01*
X3562Y1593D02*
X3569Y1593D01*
X0Y1592D02*
X7Y1592D01*
X3562Y1592D02*
X3569Y1592D01*
X0Y1591D02*
X7Y1591D01*
X3562Y1591D02*
X3569Y1591D01*
X0Y1590D02*
X7Y1590D01*
X3562Y1590D02*
X3569Y1590D01*
X0Y1589D02*
X7Y1589D01*
X3562Y1589D02*
X3569Y1589D01*
X0Y1588D02*
X7Y1588D01*
X3562Y1588D02*
X3569Y1588D01*
X0Y1587D02*
X7Y1587D01*
X3562Y1587D02*
X3569Y1587D01*
X0Y1586D02*
X7Y1586D01*
X3562Y1586D02*
X3569Y1586D01*
X0Y1585D02*
X7Y1585D01*
X3562Y1585D02*
X3569Y1585D01*
X0Y1584D02*
X7Y1584D01*
X3562Y1584D02*
X3569Y1584D01*
X0Y1583D02*
X7Y1583D01*
X3562Y1583D02*
X3569Y1583D01*
X0Y1582D02*
X7Y1582D01*
X3562Y1582D02*
X3569Y1582D01*
X0Y1581D02*
X7Y1581D01*
X3562Y1581D02*
X3569Y1581D01*
X0Y1580D02*
X7Y1580D01*
X3562Y1580D02*
X3569Y1580D01*
X0Y1579D02*
X7Y1579D01*
X3562Y1579D02*
X3569Y1579D01*
X0Y1578D02*
X7Y1578D01*
X3562Y1578D02*
X3569Y1578D01*
X0Y1577D02*
X7Y1577D01*
X3562Y1577D02*
X3569Y1577D01*
X0Y1576D02*
X7Y1576D01*
X3562Y1576D02*
X3569Y1576D01*
X0Y1575D02*
X7Y1575D01*
X3562Y1575D02*
X3569Y1575D01*
X0Y1574D02*
X7Y1574D01*
X3562Y1574D02*
X3569Y1574D01*
X0Y1573D02*
X7Y1573D01*
X3562Y1573D02*
X3569Y1573D01*
X0Y1572D02*
X7Y1572D01*
X3562Y1572D02*
X3569Y1572D01*
X0Y1571D02*
X7Y1571D01*
X3562Y1571D02*
X3569Y1571D01*
X0Y1570D02*
X7Y1570D01*
X3562Y1570D02*
X3569Y1570D01*
X0Y1569D02*
X7Y1569D01*
X3562Y1569D02*
X3569Y1569D01*
X0Y1568D02*
X7Y1568D01*
X3562Y1568D02*
X3569Y1568D01*
X0Y1567D02*
X7Y1567D01*
X3562Y1567D02*
X3569Y1567D01*
X0Y1566D02*
X7Y1566D01*
X3562Y1566D02*
X3569Y1566D01*
X0Y1565D02*
X7Y1565D01*
X3562Y1565D02*
X3569Y1565D01*
X0Y1564D02*
X7Y1564D01*
X3562Y1564D02*
X3569Y1564D01*
X0Y1563D02*
X7Y1563D01*
X3562Y1563D02*
X3569Y1563D01*
X0Y1562D02*
X7Y1562D01*
X3562Y1562D02*
X3569Y1562D01*
X0Y1561D02*
X7Y1561D01*
X3562Y1561D02*
X3569Y1561D01*
X0Y1560D02*
X7Y1560D01*
X3562Y1560D02*
X3569Y1560D01*
X0Y1559D02*
X7Y1559D01*
X3562Y1559D02*
X3569Y1559D01*
X0Y1558D02*
X7Y1558D01*
X3562Y1558D02*
X3569Y1558D01*
X0Y1557D02*
X7Y1557D01*
X3562Y1557D02*
X3569Y1557D01*
X0Y1556D02*
X7Y1556D01*
X3562Y1556D02*
X3569Y1556D01*
X0Y1555D02*
X7Y1555D01*
X3562Y1555D02*
X3569Y1555D01*
X0Y1554D02*
X7Y1554D01*
X3562Y1554D02*
X3569Y1554D01*
X0Y1553D02*
X7Y1553D01*
X3562Y1553D02*
X3569Y1553D01*
X0Y1552D02*
X7Y1552D01*
X3562Y1552D02*
X3569Y1552D01*
X0Y1551D02*
X7Y1551D01*
X3562Y1551D02*
X3569Y1551D01*
X0Y1550D02*
X7Y1550D01*
X3562Y1550D02*
X3569Y1550D01*
X0Y1549D02*
X7Y1549D01*
X3562Y1549D02*
X3569Y1549D01*
X0Y1548D02*
X7Y1548D01*
X3562Y1548D02*
X3569Y1548D01*
X0Y1547D02*
X7Y1547D01*
X3562Y1547D02*
X3569Y1547D01*
X0Y1546D02*
X7Y1546D01*
X3562Y1546D02*
X3569Y1546D01*
X0Y1545D02*
X7Y1545D01*
X3562Y1545D02*
X3569Y1545D01*
X0Y1544D02*
X7Y1544D01*
X3562Y1544D02*
X3569Y1544D01*
X0Y1543D02*
X7Y1543D01*
X3562Y1543D02*
X3569Y1543D01*
X0Y1542D02*
X7Y1542D01*
X3562Y1542D02*
X3569Y1542D01*
X0Y1541D02*
X7Y1541D01*
X3562Y1541D02*
X3569Y1541D01*
X0Y1540D02*
X7Y1540D01*
X3562Y1540D02*
X3569Y1540D01*
X0Y1539D02*
X7Y1539D01*
X3562Y1539D02*
X3569Y1539D01*
X0Y1538D02*
X7Y1538D01*
X3562Y1538D02*
X3569Y1538D01*
X0Y1537D02*
X7Y1537D01*
X3562Y1537D02*
X3569Y1537D01*
X0Y1536D02*
X7Y1536D01*
X3562Y1536D02*
X3569Y1536D01*
X0Y1535D02*
X7Y1535D01*
X3562Y1535D02*
X3569Y1535D01*
X0Y1534D02*
X7Y1534D01*
X3562Y1534D02*
X3569Y1534D01*
X0Y1533D02*
X7Y1533D01*
X3562Y1533D02*
X3569Y1533D01*
X0Y1532D02*
X7Y1532D01*
X3562Y1532D02*
X3569Y1532D01*
X0Y1531D02*
X7Y1531D01*
X3562Y1531D02*
X3569Y1531D01*
X0Y1530D02*
X7Y1530D01*
X3562Y1530D02*
X3569Y1530D01*
X0Y1529D02*
X7Y1529D01*
X3562Y1529D02*
X3569Y1529D01*
X0Y1528D02*
X7Y1528D01*
X3562Y1528D02*
X3569Y1528D01*
X0Y1527D02*
X7Y1527D01*
X3562Y1527D02*
X3569Y1527D01*
X0Y1526D02*
X7Y1526D01*
X3562Y1526D02*
X3569Y1526D01*
X0Y1525D02*
X7Y1525D01*
X3562Y1525D02*
X3569Y1525D01*
X0Y1524D02*
X7Y1524D01*
X3562Y1524D02*
X3569Y1524D01*
X0Y1523D02*
X7Y1523D01*
X3562Y1523D02*
X3569Y1523D01*
X0Y1522D02*
X7Y1522D01*
X3562Y1522D02*
X3569Y1522D01*
X0Y1521D02*
X7Y1521D01*
X3562Y1521D02*
X3569Y1521D01*
X0Y1520D02*
X7Y1520D01*
X3562Y1520D02*
X3569Y1520D01*
X0Y1519D02*
X7Y1519D01*
X3562Y1519D02*
X3569Y1519D01*
X0Y1518D02*
X7Y1518D01*
X3562Y1518D02*
X3569Y1518D01*
X0Y1517D02*
X7Y1517D01*
X3562Y1517D02*
X3569Y1517D01*
X0Y1516D02*
X7Y1516D01*
X3562Y1516D02*
X3569Y1516D01*
X0Y1515D02*
X7Y1515D01*
X3562Y1515D02*
X3569Y1515D01*
X0Y1514D02*
X7Y1514D01*
X3562Y1514D02*
X3569Y1514D01*
X0Y1513D02*
X7Y1513D01*
X3562Y1513D02*
X3569Y1513D01*
X0Y1512D02*
X7Y1512D01*
X3562Y1512D02*
X3569Y1512D01*
X0Y1511D02*
X7Y1511D01*
X3562Y1511D02*
X3569Y1511D01*
X0Y1510D02*
X7Y1510D01*
X3562Y1510D02*
X3569Y1510D01*
X0Y1509D02*
X7Y1509D01*
X3562Y1509D02*
X3569Y1509D01*
X0Y1508D02*
X7Y1508D01*
X3562Y1508D02*
X3569Y1508D01*
X0Y1507D02*
X7Y1507D01*
X3562Y1507D02*
X3569Y1507D01*
X0Y1506D02*
X7Y1506D01*
X3562Y1506D02*
X3569Y1506D01*
X0Y1505D02*
X7Y1505D01*
X3562Y1505D02*
X3569Y1505D01*
X0Y1504D02*
X7Y1504D01*
X3562Y1504D02*
X3569Y1504D01*
X0Y1503D02*
X7Y1503D01*
X3562Y1503D02*
X3569Y1503D01*
X0Y1502D02*
X7Y1502D01*
X3562Y1502D02*
X3569Y1502D01*
X0Y1501D02*
X7Y1501D01*
X3562Y1501D02*
X3569Y1501D01*
X0Y1500D02*
X7Y1500D01*
X3562Y1500D02*
X3569Y1500D01*
X0Y1499D02*
X7Y1499D01*
X3562Y1499D02*
X3569Y1499D01*
X0Y1498D02*
X7Y1498D01*
X3562Y1498D02*
X3569Y1498D01*
X0Y1497D02*
X7Y1497D01*
X3562Y1497D02*
X3569Y1497D01*
X0Y1496D02*
X7Y1496D01*
X3562Y1496D02*
X3569Y1496D01*
X0Y1495D02*
X7Y1495D01*
X3562Y1495D02*
X3569Y1495D01*
X0Y1494D02*
X7Y1494D01*
X3562Y1494D02*
X3569Y1494D01*
X0Y1493D02*
X7Y1493D01*
X3562Y1493D02*
X3569Y1493D01*
X0Y1492D02*
X7Y1492D01*
X3562Y1492D02*
X3569Y1492D01*
X0Y1491D02*
X7Y1491D01*
X3562Y1491D02*
X3569Y1491D01*
X0Y1490D02*
X7Y1490D01*
X3562Y1490D02*
X3569Y1490D01*
X0Y1489D02*
X7Y1489D01*
X3562Y1489D02*
X3569Y1489D01*
X0Y1488D02*
X7Y1488D01*
X3562Y1488D02*
X3569Y1488D01*
X0Y1487D02*
X7Y1487D01*
X3562Y1487D02*
X3569Y1487D01*
X0Y1486D02*
X7Y1486D01*
X3562Y1486D02*
X3569Y1486D01*
X0Y1485D02*
X7Y1485D01*
X3562Y1485D02*
X3569Y1485D01*
X0Y1484D02*
X7Y1484D01*
X3562Y1484D02*
X3569Y1484D01*
X0Y1483D02*
X7Y1483D01*
X3562Y1483D02*
X3569Y1483D01*
X0Y1482D02*
X7Y1482D01*
X3562Y1482D02*
X3569Y1482D01*
X0Y1481D02*
X7Y1481D01*
X3562Y1481D02*
X3569Y1481D01*
X0Y1480D02*
X7Y1480D01*
X3562Y1480D02*
X3569Y1480D01*
X0Y1479D02*
X7Y1479D01*
X3562Y1479D02*
X3569Y1479D01*
X0Y1478D02*
X7Y1478D01*
X3562Y1478D02*
X3569Y1478D01*
X0Y1477D02*
X7Y1477D01*
X3562Y1477D02*
X3569Y1477D01*
X0Y1476D02*
X7Y1476D01*
X3562Y1476D02*
X3569Y1476D01*
X0Y1475D02*
X7Y1475D01*
X3562Y1475D02*
X3569Y1475D01*
X0Y1474D02*
X7Y1474D01*
X3562Y1474D02*
X3569Y1474D01*
X0Y1473D02*
X7Y1473D01*
X3562Y1473D02*
X3569Y1473D01*
X0Y1472D02*
X7Y1472D01*
X3562Y1472D02*
X3569Y1472D01*
X0Y1471D02*
X7Y1471D01*
X3562Y1471D02*
X3569Y1471D01*
X0Y1470D02*
X7Y1470D01*
X3562Y1470D02*
X3569Y1470D01*
X0Y1469D02*
X7Y1469D01*
X3562Y1469D02*
X3569Y1469D01*
X0Y1468D02*
X7Y1468D01*
X3562Y1468D02*
X3569Y1468D01*
X0Y1467D02*
X7Y1467D01*
X3562Y1467D02*
X3569Y1467D01*
X0Y1466D02*
X7Y1466D01*
X3562Y1466D02*
X3569Y1466D01*
X0Y1465D02*
X7Y1465D01*
X3562Y1465D02*
X3569Y1465D01*
X0Y1464D02*
X7Y1464D01*
X3562Y1464D02*
X3569Y1464D01*
X0Y1463D02*
X7Y1463D01*
X3562Y1463D02*
X3569Y1463D01*
X0Y1462D02*
X7Y1462D01*
X3562Y1462D02*
X3569Y1462D01*
X0Y1461D02*
X7Y1461D01*
X3562Y1461D02*
X3569Y1461D01*
X0Y1460D02*
X7Y1460D01*
X3562Y1460D02*
X3569Y1460D01*
X0Y1459D02*
X7Y1459D01*
X3562Y1459D02*
X3569Y1459D01*
X0Y1458D02*
X7Y1458D01*
X3562Y1458D02*
X3569Y1458D01*
X0Y1457D02*
X7Y1457D01*
X3562Y1457D02*
X3569Y1457D01*
X0Y1456D02*
X7Y1456D01*
X3562Y1456D02*
X3569Y1456D01*
X0Y1455D02*
X7Y1455D01*
X3562Y1455D02*
X3569Y1455D01*
X0Y1454D02*
X7Y1454D01*
X3562Y1454D02*
X3569Y1454D01*
X0Y1453D02*
X7Y1453D01*
X3562Y1453D02*
X3569Y1453D01*
X0Y1452D02*
X7Y1452D01*
X3562Y1452D02*
X3569Y1452D01*
X0Y1451D02*
X7Y1451D01*
X3562Y1451D02*
X3569Y1451D01*
X0Y1450D02*
X7Y1450D01*
X3562Y1450D02*
X3569Y1450D01*
X0Y1449D02*
X7Y1449D01*
X3562Y1449D02*
X3569Y1449D01*
X0Y1448D02*
X7Y1448D01*
X3562Y1448D02*
X3569Y1448D01*
X0Y1447D02*
X7Y1447D01*
X3562Y1447D02*
X3569Y1447D01*
X0Y1446D02*
X7Y1446D01*
X3562Y1446D02*
X3569Y1446D01*
X0Y1445D02*
X7Y1445D01*
X3562Y1445D02*
X3569Y1445D01*
X0Y1444D02*
X7Y1444D01*
X3562Y1444D02*
X3569Y1444D01*
X0Y1443D02*
X7Y1443D01*
X3562Y1443D02*
X3569Y1443D01*
X0Y1442D02*
X7Y1442D01*
X3562Y1442D02*
X3569Y1442D01*
X0Y1441D02*
X7Y1441D01*
X3562Y1441D02*
X3569Y1441D01*
X0Y1440D02*
X7Y1440D01*
X3562Y1440D02*
X3569Y1440D01*
X0Y1439D02*
X7Y1439D01*
X3562Y1439D02*
X3569Y1439D01*
X0Y1438D02*
X7Y1438D01*
X3562Y1438D02*
X3569Y1438D01*
X0Y1437D02*
X7Y1437D01*
X3562Y1437D02*
X3569Y1437D01*
X0Y1436D02*
X7Y1436D01*
X3562Y1436D02*
X3569Y1436D01*
X0Y1435D02*
X7Y1435D01*
X3562Y1435D02*
X3569Y1435D01*
X0Y1434D02*
X7Y1434D01*
X3562Y1434D02*
X3569Y1434D01*
X0Y1433D02*
X7Y1433D01*
X3562Y1433D02*
X3569Y1433D01*
X0Y1432D02*
X7Y1432D01*
X3562Y1432D02*
X3569Y1432D01*
X0Y1431D02*
X7Y1431D01*
X3562Y1431D02*
X3569Y1431D01*
X0Y1430D02*
X7Y1430D01*
X3562Y1430D02*
X3569Y1430D01*
X0Y1429D02*
X7Y1429D01*
X3562Y1429D02*
X3569Y1429D01*
X0Y1428D02*
X7Y1428D01*
X3562Y1428D02*
X3569Y1428D01*
X0Y1427D02*
X7Y1427D01*
X3562Y1427D02*
X3569Y1427D01*
X0Y1426D02*
X7Y1426D01*
X3562Y1426D02*
X3569Y1426D01*
X0Y1425D02*
X7Y1425D01*
X3562Y1425D02*
X3569Y1425D01*
X0Y1424D02*
X7Y1424D01*
X3562Y1424D02*
X3569Y1424D01*
X0Y1423D02*
X7Y1423D01*
X3562Y1423D02*
X3569Y1423D01*
X0Y1422D02*
X7Y1422D01*
X3562Y1422D02*
X3569Y1422D01*
X0Y1421D02*
X7Y1421D01*
X3562Y1421D02*
X3569Y1421D01*
X0Y1420D02*
X7Y1420D01*
X3562Y1420D02*
X3569Y1420D01*
X0Y1419D02*
X7Y1419D01*
X3562Y1419D02*
X3569Y1419D01*
X0Y1418D02*
X7Y1418D01*
X3562Y1418D02*
X3569Y1418D01*
X0Y1417D02*
X7Y1417D01*
X3562Y1417D02*
X3569Y1417D01*
X0Y1416D02*
X7Y1416D01*
X3562Y1416D02*
X3569Y1416D01*
X0Y1415D02*
X7Y1415D01*
X3562Y1415D02*
X3569Y1415D01*
X0Y1414D02*
X7Y1414D01*
X3562Y1414D02*
X3569Y1414D01*
X0Y1413D02*
X7Y1413D01*
X3562Y1413D02*
X3569Y1413D01*
X0Y1412D02*
X7Y1412D01*
X3562Y1412D02*
X3569Y1412D01*
X0Y1411D02*
X7Y1411D01*
X3562Y1411D02*
X3569Y1411D01*
X0Y1410D02*
X7Y1410D01*
X3562Y1410D02*
X3569Y1410D01*
X0Y1409D02*
X7Y1409D01*
X3562Y1409D02*
X3569Y1409D01*
X0Y1408D02*
X7Y1408D01*
X3562Y1408D02*
X3569Y1408D01*
X0Y1407D02*
X7Y1407D01*
X3562Y1407D02*
X3569Y1407D01*
X0Y1406D02*
X7Y1406D01*
X3562Y1406D02*
X3569Y1406D01*
X0Y1405D02*
X7Y1405D01*
X3562Y1405D02*
X3569Y1405D01*
X0Y1404D02*
X7Y1404D01*
X3562Y1404D02*
X3569Y1404D01*
X0Y1403D02*
X7Y1403D01*
X3562Y1403D02*
X3569Y1403D01*
X0Y1402D02*
X7Y1402D01*
X3562Y1402D02*
X3569Y1402D01*
X0Y1401D02*
X7Y1401D01*
X3562Y1401D02*
X3569Y1401D01*
X0Y1400D02*
X7Y1400D01*
X3562Y1400D02*
X3569Y1400D01*
X0Y1399D02*
X7Y1399D01*
X3562Y1399D02*
X3569Y1399D01*
X0Y1398D02*
X7Y1398D01*
X3562Y1398D02*
X3569Y1398D01*
X0Y1397D02*
X7Y1397D01*
X3562Y1397D02*
X3569Y1397D01*
X0Y1396D02*
X7Y1396D01*
X3562Y1396D02*
X3569Y1396D01*
X0Y1395D02*
X7Y1395D01*
X3562Y1395D02*
X3569Y1395D01*
X0Y1394D02*
X7Y1394D01*
X3562Y1394D02*
X3569Y1394D01*
X0Y1393D02*
X7Y1393D01*
X3562Y1393D02*
X3569Y1393D01*
X0Y1392D02*
X7Y1392D01*
X3562Y1392D02*
X3569Y1392D01*
X0Y1391D02*
X7Y1391D01*
X3562Y1391D02*
X3569Y1391D01*
X0Y1390D02*
X7Y1390D01*
X3562Y1390D02*
X3569Y1390D01*
X0Y1389D02*
X7Y1389D01*
X3562Y1389D02*
X3569Y1389D01*
X0Y1388D02*
X7Y1388D01*
X3562Y1388D02*
X3569Y1388D01*
X0Y1387D02*
X7Y1387D01*
X3562Y1387D02*
X3569Y1387D01*
X0Y1386D02*
X7Y1386D01*
X3562Y1386D02*
X3569Y1386D01*
X0Y1385D02*
X7Y1385D01*
X3562Y1385D02*
X3569Y1385D01*
X0Y1384D02*
X7Y1384D01*
X3562Y1384D02*
X3569Y1384D01*
X0Y1383D02*
X7Y1383D01*
X3562Y1383D02*
X3569Y1383D01*
X0Y1382D02*
X7Y1382D01*
X3562Y1382D02*
X3569Y1382D01*
X0Y1381D02*
X7Y1381D01*
X3562Y1381D02*
X3569Y1381D01*
X0Y1380D02*
X7Y1380D01*
X3562Y1380D02*
X3569Y1380D01*
X0Y1379D02*
X7Y1379D01*
X3562Y1379D02*
X3569Y1379D01*
X0Y1378D02*
X7Y1378D01*
X3562Y1378D02*
X3569Y1378D01*
X0Y1377D02*
X7Y1377D01*
X3562Y1377D02*
X3569Y1377D01*
X0Y1376D02*
X7Y1376D01*
X3562Y1376D02*
X3569Y1376D01*
X0Y1375D02*
X7Y1375D01*
X3562Y1375D02*
X3569Y1375D01*
X0Y1374D02*
X7Y1374D01*
X3562Y1374D02*
X3569Y1374D01*
X0Y1373D02*
X7Y1373D01*
X3562Y1373D02*
X3569Y1373D01*
X0Y1372D02*
X7Y1372D01*
X3562Y1372D02*
X3569Y1372D01*
X0Y1371D02*
X7Y1371D01*
X3562Y1371D02*
X3569Y1371D01*
X0Y1370D02*
X7Y1370D01*
X3562Y1370D02*
X3569Y1370D01*
X0Y1369D02*
X7Y1369D01*
X3562Y1369D02*
X3569Y1369D01*
X0Y1368D02*
X7Y1368D01*
X3562Y1368D02*
X3569Y1368D01*
X0Y1367D02*
X7Y1367D01*
X3562Y1367D02*
X3569Y1367D01*
X0Y1366D02*
X7Y1366D01*
X3562Y1366D02*
X3569Y1366D01*
X0Y1365D02*
X7Y1365D01*
X3562Y1365D02*
X3569Y1365D01*
X0Y1364D02*
X7Y1364D01*
X3562Y1364D02*
X3569Y1364D01*
X0Y1363D02*
X7Y1363D01*
X3562Y1363D02*
X3569Y1363D01*
X0Y1362D02*
X7Y1362D01*
X3562Y1362D02*
X3569Y1362D01*
X0Y1361D02*
X7Y1361D01*
X3562Y1361D02*
X3569Y1361D01*
X0Y1360D02*
X7Y1360D01*
X3562Y1360D02*
X3569Y1360D01*
X0Y1359D02*
X7Y1359D01*
X3562Y1359D02*
X3569Y1359D01*
X0Y1358D02*
X7Y1358D01*
X3562Y1358D02*
X3569Y1358D01*
X0Y1357D02*
X7Y1357D01*
X3562Y1357D02*
X3569Y1357D01*
X0Y1356D02*
X7Y1356D01*
X3562Y1356D02*
X3569Y1356D01*
X0Y1355D02*
X7Y1355D01*
X3562Y1355D02*
X3569Y1355D01*
X0Y1354D02*
X7Y1354D01*
X3562Y1354D02*
X3569Y1354D01*
X0Y1353D02*
X7Y1353D01*
X3562Y1353D02*
X3569Y1353D01*
X0Y1352D02*
X7Y1352D01*
X3562Y1352D02*
X3569Y1352D01*
X0Y1351D02*
X7Y1351D01*
X3562Y1351D02*
X3569Y1351D01*
X0Y1350D02*
X7Y1350D01*
X3562Y1350D02*
X3569Y1350D01*
X0Y1349D02*
X7Y1349D01*
X3562Y1349D02*
X3569Y1349D01*
X0Y1348D02*
X7Y1348D01*
X3562Y1348D02*
X3569Y1348D01*
X0Y1347D02*
X7Y1347D01*
X3562Y1347D02*
X3569Y1347D01*
X0Y1346D02*
X7Y1346D01*
X3562Y1346D02*
X3569Y1346D01*
X0Y1345D02*
X7Y1345D01*
X3562Y1345D02*
X3569Y1345D01*
X0Y1344D02*
X7Y1344D01*
X3562Y1344D02*
X3569Y1344D01*
X0Y1343D02*
X7Y1343D01*
X3562Y1343D02*
X3569Y1343D01*
X0Y1342D02*
X7Y1342D01*
X3562Y1342D02*
X3569Y1342D01*
X0Y1341D02*
X7Y1341D01*
X3562Y1341D02*
X3569Y1341D01*
X0Y1340D02*
X7Y1340D01*
X3562Y1340D02*
X3569Y1340D01*
X0Y1339D02*
X7Y1339D01*
X3562Y1339D02*
X3569Y1339D01*
X0Y1338D02*
X7Y1338D01*
X3562Y1338D02*
X3569Y1338D01*
X0Y1337D02*
X7Y1337D01*
X3562Y1337D02*
X3569Y1337D01*
X0Y1336D02*
X7Y1336D01*
X3562Y1336D02*
X3569Y1336D01*
X0Y1335D02*
X7Y1335D01*
X3562Y1335D02*
X3569Y1335D01*
X0Y1334D02*
X7Y1334D01*
X3562Y1334D02*
X3569Y1334D01*
X0Y1333D02*
X7Y1333D01*
X3562Y1333D02*
X3569Y1333D01*
X0Y1332D02*
X7Y1332D01*
X3562Y1332D02*
X3569Y1332D01*
X0Y1331D02*
X7Y1331D01*
X3562Y1331D02*
X3569Y1331D01*
X0Y1330D02*
X7Y1330D01*
X3562Y1330D02*
X3569Y1330D01*
X0Y1329D02*
X7Y1329D01*
X3562Y1329D02*
X3569Y1329D01*
X0Y1328D02*
X7Y1328D01*
X3562Y1328D02*
X3569Y1328D01*
X0Y1327D02*
X7Y1327D01*
X3562Y1327D02*
X3569Y1327D01*
X0Y1326D02*
X7Y1326D01*
X3562Y1326D02*
X3569Y1326D01*
X0Y1325D02*
X7Y1325D01*
X3562Y1325D02*
X3569Y1325D01*
X0Y1324D02*
X7Y1324D01*
X3562Y1324D02*
X3569Y1324D01*
X0Y1323D02*
X7Y1323D01*
X3562Y1323D02*
X3569Y1323D01*
X0Y1322D02*
X7Y1322D01*
X3562Y1322D02*
X3569Y1322D01*
X0Y1321D02*
X7Y1321D01*
X3562Y1321D02*
X3569Y1321D01*
X0Y1320D02*
X7Y1320D01*
X3562Y1320D02*
X3569Y1320D01*
X0Y1319D02*
X7Y1319D01*
X3562Y1319D02*
X3569Y1319D01*
X0Y1318D02*
X7Y1318D01*
X3562Y1318D02*
X3569Y1318D01*
X0Y1317D02*
X7Y1317D01*
X3562Y1317D02*
X3569Y1317D01*
X0Y1316D02*
X7Y1316D01*
X3562Y1316D02*
X3569Y1316D01*
X0Y1315D02*
X7Y1315D01*
X3562Y1315D02*
X3569Y1315D01*
X0Y1314D02*
X7Y1314D01*
X3562Y1314D02*
X3569Y1314D01*
X0Y1313D02*
X7Y1313D01*
X3562Y1313D02*
X3569Y1313D01*
X0Y1312D02*
X7Y1312D01*
X3562Y1312D02*
X3569Y1312D01*
X0Y1311D02*
X7Y1311D01*
X3562Y1311D02*
X3569Y1311D01*
X0Y1310D02*
X7Y1310D01*
X3562Y1310D02*
X3569Y1310D01*
X0Y1309D02*
X7Y1309D01*
X3562Y1309D02*
X3569Y1309D01*
X0Y1308D02*
X7Y1308D01*
X3562Y1308D02*
X3569Y1308D01*
X0Y1307D02*
X7Y1307D01*
X3562Y1307D02*
X3569Y1307D01*
X0Y1306D02*
X7Y1306D01*
X3562Y1306D02*
X3569Y1306D01*
X0Y1305D02*
X7Y1305D01*
X3562Y1305D02*
X3569Y1305D01*
X0Y1304D02*
X7Y1304D01*
X3562Y1304D02*
X3569Y1304D01*
X0Y1303D02*
X7Y1303D01*
X3562Y1303D02*
X3569Y1303D01*
X0Y1302D02*
X7Y1302D01*
X3562Y1302D02*
X3569Y1302D01*
X0Y1301D02*
X7Y1301D01*
X3562Y1301D02*
X3569Y1301D01*
X0Y1300D02*
X7Y1300D01*
X3562Y1300D02*
X3569Y1300D01*
X0Y1299D02*
X7Y1299D01*
X3562Y1299D02*
X3569Y1299D01*
X0Y1298D02*
X7Y1298D01*
X3562Y1298D02*
X3569Y1298D01*
X0Y1297D02*
X7Y1297D01*
X3562Y1297D02*
X3569Y1297D01*
X0Y1296D02*
X7Y1296D01*
X3562Y1296D02*
X3569Y1296D01*
X0Y1295D02*
X7Y1295D01*
X3562Y1295D02*
X3569Y1295D01*
X0Y1294D02*
X7Y1294D01*
X3562Y1294D02*
X3569Y1294D01*
X0Y1293D02*
X7Y1293D01*
X3562Y1293D02*
X3569Y1293D01*
X0Y1292D02*
X7Y1292D01*
X3562Y1292D02*
X3569Y1292D01*
X0Y1291D02*
X7Y1291D01*
X3562Y1291D02*
X3569Y1291D01*
X0Y1290D02*
X7Y1290D01*
X3562Y1290D02*
X3569Y1290D01*
X0Y1289D02*
X7Y1289D01*
X3562Y1289D02*
X3569Y1289D01*
X0Y1288D02*
X7Y1288D01*
X3562Y1288D02*
X3569Y1288D01*
X0Y1287D02*
X7Y1287D01*
X3562Y1287D02*
X3569Y1287D01*
X0Y1286D02*
X7Y1286D01*
X3562Y1286D02*
X3569Y1286D01*
X0Y1285D02*
X7Y1285D01*
X3562Y1285D02*
X3569Y1285D01*
X0Y1284D02*
X7Y1284D01*
X3562Y1284D02*
X3569Y1284D01*
X0Y1283D02*
X7Y1283D01*
X3562Y1283D02*
X3569Y1283D01*
X0Y1282D02*
X7Y1282D01*
X3562Y1282D02*
X3569Y1282D01*
X0Y1281D02*
X7Y1281D01*
X3562Y1281D02*
X3569Y1281D01*
X0Y1280D02*
X7Y1280D01*
X3562Y1280D02*
X3569Y1280D01*
X0Y1279D02*
X7Y1279D01*
X3562Y1279D02*
X3569Y1279D01*
X0Y1278D02*
X7Y1278D01*
X3562Y1278D02*
X3569Y1278D01*
X0Y1277D02*
X7Y1277D01*
X3562Y1277D02*
X3569Y1277D01*
X0Y1276D02*
X7Y1276D01*
X3562Y1276D02*
X3569Y1276D01*
X0Y1275D02*
X7Y1275D01*
X3562Y1275D02*
X3569Y1275D01*
X0Y1274D02*
X7Y1274D01*
X3562Y1274D02*
X3569Y1274D01*
X0Y1273D02*
X7Y1273D01*
X3562Y1273D02*
X3569Y1273D01*
X0Y1272D02*
X7Y1272D01*
X3562Y1272D02*
X3569Y1272D01*
X0Y1271D02*
X7Y1271D01*
X3562Y1271D02*
X3569Y1271D01*
X0Y1270D02*
X7Y1270D01*
X3562Y1270D02*
X3569Y1270D01*
X0Y1269D02*
X7Y1269D01*
X3562Y1269D02*
X3569Y1269D01*
X0Y1268D02*
X7Y1268D01*
X3562Y1268D02*
X3569Y1268D01*
X0Y1267D02*
X7Y1267D01*
X3562Y1267D02*
X3569Y1267D01*
X0Y1266D02*
X7Y1266D01*
X3562Y1266D02*
X3569Y1266D01*
X0Y1265D02*
X7Y1265D01*
X3562Y1265D02*
X3569Y1265D01*
X0Y1264D02*
X7Y1264D01*
X3562Y1264D02*
X3569Y1264D01*
X0Y1263D02*
X7Y1263D01*
X3562Y1263D02*
X3569Y1263D01*
X0Y1262D02*
X7Y1262D01*
X3562Y1262D02*
X3569Y1262D01*
X0Y1261D02*
X7Y1261D01*
X3562Y1261D02*
X3569Y1261D01*
X0Y1260D02*
X7Y1260D01*
X3562Y1260D02*
X3569Y1260D01*
X0Y1259D02*
X7Y1259D01*
X3562Y1259D02*
X3569Y1259D01*
X0Y1258D02*
X7Y1258D01*
X3562Y1258D02*
X3569Y1258D01*
X0Y1257D02*
X7Y1257D01*
X3562Y1257D02*
X3569Y1257D01*
X0Y1256D02*
X7Y1256D01*
X3562Y1256D02*
X3569Y1256D01*
X0Y1255D02*
X7Y1255D01*
X3562Y1255D02*
X3569Y1255D01*
X0Y1254D02*
X7Y1254D01*
X3562Y1254D02*
X3569Y1254D01*
X0Y1253D02*
X7Y1253D01*
X3562Y1253D02*
X3569Y1253D01*
X0Y1252D02*
X7Y1252D01*
X3562Y1252D02*
X3569Y1252D01*
X0Y1251D02*
X7Y1251D01*
X3562Y1251D02*
X3569Y1251D01*
X0Y1250D02*
X7Y1250D01*
X3562Y1250D02*
X3569Y1250D01*
X0Y1249D02*
X7Y1249D01*
X3562Y1249D02*
X3569Y1249D01*
X0Y1248D02*
X7Y1248D01*
X3562Y1248D02*
X3569Y1248D01*
X0Y1247D02*
X7Y1247D01*
X3562Y1247D02*
X3569Y1247D01*
X0Y1246D02*
X7Y1246D01*
X3562Y1246D02*
X3569Y1246D01*
X0Y1245D02*
X7Y1245D01*
X3562Y1245D02*
X3569Y1245D01*
X0Y1244D02*
X7Y1244D01*
X3562Y1244D02*
X3569Y1244D01*
X0Y1243D02*
X7Y1243D01*
X3562Y1243D02*
X3569Y1243D01*
X0Y1242D02*
X7Y1242D01*
X3562Y1242D02*
X3569Y1242D01*
X0Y1241D02*
X7Y1241D01*
X3562Y1241D02*
X3569Y1241D01*
X0Y1240D02*
X7Y1240D01*
X3562Y1240D02*
X3569Y1240D01*
X0Y1239D02*
X7Y1239D01*
X3562Y1239D02*
X3569Y1239D01*
X0Y1238D02*
X7Y1238D01*
X3562Y1238D02*
X3569Y1238D01*
X0Y1237D02*
X7Y1237D01*
X3562Y1237D02*
X3569Y1237D01*
X0Y1236D02*
X7Y1236D01*
X3562Y1236D02*
X3569Y1236D01*
X0Y1235D02*
X7Y1235D01*
X3562Y1235D02*
X3569Y1235D01*
X0Y1234D02*
X7Y1234D01*
X3562Y1234D02*
X3569Y1234D01*
X0Y1233D02*
X7Y1233D01*
X3562Y1233D02*
X3569Y1233D01*
X0Y1232D02*
X7Y1232D01*
X3562Y1232D02*
X3569Y1232D01*
X0Y1231D02*
X7Y1231D01*
X3562Y1231D02*
X3569Y1231D01*
X0Y1230D02*
X7Y1230D01*
X3562Y1230D02*
X3569Y1230D01*
X0Y1229D02*
X7Y1229D01*
X3562Y1229D02*
X3569Y1229D01*
X0Y1228D02*
X7Y1228D01*
X3562Y1228D02*
X3569Y1228D01*
X0Y1227D02*
X7Y1227D01*
X3562Y1227D02*
X3569Y1227D01*
X0Y1226D02*
X7Y1226D01*
X3562Y1226D02*
X3569Y1226D01*
X0Y1225D02*
X7Y1225D01*
X3562Y1225D02*
X3569Y1225D01*
X0Y1224D02*
X7Y1224D01*
X3562Y1224D02*
X3569Y1224D01*
X0Y1223D02*
X7Y1223D01*
X3562Y1223D02*
X3569Y1223D01*
X0Y1222D02*
X7Y1222D01*
X3562Y1222D02*
X3569Y1222D01*
X0Y1221D02*
X7Y1221D01*
X3562Y1221D02*
X3569Y1221D01*
X0Y1220D02*
X7Y1220D01*
X3562Y1220D02*
X3569Y1220D01*
X0Y1219D02*
X7Y1219D01*
X3562Y1219D02*
X3569Y1219D01*
X0Y1218D02*
X7Y1218D01*
X3562Y1218D02*
X3569Y1218D01*
X0Y1217D02*
X7Y1217D01*
X3562Y1217D02*
X3569Y1217D01*
X0Y1216D02*
X7Y1216D01*
X3562Y1216D02*
X3569Y1216D01*
X0Y1215D02*
X7Y1215D01*
X3562Y1215D02*
X3569Y1215D01*
X0Y1214D02*
X7Y1214D01*
X3562Y1214D02*
X3569Y1214D01*
X0Y1213D02*
X7Y1213D01*
X3562Y1213D02*
X3569Y1213D01*
X0Y1212D02*
X7Y1212D01*
X3562Y1212D02*
X3569Y1212D01*
X0Y1211D02*
X7Y1211D01*
X3562Y1211D02*
X3569Y1211D01*
X0Y1210D02*
X7Y1210D01*
X3562Y1210D02*
X3569Y1210D01*
X0Y1209D02*
X7Y1209D01*
X3562Y1209D02*
X3569Y1209D01*
X0Y1208D02*
X7Y1208D01*
X3562Y1208D02*
X3569Y1208D01*
X0Y1207D02*
X7Y1207D01*
X3562Y1207D02*
X3569Y1207D01*
X0Y1206D02*
X7Y1206D01*
X3562Y1206D02*
X3569Y1206D01*
X0Y1205D02*
X7Y1205D01*
X3562Y1205D02*
X3569Y1205D01*
X0Y1204D02*
X7Y1204D01*
X3562Y1204D02*
X3569Y1204D01*
X0Y1203D02*
X7Y1203D01*
X3562Y1203D02*
X3569Y1203D01*
X0Y1202D02*
X7Y1202D01*
X3562Y1202D02*
X3569Y1202D01*
X0Y1201D02*
X7Y1201D01*
X3562Y1201D02*
X3569Y1201D01*
X0Y1200D02*
X7Y1200D01*
X3562Y1200D02*
X3569Y1200D01*
X0Y1199D02*
X7Y1199D01*
X3562Y1199D02*
X3569Y1199D01*
X0Y1198D02*
X7Y1198D01*
X3562Y1198D02*
X3569Y1198D01*
X0Y1197D02*
X7Y1197D01*
X3562Y1197D02*
X3569Y1197D01*
X0Y1196D02*
X7Y1196D01*
X3562Y1196D02*
X3569Y1196D01*
X0Y1195D02*
X7Y1195D01*
X3562Y1195D02*
X3569Y1195D01*
X0Y1194D02*
X7Y1194D01*
X3562Y1194D02*
X3569Y1194D01*
X0Y1193D02*
X7Y1193D01*
X3562Y1193D02*
X3569Y1193D01*
X0Y1192D02*
X7Y1192D01*
X3562Y1192D02*
X3569Y1192D01*
X0Y1191D02*
X7Y1191D01*
X3562Y1191D02*
X3569Y1191D01*
X0Y1190D02*
X7Y1190D01*
X3562Y1190D02*
X3569Y1190D01*
X0Y1189D02*
X7Y1189D01*
X3562Y1189D02*
X3569Y1189D01*
X0Y1188D02*
X7Y1188D01*
X3562Y1188D02*
X3569Y1188D01*
X0Y1187D02*
X7Y1187D01*
X3562Y1187D02*
X3569Y1187D01*
X0Y1186D02*
X7Y1186D01*
X3562Y1186D02*
X3569Y1186D01*
X0Y1185D02*
X7Y1185D01*
X3562Y1185D02*
X3569Y1185D01*
X0Y1184D02*
X7Y1184D01*
X3562Y1184D02*
X3569Y1184D01*
X0Y1183D02*
X7Y1183D01*
X3562Y1183D02*
X3569Y1183D01*
X0Y1182D02*
X7Y1182D01*
X3562Y1182D02*
X3569Y1182D01*
X0Y1181D02*
X7Y1181D01*
X3562Y1181D02*
X3569Y1181D01*
X0Y1180D02*
X7Y1180D01*
X3562Y1180D02*
X3569Y1180D01*
X0Y1179D02*
X7Y1179D01*
X3562Y1179D02*
X3569Y1179D01*
X0Y1178D02*
X7Y1178D01*
X3562Y1178D02*
X3569Y1178D01*
X0Y1177D02*
X7Y1177D01*
X3562Y1177D02*
X3569Y1177D01*
X0Y1176D02*
X7Y1176D01*
X3562Y1176D02*
X3569Y1176D01*
X0Y1175D02*
X7Y1175D01*
X3562Y1175D02*
X3569Y1175D01*
X0Y1174D02*
X7Y1174D01*
X3562Y1174D02*
X3569Y1174D01*
X0Y1173D02*
X7Y1173D01*
X3562Y1173D02*
X3569Y1173D01*
X0Y1172D02*
X7Y1172D01*
X3562Y1172D02*
X3569Y1172D01*
X0Y1171D02*
X7Y1171D01*
X3562Y1171D02*
X3569Y1171D01*
X0Y1170D02*
X7Y1170D01*
X3562Y1170D02*
X3569Y1170D01*
X0Y1169D02*
X7Y1169D01*
X3562Y1169D02*
X3569Y1169D01*
X0Y1168D02*
X7Y1168D01*
X3562Y1168D02*
X3569Y1168D01*
X0Y1167D02*
X7Y1167D01*
X3562Y1167D02*
X3569Y1167D01*
X0Y1166D02*
X7Y1166D01*
X3562Y1166D02*
X3569Y1166D01*
X0Y1165D02*
X7Y1165D01*
X3562Y1165D02*
X3569Y1165D01*
X0Y1164D02*
X7Y1164D01*
X3562Y1164D02*
X3569Y1164D01*
X0Y1163D02*
X7Y1163D01*
X3562Y1163D02*
X3569Y1163D01*
X0Y1162D02*
X7Y1162D01*
X3562Y1162D02*
X3569Y1162D01*
X0Y1161D02*
X7Y1161D01*
X3562Y1161D02*
X3569Y1161D01*
X0Y1160D02*
X7Y1160D01*
X3562Y1160D02*
X3569Y1160D01*
X0Y1159D02*
X7Y1159D01*
X3562Y1159D02*
X3569Y1159D01*
X0Y1158D02*
X7Y1158D01*
X3562Y1158D02*
X3569Y1158D01*
X0Y1157D02*
X7Y1157D01*
X3562Y1157D02*
X3569Y1157D01*
X0Y1156D02*
X7Y1156D01*
X3562Y1156D02*
X3569Y1156D01*
X0Y1155D02*
X7Y1155D01*
X3562Y1155D02*
X3569Y1155D01*
X0Y1154D02*
X7Y1154D01*
X3562Y1154D02*
X3569Y1154D01*
X0Y1153D02*
X7Y1153D01*
X3562Y1153D02*
X3569Y1153D01*
X0Y1152D02*
X7Y1152D01*
X3562Y1152D02*
X3569Y1152D01*
X0Y1151D02*
X7Y1151D01*
X3562Y1151D02*
X3569Y1151D01*
X0Y1150D02*
X7Y1150D01*
X3562Y1150D02*
X3569Y1150D01*
X0Y1149D02*
X7Y1149D01*
X3562Y1149D02*
X3569Y1149D01*
X0Y1148D02*
X7Y1148D01*
X3562Y1148D02*
X3569Y1148D01*
X0Y1147D02*
X7Y1147D01*
X3562Y1147D02*
X3569Y1147D01*
X0Y1146D02*
X7Y1146D01*
X3562Y1146D02*
X3569Y1146D01*
X0Y1145D02*
X7Y1145D01*
X3562Y1145D02*
X3569Y1145D01*
X0Y1144D02*
X7Y1144D01*
X3562Y1144D02*
X3569Y1144D01*
X0Y1143D02*
X7Y1143D01*
X3562Y1143D02*
X3569Y1143D01*
X0Y1142D02*
X7Y1142D01*
X3562Y1142D02*
X3569Y1142D01*
X0Y1141D02*
X7Y1141D01*
X3562Y1141D02*
X3569Y1141D01*
X0Y1140D02*
X7Y1140D01*
X3562Y1140D02*
X3569Y1140D01*
X0Y1139D02*
X7Y1139D01*
X3562Y1139D02*
X3569Y1139D01*
X0Y1138D02*
X7Y1138D01*
X3562Y1138D02*
X3569Y1138D01*
X0Y1137D02*
X7Y1137D01*
X3562Y1137D02*
X3569Y1137D01*
X0Y1136D02*
X7Y1136D01*
X3562Y1136D02*
X3569Y1136D01*
X0Y1135D02*
X7Y1135D01*
X3562Y1135D02*
X3569Y1135D01*
X0Y1134D02*
X7Y1134D01*
X3562Y1134D02*
X3569Y1134D01*
X0Y1133D02*
X7Y1133D01*
X3562Y1133D02*
X3569Y1133D01*
X0Y1132D02*
X7Y1132D01*
X3562Y1132D02*
X3569Y1132D01*
X0Y1131D02*
X7Y1131D01*
X3562Y1131D02*
X3569Y1131D01*
X0Y1130D02*
X7Y1130D01*
X3562Y1130D02*
X3569Y1130D01*
X0Y1129D02*
X7Y1129D01*
X3562Y1129D02*
X3569Y1129D01*
X0Y1128D02*
X7Y1128D01*
X3562Y1128D02*
X3569Y1128D01*
X0Y1127D02*
X7Y1127D01*
X3562Y1127D02*
X3569Y1127D01*
X0Y1126D02*
X7Y1126D01*
X3562Y1126D02*
X3569Y1126D01*
X0Y1125D02*
X7Y1125D01*
X3562Y1125D02*
X3569Y1125D01*
X0Y1124D02*
X7Y1124D01*
X3562Y1124D02*
X3569Y1124D01*
X0Y1123D02*
X7Y1123D01*
X3562Y1123D02*
X3569Y1123D01*
X0Y1122D02*
X7Y1122D01*
X3562Y1122D02*
X3569Y1122D01*
X0Y1121D02*
X7Y1121D01*
X3562Y1121D02*
X3569Y1121D01*
X0Y1120D02*
X7Y1120D01*
X3562Y1120D02*
X3569Y1120D01*
X0Y1119D02*
X7Y1119D01*
X3562Y1119D02*
X3569Y1119D01*
X0Y1118D02*
X7Y1118D01*
X3562Y1118D02*
X3569Y1118D01*
X0Y1117D02*
X7Y1117D01*
X3562Y1117D02*
X3569Y1117D01*
X0Y1116D02*
X7Y1116D01*
X3562Y1116D02*
X3569Y1116D01*
X0Y1115D02*
X7Y1115D01*
X3562Y1115D02*
X3569Y1115D01*
X0Y1114D02*
X7Y1114D01*
X3562Y1114D02*
X3569Y1114D01*
X0Y1113D02*
X7Y1113D01*
X3562Y1113D02*
X3569Y1113D01*
X0Y1112D02*
X7Y1112D01*
X3562Y1112D02*
X3569Y1112D01*
X0Y1111D02*
X7Y1111D01*
X3562Y1111D02*
X3569Y1111D01*
X0Y1110D02*
X7Y1110D01*
X3562Y1110D02*
X3569Y1110D01*
X0Y1109D02*
X7Y1109D01*
X3562Y1109D02*
X3569Y1109D01*
X0Y1108D02*
X7Y1108D01*
X3562Y1108D02*
X3569Y1108D01*
X0Y1107D02*
X7Y1107D01*
X3562Y1107D02*
X3569Y1107D01*
X0Y1106D02*
X7Y1106D01*
X3562Y1106D02*
X3569Y1106D01*
X0Y1105D02*
X7Y1105D01*
X3562Y1105D02*
X3569Y1105D01*
X0Y1104D02*
X7Y1104D01*
X3562Y1104D02*
X3569Y1104D01*
X0Y1103D02*
X7Y1103D01*
X3562Y1103D02*
X3569Y1103D01*
X0Y1102D02*
X7Y1102D01*
X3562Y1102D02*
X3569Y1102D01*
X0Y1101D02*
X7Y1101D01*
X3562Y1101D02*
X3569Y1101D01*
X0Y1100D02*
X7Y1100D01*
X3562Y1100D02*
X3569Y1100D01*
X0Y1099D02*
X7Y1099D01*
X3562Y1099D02*
X3569Y1099D01*
X0Y1098D02*
X7Y1098D01*
X3562Y1098D02*
X3569Y1098D01*
X0Y1097D02*
X7Y1097D01*
X3562Y1097D02*
X3569Y1097D01*
X0Y1096D02*
X7Y1096D01*
X3562Y1096D02*
X3569Y1096D01*
X0Y1095D02*
X7Y1095D01*
X3562Y1095D02*
X3569Y1095D01*
X0Y1094D02*
X7Y1094D01*
X3562Y1094D02*
X3569Y1094D01*
X0Y1093D02*
X7Y1093D01*
X3562Y1093D02*
X3569Y1093D01*
X0Y1092D02*
X7Y1092D01*
X3562Y1092D02*
X3569Y1092D01*
X0Y1091D02*
X7Y1091D01*
X3562Y1091D02*
X3569Y1091D01*
X0Y1090D02*
X7Y1090D01*
X3562Y1090D02*
X3569Y1090D01*
X0Y1089D02*
X7Y1089D01*
X3562Y1089D02*
X3569Y1089D01*
X0Y1088D02*
X7Y1088D01*
X3562Y1088D02*
X3569Y1088D01*
X0Y1087D02*
X7Y1087D01*
X3562Y1087D02*
X3569Y1087D01*
X0Y1086D02*
X7Y1086D01*
X3562Y1086D02*
X3569Y1086D01*
X0Y1085D02*
X7Y1085D01*
X3562Y1085D02*
X3569Y1085D01*
X0Y1084D02*
X7Y1084D01*
X3562Y1084D02*
X3569Y1084D01*
X0Y1083D02*
X7Y1083D01*
X3562Y1083D02*
X3569Y1083D01*
X0Y1082D02*
X7Y1082D01*
X3562Y1082D02*
X3569Y1082D01*
X0Y1081D02*
X7Y1081D01*
X3562Y1081D02*
X3569Y1081D01*
X0Y1080D02*
X7Y1080D01*
X3562Y1080D02*
X3569Y1080D01*
X0Y1079D02*
X7Y1079D01*
X3562Y1079D02*
X3569Y1079D01*
X0Y1078D02*
X7Y1078D01*
X3562Y1078D02*
X3569Y1078D01*
X0Y1077D02*
X7Y1077D01*
X3562Y1077D02*
X3569Y1077D01*
X0Y1076D02*
X7Y1076D01*
X3562Y1076D02*
X3569Y1076D01*
X0Y1075D02*
X7Y1075D01*
X3562Y1075D02*
X3569Y1075D01*
X0Y1074D02*
X7Y1074D01*
X3562Y1074D02*
X3569Y1074D01*
X0Y1073D02*
X7Y1073D01*
X3562Y1073D02*
X3569Y1073D01*
X0Y1072D02*
X7Y1072D01*
X3562Y1072D02*
X3569Y1072D01*
X0Y1071D02*
X7Y1071D01*
X3562Y1071D02*
X3569Y1071D01*
X0Y1070D02*
X7Y1070D01*
X3562Y1070D02*
X3569Y1070D01*
X0Y1069D02*
X7Y1069D01*
X3562Y1069D02*
X3569Y1069D01*
X0Y1068D02*
X7Y1068D01*
X3562Y1068D02*
X3569Y1068D01*
X0Y1067D02*
X7Y1067D01*
X3562Y1067D02*
X3569Y1067D01*
X0Y1066D02*
X7Y1066D01*
X3562Y1066D02*
X3569Y1066D01*
X0Y1065D02*
X7Y1065D01*
X3562Y1065D02*
X3569Y1065D01*
X0Y1064D02*
X7Y1064D01*
X3562Y1064D02*
X3569Y1064D01*
X0Y1063D02*
X7Y1063D01*
X3562Y1063D02*
X3569Y1063D01*
X0Y1062D02*
X7Y1062D01*
X3562Y1062D02*
X3569Y1062D01*
X0Y1061D02*
X7Y1061D01*
X3562Y1061D02*
X3569Y1061D01*
X0Y1060D02*
X7Y1060D01*
X3562Y1060D02*
X3569Y1060D01*
X0Y1059D02*
X7Y1059D01*
X3562Y1059D02*
X3569Y1059D01*
X0Y1058D02*
X7Y1058D01*
X3562Y1058D02*
X3569Y1058D01*
X0Y1057D02*
X7Y1057D01*
X3562Y1057D02*
X3569Y1057D01*
X0Y1056D02*
X7Y1056D01*
X3562Y1056D02*
X3569Y1056D01*
X0Y1055D02*
X7Y1055D01*
X3562Y1055D02*
X3569Y1055D01*
X0Y1054D02*
X7Y1054D01*
X3562Y1054D02*
X3569Y1054D01*
X0Y1053D02*
X7Y1053D01*
X3562Y1053D02*
X3569Y1053D01*
X0Y1052D02*
X7Y1052D01*
X3562Y1052D02*
X3569Y1052D01*
X0Y1051D02*
X7Y1051D01*
X3562Y1051D02*
X3569Y1051D01*
X0Y1050D02*
X7Y1050D01*
X3562Y1050D02*
X3569Y1050D01*
X0Y1049D02*
X7Y1049D01*
X3562Y1049D02*
X3569Y1049D01*
X0Y1048D02*
X7Y1048D01*
X3562Y1048D02*
X3569Y1048D01*
X0Y1047D02*
X7Y1047D01*
X3562Y1047D02*
X3569Y1047D01*
X0Y1046D02*
X7Y1046D01*
X3562Y1046D02*
X3569Y1046D01*
X0Y1045D02*
X7Y1045D01*
X3562Y1045D02*
X3569Y1045D01*
X0Y1044D02*
X7Y1044D01*
X3562Y1044D02*
X3569Y1044D01*
X0Y1043D02*
X7Y1043D01*
X3562Y1043D02*
X3569Y1043D01*
X0Y1042D02*
X7Y1042D01*
X3562Y1042D02*
X3569Y1042D01*
X0Y1041D02*
X7Y1041D01*
X3562Y1041D02*
X3569Y1041D01*
X0Y1040D02*
X7Y1040D01*
X3562Y1040D02*
X3569Y1040D01*
X0Y1039D02*
X7Y1039D01*
X3562Y1039D02*
X3569Y1039D01*
X0Y1038D02*
X7Y1038D01*
X3562Y1038D02*
X3569Y1038D01*
X0Y1037D02*
X7Y1037D01*
X3562Y1037D02*
X3569Y1037D01*
X0Y1036D02*
X7Y1036D01*
X3562Y1036D02*
X3569Y1036D01*
X0Y1035D02*
X7Y1035D01*
X3562Y1035D02*
X3569Y1035D01*
X0Y1034D02*
X7Y1034D01*
X3562Y1034D02*
X3569Y1034D01*
X0Y1033D02*
X7Y1033D01*
X3562Y1033D02*
X3569Y1033D01*
X0Y1032D02*
X7Y1032D01*
X3562Y1032D02*
X3569Y1032D01*
X0Y1031D02*
X7Y1031D01*
X3562Y1031D02*
X3569Y1031D01*
X0Y1030D02*
X7Y1030D01*
X3562Y1030D02*
X3569Y1030D01*
X0Y1029D02*
X7Y1029D01*
X3562Y1029D02*
X3569Y1029D01*
X0Y1028D02*
X7Y1028D01*
X3562Y1028D02*
X3569Y1028D01*
X0Y1027D02*
X7Y1027D01*
X3562Y1027D02*
X3569Y1027D01*
X0Y1026D02*
X7Y1026D01*
X3562Y1026D02*
X3569Y1026D01*
X0Y1025D02*
X7Y1025D01*
X3562Y1025D02*
X3569Y1025D01*
X0Y1024D02*
X7Y1024D01*
X3562Y1024D02*
X3569Y1024D01*
X0Y1023D02*
X7Y1023D01*
X3562Y1023D02*
X3569Y1023D01*
X0Y1022D02*
X7Y1022D01*
X3562Y1022D02*
X3569Y1022D01*
X0Y1021D02*
X7Y1021D01*
X3562Y1021D02*
X3569Y1021D01*
X0Y1020D02*
X7Y1020D01*
X3562Y1020D02*
X3569Y1020D01*
X0Y1019D02*
X7Y1019D01*
X3562Y1019D02*
X3569Y1019D01*
X0Y1018D02*
X7Y1018D01*
X3562Y1018D02*
X3569Y1018D01*
X0Y1017D02*
X7Y1017D01*
X3562Y1017D02*
X3569Y1017D01*
X0Y1016D02*
X7Y1016D01*
X3562Y1016D02*
X3569Y1016D01*
X0Y1015D02*
X7Y1015D01*
X3562Y1015D02*
X3569Y1015D01*
X0Y1014D02*
X7Y1014D01*
X3562Y1014D02*
X3569Y1014D01*
X0Y1013D02*
X7Y1013D01*
X3562Y1013D02*
X3569Y1013D01*
X0Y1012D02*
X7Y1012D01*
X3562Y1012D02*
X3569Y1012D01*
X0Y1011D02*
X7Y1011D01*
X3562Y1011D02*
X3569Y1011D01*
X0Y1010D02*
X7Y1010D01*
X3562Y1010D02*
X3569Y1010D01*
X0Y1009D02*
X7Y1009D01*
X3562Y1009D02*
X3569Y1009D01*
X0Y1008D02*
X7Y1008D01*
X3562Y1008D02*
X3569Y1008D01*
X0Y1007D02*
X7Y1007D01*
X3562Y1007D02*
X3569Y1007D01*
X0Y1006D02*
X7Y1006D01*
X3562Y1006D02*
X3569Y1006D01*
X0Y1005D02*
X7Y1005D01*
X3562Y1005D02*
X3569Y1005D01*
X0Y1004D02*
X7Y1004D01*
X3562Y1004D02*
X3569Y1004D01*
X0Y1003D02*
X7Y1003D01*
X3562Y1003D02*
X3569Y1003D01*
X0Y1002D02*
X7Y1002D01*
X3562Y1002D02*
X3569Y1002D01*
X0Y1001D02*
X7Y1001D01*
X3562Y1001D02*
X3569Y1001D01*
X0Y1000D02*
X7Y1000D01*
X3562Y1000D02*
X3569Y1000D01*
X0Y999D02*
X7Y999D01*
X3562Y999D02*
X3569Y999D01*
X0Y998D02*
X7Y998D01*
X3562Y998D02*
X3569Y998D01*
X0Y997D02*
X7Y997D01*
X3562Y997D02*
X3569Y997D01*
X0Y996D02*
X7Y996D01*
X3562Y996D02*
X3569Y996D01*
X0Y995D02*
X7Y995D01*
X3562Y995D02*
X3569Y995D01*
X0Y994D02*
X7Y994D01*
X3562Y994D02*
X3569Y994D01*
X0Y993D02*
X7Y993D01*
X3562Y993D02*
X3569Y993D01*
X0Y992D02*
X7Y992D01*
X3562Y992D02*
X3569Y992D01*
X0Y991D02*
X7Y991D01*
X3562Y991D02*
X3569Y991D01*
X0Y990D02*
X7Y990D01*
X3562Y990D02*
X3569Y990D01*
X0Y989D02*
X7Y989D01*
X3562Y989D02*
X3569Y989D01*
X0Y988D02*
X7Y988D01*
X3562Y988D02*
X3569Y988D01*
X0Y987D02*
X7Y987D01*
X3562Y987D02*
X3569Y987D01*
X0Y986D02*
X7Y986D01*
X3562Y986D02*
X3569Y986D01*
X0Y985D02*
X7Y985D01*
X3562Y985D02*
X3569Y985D01*
X0Y984D02*
X7Y984D01*
X3562Y984D02*
X3569Y984D01*
X0Y983D02*
X7Y983D01*
X3562Y983D02*
X3569Y983D01*
X0Y982D02*
X7Y982D01*
X3562Y982D02*
X3569Y982D01*
X0Y981D02*
X7Y981D01*
X3562Y981D02*
X3569Y981D01*
X0Y980D02*
X7Y980D01*
X3562Y980D02*
X3569Y980D01*
X0Y979D02*
X7Y979D01*
X3562Y979D02*
X3569Y979D01*
X0Y978D02*
X7Y978D01*
X3562Y978D02*
X3569Y978D01*
X0Y977D02*
X7Y977D01*
X3562Y977D02*
X3569Y977D01*
X0Y976D02*
X7Y976D01*
X3562Y976D02*
X3569Y976D01*
X0Y975D02*
X7Y975D01*
X3562Y975D02*
X3569Y975D01*
X0Y974D02*
X7Y974D01*
X3562Y974D02*
X3569Y974D01*
X0Y973D02*
X7Y973D01*
X3562Y973D02*
X3569Y973D01*
X0Y972D02*
X7Y972D01*
X3562Y972D02*
X3569Y972D01*
X0Y971D02*
X7Y971D01*
X3562Y971D02*
X3569Y971D01*
X0Y970D02*
X7Y970D01*
X3562Y970D02*
X3569Y970D01*
X0Y969D02*
X7Y969D01*
X3562Y969D02*
X3569Y969D01*
X0Y968D02*
X7Y968D01*
X3562Y968D02*
X3569Y968D01*
X0Y967D02*
X7Y967D01*
X3562Y967D02*
X3569Y967D01*
X0Y966D02*
X7Y966D01*
X3562Y966D02*
X3569Y966D01*
X0Y965D02*
X7Y965D01*
X3562Y965D02*
X3569Y965D01*
X0Y964D02*
X7Y964D01*
X3562Y964D02*
X3569Y964D01*
X0Y963D02*
X7Y963D01*
X3562Y963D02*
X3569Y963D01*
X0Y962D02*
X7Y962D01*
X3562Y962D02*
X3569Y962D01*
X0Y961D02*
X7Y961D01*
X3562Y961D02*
X3569Y961D01*
X0Y960D02*
X7Y960D01*
X3562Y960D02*
X3569Y960D01*
X0Y959D02*
X7Y959D01*
X3562Y959D02*
X3569Y959D01*
X0Y958D02*
X7Y958D01*
X3562Y958D02*
X3569Y958D01*
X0Y957D02*
X7Y957D01*
X3562Y957D02*
X3569Y957D01*
X0Y956D02*
X7Y956D01*
X3562Y956D02*
X3569Y956D01*
X0Y955D02*
X7Y955D01*
X3562Y955D02*
X3569Y955D01*
X0Y954D02*
X7Y954D01*
X3562Y954D02*
X3569Y954D01*
X0Y953D02*
X7Y953D01*
X3562Y953D02*
X3569Y953D01*
X0Y952D02*
X7Y952D01*
X3562Y952D02*
X3569Y952D01*
X0Y951D02*
X7Y951D01*
X3562Y951D02*
X3569Y951D01*
X0Y950D02*
X7Y950D01*
X3562Y950D02*
X3569Y950D01*
X0Y949D02*
X7Y949D01*
X3562Y949D02*
X3569Y949D01*
X0Y948D02*
X7Y948D01*
X3562Y948D02*
X3569Y948D01*
X0Y947D02*
X7Y947D01*
X3562Y947D02*
X3569Y947D01*
X0Y946D02*
X7Y946D01*
X3562Y946D02*
X3569Y946D01*
X0Y945D02*
X7Y945D01*
X3562Y945D02*
X3569Y945D01*
X0Y944D02*
X7Y944D01*
X3562Y944D02*
X3569Y944D01*
X0Y943D02*
X7Y943D01*
X3562Y943D02*
X3569Y943D01*
X0Y942D02*
X7Y942D01*
X3562Y942D02*
X3569Y942D01*
X0Y941D02*
X7Y941D01*
X3562Y941D02*
X3569Y941D01*
X0Y940D02*
X7Y940D01*
X3562Y940D02*
X3569Y940D01*
X0Y939D02*
X7Y939D01*
X3562Y939D02*
X3569Y939D01*
X0Y938D02*
X7Y938D01*
X3562Y938D02*
X3569Y938D01*
X0Y937D02*
X7Y937D01*
X3562Y937D02*
X3569Y937D01*
X0Y936D02*
X7Y936D01*
X3562Y936D02*
X3569Y936D01*
X0Y935D02*
X7Y935D01*
X3562Y935D02*
X3569Y935D01*
X0Y934D02*
X7Y934D01*
X3562Y934D02*
X3569Y934D01*
X0Y933D02*
X7Y933D01*
X3562Y933D02*
X3569Y933D01*
X0Y932D02*
X7Y932D01*
X3562Y932D02*
X3569Y932D01*
X0Y931D02*
X7Y931D01*
X3562Y931D02*
X3569Y931D01*
X0Y930D02*
X7Y930D01*
X3562Y930D02*
X3569Y930D01*
X0Y929D02*
X7Y929D01*
X3562Y929D02*
X3569Y929D01*
X0Y928D02*
X7Y928D01*
X3562Y928D02*
X3569Y928D01*
X0Y927D02*
X7Y927D01*
X3562Y927D02*
X3569Y927D01*
X0Y926D02*
X7Y926D01*
X3562Y926D02*
X3569Y926D01*
X0Y925D02*
X7Y925D01*
X3562Y925D02*
X3569Y925D01*
X0Y924D02*
X7Y924D01*
X3562Y924D02*
X3569Y924D01*
X0Y923D02*
X7Y923D01*
X3562Y923D02*
X3569Y923D01*
X0Y922D02*
X7Y922D01*
X3562Y922D02*
X3569Y922D01*
X0Y921D02*
X7Y921D01*
X3562Y921D02*
X3569Y921D01*
X0Y920D02*
X7Y920D01*
X3562Y920D02*
X3569Y920D01*
X0Y919D02*
X7Y919D01*
X3562Y919D02*
X3569Y919D01*
X0Y918D02*
X7Y918D01*
X3562Y918D02*
X3569Y918D01*
X0Y917D02*
X7Y917D01*
X3562Y917D02*
X3569Y917D01*
X0Y916D02*
X7Y916D01*
X3562Y916D02*
X3569Y916D01*
X0Y915D02*
X7Y915D01*
X3562Y915D02*
X3569Y915D01*
X0Y914D02*
X7Y914D01*
X3562Y914D02*
X3569Y914D01*
X0Y913D02*
X7Y913D01*
X3562Y913D02*
X3569Y913D01*
X0Y912D02*
X7Y912D01*
X3562Y912D02*
X3569Y912D01*
X0Y911D02*
X7Y911D01*
X3562Y911D02*
X3569Y911D01*
X0Y910D02*
X7Y910D01*
X3562Y910D02*
X3569Y910D01*
X0Y909D02*
X7Y909D01*
X3562Y909D02*
X3569Y909D01*
X0Y908D02*
X7Y908D01*
X3562Y908D02*
X3569Y908D01*
X0Y907D02*
X7Y907D01*
X3562Y907D02*
X3569Y907D01*
X0Y906D02*
X7Y906D01*
X3562Y906D02*
X3569Y906D01*
X0Y905D02*
X7Y905D01*
X3562Y905D02*
X3569Y905D01*
X0Y904D02*
X7Y904D01*
X3562Y904D02*
X3569Y904D01*
X0Y903D02*
X7Y903D01*
X3562Y903D02*
X3569Y903D01*
X0Y902D02*
X7Y902D01*
X3562Y902D02*
X3569Y902D01*
X0Y901D02*
X7Y901D01*
X3562Y901D02*
X3569Y901D01*
X0Y900D02*
X7Y900D01*
X3562Y900D02*
X3569Y900D01*
X0Y899D02*
X7Y899D01*
X3562Y899D02*
X3569Y899D01*
X0Y898D02*
X7Y898D01*
X3562Y898D02*
X3569Y898D01*
X0Y897D02*
X7Y897D01*
X3562Y897D02*
X3569Y897D01*
X0Y896D02*
X7Y896D01*
X3562Y896D02*
X3569Y896D01*
X0Y895D02*
X7Y895D01*
X3562Y895D02*
X3569Y895D01*
X0Y894D02*
X7Y894D01*
X3562Y894D02*
X3569Y894D01*
X0Y893D02*
X7Y893D01*
X3562Y893D02*
X3569Y893D01*
X0Y892D02*
X7Y892D01*
X3562Y892D02*
X3569Y892D01*
X0Y891D02*
X7Y891D01*
X3562Y891D02*
X3569Y891D01*
X0Y890D02*
X7Y890D01*
X3562Y890D02*
X3569Y890D01*
X0Y889D02*
X7Y889D01*
X3562Y889D02*
X3569Y889D01*
X0Y888D02*
X7Y888D01*
X3562Y888D02*
X3569Y888D01*
X0Y887D02*
X7Y887D01*
X3562Y887D02*
X3569Y887D01*
X0Y886D02*
X7Y886D01*
X3562Y886D02*
X3569Y886D01*
X0Y885D02*
X7Y885D01*
X3562Y885D02*
X3569Y885D01*
X0Y884D02*
X7Y884D01*
X3562Y884D02*
X3569Y884D01*
X0Y883D02*
X7Y883D01*
X3562Y883D02*
X3569Y883D01*
X0Y882D02*
X7Y882D01*
X3562Y882D02*
X3569Y882D01*
X0Y881D02*
X7Y881D01*
X3562Y881D02*
X3569Y881D01*
X0Y880D02*
X7Y880D01*
X3562Y880D02*
X3569Y880D01*
X0Y879D02*
X7Y879D01*
X3562Y879D02*
X3569Y879D01*
X0Y878D02*
X7Y878D01*
X3562Y878D02*
X3569Y878D01*
X0Y877D02*
X7Y877D01*
X3562Y877D02*
X3569Y877D01*
X0Y876D02*
X7Y876D01*
X3562Y876D02*
X3569Y876D01*
X0Y875D02*
X7Y875D01*
X3562Y875D02*
X3569Y875D01*
X0Y874D02*
X7Y874D01*
X3562Y874D02*
X3569Y874D01*
X0Y873D02*
X7Y873D01*
X3562Y873D02*
X3569Y873D01*
X0Y872D02*
X7Y872D01*
X3562Y872D02*
X3569Y872D01*
X0Y871D02*
X7Y871D01*
X3562Y871D02*
X3569Y871D01*
X0Y870D02*
X7Y870D01*
X3562Y870D02*
X3569Y870D01*
X0Y869D02*
X7Y869D01*
X3562Y869D02*
X3569Y869D01*
X0Y868D02*
X7Y868D01*
X3562Y868D02*
X3569Y868D01*
X0Y867D02*
X7Y867D01*
X3562Y867D02*
X3569Y867D01*
X0Y866D02*
X7Y866D01*
X3562Y866D02*
X3569Y866D01*
X0Y865D02*
X7Y865D01*
X3562Y865D02*
X3569Y865D01*
X0Y864D02*
X7Y864D01*
X3562Y864D02*
X3569Y864D01*
X0Y863D02*
X7Y863D01*
X3562Y863D02*
X3569Y863D01*
X0Y862D02*
X7Y862D01*
X3562Y862D02*
X3569Y862D01*
X0Y861D02*
X7Y861D01*
X3562Y861D02*
X3569Y861D01*
X0Y860D02*
X7Y860D01*
X3562Y860D02*
X3569Y860D01*
X0Y859D02*
X7Y859D01*
X3562Y859D02*
X3569Y859D01*
X0Y858D02*
X7Y858D01*
X3562Y858D02*
X3569Y858D01*
X0Y857D02*
X7Y857D01*
X3562Y857D02*
X3569Y857D01*
X0Y856D02*
X7Y856D01*
X3562Y856D02*
X3569Y856D01*
X0Y855D02*
X7Y855D01*
X3562Y855D02*
X3569Y855D01*
X0Y854D02*
X7Y854D01*
X3562Y854D02*
X3569Y854D01*
X0Y853D02*
X7Y853D01*
X3562Y853D02*
X3569Y853D01*
X0Y852D02*
X7Y852D01*
X3562Y852D02*
X3569Y852D01*
X0Y851D02*
X7Y851D01*
X3562Y851D02*
X3569Y851D01*
X0Y850D02*
X7Y850D01*
X3562Y850D02*
X3569Y850D01*
X0Y849D02*
X7Y849D01*
X3562Y849D02*
X3569Y849D01*
X0Y848D02*
X7Y848D01*
X3562Y848D02*
X3569Y848D01*
X0Y847D02*
X7Y847D01*
X3562Y847D02*
X3569Y847D01*
X0Y846D02*
X7Y846D01*
X3562Y846D02*
X3569Y846D01*
X0Y845D02*
X7Y845D01*
X3562Y845D02*
X3569Y845D01*
X0Y844D02*
X7Y844D01*
X3562Y844D02*
X3569Y844D01*
X0Y843D02*
X7Y843D01*
X3562Y843D02*
X3569Y843D01*
X0Y842D02*
X7Y842D01*
X3562Y842D02*
X3569Y842D01*
X0Y841D02*
X7Y841D01*
X3562Y841D02*
X3569Y841D01*
X0Y840D02*
X7Y840D01*
X3562Y840D02*
X3569Y840D01*
X0Y839D02*
X7Y839D01*
X3562Y839D02*
X3569Y839D01*
X0Y838D02*
X7Y838D01*
X3562Y838D02*
X3569Y838D01*
X0Y837D02*
X7Y837D01*
X3562Y837D02*
X3569Y837D01*
X0Y836D02*
X7Y836D01*
X3562Y836D02*
X3569Y836D01*
X0Y835D02*
X7Y835D01*
X3562Y835D02*
X3569Y835D01*
X0Y834D02*
X7Y834D01*
X3562Y834D02*
X3569Y834D01*
X0Y833D02*
X7Y833D01*
X3562Y833D02*
X3569Y833D01*
X0Y832D02*
X7Y832D01*
X3562Y832D02*
X3569Y832D01*
X0Y831D02*
X7Y831D01*
X3562Y831D02*
X3569Y831D01*
X0Y830D02*
X7Y830D01*
X3562Y830D02*
X3569Y830D01*
X0Y829D02*
X7Y829D01*
X3562Y829D02*
X3569Y829D01*
X0Y828D02*
X7Y828D01*
X3562Y828D02*
X3569Y828D01*
X0Y827D02*
X7Y827D01*
X3562Y827D02*
X3569Y827D01*
X0Y826D02*
X7Y826D01*
X3562Y826D02*
X3569Y826D01*
X0Y825D02*
X7Y825D01*
X3562Y825D02*
X3569Y825D01*
X0Y824D02*
X7Y824D01*
X3562Y824D02*
X3569Y824D01*
X0Y823D02*
X7Y823D01*
X3562Y823D02*
X3569Y823D01*
X0Y822D02*
X7Y822D01*
X3562Y822D02*
X3569Y822D01*
X0Y821D02*
X7Y821D01*
X3562Y821D02*
X3569Y821D01*
X0Y820D02*
X7Y820D01*
X3562Y820D02*
X3569Y820D01*
X0Y819D02*
X7Y819D01*
X3562Y819D02*
X3569Y819D01*
X0Y818D02*
X7Y818D01*
X3562Y818D02*
X3569Y818D01*
X0Y817D02*
X7Y817D01*
X3562Y817D02*
X3569Y817D01*
X0Y816D02*
X7Y816D01*
X3562Y816D02*
X3569Y816D01*
X0Y815D02*
X7Y815D01*
X3562Y815D02*
X3569Y815D01*
X0Y814D02*
X7Y814D01*
X3562Y814D02*
X3569Y814D01*
X0Y813D02*
X7Y813D01*
X3562Y813D02*
X3569Y813D01*
X0Y812D02*
X7Y812D01*
X3562Y812D02*
X3569Y812D01*
X0Y811D02*
X7Y811D01*
X3562Y811D02*
X3569Y811D01*
X0Y810D02*
X7Y810D01*
X3562Y810D02*
X3569Y810D01*
X0Y809D02*
X7Y809D01*
X3562Y809D02*
X3569Y809D01*
X0Y808D02*
X7Y808D01*
X3562Y808D02*
X3569Y808D01*
X0Y807D02*
X7Y807D01*
X3562Y807D02*
X3569Y807D01*
X0Y806D02*
X7Y806D01*
X3562Y806D02*
X3569Y806D01*
X0Y805D02*
X7Y805D01*
X3562Y805D02*
X3569Y805D01*
X0Y804D02*
X7Y804D01*
X3562Y804D02*
X3569Y804D01*
X0Y803D02*
X7Y803D01*
X3562Y803D02*
X3569Y803D01*
X0Y802D02*
X7Y802D01*
X3562Y802D02*
X3569Y802D01*
X0Y801D02*
X7Y801D01*
X3562Y801D02*
X3569Y801D01*
X0Y800D02*
X7Y800D01*
X3562Y800D02*
X3569Y800D01*
X0Y799D02*
X7Y799D01*
X3562Y799D02*
X3569Y799D01*
X0Y798D02*
X7Y798D01*
X3562Y798D02*
X3569Y798D01*
X0Y797D02*
X7Y797D01*
X3562Y797D02*
X3569Y797D01*
X0Y796D02*
X7Y796D01*
X3562Y796D02*
X3569Y796D01*
X0Y795D02*
X7Y795D01*
X3562Y795D02*
X3569Y795D01*
X0Y794D02*
X7Y794D01*
X3562Y794D02*
X3569Y794D01*
X0Y793D02*
X7Y793D01*
X3562Y793D02*
X3569Y793D01*
X0Y792D02*
X7Y792D01*
X3562Y792D02*
X3569Y792D01*
X0Y791D02*
X7Y791D01*
X3562Y791D02*
X3569Y791D01*
X0Y790D02*
X7Y790D01*
X3562Y790D02*
X3569Y790D01*
X0Y789D02*
X7Y789D01*
X3562Y789D02*
X3569Y789D01*
X0Y788D02*
X7Y788D01*
X3562Y788D02*
X3569Y788D01*
X0Y787D02*
X7Y787D01*
X3562Y787D02*
X3569Y787D01*
X0Y786D02*
X7Y786D01*
X3562Y786D02*
X3569Y786D01*
X0Y785D02*
X7Y785D01*
X3562Y785D02*
X3569Y785D01*
X0Y784D02*
X7Y784D01*
X3562Y784D02*
X3569Y784D01*
X0Y783D02*
X7Y783D01*
X3562Y783D02*
X3569Y783D01*
X0Y782D02*
X7Y782D01*
X3562Y782D02*
X3569Y782D01*
X0Y781D02*
X7Y781D01*
X3562Y781D02*
X3569Y781D01*
X0Y780D02*
X7Y780D01*
X3562Y780D02*
X3569Y780D01*
X0Y779D02*
X7Y779D01*
X3562Y779D02*
X3569Y779D01*
X0Y778D02*
X7Y778D01*
X3562Y778D02*
X3569Y778D01*
X0Y777D02*
X7Y777D01*
X3562Y777D02*
X3569Y777D01*
X0Y776D02*
X7Y776D01*
X3562Y776D02*
X3569Y776D01*
X0Y775D02*
X7Y775D01*
X3562Y775D02*
X3569Y775D01*
X0Y774D02*
X7Y774D01*
X3562Y774D02*
X3569Y774D01*
X0Y773D02*
X7Y773D01*
X3562Y773D02*
X3569Y773D01*
X0Y772D02*
X7Y772D01*
X3562Y772D02*
X3569Y772D01*
X0Y771D02*
X7Y771D01*
X3562Y771D02*
X3569Y771D01*
X0Y770D02*
X7Y770D01*
X3562Y770D02*
X3569Y770D01*
X0Y769D02*
X7Y769D01*
X3562Y769D02*
X3569Y769D01*
X0Y768D02*
X7Y768D01*
X3562Y768D02*
X3569Y768D01*
X0Y767D02*
X7Y767D01*
X3562Y767D02*
X3569Y767D01*
X0Y766D02*
X7Y766D01*
X3562Y766D02*
X3569Y766D01*
X0Y765D02*
X7Y765D01*
X3562Y765D02*
X3569Y765D01*
X0Y764D02*
X7Y764D01*
X3562Y764D02*
X3569Y764D01*
X0Y763D02*
X7Y763D01*
X3562Y763D02*
X3569Y763D01*
X0Y762D02*
X7Y762D01*
X3562Y762D02*
X3569Y762D01*
X0Y761D02*
X7Y761D01*
X3562Y761D02*
X3569Y761D01*
X0Y760D02*
X7Y760D01*
X3562Y760D02*
X3569Y760D01*
X0Y759D02*
X7Y759D01*
X3562Y759D02*
X3569Y759D01*
X0Y758D02*
X7Y758D01*
X3562Y758D02*
X3569Y758D01*
X0Y757D02*
X7Y757D01*
X3562Y757D02*
X3569Y757D01*
X0Y756D02*
X7Y756D01*
X3562Y756D02*
X3569Y756D01*
X0Y755D02*
X7Y755D01*
X3562Y755D02*
X3569Y755D01*
X0Y754D02*
X7Y754D01*
X3562Y754D02*
X3569Y754D01*
X0Y753D02*
X7Y753D01*
X3562Y753D02*
X3569Y753D01*
X0Y752D02*
X7Y752D01*
X3562Y752D02*
X3569Y752D01*
X0Y751D02*
X7Y751D01*
X3562Y751D02*
X3569Y751D01*
X0Y750D02*
X7Y750D01*
X3562Y750D02*
X3569Y750D01*
X0Y749D02*
X7Y749D01*
X3562Y749D02*
X3569Y749D01*
X0Y748D02*
X7Y748D01*
X3562Y748D02*
X3569Y748D01*
X0Y747D02*
X7Y747D01*
X3562Y747D02*
X3569Y747D01*
X0Y746D02*
X7Y746D01*
X3562Y746D02*
X3569Y746D01*
X0Y745D02*
X7Y745D01*
X3562Y745D02*
X3569Y745D01*
X0Y744D02*
X7Y744D01*
X3562Y744D02*
X3569Y744D01*
X0Y743D02*
X7Y743D01*
X3562Y743D02*
X3569Y743D01*
X0Y742D02*
X7Y742D01*
X3562Y742D02*
X3569Y742D01*
X0Y741D02*
X7Y741D01*
X3562Y741D02*
X3569Y741D01*
X0Y740D02*
X7Y740D01*
X3562Y740D02*
X3569Y740D01*
X0Y739D02*
X7Y739D01*
X3562Y739D02*
X3569Y739D01*
X0Y738D02*
X7Y738D01*
X3562Y738D02*
X3569Y738D01*
X0Y737D02*
X7Y737D01*
X3562Y737D02*
X3569Y737D01*
X0Y736D02*
X7Y736D01*
X3562Y736D02*
X3569Y736D01*
X0Y735D02*
X7Y735D01*
X3562Y735D02*
X3569Y735D01*
X0Y734D02*
X7Y734D01*
X3562Y734D02*
X3569Y734D01*
X0Y733D02*
X7Y733D01*
X3562Y733D02*
X3569Y733D01*
X0Y732D02*
X7Y732D01*
X3562Y732D02*
X3569Y732D01*
X0Y731D02*
X7Y731D01*
X3562Y731D02*
X3569Y731D01*
X0Y730D02*
X7Y730D01*
X3562Y730D02*
X3569Y730D01*
X0Y729D02*
X7Y729D01*
X3562Y729D02*
X3569Y729D01*
X0Y728D02*
X7Y728D01*
X3562Y728D02*
X3569Y728D01*
X0Y727D02*
X7Y727D01*
X3562Y727D02*
X3569Y727D01*
X0Y726D02*
X7Y726D01*
X3562Y726D02*
X3569Y726D01*
X0Y725D02*
X7Y725D01*
X3562Y725D02*
X3569Y725D01*
X0Y724D02*
X7Y724D01*
X3562Y724D02*
X3569Y724D01*
X0Y723D02*
X7Y723D01*
X3562Y723D02*
X3569Y723D01*
X0Y722D02*
X7Y722D01*
X3562Y722D02*
X3569Y722D01*
X0Y721D02*
X7Y721D01*
X3562Y721D02*
X3569Y721D01*
X0Y720D02*
X7Y720D01*
X3562Y720D02*
X3569Y720D01*
X0Y719D02*
X7Y719D01*
X3562Y719D02*
X3569Y719D01*
X0Y718D02*
X7Y718D01*
X3562Y718D02*
X3569Y718D01*
X0Y717D02*
X7Y717D01*
X3562Y717D02*
X3569Y717D01*
X0Y716D02*
X7Y716D01*
X3562Y716D02*
X3569Y716D01*
X0Y715D02*
X7Y715D01*
X3562Y715D02*
X3569Y715D01*
X0Y714D02*
X7Y714D01*
X3562Y714D02*
X3569Y714D01*
X0Y713D02*
X7Y713D01*
X3562Y713D02*
X3569Y713D01*
X0Y712D02*
X7Y712D01*
X3562Y712D02*
X3569Y712D01*
X0Y711D02*
X7Y711D01*
X3562Y711D02*
X3569Y711D01*
X0Y710D02*
X7Y710D01*
X3562Y710D02*
X3569Y710D01*
X0Y709D02*
X7Y709D01*
X3562Y709D02*
X3569Y709D01*
X0Y708D02*
X7Y708D01*
X3562Y708D02*
X3569Y708D01*
X0Y707D02*
X7Y707D01*
X3562Y707D02*
X3569Y707D01*
X0Y706D02*
X7Y706D01*
X3562Y706D02*
X3569Y706D01*
X0Y705D02*
X7Y705D01*
X3562Y705D02*
X3569Y705D01*
X0Y704D02*
X7Y704D01*
X3562Y704D02*
X3569Y704D01*
X0Y703D02*
X7Y703D01*
X3562Y703D02*
X3569Y703D01*
X0Y702D02*
X7Y702D01*
X3562Y702D02*
X3569Y702D01*
X0Y701D02*
X7Y701D01*
X3562Y701D02*
X3569Y701D01*
X0Y700D02*
X7Y700D01*
X3562Y700D02*
X3569Y700D01*
X0Y699D02*
X7Y699D01*
X3562Y699D02*
X3569Y699D01*
X0Y698D02*
X7Y698D01*
X3562Y698D02*
X3569Y698D01*
X0Y697D02*
X7Y697D01*
X3562Y697D02*
X3569Y697D01*
X0Y696D02*
X7Y696D01*
X3562Y696D02*
X3569Y696D01*
X0Y695D02*
X7Y695D01*
X3562Y695D02*
X3569Y695D01*
X0Y694D02*
X7Y694D01*
X3562Y694D02*
X3569Y694D01*
X0Y693D02*
X7Y693D01*
X3562Y693D02*
X3569Y693D01*
X0Y692D02*
X7Y692D01*
X3562Y692D02*
X3569Y692D01*
X0Y691D02*
X7Y691D01*
X3562Y691D02*
X3569Y691D01*
X0Y690D02*
X7Y690D01*
X3562Y690D02*
X3569Y690D01*
X0Y689D02*
X7Y689D01*
X3562Y689D02*
X3569Y689D01*
X0Y688D02*
X7Y688D01*
X3562Y688D02*
X3569Y688D01*
X0Y687D02*
X7Y687D01*
X3562Y687D02*
X3569Y687D01*
X0Y686D02*
X7Y686D01*
X3562Y686D02*
X3569Y686D01*
X0Y685D02*
X7Y685D01*
X3562Y685D02*
X3569Y685D01*
X0Y684D02*
X7Y684D01*
X3562Y684D02*
X3569Y684D01*
X0Y683D02*
X7Y683D01*
X3562Y683D02*
X3569Y683D01*
X0Y682D02*
X7Y682D01*
X3562Y682D02*
X3569Y682D01*
X0Y681D02*
X7Y681D01*
X3562Y681D02*
X3569Y681D01*
X0Y680D02*
X7Y680D01*
X3562Y680D02*
X3569Y680D01*
X0Y679D02*
X7Y679D01*
X3562Y679D02*
X3569Y679D01*
X0Y678D02*
X7Y678D01*
X3562Y678D02*
X3569Y678D01*
X0Y677D02*
X7Y677D01*
X3562Y677D02*
X3569Y677D01*
X0Y676D02*
X7Y676D01*
X3562Y676D02*
X3569Y676D01*
X0Y675D02*
X7Y675D01*
X3562Y675D02*
X3569Y675D01*
X0Y674D02*
X7Y674D01*
X3562Y674D02*
X3569Y674D01*
X0Y673D02*
X7Y673D01*
X3562Y673D02*
X3569Y673D01*
X0Y672D02*
X7Y672D01*
X3562Y672D02*
X3569Y672D01*
X0Y671D02*
X7Y671D01*
X3562Y671D02*
X3569Y671D01*
X0Y670D02*
X7Y670D01*
X3562Y670D02*
X3569Y670D01*
X0Y669D02*
X7Y669D01*
X3562Y669D02*
X3569Y669D01*
X0Y668D02*
X7Y668D01*
X3562Y668D02*
X3569Y668D01*
X0Y667D02*
X7Y667D01*
X3562Y667D02*
X3569Y667D01*
X0Y666D02*
X7Y666D01*
X3562Y666D02*
X3569Y666D01*
X0Y665D02*
X7Y665D01*
X3562Y665D02*
X3569Y665D01*
X0Y664D02*
X7Y664D01*
X3562Y664D02*
X3569Y664D01*
X0Y663D02*
X7Y663D01*
X3562Y663D02*
X3569Y663D01*
X0Y662D02*
X7Y662D01*
X3562Y662D02*
X3569Y662D01*
X0Y661D02*
X7Y661D01*
X3562Y661D02*
X3569Y661D01*
X0Y660D02*
X7Y660D01*
X3562Y660D02*
X3569Y660D01*
X0Y659D02*
X7Y659D01*
X3562Y659D02*
X3569Y659D01*
X0Y658D02*
X7Y658D01*
X3562Y658D02*
X3569Y658D01*
X0Y657D02*
X7Y657D01*
X3562Y657D02*
X3569Y657D01*
X0Y656D02*
X7Y656D01*
X3562Y656D02*
X3569Y656D01*
X0Y655D02*
X7Y655D01*
X3562Y655D02*
X3569Y655D01*
X0Y654D02*
X7Y654D01*
X3562Y654D02*
X3569Y654D01*
X0Y653D02*
X7Y653D01*
X3562Y653D02*
X3569Y653D01*
X0Y652D02*
X7Y652D01*
X3562Y652D02*
X3569Y652D01*
X0Y651D02*
X7Y651D01*
X3562Y651D02*
X3569Y651D01*
X0Y650D02*
X7Y650D01*
X3562Y650D02*
X3569Y650D01*
X0Y649D02*
X7Y649D01*
X3562Y649D02*
X3569Y649D01*
X0Y648D02*
X7Y648D01*
X3562Y648D02*
X3569Y648D01*
X0Y647D02*
X7Y647D01*
X3562Y647D02*
X3569Y647D01*
X0Y646D02*
X7Y646D01*
X3562Y646D02*
X3569Y646D01*
X0Y645D02*
X7Y645D01*
X3562Y645D02*
X3569Y645D01*
X0Y644D02*
X7Y644D01*
X3562Y644D02*
X3569Y644D01*
X0Y643D02*
X7Y643D01*
X3562Y643D02*
X3569Y643D01*
X0Y642D02*
X7Y642D01*
X3562Y642D02*
X3569Y642D01*
X0Y641D02*
X7Y641D01*
X3562Y641D02*
X3569Y641D01*
X0Y640D02*
X7Y640D01*
X3562Y640D02*
X3569Y640D01*
X0Y639D02*
X7Y639D01*
X3562Y639D02*
X3569Y639D01*
X0Y638D02*
X7Y638D01*
X3562Y638D02*
X3569Y638D01*
X0Y637D02*
X7Y637D01*
X3562Y637D02*
X3569Y637D01*
X0Y636D02*
X7Y636D01*
X3562Y636D02*
X3569Y636D01*
X0Y635D02*
X7Y635D01*
X3562Y635D02*
X3569Y635D01*
X0Y634D02*
X7Y634D01*
X3562Y634D02*
X3569Y634D01*
X0Y633D02*
X7Y633D01*
X3562Y633D02*
X3569Y633D01*
X0Y632D02*
X7Y632D01*
X3562Y632D02*
X3569Y632D01*
X0Y631D02*
X7Y631D01*
X3562Y631D02*
X3569Y631D01*
X0Y630D02*
X7Y630D01*
X3562Y630D02*
X3569Y630D01*
X0Y629D02*
X7Y629D01*
X3562Y629D02*
X3569Y629D01*
X0Y628D02*
X7Y628D01*
X3562Y628D02*
X3569Y628D01*
X0Y627D02*
X7Y627D01*
X3562Y627D02*
X3569Y627D01*
X0Y626D02*
X7Y626D01*
X3562Y626D02*
X3569Y626D01*
X0Y625D02*
X7Y625D01*
X3562Y625D02*
X3569Y625D01*
X0Y624D02*
X7Y624D01*
X3562Y624D02*
X3569Y624D01*
X0Y623D02*
X7Y623D01*
X3562Y623D02*
X3569Y623D01*
X0Y622D02*
X7Y622D01*
X3562Y622D02*
X3569Y622D01*
X0Y621D02*
X7Y621D01*
X3562Y621D02*
X3569Y621D01*
X0Y620D02*
X7Y620D01*
X3562Y620D02*
X3569Y620D01*
X0Y619D02*
X7Y619D01*
X3562Y619D02*
X3569Y619D01*
X0Y618D02*
X7Y618D01*
X3562Y618D02*
X3569Y618D01*
X0Y617D02*
X7Y617D01*
X3562Y617D02*
X3569Y617D01*
X0Y616D02*
X7Y616D01*
X3562Y616D02*
X3569Y616D01*
X0Y615D02*
X7Y615D01*
X3562Y615D02*
X3569Y615D01*
X0Y614D02*
X7Y614D01*
X3562Y614D02*
X3569Y614D01*
X0Y613D02*
X7Y613D01*
X3562Y613D02*
X3569Y613D01*
X0Y612D02*
X7Y612D01*
X3562Y612D02*
X3569Y612D01*
X0Y611D02*
X7Y611D01*
X3562Y611D02*
X3569Y611D01*
X0Y610D02*
X7Y610D01*
X3562Y610D02*
X3569Y610D01*
X0Y609D02*
X7Y609D01*
X3562Y609D02*
X3569Y609D01*
X0Y608D02*
X7Y608D01*
X3562Y608D02*
X3569Y608D01*
X0Y607D02*
X7Y607D01*
X3562Y607D02*
X3569Y607D01*
X0Y606D02*
X7Y606D01*
X3562Y606D02*
X3569Y606D01*
X0Y605D02*
X7Y605D01*
X3562Y605D02*
X3569Y605D01*
X0Y604D02*
X7Y604D01*
X3562Y604D02*
X3569Y604D01*
X0Y603D02*
X7Y603D01*
X3562Y603D02*
X3569Y603D01*
X0Y602D02*
X7Y602D01*
X3562Y602D02*
X3569Y602D01*
X0Y601D02*
X7Y601D01*
X3562Y601D02*
X3569Y601D01*
X0Y600D02*
X7Y600D01*
X3562Y600D02*
X3569Y600D01*
X0Y599D02*
X7Y599D01*
X3562Y599D02*
X3569Y599D01*
X0Y598D02*
X7Y598D01*
X3562Y598D02*
X3569Y598D01*
X0Y597D02*
X7Y597D01*
X3562Y597D02*
X3569Y597D01*
X0Y596D02*
X7Y596D01*
X3562Y596D02*
X3569Y596D01*
X0Y595D02*
X7Y595D01*
X3562Y595D02*
X3569Y595D01*
X0Y594D02*
X7Y594D01*
X3562Y594D02*
X3569Y594D01*
X0Y593D02*
X7Y593D01*
X3562Y593D02*
X3569Y593D01*
X0Y592D02*
X7Y592D01*
X3562Y592D02*
X3569Y592D01*
X0Y591D02*
X7Y591D01*
X3562Y591D02*
X3569Y591D01*
X0Y590D02*
X7Y590D01*
X3562Y590D02*
X3569Y590D01*
X0Y589D02*
X7Y589D01*
X3562Y589D02*
X3569Y589D01*
X0Y588D02*
X7Y588D01*
X3562Y588D02*
X3569Y588D01*
X0Y587D02*
X7Y587D01*
X3562Y587D02*
X3569Y587D01*
X0Y586D02*
X7Y586D01*
X3562Y586D02*
X3569Y586D01*
X0Y585D02*
X7Y585D01*
X3562Y585D02*
X3569Y585D01*
X0Y584D02*
X7Y584D01*
X3562Y584D02*
X3569Y584D01*
X0Y583D02*
X7Y583D01*
X3562Y583D02*
X3569Y583D01*
X0Y582D02*
X7Y582D01*
X3562Y582D02*
X3569Y582D01*
X0Y581D02*
X7Y581D01*
X3562Y581D02*
X3569Y581D01*
X0Y580D02*
X7Y580D01*
X3562Y580D02*
X3569Y580D01*
X0Y579D02*
X7Y579D01*
X3562Y579D02*
X3569Y579D01*
X0Y578D02*
X7Y578D01*
X3562Y578D02*
X3569Y578D01*
X0Y577D02*
X7Y577D01*
X3562Y577D02*
X3569Y577D01*
X0Y576D02*
X7Y576D01*
X3562Y576D02*
X3569Y576D01*
X0Y575D02*
X7Y575D01*
X3562Y575D02*
X3569Y575D01*
X0Y574D02*
X7Y574D01*
X3562Y574D02*
X3569Y574D01*
X0Y573D02*
X7Y573D01*
X3562Y573D02*
X3569Y573D01*
X0Y572D02*
X7Y572D01*
X3562Y572D02*
X3569Y572D01*
X0Y571D02*
X7Y571D01*
X3562Y571D02*
X3569Y571D01*
X0Y570D02*
X7Y570D01*
X3562Y570D02*
X3569Y570D01*
X0Y569D02*
X7Y569D01*
X3562Y569D02*
X3569Y569D01*
X0Y568D02*
X7Y568D01*
X3562Y568D02*
X3569Y568D01*
X0Y567D02*
X7Y567D01*
X3562Y567D02*
X3569Y567D01*
X0Y566D02*
X7Y566D01*
X3562Y566D02*
X3569Y566D01*
X0Y565D02*
X7Y565D01*
X3562Y565D02*
X3569Y565D01*
X0Y564D02*
X7Y564D01*
X3562Y564D02*
X3569Y564D01*
X0Y563D02*
X7Y563D01*
X3562Y563D02*
X3569Y563D01*
X0Y562D02*
X7Y562D01*
X3562Y562D02*
X3569Y562D01*
X0Y561D02*
X7Y561D01*
X3562Y561D02*
X3569Y561D01*
X0Y560D02*
X7Y560D01*
X3562Y560D02*
X3569Y560D01*
X0Y559D02*
X7Y559D01*
X3562Y559D02*
X3569Y559D01*
X0Y558D02*
X7Y558D01*
X3562Y558D02*
X3569Y558D01*
X0Y557D02*
X7Y557D01*
X3562Y557D02*
X3569Y557D01*
X0Y556D02*
X7Y556D01*
X3562Y556D02*
X3569Y556D01*
X0Y555D02*
X7Y555D01*
X3562Y555D02*
X3569Y555D01*
X0Y554D02*
X7Y554D01*
X3562Y554D02*
X3569Y554D01*
X0Y553D02*
X7Y553D01*
X3562Y553D02*
X3569Y553D01*
X0Y552D02*
X7Y552D01*
X3562Y552D02*
X3569Y552D01*
X0Y551D02*
X7Y551D01*
X3562Y551D02*
X3569Y551D01*
X0Y550D02*
X7Y550D01*
X3562Y550D02*
X3569Y550D01*
X0Y549D02*
X7Y549D01*
X3562Y549D02*
X3569Y549D01*
X0Y548D02*
X7Y548D01*
X3562Y548D02*
X3569Y548D01*
X0Y547D02*
X7Y547D01*
X3562Y547D02*
X3569Y547D01*
X0Y546D02*
X7Y546D01*
X3562Y546D02*
X3569Y546D01*
X0Y545D02*
X7Y545D01*
X3562Y545D02*
X3569Y545D01*
X0Y544D02*
X7Y544D01*
X3562Y544D02*
X3569Y544D01*
X0Y543D02*
X7Y543D01*
X3562Y543D02*
X3569Y543D01*
X0Y542D02*
X7Y542D01*
X3562Y542D02*
X3569Y542D01*
X0Y541D02*
X7Y541D01*
X3562Y541D02*
X3569Y541D01*
X0Y540D02*
X7Y540D01*
X3562Y540D02*
X3569Y540D01*
X0Y539D02*
X7Y539D01*
X3562Y539D02*
X3569Y539D01*
X0Y538D02*
X7Y538D01*
X3562Y538D02*
X3569Y538D01*
X0Y537D02*
X7Y537D01*
X3562Y537D02*
X3569Y537D01*
X0Y536D02*
X7Y536D01*
X3562Y536D02*
X3569Y536D01*
X0Y535D02*
X7Y535D01*
X3562Y535D02*
X3569Y535D01*
X0Y534D02*
X7Y534D01*
X3562Y534D02*
X3569Y534D01*
X0Y533D02*
X7Y533D01*
X3562Y533D02*
X3569Y533D01*
X0Y532D02*
X7Y532D01*
X3562Y532D02*
X3569Y532D01*
X0Y531D02*
X7Y531D01*
X3562Y531D02*
X3569Y531D01*
X0Y530D02*
X7Y530D01*
X3562Y530D02*
X3569Y530D01*
X0Y529D02*
X7Y529D01*
X3562Y529D02*
X3569Y529D01*
X0Y528D02*
X7Y528D01*
X3562Y528D02*
X3569Y528D01*
X0Y527D02*
X7Y527D01*
X3562Y527D02*
X3569Y527D01*
X0Y526D02*
X7Y526D01*
X3562Y526D02*
X3569Y526D01*
X0Y525D02*
X7Y525D01*
X3562Y525D02*
X3569Y525D01*
X0Y524D02*
X7Y524D01*
X3562Y524D02*
X3569Y524D01*
X0Y523D02*
X7Y523D01*
X3562Y523D02*
X3569Y523D01*
X0Y522D02*
X7Y522D01*
X3562Y522D02*
X3569Y522D01*
X0Y521D02*
X7Y521D01*
X3562Y521D02*
X3569Y521D01*
X0Y520D02*
X7Y520D01*
X3562Y520D02*
X3569Y520D01*
X0Y519D02*
X7Y519D01*
X3562Y519D02*
X3569Y519D01*
X0Y518D02*
X7Y518D01*
X3562Y518D02*
X3569Y518D01*
X0Y517D02*
X7Y517D01*
X3562Y517D02*
X3569Y517D01*
X0Y516D02*
X7Y516D01*
X3562Y516D02*
X3569Y516D01*
X0Y515D02*
X7Y515D01*
X3562Y515D02*
X3569Y515D01*
X0Y514D02*
X7Y514D01*
X3562Y514D02*
X3569Y514D01*
X0Y513D02*
X7Y513D01*
X3562Y513D02*
X3569Y513D01*
X0Y512D02*
X7Y512D01*
X3562Y512D02*
X3569Y512D01*
X0Y511D02*
X7Y511D01*
X3562Y511D02*
X3569Y511D01*
X0Y510D02*
X7Y510D01*
X3562Y510D02*
X3569Y510D01*
X0Y509D02*
X7Y509D01*
X3562Y509D02*
X3569Y509D01*
X0Y508D02*
X7Y508D01*
X3562Y508D02*
X3569Y508D01*
X0Y507D02*
X7Y507D01*
X3562Y507D02*
X3569Y507D01*
X0Y506D02*
X7Y506D01*
X3562Y506D02*
X3569Y506D01*
X0Y505D02*
X7Y505D01*
X3562Y505D02*
X3569Y505D01*
X0Y504D02*
X7Y504D01*
X3562Y504D02*
X3569Y504D01*
X0Y503D02*
X7Y503D01*
X3562Y503D02*
X3569Y503D01*
X0Y502D02*
X7Y502D01*
X3562Y502D02*
X3569Y502D01*
X0Y501D02*
X7Y501D01*
X3562Y501D02*
X3569Y501D01*
X0Y500D02*
X7Y500D01*
X3562Y500D02*
X3569Y500D01*
X0Y499D02*
X7Y499D01*
X3562Y499D02*
X3569Y499D01*
X0Y498D02*
X7Y498D01*
X3562Y498D02*
X3569Y498D01*
X0Y497D02*
X7Y497D01*
X3562Y497D02*
X3569Y497D01*
X0Y496D02*
X7Y496D01*
X3562Y496D02*
X3569Y496D01*
X0Y495D02*
X7Y495D01*
X3562Y495D02*
X3569Y495D01*
X0Y494D02*
X7Y494D01*
X3562Y494D02*
X3569Y494D01*
X0Y493D02*
X7Y493D01*
X3562Y493D02*
X3569Y493D01*
X0Y492D02*
X7Y492D01*
X3562Y492D02*
X3569Y492D01*
X0Y491D02*
X7Y491D01*
X3562Y491D02*
X3569Y491D01*
X0Y490D02*
X7Y490D01*
X3562Y490D02*
X3569Y490D01*
X0Y489D02*
X7Y489D01*
X3562Y489D02*
X3569Y489D01*
X0Y488D02*
X7Y488D01*
X3562Y488D02*
X3569Y488D01*
X0Y487D02*
X7Y487D01*
X3562Y487D02*
X3569Y487D01*
X0Y486D02*
X7Y486D01*
X3562Y486D02*
X3569Y486D01*
X0Y485D02*
X7Y485D01*
X3562Y485D02*
X3569Y485D01*
X0Y484D02*
X7Y484D01*
X3562Y484D02*
X3569Y484D01*
X0Y483D02*
X7Y483D01*
X3562Y483D02*
X3569Y483D01*
X0Y482D02*
X7Y482D01*
X3562Y482D02*
X3569Y482D01*
X0Y481D02*
X7Y481D01*
X3562Y481D02*
X3569Y481D01*
X0Y480D02*
X7Y480D01*
X3562Y480D02*
X3569Y480D01*
X0Y479D02*
X7Y479D01*
X3562Y479D02*
X3569Y479D01*
X0Y478D02*
X7Y478D01*
X3562Y478D02*
X3569Y478D01*
X0Y477D02*
X7Y477D01*
X3562Y477D02*
X3569Y477D01*
X0Y476D02*
X7Y476D01*
X3562Y476D02*
X3569Y476D01*
X0Y475D02*
X7Y475D01*
X3562Y475D02*
X3569Y475D01*
X0Y474D02*
X7Y474D01*
X3562Y474D02*
X3569Y474D01*
X0Y473D02*
X7Y473D01*
X3562Y473D02*
X3569Y473D01*
X0Y472D02*
X7Y472D01*
X3562Y472D02*
X3569Y472D01*
X0Y471D02*
X7Y471D01*
X3562Y471D02*
X3569Y471D01*
X0Y470D02*
X7Y470D01*
X3562Y470D02*
X3569Y470D01*
X0Y469D02*
X7Y469D01*
X3562Y469D02*
X3569Y469D01*
X0Y468D02*
X7Y468D01*
X3562Y468D02*
X3569Y468D01*
X0Y467D02*
X7Y467D01*
X3562Y467D02*
X3569Y467D01*
X0Y466D02*
X7Y466D01*
X3562Y466D02*
X3569Y466D01*
X0Y465D02*
X7Y465D01*
X3562Y465D02*
X3569Y465D01*
X0Y464D02*
X7Y464D01*
X3562Y464D02*
X3569Y464D01*
X0Y463D02*
X7Y463D01*
X3562Y463D02*
X3569Y463D01*
X0Y462D02*
X7Y462D01*
X3562Y462D02*
X3569Y462D01*
X0Y461D02*
X7Y461D01*
X3562Y461D02*
X3569Y461D01*
X0Y460D02*
X7Y460D01*
X3562Y460D02*
X3569Y460D01*
X0Y459D02*
X7Y459D01*
X3562Y459D02*
X3569Y459D01*
X0Y458D02*
X7Y458D01*
X3562Y458D02*
X3569Y458D01*
X0Y457D02*
X7Y457D01*
X3562Y457D02*
X3569Y457D01*
X0Y456D02*
X7Y456D01*
X3562Y456D02*
X3569Y456D01*
X0Y455D02*
X7Y455D01*
X3562Y455D02*
X3569Y455D01*
X0Y454D02*
X7Y454D01*
X3562Y454D02*
X3569Y454D01*
X0Y453D02*
X7Y453D01*
X3562Y453D02*
X3569Y453D01*
X0Y452D02*
X7Y452D01*
X3562Y452D02*
X3569Y452D01*
X0Y451D02*
X7Y451D01*
X3562Y451D02*
X3569Y451D01*
X0Y450D02*
X7Y450D01*
X3562Y450D02*
X3569Y450D01*
X0Y449D02*
X7Y449D01*
X3562Y449D02*
X3569Y449D01*
X0Y448D02*
X7Y448D01*
X3562Y448D02*
X3569Y448D01*
X0Y447D02*
X7Y447D01*
X3562Y447D02*
X3569Y447D01*
X0Y446D02*
X7Y446D01*
X3562Y446D02*
X3569Y446D01*
X0Y445D02*
X7Y445D01*
X3562Y445D02*
X3569Y445D01*
X0Y444D02*
X7Y444D01*
X3562Y444D02*
X3569Y444D01*
X0Y443D02*
X7Y443D01*
X3562Y443D02*
X3569Y443D01*
X0Y442D02*
X7Y442D01*
X3562Y442D02*
X3569Y442D01*
X0Y441D02*
X7Y441D01*
X3562Y441D02*
X3569Y441D01*
X0Y440D02*
X7Y440D01*
X3562Y440D02*
X3569Y440D01*
X0Y439D02*
X7Y439D01*
X3562Y439D02*
X3569Y439D01*
X0Y438D02*
X7Y438D01*
X3562Y438D02*
X3569Y438D01*
X0Y437D02*
X7Y437D01*
X3562Y437D02*
X3569Y437D01*
X0Y436D02*
X7Y436D01*
X3562Y436D02*
X3569Y436D01*
X0Y435D02*
X7Y435D01*
X3562Y435D02*
X3569Y435D01*
X0Y434D02*
X7Y434D01*
X3562Y434D02*
X3569Y434D01*
X0Y433D02*
X7Y433D01*
X3562Y433D02*
X3569Y433D01*
X0Y432D02*
X7Y432D01*
X3562Y432D02*
X3569Y432D01*
X0Y431D02*
X7Y431D01*
X3562Y431D02*
X3569Y431D01*
X0Y430D02*
X7Y430D01*
X3562Y430D02*
X3569Y430D01*
X0Y429D02*
X7Y429D01*
X3562Y429D02*
X3569Y429D01*
X0Y428D02*
X7Y428D01*
X3562Y428D02*
X3569Y428D01*
X0Y427D02*
X7Y427D01*
X3562Y427D02*
X3569Y427D01*
X0Y426D02*
X7Y426D01*
X3562Y426D02*
X3569Y426D01*
X0Y425D02*
X7Y425D01*
X3562Y425D02*
X3569Y425D01*
X0Y424D02*
X7Y424D01*
X3562Y424D02*
X3569Y424D01*
X0Y423D02*
X7Y423D01*
X3562Y423D02*
X3569Y423D01*
X0Y422D02*
X7Y422D01*
X3562Y422D02*
X3569Y422D01*
X0Y421D02*
X7Y421D01*
X3562Y421D02*
X3569Y421D01*
X0Y420D02*
X7Y420D01*
X3562Y420D02*
X3569Y420D01*
X0Y419D02*
X7Y419D01*
X3562Y419D02*
X3569Y419D01*
X0Y418D02*
X7Y418D01*
X3562Y418D02*
X3569Y418D01*
X0Y417D02*
X7Y417D01*
X3562Y417D02*
X3569Y417D01*
X0Y416D02*
X7Y416D01*
X3562Y416D02*
X3569Y416D01*
X0Y415D02*
X7Y415D01*
X3562Y415D02*
X3569Y415D01*
X0Y414D02*
X7Y414D01*
X3562Y414D02*
X3569Y414D01*
X0Y413D02*
X7Y413D01*
X3562Y413D02*
X3569Y413D01*
X0Y412D02*
X7Y412D01*
X3562Y412D02*
X3569Y412D01*
X0Y411D02*
X7Y411D01*
X3562Y411D02*
X3569Y411D01*
X0Y410D02*
X7Y410D01*
X3562Y410D02*
X3569Y410D01*
X0Y409D02*
X7Y409D01*
X3562Y409D02*
X3569Y409D01*
X0Y408D02*
X7Y408D01*
X3562Y408D02*
X3569Y408D01*
X0Y407D02*
X7Y407D01*
X3562Y407D02*
X3569Y407D01*
X0Y406D02*
X7Y406D01*
X3562Y406D02*
X3569Y406D01*
X0Y405D02*
X7Y405D01*
X3562Y405D02*
X3569Y405D01*
X0Y404D02*
X7Y404D01*
X3562Y404D02*
X3569Y404D01*
X0Y403D02*
X7Y403D01*
X3562Y403D02*
X3569Y403D01*
X0Y402D02*
X7Y402D01*
X3562Y402D02*
X3569Y402D01*
X0Y401D02*
X7Y401D01*
X3562Y401D02*
X3569Y401D01*
X0Y400D02*
X7Y400D01*
X3562Y400D02*
X3569Y400D01*
X0Y399D02*
X7Y399D01*
X3562Y399D02*
X3569Y399D01*
X0Y398D02*
X7Y398D01*
X3562Y398D02*
X3569Y398D01*
X0Y397D02*
X7Y397D01*
X3562Y397D02*
X3569Y397D01*
X0Y396D02*
X7Y396D01*
X3562Y396D02*
X3569Y396D01*
X0Y395D02*
X7Y395D01*
X3562Y395D02*
X3569Y395D01*
X0Y394D02*
X7Y394D01*
X3562Y394D02*
X3569Y394D01*
X0Y393D02*
X7Y393D01*
X3562Y393D02*
X3569Y393D01*
X0Y392D02*
X7Y392D01*
X3562Y392D02*
X3569Y392D01*
X0Y391D02*
X7Y391D01*
X3562Y391D02*
X3569Y391D01*
X0Y390D02*
X7Y390D01*
X3562Y390D02*
X3569Y390D01*
X0Y389D02*
X7Y389D01*
X3562Y389D02*
X3569Y389D01*
X0Y388D02*
X7Y388D01*
X3562Y388D02*
X3569Y388D01*
X0Y387D02*
X7Y387D01*
X3562Y387D02*
X3569Y387D01*
X0Y386D02*
X7Y386D01*
X3562Y386D02*
X3569Y386D01*
X0Y385D02*
X7Y385D01*
X3562Y385D02*
X3569Y385D01*
X0Y384D02*
X7Y384D01*
X3562Y384D02*
X3569Y384D01*
X0Y383D02*
X7Y383D01*
X3562Y383D02*
X3569Y383D01*
X0Y382D02*
X7Y382D01*
X3562Y382D02*
X3569Y382D01*
X0Y381D02*
X7Y381D01*
X3562Y381D02*
X3569Y381D01*
X0Y380D02*
X7Y380D01*
X3562Y380D02*
X3569Y380D01*
X0Y379D02*
X7Y379D01*
X3562Y379D02*
X3569Y379D01*
X0Y378D02*
X7Y378D01*
X3562Y378D02*
X3569Y378D01*
X0Y377D02*
X7Y377D01*
X3562Y377D02*
X3569Y377D01*
X0Y376D02*
X7Y376D01*
X3562Y376D02*
X3569Y376D01*
X0Y375D02*
X8Y375D01*
X3561Y375D02*
X3568Y375D01*
X1Y374D02*
X8Y374D01*
X3561Y374D02*
X3568Y374D01*
X1Y373D02*
X8Y373D01*
X3561Y373D02*
X3568Y373D01*
X1Y372D02*
X8Y372D01*
X3561Y372D02*
X3568Y372D01*
X1Y371D02*
X8Y371D01*
X3561Y371D02*
X3568Y371D01*
X1Y370D02*
X8Y370D01*
X3561Y370D02*
X3568Y370D01*
X1Y369D02*
X8Y369D01*
X3561Y369D02*
X3568Y369D01*
X1Y368D02*
X8Y368D01*
X3561Y368D02*
X3568Y368D01*
X1Y367D02*
X8Y367D01*
X3561Y367D02*
X3568Y367D01*
X1Y366D02*
X8Y366D01*
X3561Y366D02*
X3568Y366D01*
X1Y365D02*
X8Y365D01*
X3561Y365D02*
X3568Y365D01*
X1Y364D02*
X8Y364D01*
X3561Y364D02*
X3568Y364D01*
X1Y363D02*
X8Y363D01*
X3561Y363D02*
X3568Y363D01*
X1Y362D02*
X8Y362D01*
X3561Y362D02*
X3568Y362D01*
X1Y361D02*
X9Y361D01*
X3560Y361D02*
X3568Y361D01*
X2Y360D02*
X9Y360D01*
X3560Y360D02*
X3567Y360D01*
X2Y359D02*
X9Y359D01*
X3560Y359D02*
X3567Y359D01*
X2Y358D02*
X9Y358D01*
X3560Y358D02*
X3567Y358D01*
X2Y357D02*
X9Y357D01*
X3560Y357D02*
X3567Y357D01*
X2Y356D02*
X9Y356D01*
X3560Y356D02*
X3567Y356D01*
X2Y355D02*
X9Y355D01*
X3560Y355D02*
X3567Y355D01*
X2Y354D02*
X9Y354D01*
X3560Y354D02*
X3567Y354D01*
X2Y353D02*
X9Y353D01*
X3560Y353D02*
X3567Y353D01*
X2Y352D02*
X9Y352D01*
X3560Y352D02*
X3567Y352D01*
X2Y351D02*
X10Y351D01*
X3559Y351D02*
X3567Y351D01*
X3Y350D02*
X10Y350D01*
X3559Y350D02*
X3566Y350D01*
X3Y349D02*
X10Y349D01*
X3559Y349D02*
X3566Y349D01*
X3Y348D02*
X10Y348D01*
X3559Y348D02*
X3566Y348D01*
X3Y347D02*
X10Y347D01*
X3559Y347D02*
X3566Y347D01*
X3Y346D02*
X10Y346D01*
X3559Y346D02*
X3566Y346D01*
X3Y345D02*
X10Y345D01*
X3559Y345D02*
X3566Y345D01*
X3Y344D02*
X10Y344D01*
X3559Y344D02*
X3566Y344D01*
X3Y343D02*
X10Y343D01*
X3559Y343D02*
X3566Y343D01*
X4Y342D02*
X11Y342D01*
X3558Y342D02*
X3565Y342D01*
X4Y341D02*
X11Y341D01*
X3558Y341D02*
X3565Y341D01*
X4Y340D02*
X11Y340D01*
X3558Y340D02*
X3565Y340D01*
X4Y339D02*
X11Y339D01*
X3558Y339D02*
X3565Y339D01*
X4Y338D02*
X11Y338D01*
X3558Y338D02*
X3565Y338D01*
X4Y337D02*
X11Y337D01*
X3558Y337D02*
X3565Y337D01*
X4Y336D02*
X11Y336D01*
X3558Y336D02*
X3565Y336D01*
X5Y335D02*
X12Y335D01*
X3557Y335D02*
X3564Y335D01*
X5Y334D02*
X12Y334D01*
X3557Y334D02*
X3564Y334D01*
X5Y333D02*
X12Y333D01*
X3557Y333D02*
X3564Y333D01*
X5Y332D02*
X12Y332D01*
X3557Y332D02*
X3564Y332D01*
X5Y331D02*
X12Y331D01*
X3557Y331D02*
X3564Y331D01*
X5Y330D02*
X12Y330D01*
X3557Y330D02*
X3564Y330D01*
X6Y329D02*
X13Y329D01*
X3556Y329D02*
X3563Y329D01*
X6Y328D02*
X13Y328D01*
X3556Y328D02*
X3563Y328D01*
X6Y327D02*
X13Y327D01*
X3556Y327D02*
X3563Y327D01*
X6Y326D02*
X13Y326D01*
X3556Y326D02*
X3563Y326D01*
X6Y325D02*
X13Y325D01*
X3556Y325D02*
X3563Y325D01*
X6Y324D02*
X14Y324D01*
X3555Y324D02*
X3563Y324D01*
X7Y323D02*
X14Y323D01*
X3555Y323D02*
X3562Y323D01*
X7Y322D02*
X14Y322D01*
X3555Y322D02*
X3562Y322D01*
X7Y321D02*
X14Y321D01*
X3555Y321D02*
X3562Y321D01*
X7Y320D02*
X14Y320D01*
X3555Y320D02*
X3562Y320D01*
X7Y319D02*
X14Y319D01*
X3555Y319D02*
X3562Y319D01*
X8Y318D02*
X15Y318D01*
X3554Y318D02*
X3561Y318D01*
X8Y317D02*
X15Y317D01*
X3554Y317D02*
X3561Y317D01*
X8Y316D02*
X15Y316D01*
X3554Y316D02*
X3561Y316D01*
X8Y315D02*
X15Y315D01*
X3554Y315D02*
X3561Y315D01*
X8Y314D02*
X16Y314D01*
X3553Y314D02*
X3561Y314D01*
X9Y313D02*
X16Y313D01*
X3553Y313D02*
X3560Y313D01*
X9Y312D02*
X16Y312D01*
X3553Y312D02*
X3560Y312D01*
X9Y311D02*
X16Y311D01*
X3553Y311D02*
X3560Y311D01*
X9Y310D02*
X16Y310D01*
X3553Y310D02*
X3560Y310D01*
X10Y309D02*
X17Y309D01*
X3552Y309D02*
X3559Y309D01*
X10Y308D02*
X17Y308D01*
X3552Y308D02*
X3559Y308D01*
X10Y307D02*
X17Y307D01*
X3552Y307D02*
X3559Y307D01*
X10Y306D02*
X17Y306D01*
X3552Y306D02*
X3559Y306D01*
X10Y305D02*
X18Y305D01*
X3551Y305D02*
X3559Y305D01*
X11Y304D02*
X18Y304D01*
X3551Y304D02*
X3558Y304D01*
X11Y303D02*
X18Y303D01*
X3551Y303D02*
X3558Y303D01*
X11Y302D02*
X18Y302D01*
X3551Y302D02*
X3558Y302D01*
X11Y301D02*
X19Y301D01*
X3550Y301D02*
X3558Y301D01*
X12Y300D02*
X19Y300D01*
X3550Y300D02*
X3557Y300D01*
X12Y299D02*
X19Y299D01*
X3550Y299D02*
X3557Y299D01*
X12Y298D02*
X19Y298D01*
X3550Y298D02*
X3557Y298D01*
X12Y297D02*
X20Y297D01*
X3549Y297D02*
X3557Y297D01*
X13Y296D02*
X20Y296D01*
X3549Y296D02*
X3556Y296D01*
X13Y295D02*
X20Y295D01*
X3549Y295D02*
X3556Y295D01*
X13Y294D02*
X20Y294D01*
X3549Y294D02*
X3556Y294D01*
X13Y293D02*
X21Y293D01*
X3548Y293D02*
X3556Y293D01*
X14Y292D02*
X21Y292D01*
X3548Y292D02*
X3555Y292D01*
X14Y291D02*
X21Y291D01*
X3548Y291D02*
X3555Y291D01*
X14Y290D02*
X21Y290D01*
X3548Y290D02*
X3555Y290D01*
X15Y289D02*
X22Y289D01*
X3547Y289D02*
X3554Y289D01*
X15Y288D02*
X22Y288D01*
X3547Y288D02*
X3554Y288D01*
X15Y287D02*
X22Y287D01*
X3547Y287D02*
X3554Y287D01*
X15Y286D02*
X23Y286D01*
X3546Y286D02*
X3554Y286D01*
X16Y285D02*
X23Y285D01*
X3546Y285D02*
X3553Y285D01*
X16Y284D02*
X23Y284D01*
X3546Y284D02*
X3553Y284D01*
X16Y283D02*
X24Y283D01*
X3545Y283D02*
X3553Y283D01*
X17Y282D02*
X24Y282D01*
X3545Y282D02*
X3552Y282D01*
X17Y281D02*
X24Y281D01*
X3545Y281D02*
X3552Y281D01*
X17Y280D02*
X24Y280D01*
X3545Y280D02*
X3552Y280D01*
X18Y279D02*
X25Y279D01*
X3544Y279D02*
X3551Y279D01*
X18Y278D02*
X25Y278D01*
X3544Y278D02*
X3551Y278D01*
X18Y277D02*
X25Y277D01*
X3544Y277D02*
X3551Y277D01*
X18Y276D02*
X26Y276D01*
X3543Y276D02*
X3551Y276D01*
X19Y275D02*
X26Y275D01*
X3543Y275D02*
X3550Y275D01*
X19Y274D02*
X27Y274D01*
X3542Y274D02*
X3550Y274D01*
X19Y273D02*
X27Y273D01*
X3542Y273D02*
X3550Y273D01*
X20Y272D02*
X27Y272D01*
X3542Y272D02*
X3549Y272D01*
X20Y271D02*
X28Y271D01*
X3541Y271D02*
X3549Y271D01*
X20Y270D02*
X28Y270D01*
X3541Y270D02*
X3549Y270D01*
X21Y269D02*
X28Y269D01*
X3541Y269D02*
X3548Y269D01*
X21Y268D02*
X29Y268D01*
X3540Y268D02*
X3548Y268D01*
X21Y267D02*
X29Y267D01*
X3540Y267D02*
X3548Y267D01*
X22Y266D02*
X29Y266D01*
X3540Y266D02*
X3547Y266D01*
X22Y265D02*
X30Y265D01*
X3539Y265D02*
X3547Y265D01*
X23Y264D02*
X30Y264D01*
X3539Y264D02*
X3546Y264D01*
X23Y263D02*
X30Y263D01*
X3539Y263D02*
X3546Y263D01*
X23Y262D02*
X31Y262D01*
X3538Y262D02*
X3546Y262D01*
X24Y261D02*
X31Y261D01*
X3538Y261D02*
X3545Y261D01*
X24Y260D02*
X31Y260D01*
X3538Y260D02*
X3545Y260D01*
X24Y259D02*
X32Y259D01*
X3537Y259D02*
X3545Y259D01*
X25Y258D02*
X32Y258D01*
X3537Y258D02*
X3544Y258D01*
X25Y257D02*
X33Y257D01*
X3536Y257D02*
X3544Y257D01*
X26Y256D02*
X33Y256D01*
X3536Y256D02*
X3543Y256D01*
X26Y255D02*
X33Y255D01*
X3536Y255D02*
X3543Y255D01*
X26Y254D02*
X34Y254D01*
X3535Y254D02*
X3543Y254D01*
X27Y253D02*
X34Y253D01*
X3535Y253D02*
X3542Y253D01*
X27Y252D02*
X35Y252D01*
X3534Y252D02*
X3542Y252D01*
X28Y251D02*
X35Y251D01*
X3534Y251D02*
X3541Y251D01*
X28Y250D02*
X35Y250D01*
X3534Y250D02*
X3541Y250D01*
X28Y249D02*
X36Y249D01*
X3533Y249D02*
X3541Y249D01*
X29Y248D02*
X36Y248D01*
X3533Y248D02*
X3540Y248D01*
X29Y247D02*
X37Y247D01*
X3532Y247D02*
X3540Y247D01*
X30Y246D02*
X37Y246D01*
X3532Y246D02*
X3539Y246D01*
X30Y245D02*
X37Y245D01*
X3532Y245D02*
X3539Y245D01*
X30Y244D02*
X38Y244D01*
X3531Y244D02*
X3539Y244D01*
X31Y243D02*
X38Y243D01*
X3531Y243D02*
X3538Y243D01*
X31Y242D02*
X39Y242D01*
X3530Y242D02*
X3538Y242D01*
X32Y241D02*
X39Y241D01*
X3530Y241D02*
X3537Y241D01*
X32Y240D02*
X40Y240D01*
X3529Y240D02*
X3537Y240D01*
X32Y239D02*
X40Y239D01*
X3529Y239D02*
X3537Y239D01*
X33Y238D02*
X41Y238D01*
X3528Y238D02*
X3536Y238D01*
X33Y237D02*
X41Y237D01*
X3528Y237D02*
X3536Y237D01*
X34Y236D02*
X41Y236D01*
X3528Y236D02*
X3535Y236D01*
X34Y235D02*
X42Y235D01*
X3527Y235D02*
X3535Y235D01*
X35Y234D02*
X42Y234D01*
X3527Y234D02*
X3534Y234D01*
X35Y233D02*
X43Y233D01*
X3526Y233D02*
X3534Y233D01*
X36Y232D02*
X43Y232D01*
X3526Y232D02*
X3533Y232D01*
X36Y231D02*
X44Y231D01*
X3525Y231D02*
X3533Y231D01*
X37Y230D02*
X44Y230D01*
X3525Y230D02*
X3532Y230D01*
X37Y229D02*
X45Y229D01*
X3524Y229D02*
X3532Y229D01*
X37Y228D02*
X45Y228D01*
X3524Y228D02*
X3532Y228D01*
X38Y227D02*
X46Y227D01*
X3523Y227D02*
X3531Y227D01*
X38Y226D02*
X46Y226D01*
X3523Y226D02*
X3531Y226D01*
X39Y225D02*
X47Y225D01*
X3522Y225D02*
X3530Y225D01*
X39Y224D02*
X47Y224D01*
X3522Y224D02*
X3530Y224D01*
X40Y223D02*
X48Y223D01*
X3521Y223D02*
X3529Y223D01*
X40Y222D02*
X48Y222D01*
X3521Y222D02*
X3529Y222D01*
X41Y221D02*
X49Y221D01*
X3520Y221D02*
X3528Y221D01*
X41Y220D02*
X49Y220D01*
X3520Y220D02*
X3528Y220D01*
X42Y219D02*
X50Y219D01*
X3519Y219D02*
X3527Y219D01*
X42Y218D02*
X50Y218D01*
X3519Y218D02*
X3527Y218D01*
X43Y217D02*
X51Y217D01*
X3518Y217D02*
X3526Y217D01*
X43Y216D02*
X51Y216D01*
X3518Y216D02*
X3526Y216D01*
X44Y215D02*
X52Y215D01*
X3517Y215D02*
X3525Y215D01*
X44Y214D02*
X52Y214D01*
X3517Y214D02*
X3525Y214D01*
X45Y213D02*
X53Y213D01*
X3516Y213D02*
X3524Y213D01*
X45Y212D02*
X53Y212D01*
X3516Y212D02*
X3524Y212D01*
X46Y211D02*
X54Y211D01*
X3515Y211D02*
X3523Y211D01*
X46Y210D02*
X54Y210D01*
X3515Y210D02*
X3523Y210D01*
X47Y209D02*
X55Y209D01*
X3514Y209D02*
X3522Y209D01*
X48Y208D02*
X56Y208D01*
X3513Y208D02*
X3521Y208D01*
X48Y207D02*
X56Y207D01*
X3513Y207D02*
X3521Y207D01*
X49Y206D02*
X57Y206D01*
X3512Y206D02*
X3520Y206D01*
X49Y205D02*
X57Y205D01*
X3512Y205D02*
X3520Y205D01*
X50Y204D02*
X58Y204D01*
X3511Y204D02*
X3519Y204D01*
X50Y203D02*
X58Y203D01*
X3511Y203D02*
X3519Y203D01*
X51Y202D02*
X59Y202D01*
X3510Y202D02*
X3518Y202D01*
X52Y201D02*
X60Y201D01*
X3509Y201D02*
X3517Y201D01*
X52Y200D02*
X60Y200D01*
X3509Y200D02*
X3517Y200D01*
X53Y199D02*
X61Y199D01*
X3508Y199D02*
X3516Y199D01*
X53Y198D02*
X61Y198D01*
X3508Y198D02*
X3516Y198D01*
X54Y197D02*
X62Y197D01*
X3507Y197D02*
X3515Y197D01*
X54Y196D02*
X63Y196D01*
X3506Y196D02*
X3515Y196D01*
X55Y195D02*
X63Y195D01*
X3506Y195D02*
X3514Y195D01*
X56Y194D02*
X64Y194D01*
X3505Y194D02*
X3513Y194D01*
X56Y193D02*
X64Y193D01*
X3505Y193D02*
X3513Y193D01*
X57Y192D02*
X65Y192D01*
X3504Y192D02*
X3512Y192D01*
X57Y191D02*
X66Y191D01*
X3503Y191D02*
X3512Y191D01*
X58Y190D02*
X66Y190D01*
X3503Y190D02*
X3511Y190D01*
X59Y189D02*
X67Y189D01*
X3502Y189D02*
X3510Y189D01*
X59Y188D02*
X68Y188D01*
X3501Y188D02*
X3510Y188D01*
X60Y187D02*
X68Y187D01*
X3501Y187D02*
X3509Y187D01*
X61Y186D02*
X69Y186D01*
X3500Y186D02*
X3508Y186D01*
X61Y185D02*
X70Y185D01*
X3499Y185D02*
X3508Y185D01*
X62Y184D02*
X70Y184D01*
X3499Y184D02*
X3507Y184D01*
X62Y183D02*
X71Y183D01*
X3498Y183D02*
X3507Y183D01*
X63Y182D02*
X72Y182D01*
X3497Y182D02*
X3506Y182D01*
X64Y181D02*
X72Y181D01*
X3497Y181D02*
X3505Y181D01*
X64Y180D02*
X73Y180D01*
X3496Y180D02*
X3505Y180D01*
X65Y179D02*
X73Y179D01*
X3496Y179D02*
X3504Y179D01*
X66Y178D02*
X74Y178D01*
X3495Y178D02*
X3503Y178D01*
X66Y177D02*
X75Y177D01*
X3494Y177D02*
X3503Y177D01*
X67Y176D02*
X76Y176D01*
X3493Y176D02*
X3502Y176D01*
X68Y175D02*
X76Y175D01*
X3493Y175D02*
X3501Y175D01*
X68Y174D02*
X77Y174D01*
X3492Y174D02*
X3501Y174D01*
X69Y173D02*
X78Y173D01*
X3491Y173D02*
X3500Y173D01*
X70Y172D02*
X78Y172D01*
X3490Y172D02*
X3499Y172D01*
X70Y171D02*
X79Y171D01*
X3490Y171D02*
X3499Y171D01*
X71Y170D02*
X80Y170D01*
X3489Y170D02*
X3498Y170D01*
X72Y169D02*
X81Y169D01*
X3488Y169D02*
X3497Y169D01*
X73Y168D02*
X81Y168D01*
X3488Y168D02*
X3496Y168D01*
X73Y167D02*
X82Y167D01*
X3487Y167D02*
X3496Y167D01*
X74Y166D02*
X83Y166D01*
X3486Y166D02*
X3495Y166D01*
X75Y165D02*
X84Y165D01*
X3485Y165D02*
X3494Y165D01*
X75Y164D02*
X84Y164D01*
X3485Y164D02*
X3494Y164D01*
X76Y163D02*
X85Y163D01*
X3484Y163D02*
X3493Y163D01*
X77Y162D02*
X86Y162D01*
X3483Y162D02*
X3492Y162D01*
X78Y161D02*
X87Y161D01*
X3482Y161D02*
X3491Y161D01*
X78Y160D02*
X87Y160D01*
X3482Y160D02*
X3491Y160D01*
X79Y159D02*
X88Y159D01*
X3481Y159D02*
X3490Y159D01*
X80Y158D02*
X89Y158D01*
X3480Y158D02*
X3489Y158D01*
X81Y157D02*
X90Y157D01*
X3479Y157D02*
X3488Y157D01*
X81Y156D02*
X91Y156D01*
X3478Y156D02*
X3488Y156D01*
X82Y155D02*
X91Y155D01*
X3478Y155D02*
X3487Y155D01*
X83Y154D02*
X92Y154D01*
X3477Y154D02*
X3486Y154D01*
X84Y153D02*
X93Y153D01*
X3476Y153D02*
X3485Y153D01*
X85Y152D02*
X94Y152D01*
X3475Y152D02*
X3484Y152D01*
X85Y151D02*
X95Y151D01*
X3474Y151D02*
X3484Y151D01*
X86Y150D02*
X95Y150D01*
X3474Y150D02*
X3483Y150D01*
X87Y149D02*
X96Y149D01*
X3473Y149D02*
X3482Y149D01*
X88Y148D02*
X97Y148D01*
X3472Y148D02*
X3481Y148D01*
X89Y147D02*
X98Y147D01*
X3471Y147D02*
X3480Y147D01*
X89Y146D02*
X99Y146D01*
X3470Y146D02*
X3480Y146D01*
X90Y145D02*
X100Y145D01*
X3469Y145D02*
X3479Y145D01*
X91Y144D02*
X101Y144D01*
X3468Y144D02*
X3478Y144D01*
X92Y143D02*
X101Y143D01*
X3468Y143D02*
X3477Y143D01*
X93Y142D02*
X102Y142D01*
X3467Y142D02*
X3476Y142D01*
X94Y141D02*
X103Y141D01*
X3466Y141D02*
X3475Y141D01*
X94Y140D02*
X104Y140D01*
X3465Y140D02*
X3475Y140D01*
X95Y139D02*
X105Y139D01*
X3464Y139D02*
X3474Y139D01*
X96Y138D02*
X106Y138D01*
X3463Y138D02*
X3473Y138D01*
X97Y137D02*
X107Y137D01*
X3462Y137D02*
X3472Y137D01*
X98Y136D02*
X108Y136D01*
X3461Y136D02*
X3471Y136D01*
X99Y135D02*
X108Y135D01*
X3461Y135D02*
X3470Y135D01*
X100Y134D02*
X109Y134D01*
X3460Y134D02*
X3469Y134D01*
X101Y133D02*
X110Y133D01*
X3459Y133D02*
X3468Y133D01*
X101Y132D02*
X111Y132D01*
X3458Y132D02*
X3468Y132D01*
X102Y131D02*
X112Y131D01*
X3457Y131D02*
X3467Y131D01*
X103Y130D02*
X113Y130D01*
X3456Y130D02*
X3466Y130D01*
X104Y129D02*
X114Y129D01*
X3455Y129D02*
X3465Y129D01*
X105Y128D02*
X115Y128D01*
X3454Y128D02*
X3464Y128D01*
X106Y127D02*
X116Y127D01*
X3453Y127D02*
X3463Y127D01*
X107Y126D02*
X117Y126D01*
X3452Y126D02*
X3462Y126D01*
X108Y125D02*
X118Y125D01*
X3451Y125D02*
X3461Y125D01*
X109Y124D02*
X119Y124D01*
X3450Y124D02*
X3460Y124D01*
X110Y123D02*
X120Y123D01*
X3449Y123D02*
X3459Y123D01*
X111Y122D02*
X121Y122D01*
X3448Y122D02*
X3458Y122D01*
X112Y121D02*
X122Y121D01*
X3447Y121D02*
X3457Y121D01*
X113Y120D02*
X123Y120D01*
X3446Y120D02*
X3456Y120D01*
X114Y119D02*
X124Y119D01*
X3445Y119D02*
X3455Y119D01*
X115Y118D02*
X125Y118D01*
X3444Y118D02*
X3454Y118D01*
X116Y117D02*
X126Y117D01*
X3443Y117D02*
X3453Y117D01*
X117Y116D02*
X127Y116D01*
X3442Y116D02*
X3452Y116D01*
X118Y115D02*
X128Y115D01*
X3441Y115D02*
X3451Y115D01*
X119Y114D02*
X129Y114D01*
X3440Y114D02*
X3450Y114D01*
X120Y113D02*
X130Y113D01*
X3439Y113D02*
X3449Y113D01*
X121Y112D02*
X132Y112D01*
X3437Y112D02*
X3448Y112D01*
X122Y111D02*
X133Y111D01*
X3436Y111D02*
X3447Y111D01*
X123Y110D02*
X134Y110D01*
X3435Y110D02*
X3446Y110D01*
X124Y109D02*
X135Y109D01*
X3434Y109D02*
X3445Y109D01*
X125Y108D02*
X136Y108D01*
X3433Y108D02*
X3444Y108D01*
X126Y107D02*
X137Y107D01*
X3432Y107D02*
X3443Y107D01*
X127Y106D02*
X138Y106D01*
X3431Y106D02*
X3442Y106D01*
X128Y105D02*
X139Y105D01*
X3430Y105D02*
X3441Y105D01*
X129Y104D02*
X141Y104D01*
X3428Y104D02*
X3440Y104D01*
X130Y103D02*
X142Y103D01*
X3427Y103D02*
X3439Y103D01*
X132Y102D02*
X143Y102D01*
X3426Y102D02*
X3437Y102D01*
X133Y101D02*
X144Y101D01*
X3425Y101D02*
X3436Y101D01*
X134Y100D02*
X145Y100D01*
X3424Y100D02*
X3435Y100D01*
X135Y99D02*
X146Y99D01*
X3423Y99D02*
X3434Y99D01*
X136Y98D02*
X148Y98D01*
X3421Y98D02*
X3433Y98D01*
X137Y97D02*
X149Y97D01*
X3420Y97D02*
X3432Y97D01*
X139Y96D02*
X150Y96D01*
X3419Y96D02*
X3430Y96D01*
X140Y95D02*
X151Y95D01*
X3418Y95D02*
X3429Y95D01*
X141Y94D02*
X153Y94D01*
X3416Y94D02*
X3428Y94D01*
X142Y93D02*
X154Y93D01*
X3415Y93D02*
X3427Y93D01*
X143Y92D02*
X155Y92D01*
X3414Y92D02*
X3426Y92D01*
X144Y91D02*
X156Y91D01*
X3413Y91D02*
X3425Y91D01*
X146Y90D02*
X158Y90D01*
X3411Y90D02*
X3423Y90D01*
X147Y89D02*
X159Y89D01*
X3410Y89D02*
X3422Y89D01*
X148Y88D02*
X160Y88D01*
X3409Y88D02*
X3421Y88D01*
X150Y87D02*
X162Y87D01*
X3407Y87D02*
X3419Y87D01*
X151Y86D02*
X163Y86D01*
X3406Y86D02*
X3418Y86D01*
X152Y85D02*
X164Y85D01*
X3405Y85D02*
X3417Y85D01*
X153Y84D02*
X166Y84D01*
X3403Y84D02*
X3416Y84D01*
X155Y83D02*
X167Y83D01*
X3402Y83D02*
X3414Y83D01*
X156Y82D02*
X168Y82D01*
X3401Y82D02*
X3413Y82D01*
X157Y81D02*
X170Y81D01*
X3399Y81D02*
X3412Y81D01*
X159Y80D02*
X171Y80D01*
X3398Y80D02*
X3410Y80D01*
X160Y79D02*
X173Y79D01*
X3396Y79D02*
X3409Y79D01*
X161Y78D02*
X174Y78D01*
X3395Y78D02*
X3408Y78D01*
X163Y77D02*
X176Y77D01*
X3393Y77D02*
X3406Y77D01*
X164Y76D02*
X177Y76D01*
X3392Y76D02*
X3405Y76D01*
X166Y75D02*
X178Y75D01*
X3391Y75D02*
X3403Y75D01*
X167Y74D02*
X180Y74D01*
X3389Y74D02*
X3402Y74D01*
X168Y73D02*
X182Y73D01*
X3387Y73D02*
X3401Y73D01*
X170Y72D02*
X183Y72D01*
X3386Y72D02*
X3399Y72D01*
X171Y71D02*
X185Y71D01*
X3384Y71D02*
X3398Y71D01*
X173Y70D02*
X186Y70D01*
X3383Y70D02*
X3396Y70D01*
X174Y69D02*
X188Y69D01*
X3381Y69D02*
X3395Y69D01*
X176Y68D02*
X189Y68D01*
X3380Y68D02*
X3393Y68D01*
X177Y67D02*
X191Y67D01*
X3378Y67D02*
X3392Y67D01*
X179Y66D02*
X193Y66D01*
X3376Y66D02*
X3390Y66D01*
X180Y65D02*
X194Y65D01*
X3375Y65D02*
X3389Y65D01*
X182Y64D02*
X196Y64D01*
X3373Y64D02*
X3387Y64D01*
X184Y63D02*
X198Y63D01*
X3371Y63D02*
X3385Y63D01*
X185Y62D02*
X199Y62D01*
X3370Y62D02*
X3384Y62D01*
X187Y61D02*
X201Y61D01*
X3368Y61D02*
X3382Y61D01*
X188Y60D02*
X203Y60D01*
X3366Y60D02*
X3381Y60D01*
X190Y59D02*
X205Y59D01*
X3364Y59D02*
X3379Y59D01*
X191Y58D02*
X206Y58D01*
X3363Y58D02*
X3378Y58D01*
X193Y57D02*
X208Y57D01*
X3361Y57D02*
X3376Y57D01*
X195Y56D02*
X210Y56D01*
X3359Y56D02*
X3374Y56D01*
X197Y55D02*
X212Y55D01*
X3357Y55D02*
X3372Y55D01*
X198Y54D02*
X214Y54D01*
X3355Y54D02*
X3371Y54D01*
X200Y53D02*
X216Y53D01*
X3353Y53D02*
X3369Y53D01*
X202Y52D02*
X218Y52D01*
X3351Y52D02*
X3367Y52D01*
X204Y51D02*
X220Y51D01*
X3349Y51D02*
X3365Y51D01*
X205Y50D02*
X222Y50D01*
X3347Y50D02*
X3364Y50D01*
X207Y49D02*
X224Y49D01*
X3345Y49D02*
X3362Y49D01*
X209Y48D02*
X226Y48D01*
X3343Y48D02*
X3360Y48D01*
X211Y47D02*
X228Y47D01*
X3341Y47D02*
X3358Y47D01*
X213Y46D02*
X230Y46D01*
X3339Y46D02*
X3356Y46D01*
X215Y45D02*
X232Y45D01*
X3337Y45D02*
X3354Y45D01*
X217Y44D02*
X234Y44D01*
X3335Y44D02*
X3352Y44D01*
X219Y43D02*
X237Y43D01*
X3332Y43D02*
X3350Y43D01*
X221Y42D02*
X239Y42D01*
X3330Y42D02*
X3348Y42D01*
X223Y41D02*
X241Y41D01*
X3328Y41D02*
X3346Y41D01*
X225Y40D02*
X243Y40D01*
X3326Y40D02*
X3344Y40D01*
X227Y39D02*
X246Y39D01*
X3323Y39D02*
X3342Y39D01*
X229Y38D02*
X248Y38D01*
X3321Y38D02*
X3340Y38D01*
X232Y37D02*
X251Y37D01*
X3318Y37D02*
X3337Y37D01*
X234Y36D02*
X253Y36D01*
X3316Y36D02*
X3335Y36D01*
X236Y35D02*
X256Y35D01*
X3313Y35D02*
X3333Y35D01*
X238Y34D02*
X258Y34D01*
X3311Y34D02*
X3331Y34D01*
X241Y33D02*
X261Y33D01*
X3308Y33D02*
X3328Y33D01*
X243Y32D02*
X264Y32D01*
X3305Y32D02*
X3326Y32D01*
X246Y31D02*
X267Y31D01*
X3302Y31D02*
X3323Y31D01*
X248Y30D02*
X270Y30D01*
X3299Y30D02*
X3321Y30D01*
X251Y29D02*
X273Y29D01*
X3296Y29D02*
X3318Y29D01*
X253Y28D02*
X276Y28D01*
X3293Y28D02*
X3316Y28D01*
X256Y27D02*
X279Y27D01*
X3290Y27D02*
X3313Y27D01*
X258Y26D02*
X282Y26D01*
X3287Y26D02*
X3311Y26D01*
X261Y25D02*
X285Y25D01*
X3284Y25D02*
X3308Y25D01*
X264Y24D02*
X289Y24D01*
X3280Y24D02*
X3305Y24D01*
X267Y23D02*
X293Y23D01*
X3276Y23D02*
X3302Y23D01*
X270Y22D02*
X296Y22D01*
X3273Y22D02*
X3299Y22D01*
X273Y21D02*
X300Y21D01*
X3269Y21D02*
X3296Y21D01*
X276Y20D02*
X304Y20D01*
X3265Y20D02*
X3293Y20D01*
X279Y19D02*
X309Y19D01*
X3260Y19D02*
X3290Y19D01*
X282Y18D02*
X313Y18D01*
X3256Y18D02*
X3287Y18D01*
X286Y17D02*
X318Y17D01*
X3251Y17D02*
X3283Y17D01*
X289Y16D02*
X323Y16D01*
X3246Y16D02*
X3280Y16D01*
X293Y15D02*
X329Y15D01*
X3240Y15D02*
X3276Y15D01*
X297Y14D02*
X335Y14D01*
X3234Y14D02*
X3272Y14D01*
X301Y13D02*
X342Y13D01*
X3227Y13D02*
X3268Y13D01*
X305Y12D02*
X351Y12D01*
X3218Y12D02*
X3264Y12D01*
X309Y11D02*
X361Y11D01*
X3208Y11D02*
X3260Y11D01*
X314Y10D02*
X375Y10D01*
X3194Y10D02*
X3255Y10D01*
X319Y9D02*
X3250Y9D01*
X324Y8D02*
X3245Y8D01*
X330Y7D02*
X3239Y7D01*
X336Y6D02*
X3233Y6D01*
X343Y5D02*
X3226Y5D01*
X351Y4D02*
X3218Y4D01*
X362Y3D02*
X3207Y3D01*
X376Y2D02*
X3193Y2D01*
D02*
G04 End of Silk0*
M02*