; NON-PLATED HOLES START AT T1
; THROUGH (PLATED) HOLES START AT T100
M48
INCH
T100C0.030000
T101C0.015748
T102C0.027559
T103C0.035000
T104C0.038000
%
T100
X004421Y011606
X002421Y019606
X034422Y006606
X004421Y010604
X001420Y019606
X033420Y006606
T101
X022422Y003606
X023422Y008606
X031422Y000606
X023422Y005606
X021422Y008606
X016422Y014606
X026422Y005606
X027422Y005606
X016422Y015606
X016422Y016606
X031422Y025606
T102
X033422Y002606
X034422Y002606
X002421Y015606
X001421Y015606
T103
X001421Y002606
X005421Y002606
T104
X020421Y011606
X030421Y011606
X030421Y009606
X030421Y018606
X003421Y022606
X020421Y012606
X033422Y011606
X033422Y013606
X014422Y002606
X020421Y009606
X030421Y013606
X030421Y008606
X030421Y007606
X030421Y016606
X020421Y008606
X030421Y012606
X020421Y017606
X030421Y006606
X020421Y018606
X020421Y015606
X030421Y015606
X020421Y013606
X033422Y014606
X020421Y014606
X030421Y010606
X030421Y019606
X001421Y022606
X020421Y019606
X030421Y014606
X020421Y010606
X020421Y020606
X020421Y006606
X020421Y016606
X033422Y012606
X030421Y020606
X030421Y017606
X002421Y022606
X004421Y022606
X020421Y007606
X013422Y002606
T00
M30
