<?xml version='1.0' encoding='UTF-8' standalone='no'?>
<!-- Created with Fritzing (http://www.fritzing.org/) -->
<svg xmlns="http://www.w3.org/2000/svg" viewBox="0 0 141.732 300.472" x="0in"  y="0in" version="1.2" baseProfile="tiny" width="1.9685in" height="4.17323in" xmlns:svg="http://www.w3.org/2000/svg">
 <g transform="matrix(-1, 0, 0, 1, 141.732, 0)">
  <g partID="855337740">
   <g  id="board">
    <rect rx="28.3465" x="0.288"  stroke-width="0.5" fill="none" y="0.288" ry="28.3465" id="boardoutline" width="141.156" fill-opacity="0.5" height="299.897" stroke="black"/>
   </g>
  </g>
  <g partID="855321162">
   <g transform="translate(5.7688,244.116)">
    <g transform="matrix(1,0,0,1,0,0)">
     <g  id="copper1">
      <circle  stroke-width="2.16" fill="black" r="1.8" cx="2.88" id="connector0pin" cy="2.88" stroke="black"/>
      <circle  stroke-width="2.16" fill="black" r="1.8" cx="10.0933" id="connector1pin" cy="2.88" stroke="black"/>
     </g>
    </g>
   </g>
  </g>
  <g partID="855200190">
   <g transform="translate(42.5232,8.01503)">
    <g  id="copper1">
     <path d="M4.25197,13.7112L4.25197,17.9631L7.2e-07,17.9631l0,-4.25197z"  stroke-width="0.72" fill="black" id="connector0pad" stroke="black"/>
     <path d="m4.25197,20.9112l0,4.25197L7.2e-07,25.1631L7.2e-07,20.9112Z"  stroke-width="0.72" fill="black" id="connector1pad" stroke="black"/>
     <path d="m4.25197,28.1112l0,4.25197L7.2e-07,32.3631l0,-4.25197z"  stroke-width="0.72" fill="black" id="connector2pad" stroke="black"/>
     <path d="m4.25197,49.6545l0,4.25197L0,53.9065l0,-4.25197z"  stroke-width="0.72" fill="black" id="connector3pad" stroke="black"/>
     <path d="m4.25197,56.8545l0,4.25197L7.2e-07,61.1065l0,-4.25197z"  stroke-width="0.72" fill="black" id="connector4pad" stroke="black"/>
     <path d="m4.25197,64.0545l0,4.25197L0,68.3065L0,64.0545Z"  stroke-width="0.72" fill="black" id="connector5pad" stroke="black"/>
     <path d="m4.25197,71.2545l0,4.25198L0,75.5064l0,-4.25198z"  stroke-width="0.72" fill="black" id="connector6pad" stroke="black"/>
     <path d="m4.25197,78.4548l0,4.25197L0,82.7064l0,-4.25197z"  stroke-width="0.72" fill="black" id="connector7pad" stroke="black"/>
     <path d="m4.25197,85.6548l0,4.25197L0,89.9064l0,-4.25197z"  stroke-width="0.72" fill="black" id="connector8pad" stroke="black"/>
     <path d="m4.25197,92.8548l0,4.25197L7.2e-07,97.1064l0,-4.25197z"  stroke-width="0.72" fill="black" id="connector9pad" stroke="black"/>
     <path d="m4.25197,100.055l0,4.25197L7.2e-07,104.306l0,-4.25197z"  stroke-width="0.72" fill="black" id="connector10pad" stroke="black"/>
     <path d="m70.0157,100.055l0,4.25197l-4.25197,0l0,-4.25197z"  stroke-width="0.72" fill="black" id="connector11pad" stroke="black"/>
     <path d="m70.0157,92.8548l0,4.25197l-4.25197,0l0,-4.25197z"  stroke-width="0.72" fill="black" id="connector12pad" stroke="black"/>
     <path d="m70.0157,85.6548l0,4.25197l-4.25197,0l0,-4.25197z"  stroke-width="0.72" fill="black" id="connector13pad" stroke="black"/>
     <path d="m70.0157,78.4548l0,4.25197l-4.25197,0l0,-4.25197z"  stroke-width="0.72" fill="black" id="connector14pad" stroke="black"/>
     <path d="m70.0157,71.2545l0,4.25197l-4.25197,0l0,-4.25197z"  stroke-width="0.72" fill="black" id="connector15pad" stroke="black"/>
     <path d="m70.0157,64.0545l0,4.25197L65.7638,68.3065L65.7638,64.0545Z"  stroke-width="0.72" fill="black" id="connector16pad" stroke="black"/>
     <path d="M70.0157,56.8545L70.0157,61.1065l-4.25197,0l0,-4.25197z"  stroke-width="0.72" fill="black" id="connector17pad" stroke="black"/>
     <path d="m70.0157,49.6545l0,4.25197l-4.25197,0l0,-4.25197z"  stroke-width="0.72" fill="black" id="connector18pad" stroke="black"/>
     <path d="m70.0157,28.1112l0,4.25197l-4.25197,0l0,-4.25197z"  stroke-width="0.72" fill="black" id="connector19pad" stroke="black"/>
     <path d="m70.0157,20.9112l0,4.25197L65.7638,25.1631L65.7638,20.9112Z"  stroke-width="0.72" fill="black" id="connector20pad" stroke="black"/>
     <path d="m70.0157,13.7112l0,4.25197l-4.25197,0l0,-4.25197z"  stroke-width="0.72" fill="black" id="connector21pad" stroke="black"/>
    </g>
   </g>
  </g>
  <g partID="855321202">
   <g transform="translate(128.169,186.516)">
    <g transform="matrix(1,0,0,1,0,0)">
     <g  id="copper1">
      <circle  stroke-width="2.16" fill="black" r="1.8" cx="2.88" id="connector0pin" cy="2.88" stroke="black"/>
      <circle  stroke-width="2.16" fill="black" r="1.8" cx="10.0933" id="connector1pin" cy="2.88" stroke="black"/>
     </g>
    </g>
   </g>
  </g>
  <g partID="855321282">
   <g transform="translate(30.9688,109.476)">
    <g transform="matrix(0,-1,1,0,0,0)">
     <g  id="copper1">
      <circle  stroke-width="2.16" fill="black" r="1.8" cx="2.88" id="connector0pin" cy="2.88" stroke="black"/>
      <circle  stroke-width="2.16" fill="black" r="1.8" cx="10.0933" id="connector1pin" cy="2.88" stroke="black"/>
     </g>
    </g>
   </g>
  </g>
  <g partID="855321212">
   <g transform="translate(117.948,208.695)">
    <g  id="copper1">
     <circle connectorname="2"  stroke-width="2.06788" fill="black" r="1.66607" cx="5.90061" id="connector1pad" cy="9.50062" stroke="black"/>
     <circle connectorname="1"  stroke-width="2.06788" fill="black" r="1.66607" cx="13.1006" id="connector0pad" cy="9.50062" stroke="black"/>
     <path d="m10.7606,7.16061,4.68001,0,0,4.68001,-4.68001,0,0,-4.68001zM12.1085,9.50062a0.992128,0.992128,0,1,0,1.98426,0,0.992128,0.992128,0,1,0,-1.98426,0z"  stroke-width="0.72" fill="black" stroke="black"/>
     <g  id="copper0">
      <circle connectorname="2"  stroke-width="2.06788" fill="black" r="1.66607" cx="5.90061" id="connector1pad" cy="9.50062" stroke="black"/>
      <circle connectorname="1"  stroke-width="2.06788" fill="black" r="1.66607" cx="13.1006" id="connector0pad" cy="9.50062" stroke="black"/>
      <path d="m10.7606,7.16061,4.68001,0,0,4.68001,-4.68001,0,0,-4.68001zM12.1085,9.50062a0.992128,0.992128,0,1,0,1.98426,0,0.992128,0.992128,0,1,0,-1.98426,0z"  stroke-width="0.72" fill="black" stroke="black"/>
     </g>
    </g>
   </g>
  </g>
  <g partID="855321182">
   <g transform="translate(2.748,266.295)">
    <g  id="copper1">
     <circle connectorname="2"  stroke-width="2.06788" fill="black" r="1.66607" cx="5.90061" id="connector1pad" cy="9.50062" stroke="black"/>
     <circle connectorname="1"  stroke-width="2.06788" fill="black" r="1.66607" cx="13.1006" id="connector0pad" cy="9.50062" stroke="black"/>
     <path d="m10.7606,7.16061,4.68001,0,0,4.68001,-4.68001,0,0,-4.68001zM12.1085,9.50062a0.992128,0.992128,0,1,0,1.98426,0,0.992128,0.992128,0,1,0,-1.98426,0z"  stroke-width="0.72" fill="black" stroke="black"/>
     <g  id="copper0">
      <circle connectorname="2"  stroke-width="2.06788" fill="black" r="1.66607" cx="5.90061" id="connector1pad" cy="9.50062" stroke="black"/>
      <circle connectorname="1"  stroke-width="2.06788" fill="black" r="1.66607" cx="13.1006" id="connector0pad" cy="9.50062" stroke="black"/>
      <path d="m10.7606,7.16061,4.68001,0,0,4.68001,-4.68001,0,0,-4.68001zM12.1085,9.50062a0.992128,0.992128,0,1,0,1.98426,0,0.992128,0.992128,0,1,0,-1.98426,0z"  stroke-width="0.72" fill="black" stroke="black"/>
     </g>
    </g>
   </g>
  </g>
  <g partID="855321242">
   <g transform="translate(134.145,237.096)">
    <g transform="matrix(0,1,-1,0,0,0)">
     <g  id="copper1">
      <!-- <rect width="55" x="10" y="15.5" fill="none" height="55" stroke="rgb(255, 191, 0)" stroke-width="20" />  -->
      <circle  stroke-width="2.16" fill="black" r="1.98" cx="2.7" cy="3.096" id="connector0pin" stroke="black"/>
      <circle  stroke-width="2.16" fill="black" r="1.98" cx="31.5" cy="3.096" id="connector1pin" stroke="black"/>
     </g>
    </g>
   </g>
  </g>
  <g partID="855321302">
   <g transform="translate(13.6888,223.236)">
    <g transform="matrix(-1,0,0,-1,0,0)">
     <g  id="copper1">
      <g  id="copper0">
       <rect x="2.952"  stroke-width="2.16" fill="black" y="2.952" id="square" width="4.176" height="4.176" stroke="black"/>
       <circle  stroke-width="2.16" fill="black" r="2.088" cx="5.04" cy="5.04" id="connector0pin" stroke="black"/>
       <circle  stroke-width="2.16" fill="black" r="2.088" cx="5.04" cy="12.24" id="connector1pin" stroke="black"/>
       <circle  stroke-width="2.16" fill="black" r="2.088" cx="5.04" cy="19.44" id="connector2pin" stroke="black"/>
       <circle  stroke-width="2.16" fill="black" r="2.088" cx="5.04" cy="26.64" id="connector3pin" stroke="black"/>
      </g>
     </g>
    </g>
   </g>
  </g>
  <g partID="855321322">
   <g transform="translate(126.009,141.156)">
    <g  id="copper1">
     <g  id="copper0">
      <rect x="2.952"  stroke-width="2.16" fill="black" y="2.952" id="square" width="4.176" height="4.176" stroke="black"/>
      <circle  stroke-width="2.16" fill="black" r="2.088" cx="5.04" cy="5.04" id="connector0pin" stroke="black"/>
      <circle  stroke-width="2.16" fill="black" r="2.088" cx="5.04" cy="12.24" id="connector1pin" stroke="black"/>
      <circle  stroke-width="2.16" fill="black" r="2.088" cx="5.04" cy="19.44" id="connector2pin" stroke="black"/>
      <circle  stroke-width="2.16" fill="black" r="2.088" cx="5.04" cy="26.64" id="connector3pin" stroke="black"/>
     </g>
    </g>
   </g>
  </g>
  <g partID="855321342">
   <g transform="translate(136.089,277.956)">
    <g transform="matrix(5.55112e-17,1,-1,5.55112e-17,0,0)">
     <g  id="copper1">
      <g  id="copper0">
       <rect x="2.952"  stroke-width="2.16" fill="black" y="2.952" id="square" width="4.176" height="4.176" stroke="black"/>
       <circle  stroke-width="2.16" fill="black" r="2.088" cx="5.04" cy="5.04" id="connector0pin" stroke="black"/>
       <circle  stroke-width="2.16" fill="black" r="2.088" cx="5.04" cy="12.24" id="connector1pin" stroke="black"/>
      </g>
     </g>
    </g>
   </g>
  </g>
  <g partID="855343371">
   <g transform="translate(99.2312,56.7782)">
    <g  id="copper1">
     <circle  stroke-width="1.57039" fill="black" r="0.992124" cx="3.01732" cy="3.01732" id="connector0pin" stroke="black"/>
    </g>
   </g>
  </g>
  <g partID="855343391">
   <g transform="translate(99.2312,85.5779)">
    <g  id="copper1">
     <circle  stroke-width="1.57039" fill="black" r="0.992124" cx="3.01732" cy="3.01732" id="connector0pin" stroke="black"/>
    </g>
   </g>
  </g>
  <g partID="855347531">
   <g transform="translate(48.8312,157.578)">
    <g  id="copper1">
     <circle  stroke-width="1.57039" fill="black" r="0.992124" cx="3.01732" cy="3.01732" id="connector0pin" stroke="black"/>
    </g>
   </g>
  </g>
  <g partID="855348781">
   <g transform="translate(48.8312,78.3782)">
    <g  id="copper1">
     <circle  stroke-width="1.57039" fill="black" r="0.992124" cx="3.01732" cy="3.01732" id="connector0pin" stroke="black"/>
    </g>
   </g>
  </g>
  <g partID="855348801">
   <g transform="translate(63.2312,121.578)">
    <g  id="copper1">
     <circle  stroke-width="1.57039" fill="black" r="0.992124" cx="3.01732" cy="3.01732" id="connector0pin" stroke="black"/>
    </g>
   </g>
  </g>
  <g partID="855354091">
   <g transform="translate(56.0312,179.178)">
    <g  id="copper1">
     <circle  stroke-width="1.57039" fill="black" r="0.992124" cx="3.01732" cy="3.01732" id="connector0pin" stroke="black"/>
    </g>
   </g>
  </g>
  <g partID="855374982">
   <g transform="translate(33.1061,130.367)">
    <g  id="copper1">
     <g  id="copper0">
      <circle  stroke-width="1.224" fill="black" r="1.62" gorn="0.4.0.0" cx="76.3427" cy="116.628" id="connector0pin" stroke="black"/>
      <path d="m80.0049,116.629a1.87105,1.87105,0,0,1,-1.87105,1.87108l-3.7421,0a1.87105,1.87105,0,0,1,-1.87105,-1.87108l0,0a1.87105,1.87105,0,0,1,1.87105,-1.87108l3.7421,0a1.87105,1.87105,0,0,1,1.87105,1.87108zm-3.79649,-1.14761a1.15148,1.15148,0,1,0,0,2.30296,1.15148,1.15148,0,1,0,0,-2.30296z"  stroke-width="1.43963" fill="black" gorn="0.4.0.1" id="path423" stroke="black"/>
      <circle  stroke-width="1.224" fill="black" r="1.62" gorn="0.4.0.2" cx="76.3427" cy="109.428" id="connector1pin" stroke="black"/>
      <path d="m80.0107,109.429a1.87105,1.87105,0,0,1,-1.87105,1.87108l-3.7421,0a1.87105,1.87105,0,0,1,-1.87105,-1.87108l0,0a1.87105,1.87105,0,0,1,1.87105,-1.87108l3.7421,0a1.87105,1.87105,0,0,1,1.87105,1.87108zm-3.79649,-1.14732a1.15142,1.15142,0,1,0,0,2.30266,1.15142,1.15142,0,1,0,0,-2.30266z"  stroke-width="1.43963" fill="black" gorn="0.4.0.3" id="path467" stroke="black"/>
      <circle  stroke-width="1.224" fill="black" r="1.62" gorn="0.4.0.4" cx="76.3427" cy="102.228" id="connector2pin" stroke="black"/>
      <path d="m80.015,102.229a1.872,1.87105,0,0,1,-1.872,1.87108l-3.744,0a1.872,1.87105,0,0,1,-1.872,-1.87108l0,0a1.872,1.87105,0,0,1,1.872,-1.87108l3.744,0a1.872,1.87105,0,0,1,1.872,1.87108zm-3.79842,-1.14761a1.152,1.15142,0,1,0,0,2.30267,1.152,1.15142,0,1,0,0,-2.30267z"  stroke-width="1.43963" fill="black" gorn="0.4.0.5" id="path13574-4" stroke="black"/>
      <circle  stroke-width="1.224" fill="black" r="1.62" gorn="0.4.0.6" cx="76.3427" cy="95.0281" id="connector3pin" stroke="black"/>
      <path d="m80.0107,95.0292a1.87105,1.87105,0,0,1,-1.87105,1.87108l-3.7421,0a1.87105,1.87105,0,0,1,-1.87105,-1.87108l0,0a1.87105,1.87105,0,0,1,1.87105,-1.87108l3.7421,0a1.87105,1.87105,0,0,1,1.87105,1.87108zm-3.79649,-1.14733a1.15142,1.15142,0,1,0,0,2.30267,1.15142,1.15142,0,1,0,0,-2.30267z"  stroke-width="1.43963" fill="black" gorn="0.4.0.7" id="path461" stroke="black"/>
      <circle  stroke-width="1.224" fill="black" r="1.62" gorn="0.4.0.8" cx="76.3427" cy="87.8281" id="connector4pin" stroke="black"/>
      <path d="m80.015,87.8292a1.872,1.87105,0,0,1,-1.872,1.87108l-3.744,0a1.872,1.87105,0,0,1,-1.872,-1.87108l0,0a1.872,1.87105,0,0,1,1.872,-1.87108l3.744,0a1.872,1.87105,0,0,1,1.872,1.87108zm-3.79842,-1.14732a1.15206,1.15148,0,1,0,0,2.30296,1.15206,1.15148,0,1,0,0,-2.30296z"  stroke-width="1.43963" fill="black" gorn="0.4.0.9" id="path459" stroke="black"/>
      <circle  stroke-width="1.224" fill="black" r="1.62" gorn="0.4.0.10" cx="76.3427" cy="80.6281" id="connector5pin" stroke="black"/>
      <path d="m80.0107,80.6292a1.87105,1.87105,0,0,1,-1.87105,1.87108l-3.7421,0a1.87105,1.87105,0,0,1,-1.87105,-1.87108l0,0a1.87105,1.87105,0,0,1,1.87105,-1.87108l3.7421,0a1.87105,1.87105,0,0,1,1.87105,1.87108zm-3.79649,-1.14732a1.15148,1.15148,0,1,0,0,2.30296,1.15148,1.15148,0,1,0,0,-2.30296z"  stroke-width="1.43963" fill="black" gorn="0.4.0.11" id="path479" stroke="black"/>
      <circle  stroke-width="1.224" fill="black" r="1.62" gorn="0.4.0.12" cx="76.3427" cy="73.4281" id="connector6pin" stroke="black"/>
      <path d="m80.0107,73.4292a1.87105,1.87105,0,0,1,-1.87105,1.87108l-3.7421,0a1.87105,1.87105,0,0,1,-1.87105,-1.87108l0,0a1.87105,1.87105,0,0,1,1.87105,-1.87108l3.7421,0a1.87105,1.87105,0,0,1,1.87105,1.87108zm-3.79649,-1.14732a1.15148,1.15148,0,1,0,0,2.30296,1.15148,1.15148,0,1,0,0,-2.30296z"  stroke-width="1.43963" fill="black" gorn="0.4.0.13" id="path481" stroke="black"/>
      <circle  stroke-width="1.224" fill="black" r="1.62" gorn="0.4.0.14" cx="76.3427" cy="66.2281" id="connector7pin" stroke="black"/>
      <path d="m80.015,66.229a1.872,1.87105,0,0,1,-1.872,1.87108l-3.744,0a1.872,1.87105,0,0,1,-1.87201,-1.87108l0,0a1.872,1.87105,0,0,1,1.87201,-1.87079l3.744,0a1.872,1.87105,0,0,1,1.872,1.87079zm-3.79843,-1.14733a1.15207,1.15149,0,1,0,0,2.30297,1.15207,1.15149,0,1,0,0,-2.30297z"  stroke-width="1.43963" fill="black" gorn="0.4.0.15" id="path485" stroke="black"/>
      <circle  stroke-width="1.224" fill="black" r="1.62" gorn="0.4.0.16" cx="76.3427" cy="59.0281" id="connector8pin" stroke="black"/>
      <path d="m80.0107,59.0293a1.87105,1.87105,0,0,1,-1.87105,1.87078l-3.7421,0a1.87105,1.87105,0,0,1,-1.87106,-1.87078l0,0a1.87105,1.87105,0,0,1,1.87106,-1.87108l3.7421,0a1.87105,1.87105,0,0,1,1.87105,1.87108zm-3.7965,-1.14761a1.15148,1.15148,0,1,0,0,2.30296,1.15148,1.15148,0,1,0,0,-2.30296z"  stroke-width="1.43963" fill="black" gorn="0.4.0.17" id="path483" stroke="black"/>
      <circle  stroke-width="1.224" fill="black" r="1.62" gorn="0.4.0.18" cx="76.3427" cy="51.8281" id="connector9pin" stroke="black"/>
      <path d="m80.0107,51.829a1.87105,1.87105,0,0,1,-1.87105,1.87108l-3.7421,0a1.87105,1.87105,0,0,1,-1.87106,-1.87108l0,0a1.87105,1.87105,0,0,1,1.87106,-1.87108l3.7421,0a1.87105,1.87105,0,0,1,1.87105,1.87108zm-3.7965,-1.14761a1.15148,1.15148,0,1,0,0,2.30296,1.15148,1.15148,0,1,0,0,-2.30296z"  stroke-width="1.43963" fill="black" gorn="0.4.0.19" id="path469" stroke="black"/>
      <circle  stroke-width="1.224" fill="black" r="1.62" gorn="0.4.0.20" cx="76.3427" cy="44.6281" id="connector10pin" stroke="black"/>
      <path d="m80.0107,44.629a1.87105,1.87105,0,0,1,-1.87105,1.87108l-3.7421,0a1.87105,1.87105,0,0,1,-1.87106,-1.87108l0,0a1.87105,1.87105,0,0,1,1.87106,-1.87108l3.7421,0a1.87105,1.87105,0,0,1,1.87105,1.87108zm-3.7965,-1.14761a1.15148,1.15148,0,1,0,0,2.30296,1.15148,1.15148,0,1,0,0,-2.30296z"  stroke-width="1.43963" fill="black" gorn="0.4.0.21" id="path457" stroke="black"/>
      <circle  stroke-width="1.224" fill="black" r="1.62" gorn="0.4.0.22" cx="76.3427" cy="37.4281" id="connector11pin" stroke="black"/>
      <path d="m80.015,37.429a1.872,1.87105,0,0,1,-1.872,1.87108l-3.744,0a1.872,1.87105,0,0,1,-1.87201,-1.87108l0,0a1.872,1.87105,0,0,1,1.87201,-1.87108l3.744,0a1.872,1.87105,0,0,1,1.872,1.87108zm-3.79843,-1.14732a1.152,1.15142,0,1,0,0,2.30237,1.152,1.15142,0,1,0,0,-2.30237z"  stroke-width="1.43963" fill="black" gorn="0.4.0.23" id="path477" stroke="black"/>
      <circle  stroke-width="1.224" fill="black" r="1.62" gorn="0.4.0.24" cx="76.3427" cy="30.2281" id="connector12pin" stroke="black"/>
      <path d="m80.0107,30.229a1.87105,1.87105,0,0,1,-1.87105,1.87108l-3.7421,0a1.87105,1.87105,0,0,1,-1.87106,-1.87108l0,0a1.87105,1.87105,0,0,1,1.87106,-1.87108l3.7421,0a1.87105,1.87105,0,0,1,1.87105,1.87108zm-3.7965,-1.14732a1.15142,1.15142,0,1,0,0,2.30267,1.15142,1.15142,0,1,0,0,-2.30267z"  stroke-width="1.43963" fill="black" gorn="0.4.0.25" id="path475" stroke="black"/>
      <circle  stroke-width="1.224" fill="black" r="1.62" gorn="0.4.0.26" cx="76.3427" cy="23.0281" id="connector13pin" stroke="black"/>
      <path d="m80.015,23.029a1.872,1.87105,0,0,1,-1.872,1.87108l-3.744,0a1.872,1.87105,0,0,1,-1.87201,-1.87108l0,0a1.872,1.87105,0,0,1,1.87201,-1.87108l3.744,0a1.872,1.87105,0,0,1,1.872,1.87108zm-3.79843,-1.14732a1.152,1.15142,0,1,0,0,2.30267,1.152,1.15142,0,1,0,0,-2.30267z"  stroke-width="1.43963" fill="black" gorn="0.4.0.27" id="path473" stroke="black"/>
      <circle  stroke-width="1.224" fill="black" r="1.62" gorn="0.4.0.28" cx="76.3427" cy="15.8281" id="connector14pin" stroke="black"/>
      <path d="m80.0107,15.8291a1.87105,1.87105,0,0,1,-1.87105,1.87108l-3.7421,0a1.87105,1.87105,0,0,1,-1.87106,-1.87108l0,0a1.87105,1.87105,0,0,1,1.87106,-1.87108l3.7421,0a1.87105,1.87105,0,0,1,1.87105,1.87108zm-3.7965,-1.14732a1.15142,1.15142,0,1,0,0,2.30267,1.15142,1.15142,0,1,0,0,-2.30267z"  stroke-width="1.43963" fill="black" gorn="0.4.0.29" id="path471" stroke="black"/>
      <circle  stroke-width="1.224" fill="black" r="1.62" gorn="0.4.0.30" cx="4.34173" cy="15.8281" id="connector15pin" stroke="black"/>
      <path d="M8.18712,15.8291A1.87105,1.87105,0,0,1,6.31608,17.7001L2.57398,17.7001A1.87105,1.87105,0,0,1,0.702927,15.8291l0,0A1.87105,1.87105,0,0,1,2.57398,13.9579l3.7421,0a1.87105,1.87105,0,0,1,1.87105,1.87108zM4.44729,14.6823a1.15142,1.15142,0,1,0,0,2.30267,1.15142,1.15142,0,1,0,0,-2.30267z"  stroke-width="1.43963" fill="black" gorn="0.4.0.31" id="path425" stroke="black"/>
      <circle  stroke-width="1.224" fill="black" r="1.62" gorn="0.4.0.32" cx="4.34173" cy="23.0281" id="connector16pin" stroke="black"/>
      <path d="M8.18712,23.029A1.87105,1.87105,0,0,1,6.31608,24.9001L2.57398,24.9001A1.87105,1.87105,0,0,1,0.702927,23.029l0,0A1.87105,1.87105,0,0,1,2.57398,21.1579l3.7421,0a1.87105,1.87105,0,0,1,1.87105,1.87108zM4.44729,21.8817a1.15142,1.15142,0,1,0,0,2.30267,1.15142,1.15142,0,1,0,0,-2.30267z"  stroke-width="1.43963" fill="black" gorn="0.4.0.33" id="path431" stroke="black"/>
      <circle  stroke-width="1.224" fill="black" r="1.62" gorn="0.4.0.34" cx="4.34173" cy="30.2281" id="connector17pin" stroke="black"/>
      <path d="M8.18712,30.229A1.87105,1.87105,0,0,1,6.31608,32.1001L2.57398,32.1001A1.87105,1.87105,0,0,1,0.702927,30.229l0,0A1.87105,1.87105,0,0,1,2.57398,28.3579l3.7421,0a1.87105,1.87105,0,0,1,1.87105,1.87108zM4.44729,29.0817a1.15142,1.15142,0,1,0,0,2.30267,1.15142,1.15142,0,1,0,0,-2.30267z"  stroke-width="1.43963" fill="black" gorn="0.4.0.35" id="path433" stroke="black"/>
      <circle  stroke-width="1.224" fill="black" r="1.62" gorn="0.4.0.36" cx="4.34173" cy="37.4281" id="connector18pin" stroke="black"/>
      <path d="M8.18712,37.429A1.87105,1.87105,0,0,1,6.31608,39.3001L2.57398,39.3001A1.87105,1.87105,0,0,1,0.702927,37.429l0,0A1.87105,1.87105,0,0,1,2.57398,35.5579l3.7421,0a1.87105,1.87105,0,0,1,1.87105,1.87108zM4.44729,36.2817a1.15142,1.15142,0,1,0,0,2.30237,1.15142,1.15142,0,1,0,0,-2.30237z"  stroke-width="1.43963" fill="black" gorn="0.4.0.37" id="path435" stroke="black"/>
      <circle  stroke-width="1.224" fill="black" r="1.62" gorn="0.4.0.38" cx="4.34173" cy="44.6281" id="connector19pin" stroke="black"/>
      <path d="M8.11339,44.629A1.87105,1.87105,0,0,1,6.24231,46.5001L2.50021,46.5001A1.87105,1.87105,0,0,1,0.629162,44.629l0,0A1.87105,1.87105,0,0,1,2.50021,42.7579l3.7421,0a1.87105,1.87105,0,0,1,1.87105,1.87108zM4.37353,43.4814a1.15148,1.15148,0,1,0,0,2.30296,1.15148,1.15148,0,1,0,0,-2.30296z"  stroke-width="1.43963" fill="black" gorn="0.4.0.39" id="path437" stroke="black"/>
      <circle  stroke-width="1.224" fill="black" r="1.62" gorn="0.4.0.40" cx="4.34173" cy="51.8281" id="connector20pin" stroke="black"/>
      <path d="M8.18712,51.829A1.87105,1.87105,0,0,1,6.31608,53.7001L2.57398,53.7001A1.87105,1.87105,0,0,1,0.702927,51.829l0,0A1.87105,1.87105,0,0,1,2.57398,49.9579l3.7421,0a1.87105,1.87105,0,0,1,1.87105,1.87108zM4.44729,50.6814a1.15148,1.15148,0,1,0,0,2.30296,1.15148,1.15148,0,1,0,0,-2.30296z"  stroke-width="1.43963" fill="black" gorn="0.4.0.41" id="path439" stroke="black"/>
      <circle  stroke-width="1.224" fill="black" r="1.62" gorn="0.4.0.42" cx="4.34173" cy="59.0281" id="connector21pin" stroke="black"/>
      <path d="M8.18712,59.0293A1.87105,1.87105,0,0,1,6.31608,60.9001L2.57398,60.9001A1.87105,1.87105,0,0,1,0.702927,59.0293l0,0A1.87105,1.87105,0,0,1,2.57398,57.1583l3.7421,0a1.87105,1.87105,0,0,1,1.87105,1.87108zM4.44729,57.8817a1.15148,1.15148,0,1,0,0,2.30296,1.15148,1.15148,0,1,0,0,-2.30296z"  stroke-width="1.43963" fill="black" gorn="0.4.0.43" id="path441" stroke="black"/>
      <circle  stroke-width="1.224" fill="black" r="1.62" gorn="0.4.0.44" cx="4.34173" cy="66.2281" id="connector22pin" stroke="black"/>
      <path d="m8.18712,66.229a1.87105,1.87105,0,0,1,-1.87105,1.87108L2.57398,68.1001A1.87105,1.87105,0,0,1,0.702927,66.229l0,0A1.87105,1.87105,0,0,1,2.57398,64.3583l3.7421,0a1.87105,1.87105,0,0,1,1.87105,1.87079zM4.44729,65.0817a1.15149,1.15149,0,1,0,0,2.30297,1.15149,1.15149,0,1,0,0,-2.30297z"  stroke-width="1.43963" fill="black" gorn="0.4.0.45" id="path443" stroke="black"/>
      <circle  stroke-width="1.224" fill="black" r="1.62" gorn="0.4.0.46" cx="4.34173" cy="73.4281" id="connector23pin" stroke="black"/>
      <path d="m8.18683,73.4292a1.87105,1.87105,0,0,1,-1.87105,1.87108L2.5737,75.3005A1.87105,1.87105,0,0,1,0.702644,73.4292l0,0A1.87105,1.87105,0,0,1,2.5737,71.5579l3.7421,0a1.87105,1.87105,0,0,1,1.87105,1.87108zm-3.73984,-1.14672a1.15146,1.15146,0,1,0,0,2.30266,1.15146,1.15146,0,1,0,0,-2.30266z"  stroke-width="1.43963" fill="black" gorn="0.4.0.47" id="path445" stroke="black"/>
      <circle  stroke-width="1.224" fill="black" r="1.62" gorn="0.4.0.48" cx="4.34173" cy="80.6281" id="connector24pin" stroke="black"/>
      <path d="m8.18683,80.6292a1.87105,1.87105,0,0,1,-1.87105,1.87108L2.5737,82.5005A1.87105,1.87105,0,0,1,0.702644,80.6292l0,0a1.87105,1.87105,0,0,1,1.87105,-1.87108l3.7421,0a1.87105,1.87105,0,0,1,1.87105,1.87108zm-3.73984,-1.14732a1.15148,1.15148,0,1,0,0,2.30296,1.15148,1.15148,0,1,0,0,-2.30296z"  stroke-width="1.43963" fill="black" gorn="0.4.0.49" id="path447" stroke="black"/>
      <circle  stroke-width="1.224" fill="black" r="1.62" gorn="0.4.0.50" cx="4.34173" cy="87.8281" id="connector25pin" stroke="black"/>
      <path d="m8.18683,87.8292a1.87105,1.87105,0,0,1,-1.87105,1.87108L2.5737,89.7004A1.87105,1.87105,0,0,1,0.702644,87.8292l0,0a1.87105,1.87105,0,0,1,1.87105,-1.87108l3.7421,0a1.87105,1.87105,0,0,1,1.87105,1.87108zm-3.73984,-1.14732a1.15148,1.15148,0,1,0,0,2.30296,1.15148,1.15148,0,1,0,0,-2.30296z"  stroke-width="1.43963" fill="black" gorn="0.4.0.51" id="path449" stroke="black"/>
      <circle  stroke-width="1.224" fill="black" r="1.62" gorn="0.4.0.52" cx="4.34173" cy="95.0281" id="connector26pin" stroke="black"/>
      <path d="m8.18683,95.0292a1.87105,1.87105,0,0,1,-1.87105,1.87108L2.5737,96.9004A1.87105,1.87105,0,0,1,0.702644,95.0292l0,0a1.87105,1.87105,0,0,1,1.87105,-1.87108l3.7421,0a1.87105,1.87105,0,0,1,1.87105,1.87108zm-3.73984,-1.14733a1.15142,1.15142,0,1,0,0,2.30267,1.15142,1.15142,0,1,0,0,-2.30267z"  stroke-width="1.43963" fill="black" gorn="0.4.0.53" id="path451" stroke="black"/>
      <circle  stroke-width="1.224" fill="black" r="1.62" gorn="0.4.0.54" cx="4.34173" cy="102.228" id="connector27pin" stroke="black"/>
      <path d="m8.18683,102.229a1.87105,1.87105,0,0,1,-1.87105,1.87108L2.5737,104.1A1.87105,1.87105,0,0,1,0.702644,102.229l0,0a1.87105,1.87105,0,0,1,1.87105,-1.87108l3.7421,0a1.87105,1.87105,0,0,1,1.87105,1.87108zm-3.73984,-1.14761a1.15142,1.15142,0,1,0,0,2.30267,1.15142,1.15142,0,1,0,0,-2.30267z"  stroke-width="1.43963" fill="black" gorn="0.4.0.55" id="path455" stroke="black"/>
      <circle  stroke-width="1.224" fill="black" r="1.62" gorn="0.4.0.56" cx="4.34193" cy="109.428" id="connector28pin" stroke="black"/>
      <path d="m8.18683,109.429a1.87105,1.87105,0,0,1,-1.87105,1.87108L2.5737,111.3A1.87105,1.87105,0,0,1,0.702644,109.429l0,0a1.87105,1.87105,0,0,1,1.87105,-1.87108l3.7421,0a1.87105,1.87105,0,0,1,1.87105,1.87108zm-3.73984,-1.14732a1.15142,1.15142,0,1,0,0,2.30266,1.15142,1.15142,0,1,0,0,-2.30266z"  stroke-width="1.43963" fill="black" gorn="0.4.0.57" id="path453" stroke="black"/>
      <circle  stroke-width="1.224" fill="black" r="1.62" gorn="0.4.0.58" cx="4.34173" cy="116.628" id="connector29pin" stroke="black"/>
      <path d="m8.18683,116.629a1.87105,1.87105,0,0,1,-1.87105,1.87108L2.5737,118.5A1.87105,1.87105,0,0,1,0.702644,116.629l0,0a1.87105,1.87105,0,0,1,1.87105,-1.87108l3.7421,0a1.87105,1.87105,0,0,1,1.87105,1.87108zm-3.73984,-1.14761a1.15148,1.15148,0,1,0,0,2.30296,1.15148,1.15148,0,1,0,0,-2.30296z"  stroke-width="1.43963" fill="black" gorn="0.4.0.59" id="path463" stroke="black"/>
     </g>
    </g>
   </g>
  </g>
 </g>
</svg>
