; NON-PLATED HOLES START AT T1
; THROUGH (PLATED) HOLES START AT T100
M48
INCH
T100C0.035000
T101C0.030000
T102C0.027559
T103C0.015748
T104C0.038000
%
T100
X018201Y004427
X018201Y008427
T101
X001201Y007427
X004701Y027929
X019203Y015427
X004701Y026927
X018201Y015427
X002203Y007427
T102
X002201Y003427
X018201Y011427
X017201Y011427
X001201Y003427
T103
X007201Y030427
X007201Y019427
X014201Y029427
X008201Y016427
X009201Y024427
X014201Y033427
T104
X015201Y015427
X005201Y007427
X005201Y020427
X005201Y016427
X005201Y011427
X015201Y013427
X015201Y012427
X005201Y019427
X015201Y020427
X005201Y009427
X005201Y010427
X005201Y021427
X015201Y009427
X015201Y017427
X018201Y021427
X015201Y010427
X015201Y007427
X015201Y016427
X015201Y018427
X005201Y013427
X018201Y018427
X015201Y021427
X018201Y020427
X018201Y019427
X001201Y014427
X015201Y019427
X015201Y008427
X005201Y017427
X015201Y014427
X001201Y012427
X018201Y002427
X005201Y012427
X005201Y018427
X017201Y002427
X015201Y011427
X005201Y008427
X005201Y014427
X001201Y011427
X001201Y013427
X005201Y015427
T00
M30
