; NON-PLATED HOLES START AT T1
; THROUGH (PLATED) HOLES START AT T100
M48
INCH
T100C0.030000
T101C0.038779
T102C0.027559
T103C0.035000
T104C0.015748
T105C0.038000
%
T100
X004162Y028021
X004162Y027020
X001160Y008020
X002162Y008020
X018164Y015020
X017162Y015020
T101
X015019Y007027
X015019Y023014
X015019Y017012
X005162Y014022
X015019Y014022
X015019Y015015
X005162Y006023
X005162Y017012
X005162Y011021
X005162Y009024
X015019Y020013
X005162Y019020
X005162Y018016
X005162Y020013
X015019Y012014
X005162Y015015
X015019Y009024
X005162Y005020
X015019Y021017
X015019Y008020
X015019Y005020
X005162Y007027
X015019Y011021
X005162Y016019
X015019Y010017
X005162Y010017
X005162Y021017
X015019Y016019
X005162Y023014
X015019Y019020
X005162Y022010
X005162Y012014
X005162Y008020
X015019Y022010
X015019Y006023
X015019Y018016
X005162Y013018
X015019Y013018
T102
X017162Y011020
X018162Y011020
X001162Y003020
X002162Y003020
T103
X018162Y008020
X018162Y004020
T104
X012162Y006020
X007162Y015020
X009162Y028020
X011162Y031020
X008162Y021020
X008162Y006020
X015162Y004020
X006162Y002020
X014162Y029020
X009162Y018020
X014162Y028020
X004162Y011020
X014162Y032020
X017162Y006020
X009162Y010020
X007162Y008020
X007162Y031020
T105
X001162Y015020
X001162Y013020
X001162Y014020
X001162Y012020
X018162Y019020
X018162Y021020
X017162Y002020
X018162Y002020
X018162Y020020
X018162Y022020
T00
M30
