G04 MADE WITH FRITZING*
G04 WWW.FRITZING.ORG*
G04 DOUBLE SIDED*
G04 HOLES PLATED*
G04 CONTOUR ON CENTER OF CONTOUR VECTOR*
%ASAXBY*%
%FSLAX23Y23*%
%MOIN*%
%OFA0B0*%
%SFA1.0B1.0*%
%LNPASTEMASK1*%
G90*
G70*
G36*
X632Y3932D02*
X632Y3873D01*
X573Y3873D01*
X573Y3932D01*
G37*
D02*
G36*
X632Y3832D02*
X632Y3773D01*
X573Y3773D01*
X573Y3832D01*
G37*
D02*
G36*
X632Y3732D02*
X632Y3673D01*
X573Y3673D01*
X573Y3732D01*
G37*
D02*
G36*
X632Y3433D02*
X632Y3374D01*
X573Y3374D01*
X573Y3433D01*
G37*
D02*
G36*
X632Y3333D02*
X632Y3274D01*
X573Y3274D01*
X573Y3333D01*
G37*
D02*
G36*
X632Y3233D02*
X632Y3174D01*
X573Y3174D01*
X573Y3233D01*
G37*
D02*
G36*
X632Y3133D02*
X632Y3074D01*
X573Y3074D01*
X573Y3133D01*
G37*
D02*
G36*
X632Y3033D02*
X632Y2974D01*
X573Y2974D01*
X573Y3033D01*
G37*
D02*
G36*
X632Y2933D02*
X632Y2874D01*
X573Y2874D01*
X573Y2933D01*
G37*
D02*
G36*
X632Y2833D02*
X632Y2774D01*
X573Y2774D01*
X573Y2833D01*
G37*
D02*
G36*
X632Y2733D02*
X632Y2674D01*
X573Y2674D01*
X573Y2733D01*
G37*
D02*
G36*
X1545Y2733D02*
X1545Y2674D01*
X1486Y2674D01*
X1486Y2733D01*
G37*
D02*
G36*
X1545Y2833D02*
X1545Y2774D01*
X1486Y2774D01*
X1486Y2833D01*
G37*
D02*
G36*
X1545Y2933D02*
X1545Y2874D01*
X1486Y2874D01*
X1486Y2933D01*
G37*
D02*
G36*
X1545Y3033D02*
X1545Y2974D01*
X1486Y2974D01*
X1486Y3033D01*
G37*
D02*
G36*
X1545Y3133D02*
X1545Y3074D01*
X1486Y3074D01*
X1486Y3133D01*
G37*
D02*
G36*
X1545Y3233D02*
X1545Y3174D01*
X1486Y3174D01*
X1486Y3233D01*
G37*
D02*
G36*
X1545Y3333D02*
X1545Y3274D01*
X1486Y3274D01*
X1486Y3333D01*
G37*
D02*
G36*
X1545Y3433D02*
X1545Y3374D01*
X1486Y3374D01*
X1486Y3433D01*
G37*
D02*
G36*
X1545Y3732D02*
X1545Y3673D01*
X1486Y3673D01*
X1486Y3732D01*
G37*
D02*
G36*
X1545Y3832D02*
X1545Y3773D01*
X1486Y3773D01*
X1486Y3832D01*
G37*
D02*
G36*
X1545Y3932D02*
X1545Y3873D01*
X1486Y3873D01*
X1486Y3932D01*
G37*
D02*
G04 End of PasteMask1*
M02*