G04 MADE WITH FRITZING*
G04 WWW.FRITZING.ORG*
G04 DOUBLE SIDED*
G04 HOLES PLATED*
G04 CONTOUR ON CENTER OF CONTOUR VECTOR*
%ASAXBY*%
%FSLAX23Y23*%
%MOIN*%
%OFA0B0*%
%SFA1.0B1.0*%
%ADD10C,0.088000*%
%ADD11C,0.081824*%
%ADD12C,0.080000*%
%ADD13C,0.075000*%
%ADD14C,0.085000*%
%ADD15C,0.049370*%
%ADD16R,0.088000X0.088000*%
%ADD17C,0.030000*%
%ADD18C,0.010000*%
%ADD19R,0.001000X0.001000*%
%LNMASK1*%
G90*
G70*
G54D10*
X130Y1202D03*
X130Y1302D03*
X130Y1402D03*
X130Y1502D03*
G54D11*
X530Y2302D03*
X530Y2202D03*
X530Y2102D03*
X530Y2002D03*
X530Y1903D03*
X530Y1802D03*
X530Y1702D03*
X530Y1603D03*
X530Y1502D03*
X530Y1403D03*
X530Y1303D03*
X530Y1202D03*
X530Y1103D03*
X530Y1002D03*
X530Y903D03*
X530Y803D03*
X530Y703D03*
X530Y603D03*
X530Y503D03*
X1516Y503D03*
X1516Y603D03*
X1516Y703D03*
X1516Y803D03*
X1516Y903D03*
X1516Y1002D03*
X1516Y1103D03*
X1516Y1202D03*
X1516Y1303D03*
X1516Y1403D03*
X1516Y1502D03*
X1516Y1603D03*
X1516Y1702D03*
X1516Y1802D03*
X1516Y1903D03*
X1516Y2002D03*
X1516Y2102D03*
X1516Y2202D03*
X1516Y2302D03*
G54D12*
X1730Y1502D03*
X1831Y1502D03*
X230Y802D03*
X130Y802D03*
X430Y2702D03*
X430Y2802D03*
G54D10*
X1830Y202D03*
X1730Y202D03*
X1830Y2202D03*
X1830Y2102D03*
X1830Y2002D03*
X1830Y1902D03*
G54D13*
X130Y302D03*
X230Y302D03*
X130Y302D03*
X230Y302D03*
X1730Y1102D03*
X1830Y1102D03*
X1730Y1102D03*
X1830Y1102D03*
G54D14*
X1830Y802D03*
X1830Y402D03*
G54D15*
X1430Y3202D03*
X1430Y2902D03*
X1430Y2802D03*
X1130Y3102D03*
X930Y2802D03*
X730Y3102D03*
X430Y1102D03*
X730Y1502D03*
X1530Y402D03*
X830Y2102D03*
X930Y1802D03*
X930Y1002D03*
X830Y602D03*
X730Y802D03*
X1730Y602D03*
X1230Y602D03*
X630Y202D03*
G54D16*
X130Y1202D03*
X1830Y2202D03*
G54D17*
G36*
X1859Y173D02*
X1801Y173D01*
X1801Y231D01*
X1859Y231D01*
X1859Y173D01*
G37*
D02*
G54D18*
G36*
X646Y3932D02*
X646Y3873D01*
X587Y3873D01*
X587Y3932D01*
G37*
D02*
G36*
X646Y3832D02*
X646Y3773D01*
X587Y3773D01*
X587Y3832D01*
G37*
D02*
G36*
X646Y3732D02*
X646Y3673D01*
X587Y3673D01*
X587Y3732D01*
G37*
D02*
G36*
X646Y3433D02*
X646Y3374D01*
X587Y3374D01*
X587Y3433D01*
G37*
D02*
G36*
X646Y3333D02*
X646Y3274D01*
X587Y3274D01*
X587Y3333D01*
G37*
D02*
G36*
X646Y3233D02*
X646Y3174D01*
X587Y3174D01*
X587Y3233D01*
G37*
D02*
G36*
X646Y3133D02*
X646Y3074D01*
X587Y3074D01*
X587Y3133D01*
G37*
D02*
G36*
X646Y3033D02*
X646Y2974D01*
X587Y2974D01*
X587Y3033D01*
G37*
D02*
G36*
X646Y2933D02*
X646Y2874D01*
X587Y2874D01*
X587Y2933D01*
G37*
D02*
G36*
X646Y2833D02*
X646Y2774D01*
X587Y2774D01*
X587Y2833D01*
G37*
D02*
G36*
X646Y2733D02*
X646Y2674D01*
X587Y2674D01*
X587Y2733D01*
G37*
D02*
G36*
X1559Y2733D02*
X1559Y2674D01*
X1500Y2674D01*
X1500Y2733D01*
G37*
D02*
G36*
X1559Y2833D02*
X1559Y2774D01*
X1500Y2774D01*
X1500Y2833D01*
G37*
D02*
G36*
X1559Y2933D02*
X1559Y2874D01*
X1500Y2874D01*
X1500Y2933D01*
G37*
D02*
G36*
X1559Y3033D02*
X1559Y2974D01*
X1500Y2974D01*
X1500Y3033D01*
G37*
D02*
G36*
X1559Y3133D02*
X1559Y3074D01*
X1500Y3074D01*
X1500Y3133D01*
G37*
D02*
G36*
X1559Y3233D02*
X1559Y3174D01*
X1500Y3174D01*
X1500Y3233D01*
G37*
D02*
G36*
X1559Y3333D02*
X1559Y3274D01*
X1500Y3274D01*
X1500Y3333D01*
G37*
D02*
G36*
X1559Y3433D02*
X1559Y3374D01*
X1500Y3374D01*
X1500Y3433D01*
G37*
D02*
G36*
X1559Y3732D02*
X1559Y3673D01*
X1500Y3673D01*
X1500Y3732D01*
G37*
D02*
G36*
X1559Y3832D02*
X1559Y3773D01*
X1500Y3773D01*
X1500Y3832D01*
G37*
D02*
G36*
X1559Y3932D02*
X1559Y3873D01*
X1500Y3873D01*
X1500Y3932D01*
G37*
D02*
G54D19*
X1792Y1139D02*
X1866Y1139D01*
X1792Y1138D02*
X1866Y1138D01*
X1792Y1137D02*
X1866Y1137D01*
X1792Y1136D02*
X1866Y1136D01*
X1792Y1135D02*
X1866Y1135D01*
X1792Y1134D02*
X1866Y1134D01*
X1792Y1133D02*
X1866Y1133D01*
X1792Y1132D02*
X1866Y1132D01*
X1792Y1131D02*
X1866Y1131D01*
X1792Y1130D02*
X1866Y1130D01*
X1792Y1129D02*
X1866Y1129D01*
X1792Y1128D02*
X1866Y1128D01*
X1792Y1127D02*
X1866Y1127D01*
X1792Y1126D02*
X1866Y1126D01*
X1792Y1125D02*
X1866Y1125D01*
X1792Y1124D02*
X1866Y1124D01*
X1792Y1123D02*
X1866Y1123D01*
X1792Y1122D02*
X1866Y1122D01*
X1792Y1121D02*
X1866Y1121D01*
X1792Y1120D02*
X1866Y1120D01*
X1792Y1119D02*
X1866Y1119D01*
X1792Y1118D02*
X1866Y1118D01*
X1792Y1117D02*
X1866Y1117D01*
X1792Y1116D02*
X1866Y1116D01*
X1792Y1115D02*
X1866Y1115D01*
X1792Y1114D02*
X1866Y1114D01*
X1792Y1113D02*
X1866Y1113D01*
X1792Y1112D02*
X1866Y1112D01*
X1792Y1111D02*
X1827Y1111D01*
X1832Y1111D02*
X1866Y1111D01*
X1792Y1110D02*
X1824Y1110D01*
X1834Y1110D02*
X1866Y1110D01*
X1792Y1109D02*
X1823Y1109D01*
X1836Y1109D02*
X1866Y1109D01*
X1792Y1108D02*
X1822Y1108D01*
X1837Y1108D02*
X1866Y1108D01*
X1792Y1107D02*
X1821Y1107D01*
X1838Y1107D02*
X1866Y1107D01*
X1792Y1106D02*
X1821Y1106D01*
X1838Y1106D02*
X1866Y1106D01*
X1792Y1105D02*
X1820Y1105D01*
X1838Y1105D02*
X1866Y1105D01*
X1792Y1104D02*
X1820Y1104D01*
X1839Y1104D02*
X1866Y1104D01*
X1792Y1103D02*
X1820Y1103D01*
X1839Y1103D02*
X1866Y1103D01*
X1792Y1102D02*
X1820Y1102D01*
X1839Y1102D02*
X1866Y1102D01*
X1792Y1101D02*
X1820Y1101D01*
X1839Y1101D02*
X1866Y1101D01*
X1792Y1100D02*
X1820Y1100D01*
X1838Y1100D02*
X1866Y1100D01*
X1792Y1099D02*
X1821Y1099D01*
X1838Y1099D02*
X1866Y1099D01*
X1792Y1098D02*
X1821Y1098D01*
X1838Y1098D02*
X1866Y1098D01*
X1792Y1097D02*
X1822Y1097D01*
X1837Y1097D02*
X1866Y1097D01*
X1792Y1096D02*
X1823Y1096D01*
X1836Y1096D02*
X1866Y1096D01*
X1792Y1095D02*
X1824Y1095D01*
X1835Y1095D02*
X1866Y1095D01*
X1792Y1094D02*
X1826Y1094D01*
X1832Y1094D02*
X1866Y1094D01*
X1792Y1093D02*
X1866Y1093D01*
X1792Y1092D02*
X1866Y1092D01*
X1792Y1091D02*
X1866Y1091D01*
X1792Y1090D02*
X1866Y1090D01*
X1792Y1089D02*
X1866Y1089D01*
X1792Y1088D02*
X1866Y1088D01*
X1792Y1087D02*
X1866Y1087D01*
X1792Y1086D02*
X1866Y1086D01*
X1792Y1085D02*
X1866Y1085D01*
X1792Y1084D02*
X1866Y1084D01*
X1792Y1083D02*
X1866Y1083D01*
X1792Y1082D02*
X1866Y1082D01*
X1792Y1081D02*
X1866Y1081D01*
X1792Y1080D02*
X1866Y1080D01*
X1792Y1079D02*
X1866Y1079D01*
X1792Y1078D02*
X1866Y1078D01*
X1792Y1077D02*
X1866Y1077D01*
X1792Y1076D02*
X1866Y1076D01*
X1792Y1075D02*
X1866Y1075D01*
X1792Y1074D02*
X1866Y1074D01*
X1792Y1073D02*
X1866Y1073D01*
X1792Y1072D02*
X1866Y1072D01*
X1792Y1071D02*
X1866Y1071D01*
X1792Y1070D02*
X1866Y1070D01*
X1792Y1069D02*
X1866Y1069D01*
X1792Y1068D02*
X1866Y1068D01*
X1792Y1067D02*
X1866Y1067D01*
X1792Y1066D02*
X1866Y1066D01*
X1793Y1065D02*
X1866Y1065D01*
X193Y339D02*
X267Y339D01*
X193Y338D02*
X267Y338D01*
X193Y337D02*
X267Y337D01*
X193Y336D02*
X267Y336D01*
X193Y335D02*
X267Y335D01*
X193Y334D02*
X267Y334D01*
X193Y333D02*
X267Y333D01*
X193Y332D02*
X267Y332D01*
X193Y331D02*
X267Y331D01*
X193Y330D02*
X267Y330D01*
X193Y329D02*
X267Y329D01*
X193Y328D02*
X267Y328D01*
X193Y327D02*
X267Y327D01*
X193Y326D02*
X267Y326D01*
X193Y325D02*
X267Y325D01*
X193Y324D02*
X267Y324D01*
X193Y323D02*
X267Y323D01*
X193Y322D02*
X267Y322D01*
X193Y321D02*
X267Y321D01*
X193Y320D02*
X267Y320D01*
X193Y319D02*
X267Y319D01*
X193Y318D02*
X267Y318D01*
X193Y317D02*
X267Y317D01*
X193Y316D02*
X267Y316D01*
X193Y315D02*
X267Y315D01*
X193Y314D02*
X267Y314D01*
X193Y313D02*
X267Y313D01*
X193Y312D02*
X267Y312D01*
X193Y311D02*
X227Y311D01*
X233Y311D02*
X267Y311D01*
X193Y310D02*
X225Y310D01*
X235Y310D02*
X267Y310D01*
X193Y309D02*
X223Y309D01*
X236Y309D02*
X267Y309D01*
X193Y308D02*
X222Y308D01*
X237Y308D02*
X267Y308D01*
X193Y307D02*
X222Y307D01*
X238Y307D02*
X267Y307D01*
X193Y306D02*
X221Y306D01*
X238Y306D02*
X267Y306D01*
X193Y305D02*
X221Y305D01*
X239Y305D02*
X267Y305D01*
X193Y304D02*
X221Y304D01*
X239Y304D02*
X267Y304D01*
X193Y303D02*
X221Y303D01*
X239Y303D02*
X267Y303D01*
X193Y302D02*
X221Y302D01*
X239Y302D02*
X267Y302D01*
X193Y301D02*
X221Y301D01*
X239Y301D02*
X267Y301D01*
X193Y300D02*
X221Y300D01*
X239Y300D02*
X267Y300D01*
X193Y299D02*
X221Y299D01*
X238Y299D02*
X267Y299D01*
X193Y298D02*
X222Y298D01*
X238Y298D02*
X267Y298D01*
X193Y297D02*
X222Y297D01*
X237Y297D02*
X267Y297D01*
X193Y296D02*
X223Y296D01*
X236Y296D02*
X267Y296D01*
X193Y295D02*
X225Y295D01*
X235Y295D02*
X267Y295D01*
X193Y294D02*
X227Y294D01*
X233Y294D02*
X267Y294D01*
X193Y293D02*
X267Y293D01*
X193Y292D02*
X267Y292D01*
X193Y291D02*
X267Y291D01*
X193Y290D02*
X267Y290D01*
X193Y289D02*
X267Y289D01*
X193Y288D02*
X267Y288D01*
X193Y287D02*
X267Y287D01*
X193Y286D02*
X267Y286D01*
X193Y285D02*
X267Y285D01*
X193Y284D02*
X267Y284D01*
X193Y283D02*
X267Y283D01*
X193Y282D02*
X267Y282D01*
X193Y281D02*
X267Y281D01*
X193Y280D02*
X267Y280D01*
X193Y279D02*
X267Y279D01*
X193Y278D02*
X267Y278D01*
X193Y277D02*
X267Y277D01*
X193Y276D02*
X267Y276D01*
X193Y275D02*
X267Y275D01*
X193Y274D02*
X267Y274D01*
X193Y273D02*
X267Y273D01*
X193Y272D02*
X267Y272D01*
X193Y271D02*
X267Y271D01*
X193Y270D02*
X267Y270D01*
X193Y269D02*
X267Y269D01*
X193Y268D02*
X267Y268D01*
X193Y267D02*
X267Y267D01*
X193Y266D02*
X267Y266D01*
X193Y265D02*
X266Y265D01*
D02*
G04 End of Mask1*
M02*