; NON-PLATED HOLES START AT T1
; THROUGH (PLATED) HOLES START AT T100
M48
INCH
T100C0.038779
T101C0.015748
T102C0.035000
T103C0.038000
T104C0.027559
T105C0.030000
%
T100
X015160Y018023
X015160Y013025
X015160Y015022
X015160Y010024
X005303Y013025
X005303Y018023
X005303Y008027
X015160Y008027
X015160Y016025
X005303Y022017
X005303Y006030
X005303Y010024
X005303Y007034
X005303Y019026
X005303Y021023
X015160Y012021
X015160Y011028
X015160Y022017
X015160Y023020
X015160Y017019
X015160Y006030
X005303Y015022
X015160Y021023
X005303Y014028
X005303Y017019
X005303Y011028
X005303Y020020
X015160Y020020
X005303Y016025
X005303Y023020
X015160Y005026
X005303Y009031
X015160Y009031
X015160Y019026
X005303Y005026
X015160Y014028
X015160Y007034
X005303Y012021
T101
X007303Y008020
X009303Y018020
X014303Y032020
X007303Y031020
X008303Y006020
X008303Y021020
X011303Y031020
X006303Y002020
X007303Y015020
X015303Y004020
X009303Y028020
X004303Y011020
X017303Y006020
X014303Y028020
X012303Y006020
X009303Y010020
X014303Y029020
T102
X018303Y008020
X018303Y004020
T103
X018303Y020020
X018303Y002020
X001303Y014020
X018303Y022020
X001303Y013020
X018303Y021020
X001303Y012020
X017303Y002020
X018303Y019020
X001303Y015020
T104
X002303Y003020
X017303Y011020
X001303Y003020
X018303Y011020
T105
X004303Y028021
X001301Y008020
X004303Y027020
X018305Y015020
X002303Y008020
X017303Y015020
T00
M30
