G04 MADE WITH FRITZING*
G04 WWW.FRITZING.ORG*
G04 DOUBLE SIDED*
G04 HOLES PLATED*
G04 CONTOUR ON CENTER OF CONTOUR VECTOR*
%ASAXBY*%
%FSLAX23Y23*%
%MOIN*%
%OFA0B0*%
%SFA1.0B1.0*%
%LNPASTEMASK1*%
G90*
G70*
G36*
X646Y3932D02*
X646Y3873D01*
X587Y3873D01*
X587Y3932D01*
G37*
D02*
G36*
X646Y3832D02*
X646Y3773D01*
X587Y3773D01*
X587Y3832D01*
G37*
D02*
G36*
X646Y3732D02*
X646Y3673D01*
X587Y3673D01*
X587Y3732D01*
G37*
D02*
G36*
X646Y3433D02*
X646Y3374D01*
X587Y3374D01*
X587Y3433D01*
G37*
D02*
G36*
X646Y3333D02*
X646Y3274D01*
X587Y3274D01*
X587Y3333D01*
G37*
D02*
G36*
X646Y3233D02*
X646Y3174D01*
X587Y3174D01*
X587Y3233D01*
G37*
D02*
G36*
X646Y3133D02*
X646Y3074D01*
X587Y3074D01*
X587Y3133D01*
G37*
D02*
G36*
X646Y3033D02*
X646Y2974D01*
X587Y2974D01*
X587Y3033D01*
G37*
D02*
G36*
X646Y2933D02*
X646Y2874D01*
X587Y2874D01*
X587Y2933D01*
G37*
D02*
G36*
X646Y2833D02*
X646Y2774D01*
X587Y2774D01*
X587Y2833D01*
G37*
D02*
G36*
X646Y2733D02*
X646Y2674D01*
X587Y2674D01*
X587Y2733D01*
G37*
D02*
G36*
X1559Y2733D02*
X1559Y2674D01*
X1500Y2674D01*
X1500Y2733D01*
G37*
D02*
G36*
X1559Y2833D02*
X1559Y2774D01*
X1500Y2774D01*
X1500Y2833D01*
G37*
D02*
G36*
X1559Y2933D02*
X1559Y2874D01*
X1500Y2874D01*
X1500Y2933D01*
G37*
D02*
G36*
X1559Y3033D02*
X1559Y2974D01*
X1500Y2974D01*
X1500Y3033D01*
G37*
D02*
G36*
X1559Y3133D02*
X1559Y3074D01*
X1500Y3074D01*
X1500Y3133D01*
G37*
D02*
G36*
X1559Y3233D02*
X1559Y3174D01*
X1500Y3174D01*
X1500Y3233D01*
G37*
D02*
G36*
X1559Y3333D02*
X1559Y3274D01*
X1500Y3274D01*
X1500Y3333D01*
G37*
D02*
G36*
X1559Y3433D02*
X1559Y3374D01*
X1500Y3374D01*
X1500Y3433D01*
G37*
D02*
G36*
X1559Y3732D02*
X1559Y3673D01*
X1500Y3673D01*
X1500Y3732D01*
G37*
D02*
G36*
X1559Y3832D02*
X1559Y3773D01*
X1500Y3773D01*
X1500Y3832D01*
G37*
D02*
G36*
X1559Y3932D02*
X1559Y3873D01*
X1500Y3873D01*
X1500Y3932D01*
G37*
D02*
G04 End of PasteMask1*
M02*