; NON-PLATED HOLES START AT T1
; THROUGH (PLATED) HOLES START AT T100
M48
INCH
T100C0.015748
T101C0.038000
T102C0.035000
T103C0.027559
T104C0.030000
T105C0.038779
%
T100
X009303Y010020
X007303Y031020
X014303Y032020
X015303Y004020
X006303Y002020
X014303Y029020
X014303Y028020
X007303Y008020
X011303Y031020
X004303Y011020
X008303Y006020
X008303Y021020
X007303Y015020
X009303Y018020
X009303Y028020
X012303Y006020
X017303Y006020
T101
X017303Y002020
X001303Y012020
X018303Y002020
X018303Y020020
X018303Y019020
X018303Y022020
X001303Y014020
X001303Y015020
X018303Y021020
X001303Y013020
T102
X018303Y008020
X018303Y004020
T103
X018303Y011020
X017303Y011020
X002303Y003020
X001303Y003020
T104
X004303Y028021
X004303Y027020
X018305Y015020
X017303Y015020
X001301Y008020
X002303Y008020
T105
X005303Y009024
X015160Y016019
X005303Y015015
X015160Y009024
X015160Y019020
X015160Y006023
X005303Y007027
X015160Y017012
X015160Y020013
X005303Y008020
X005303Y013018
X005303Y020013
X005303Y010017
X015160Y008020
X005303Y022010
X015160Y013018
X015160Y015015
X015160Y023014
X005303Y016019
X015160Y021017
X005303Y005020
X015160Y018016
X005303Y014022
X005303Y012014
X005303Y018016
X015160Y010017
X005303Y019020
X015160Y012014
X005303Y006023
X015160Y022010
X015160Y011021
X005303Y011021
X005303Y023014
X015160Y007027
X015160Y005020
X005303Y021017
X015160Y014022
X005303Y017012
T00
M30
