G04 MADE WITH FRITZING*
G04 WWW.FRITZING.ORG*
G04 DOUBLE SIDED*
G04 HOLES PLATED*
G04 CONTOUR ON CENTER OF CONTOUR VECTOR*
%ASAXBY*%
%FSLAX23Y23*%
%MOIN*%
%OFA0B0*%
%SFA1.0B1.0*%
%ADD10C,0.008*%
%LNCONTOUR*%
G90*
G70*
G54D10*
X376Y4173D02*
X377Y4173D01*
X378Y4173D01*
X379Y4173D01*
X380Y4173D01*
X381Y4173D01*
X382Y4173D01*
X383Y4173D01*
X384Y4173D01*
X385Y4173D01*
X386Y4173D01*
X387Y4173D01*
X388Y4173D01*
X389Y4173D01*
X390Y4173D01*
X391Y4173D01*
X392Y4173D01*
X393Y4173D01*
X394Y4173D01*
X395Y4173D01*
X396Y4173D01*
X397Y4173D01*
X398Y4173D01*
X399Y4173D01*
X400Y4173D01*
X401Y4173D01*
X402Y4173D01*
X403Y4173D01*
X404Y4173D01*
X405Y4173D01*
X406Y4173D01*
X407Y4173D01*
X408Y4173D01*
X409Y4173D01*
X410Y4173D01*
X411Y4173D01*
X412Y4173D01*
X413Y4173D01*
X414Y4173D01*
X415Y4173D01*
X416Y4173D01*
X417Y4173D01*
X418Y4173D01*
X419Y4173D01*
X420Y4173D01*
X421Y4173D01*
X422Y4173D01*
X423Y4173D01*
X424Y4173D01*
X425Y4173D01*
X426Y4173D01*
X427Y4173D01*
X428Y4173D01*
X429Y4173D01*
X430Y4173D01*
X431Y4173D01*
X432Y4173D01*
X433Y4173D01*
X434Y4173D01*
X435Y4173D01*
X436Y4173D01*
X437Y4173D01*
X438Y4173D01*
X439Y4173D01*
X440Y4173D01*
X441Y4173D01*
X442Y4173D01*
X443Y4173D01*
X444Y4173D01*
X445Y4173D01*
X446Y4173D01*
X447Y4173D01*
X448Y4173D01*
X449Y4173D01*
X450Y4173D01*
X451Y4173D01*
X452Y4173D01*
X453Y4173D01*
X454Y4173D01*
X455Y4173D01*
X456Y4173D01*
X457Y4173D01*
X458Y4173D01*
X459Y4173D01*
X460Y4173D01*
X461Y4173D01*
X462Y4173D01*
X463Y4173D01*
X464Y4173D01*
X465Y4173D01*
X466Y4173D01*
X467Y4173D01*
X468Y4173D01*
X469Y4173D01*
X470Y4173D01*
X471Y4173D01*
X472Y4173D01*
X473Y4173D01*
X474Y4173D01*
X475Y4173D01*
X476Y4173D01*
X477Y4173D01*
X478Y4173D01*
X479Y4173D01*
X480Y4173D01*
X481Y4173D01*
X482Y4173D01*
X483Y4173D01*
X484Y4173D01*
X485Y4173D01*
X486Y4173D01*
X487Y4173D01*
X488Y4173D01*
X489Y4173D01*
X490Y4173D01*
X491Y4173D01*
X492Y4173D01*
X493Y4173D01*
X494Y4173D01*
X495Y4173D01*
X496Y4173D01*
X497Y4173D01*
X498Y4173D01*
X499Y4173D01*
X500Y4173D01*
X501Y4173D01*
X502Y4173D01*
X503Y4173D01*
X504Y4173D01*
X505Y4173D01*
X506Y4173D01*
X507Y4173D01*
X508Y4173D01*
X509Y4173D01*
X510Y4173D01*
X511Y4173D01*
X512Y4173D01*
X513Y4173D01*
X514Y4173D01*
X515Y4173D01*
X516Y4173D01*
X517Y4173D01*
X518Y4173D01*
X519Y4173D01*
X520Y4173D01*
X521Y4173D01*
X522Y4173D01*
X523Y4173D01*
X524Y4173D01*
X525Y4173D01*
X526Y4173D01*
X527Y4173D01*
X528Y4173D01*
X529Y4173D01*
X530Y4173D01*
X531Y4173D01*
X532Y4173D01*
X533Y4173D01*
X534Y4173D01*
X535Y4173D01*
X536Y4173D01*
X537Y4173D01*
X538Y4173D01*
X539Y4173D01*
X540Y4173D01*
X541Y4173D01*
X542Y4173D01*
X543Y4173D01*
X544Y4173D01*
X545Y4173D01*
X546Y4173D01*
X547Y4173D01*
X548Y4173D01*
X549Y4173D01*
X550Y4173D01*
X551Y4173D01*
X552Y4173D01*
X553Y4173D01*
X554Y4173D01*
X555Y4173D01*
X556Y4173D01*
X557Y4173D01*
X558Y4173D01*
X559Y4173D01*
X560Y4173D01*
X561Y4173D01*
X562Y4173D01*
X563Y4173D01*
X564Y4173D01*
X565Y4173D01*
X566Y4173D01*
X567Y4173D01*
X568Y4173D01*
X569Y4173D01*
X570Y4173D01*
X571Y4173D01*
X572Y4173D01*
X573Y4173D01*
X574Y4173D01*
X575Y4173D01*
X576Y4173D01*
X577Y4173D01*
X578Y4173D01*
X579Y4173D01*
X580Y4173D01*
X581Y4173D01*
X582Y4173D01*
X583Y4173D01*
X584Y4173D01*
X585Y4173D01*
X586Y4173D01*
X587Y4173D01*
X588Y4173D01*
X589Y4173D01*
X590Y4173D01*
X591Y4173D01*
X592Y4173D01*
X593Y4173D01*
X594Y4173D01*
X595Y4173D01*
X596Y4173D01*
X597Y4173D01*
X598Y4173D01*
X599Y4173D01*
X600Y4173D01*
X601Y4173D01*
X602Y4173D01*
X603Y4173D01*
X604Y4173D01*
X605Y4173D01*
X606Y4173D01*
X607Y4173D01*
X608Y4173D01*
X609Y4173D01*
X610Y4173D01*
X611Y4173D01*
X612Y4173D01*
X613Y4173D01*
X614Y4173D01*
X615Y4173D01*
X616Y4173D01*
X617Y4173D01*
X618Y4173D01*
X619Y4173D01*
X620Y4173D01*
X621Y4173D01*
X622Y4173D01*
X623Y4173D01*
X624Y4173D01*
X625Y4173D01*
X626Y4173D01*
X627Y4173D01*
X628Y4173D01*
X629Y4173D01*
X630Y4173D01*
X631Y4173D01*
X632Y4173D01*
X633Y4173D01*
X634Y4173D01*
X635Y4173D01*
X636Y4173D01*
X637Y4173D01*
X638Y4173D01*
X639Y4173D01*
X640Y4173D01*
X641Y4173D01*
X642Y4173D01*
X643Y4173D01*
X644Y4173D01*
X645Y4173D01*
X646Y4173D01*
X647Y4173D01*
X648Y4173D01*
X649Y4173D01*
X650Y4173D01*
X651Y4173D01*
X652Y4173D01*
X653Y4173D01*
X654Y4173D01*
X655Y4173D01*
X656Y4173D01*
X657Y4173D01*
X658Y4173D01*
X659Y4173D01*
X660Y4173D01*
X661Y4173D01*
X662Y4173D01*
X663Y4173D01*
X664Y4173D01*
X665Y4173D01*
X666Y4173D01*
X667Y4173D01*
X668Y4173D01*
X669Y4173D01*
X670Y4173D01*
X671Y4173D01*
X672Y4173D01*
X673Y4173D01*
X674Y4173D01*
X675Y4173D01*
X676Y4173D01*
X677Y4173D01*
X678Y4173D01*
X679Y4173D01*
X680Y4173D01*
X681Y4173D01*
X682Y4173D01*
X683Y4173D01*
X684Y4173D01*
X685Y4173D01*
X686Y4173D01*
X687Y4173D01*
X688Y4173D01*
X689Y4173D01*
X690Y4173D01*
X691Y4173D01*
X692Y4173D01*
X693Y4173D01*
X694Y4173D01*
X695Y4173D01*
X696Y4173D01*
X697Y4173D01*
X698Y4173D01*
X699Y4173D01*
X700Y4173D01*
X701Y4173D01*
X702Y4173D01*
X703Y4173D01*
X704Y4173D01*
X705Y4173D01*
X706Y4173D01*
X707Y4173D01*
X708Y4173D01*
X709Y4173D01*
X710Y4173D01*
X711Y4173D01*
X712Y4173D01*
X713Y4173D01*
X714Y4173D01*
X715Y4173D01*
X716Y4173D01*
X717Y4173D01*
X718Y4173D01*
X719Y4173D01*
X720Y4173D01*
X721Y4173D01*
X722Y4173D01*
X723Y4173D01*
X724Y4173D01*
X725Y4173D01*
X726Y4173D01*
X727Y4173D01*
X728Y4173D01*
X729Y4173D01*
X730Y4173D01*
X731Y4173D01*
X732Y4173D01*
X733Y4173D01*
X734Y4173D01*
X735Y4173D01*
X736Y4173D01*
X737Y4173D01*
X738Y4173D01*
X739Y4173D01*
X740Y4173D01*
X741Y4173D01*
X742Y4173D01*
X743Y4173D01*
X744Y4173D01*
X745Y4173D01*
X746Y4173D01*
X747Y4173D01*
X748Y4173D01*
X749Y4173D01*
X750Y4173D01*
X751Y4173D01*
X752Y4173D01*
X753Y4173D01*
X754Y4173D01*
X755Y4173D01*
X756Y4173D01*
X757Y4173D01*
X758Y4173D01*
X759Y4173D01*
X760Y4173D01*
X761Y4173D01*
X762Y4173D01*
X763Y4173D01*
X764Y4173D01*
X765Y4173D01*
X766Y4173D01*
X767Y4173D01*
X768Y4173D01*
X769Y4173D01*
X770Y4173D01*
X771Y4173D01*
X772Y4173D01*
X773Y4173D01*
X774Y4173D01*
X775Y4173D01*
X776Y4173D01*
X777Y4173D01*
X778Y4173D01*
X779Y4173D01*
X780Y4173D01*
X781Y4173D01*
X782Y4173D01*
X783Y4173D01*
X784Y4173D01*
X785Y4173D01*
X786Y4173D01*
X787Y4173D01*
X788Y4173D01*
X789Y4173D01*
X790Y4173D01*
X791Y4173D01*
X792Y4173D01*
X793Y4173D01*
X794Y4173D01*
X795Y4173D01*
X796Y4173D01*
X797Y4173D01*
X798Y4173D01*
X799Y4173D01*
X800Y4173D01*
X801Y4173D01*
X802Y4173D01*
X803Y4173D01*
X804Y4173D01*
X805Y4173D01*
X806Y4173D01*
X807Y4173D01*
X808Y4173D01*
X809Y4173D01*
X810Y4173D01*
X811Y4173D01*
X812Y4173D01*
X813Y4173D01*
X814Y4173D01*
X815Y4173D01*
X816Y4173D01*
X817Y4173D01*
X818Y4173D01*
X819Y4173D01*
X820Y4173D01*
X821Y4173D01*
X822Y4173D01*
X823Y4173D01*
X824Y4173D01*
X825Y4173D01*
X826Y4173D01*
X827Y4173D01*
X828Y4173D01*
X829Y4173D01*
X830Y4173D01*
X831Y4173D01*
X832Y4173D01*
X833Y4173D01*
X834Y4173D01*
X835Y4173D01*
X836Y4173D01*
X837Y4173D01*
X838Y4173D01*
X839Y4173D01*
X840Y4173D01*
X841Y4173D01*
X842Y4173D01*
X843Y4173D01*
X844Y4173D01*
X845Y4173D01*
X846Y4173D01*
X847Y4173D01*
X848Y4173D01*
X849Y4173D01*
X850Y4173D01*
X851Y4173D01*
X852Y4173D01*
X853Y4173D01*
X854Y4173D01*
X855Y4173D01*
X856Y4173D01*
X857Y4173D01*
X858Y4173D01*
X859Y4173D01*
X860Y4173D01*
X861Y4173D01*
X862Y4173D01*
X863Y4173D01*
X864Y4173D01*
X865Y4173D01*
X866Y4173D01*
X867Y4173D01*
X868Y4173D01*
X869Y4173D01*
X870Y4173D01*
X871Y4173D01*
X872Y4173D01*
X873Y4173D01*
X874Y4173D01*
X875Y4173D01*
X876Y4173D01*
X877Y4173D01*
X878Y4173D01*
X879Y4173D01*
X880Y4173D01*
X881Y4173D01*
X882Y4173D01*
X883Y4173D01*
X884Y4173D01*
X885Y4173D01*
X886Y4173D01*
X887Y4173D01*
X888Y4173D01*
X889Y4173D01*
X890Y4173D01*
X891Y4173D01*
X892Y4173D01*
X893Y4173D01*
X894Y4173D01*
X895Y4173D01*
X896Y4173D01*
X897Y4173D01*
X898Y4173D01*
X899Y4173D01*
X900Y4173D01*
X901Y4173D01*
X902Y4173D01*
X903Y4173D01*
X904Y4173D01*
X905Y4173D01*
X906Y4173D01*
X907Y4173D01*
X908Y4173D01*
X909Y4173D01*
X910Y4173D01*
X911Y4173D01*
X912Y4173D01*
X913Y4173D01*
X914Y4173D01*
X915Y4173D01*
X916Y4173D01*
X917Y4173D01*
X918Y4173D01*
X919Y4173D01*
X920Y4173D01*
X921Y4173D01*
X922Y4173D01*
X923Y4173D01*
X924Y4173D01*
X925Y4173D01*
X926Y4173D01*
X927Y4173D01*
X928Y4173D01*
X929Y4173D01*
X930Y4173D01*
X931Y4173D01*
X932Y4173D01*
X933Y4173D01*
X934Y4173D01*
X935Y4173D01*
X936Y4173D01*
X937Y4173D01*
X938Y4173D01*
X939Y4173D01*
X940Y4173D01*
X941Y4173D01*
X942Y4173D01*
X943Y4173D01*
X944Y4173D01*
X945Y4173D01*
X946Y4173D01*
X947Y4173D01*
X948Y4173D01*
X949Y4173D01*
X950Y4173D01*
X951Y4173D01*
X952Y4173D01*
X953Y4173D01*
X954Y4173D01*
X955Y4173D01*
X956Y4173D01*
X957Y4173D01*
X958Y4173D01*
X959Y4173D01*
X960Y4173D01*
X961Y4173D01*
X962Y4173D01*
X963Y4173D01*
X964Y4173D01*
X965Y4173D01*
X966Y4173D01*
X967Y4173D01*
X968Y4173D01*
X969Y4173D01*
X970Y4173D01*
X971Y4173D01*
X972Y4173D01*
X973Y4173D01*
X974Y4173D01*
X975Y4173D01*
X976Y4173D01*
X977Y4173D01*
X978Y4173D01*
X979Y4173D01*
X980Y4173D01*
X981Y4173D01*
X982Y4173D01*
X983Y4173D01*
X984Y4173D01*
X985Y4173D01*
X986Y4173D01*
X987Y4173D01*
X988Y4173D01*
X989Y4173D01*
X990Y4173D01*
X991Y4173D01*
X992Y4173D01*
X993Y4173D01*
X994Y4173D01*
X995Y4173D01*
X996Y4173D01*
X997Y4173D01*
X998Y4173D01*
X999Y4173D01*
X1000Y4173D01*
X1001Y4173D01*
X1002Y4173D01*
X1003Y4173D01*
X1004Y4173D01*
X1005Y4173D01*
X1006Y4173D01*
X1007Y4173D01*
X1008Y4173D01*
X1009Y4173D01*
X1010Y4173D01*
X1011Y4173D01*
X1012Y4173D01*
X1013Y4173D01*
X1014Y4173D01*
X1015Y4173D01*
X1016Y4173D01*
X1017Y4173D01*
X1018Y4173D01*
X1019Y4173D01*
X1020Y4173D01*
X1021Y4173D01*
X1022Y4173D01*
X1023Y4173D01*
X1024Y4173D01*
X1025Y4173D01*
X1026Y4173D01*
X1027Y4173D01*
X1028Y4173D01*
X1029Y4173D01*
X1030Y4173D01*
X1031Y4173D01*
X1032Y4173D01*
X1033Y4173D01*
X1034Y4173D01*
X1035Y4173D01*
X1036Y4173D01*
X1037Y4173D01*
X1038Y4173D01*
X1039Y4173D01*
X1040Y4173D01*
X1041Y4173D01*
X1042Y4173D01*
X1043Y4173D01*
X1044Y4173D01*
X1045Y4173D01*
X1046Y4173D01*
X1047Y4173D01*
X1048Y4173D01*
X1049Y4173D01*
X1050Y4173D01*
X1051Y4173D01*
X1052Y4173D01*
X1053Y4173D01*
X1054Y4173D01*
X1055Y4173D01*
X1056Y4173D01*
X1057Y4173D01*
X1058Y4173D01*
X1059Y4173D01*
X1060Y4173D01*
X1061Y4173D01*
X1062Y4173D01*
X1063Y4173D01*
X1064Y4173D01*
X1065Y4173D01*
X1066Y4173D01*
X1067Y4173D01*
X1068Y4173D01*
X1069Y4173D01*
X1070Y4173D01*
X1071Y4173D01*
X1072Y4173D01*
X1073Y4173D01*
X1074Y4173D01*
X1075Y4173D01*
X1076Y4173D01*
X1077Y4173D01*
X1078Y4173D01*
X1079Y4173D01*
X1080Y4173D01*
X1081Y4173D01*
X1082Y4173D01*
X1083Y4173D01*
X1084Y4173D01*
X1085Y4173D01*
X1086Y4173D01*
X1087Y4173D01*
X1088Y4173D01*
X1089Y4173D01*
X1090Y4173D01*
X1091Y4173D01*
X1092Y4173D01*
X1093Y4173D01*
X1094Y4173D01*
X1095Y4173D01*
X1096Y4173D01*
X1097Y4173D01*
X1098Y4173D01*
X1099Y4173D01*
X1100Y4173D01*
X1101Y4173D01*
X1102Y4173D01*
X1103Y4173D01*
X1104Y4173D01*
X1105Y4173D01*
X1106Y4173D01*
X1107Y4173D01*
X1108Y4173D01*
X1109Y4173D01*
X1110Y4173D01*
X1111Y4173D01*
X1112Y4173D01*
X1113Y4173D01*
X1114Y4173D01*
X1115Y4173D01*
X1116Y4173D01*
X1117Y4173D01*
X1118Y4173D01*
X1119Y4173D01*
X1120Y4173D01*
X1121Y4173D01*
X1122Y4173D01*
X1123Y4173D01*
X1124Y4173D01*
X1125Y4173D01*
X1126Y4173D01*
X1127Y4173D01*
X1128Y4173D01*
X1129Y4173D01*
X1130Y4173D01*
X1131Y4173D01*
X1132Y4173D01*
X1133Y4173D01*
X1134Y4173D01*
X1135Y4173D01*
X1136Y4173D01*
X1137Y4173D01*
X1138Y4173D01*
X1139Y4173D01*
X1140Y4173D01*
X1141Y4173D01*
X1142Y4173D01*
X1143Y4173D01*
X1144Y4173D01*
X1145Y4173D01*
X1146Y4173D01*
X1147Y4173D01*
X1148Y4173D01*
X1149Y4173D01*
X1150Y4173D01*
X1151Y4173D01*
X1152Y4173D01*
X1153Y4173D01*
X1154Y4173D01*
X1155Y4173D01*
X1156Y4173D01*
X1157Y4173D01*
X1158Y4173D01*
X1159Y4173D01*
X1160Y4173D01*
X1161Y4173D01*
X1162Y4173D01*
X1163Y4173D01*
X1164Y4173D01*
X1165Y4173D01*
X1166Y4173D01*
X1167Y4173D01*
X1168Y4173D01*
X1169Y4173D01*
X1170Y4173D01*
X1171Y4173D01*
X1172Y4173D01*
X1173Y4173D01*
X1174Y4173D01*
X1175Y4173D01*
X1176Y4173D01*
X1177Y4173D01*
X1178Y4173D01*
X1179Y4173D01*
X1180Y4173D01*
X1181Y4173D01*
X1182Y4173D01*
X1183Y4173D01*
X1184Y4173D01*
X1185Y4173D01*
X1186Y4173D01*
X1187Y4173D01*
X1188Y4173D01*
X1189Y4173D01*
X1190Y4173D01*
X1191Y4173D01*
X1192Y4173D01*
X1193Y4173D01*
X1194Y4173D01*
X1195Y4173D01*
X1196Y4173D01*
X1197Y4173D01*
X1198Y4173D01*
X1199Y4173D01*
X1200Y4173D01*
X1201Y4173D01*
X1202Y4173D01*
X1203Y4173D01*
X1204Y4173D01*
X1205Y4173D01*
X1206Y4173D01*
X1207Y4173D01*
X1208Y4173D01*
X1209Y4173D01*
X1210Y4173D01*
X1211Y4173D01*
X1212Y4173D01*
X1213Y4173D01*
X1214Y4173D01*
X1215Y4173D01*
X1216Y4173D01*
X1217Y4173D01*
X1218Y4173D01*
X1219Y4173D01*
X1220Y4173D01*
X1221Y4173D01*
X1222Y4173D01*
X1223Y4173D01*
X1224Y4173D01*
X1225Y4173D01*
X1226Y4173D01*
X1227Y4173D01*
X1228Y4173D01*
X1229Y4173D01*
X1230Y4173D01*
X1231Y4173D01*
X1232Y4173D01*
X1233Y4173D01*
X1234Y4173D01*
X1235Y4173D01*
X1236Y4173D01*
X1237Y4173D01*
X1238Y4173D01*
X1239Y4173D01*
X1240Y4173D01*
X1241Y4173D01*
X1242Y4173D01*
X1243Y4173D01*
X1244Y4173D01*
X1245Y4173D01*
X1246Y4173D01*
X1247Y4173D01*
X1248Y4173D01*
X1249Y4173D01*
X1250Y4173D01*
X1251Y4173D01*
X1252Y4173D01*
X1253Y4173D01*
X1254Y4173D01*
X1255Y4173D01*
X1256Y4173D01*
X1257Y4173D01*
X1258Y4173D01*
X1259Y4173D01*
X1260Y4173D01*
X1261Y4173D01*
X1262Y4173D01*
X1263Y4173D01*
X1264Y4173D01*
X1265Y4173D01*
X1266Y4173D01*
X1267Y4173D01*
X1268Y4173D01*
X1269Y4173D01*
X1270Y4173D01*
X1271Y4173D01*
X1272Y4173D01*
X1273Y4173D01*
X1274Y4173D01*
X1275Y4173D01*
X1276Y4173D01*
X1277Y4173D01*
X1278Y4173D01*
X1279Y4173D01*
X1280Y4173D01*
X1281Y4173D01*
X1282Y4173D01*
X1283Y4173D01*
X1284Y4173D01*
X1285Y4173D01*
X1286Y4173D01*
X1287Y4173D01*
X1288Y4173D01*
X1289Y4173D01*
X1290Y4173D01*
X1291Y4173D01*
X1292Y4173D01*
X1293Y4173D01*
X1294Y4173D01*
X1295Y4173D01*
X1296Y4173D01*
X1297Y4173D01*
X1298Y4173D01*
X1299Y4173D01*
X1300Y4173D01*
X1301Y4173D01*
X1302Y4173D01*
X1303Y4173D01*
X1304Y4173D01*
X1305Y4173D01*
X1306Y4173D01*
X1307Y4173D01*
X1308Y4173D01*
X1309Y4173D01*
X1310Y4173D01*
X1311Y4173D01*
X1312Y4173D01*
X1313Y4173D01*
X1314Y4173D01*
X1315Y4173D01*
X1316Y4173D01*
X1317Y4173D01*
X1318Y4173D01*
X1319Y4173D01*
X1320Y4173D01*
X1321Y4173D01*
X1322Y4173D01*
X1323Y4173D01*
X1324Y4173D01*
X1325Y4173D01*
X1326Y4173D01*
X1327Y4173D01*
X1328Y4173D01*
X1329Y4173D01*
X1330Y4173D01*
X1331Y4173D01*
X1332Y4173D01*
X1333Y4173D01*
X1334Y4173D01*
X1335Y4173D01*
X1336Y4173D01*
X1337Y4173D01*
X1338Y4173D01*
X1339Y4173D01*
X1340Y4173D01*
X1341Y4173D01*
X1342Y4173D01*
X1343Y4173D01*
X1344Y4173D01*
X1345Y4173D01*
X1346Y4173D01*
X1347Y4173D01*
X1348Y4173D01*
X1349Y4173D01*
X1350Y4173D01*
X1351Y4173D01*
X1352Y4173D01*
X1353Y4173D01*
X1354Y4173D01*
X1355Y4173D01*
X1356Y4173D01*
X1357Y4173D01*
X1358Y4173D01*
X1359Y4173D01*
X1360Y4173D01*
X1361Y4173D01*
X1362Y4173D01*
X1363Y4173D01*
X1364Y4173D01*
X1365Y4173D01*
X1366Y4173D01*
X1367Y4173D01*
X1368Y4173D01*
X1369Y4173D01*
X1370Y4173D01*
X1371Y4173D01*
X1372Y4173D01*
X1373Y4173D01*
X1374Y4173D01*
X1375Y4173D01*
X1376Y4173D01*
X1377Y4173D01*
X1378Y4173D01*
X1379Y4173D01*
X1380Y4173D01*
X1381Y4173D01*
X1382Y4173D01*
X1383Y4173D01*
X1384Y4173D01*
X1385Y4173D01*
X1386Y4173D01*
X1387Y4173D01*
X1388Y4173D01*
X1389Y4173D01*
X1390Y4173D01*
X1391Y4173D01*
X1392Y4173D01*
X1393Y4173D01*
X1394Y4173D01*
X1395Y4173D01*
X1396Y4173D01*
X1397Y4173D01*
X1398Y4173D01*
X1399Y4173D01*
X1400Y4173D01*
X1401Y4173D01*
X1402Y4173D01*
X1403Y4173D01*
X1404Y4173D01*
X1405Y4173D01*
X1406Y4173D01*
X1407Y4173D01*
X1408Y4173D01*
X1409Y4173D01*
X1410Y4173D01*
X1411Y4173D01*
X1412Y4173D01*
X1413Y4173D01*
X1414Y4173D01*
X1415Y4173D01*
X1416Y4173D01*
X1417Y4173D01*
X1418Y4173D01*
X1419Y4173D01*
X1420Y4173D01*
X1421Y4173D01*
X1422Y4173D01*
X1423Y4173D01*
X1424Y4173D01*
X1425Y4173D01*
X1426Y4173D01*
X1427Y4173D01*
X1428Y4173D01*
X1429Y4173D01*
X1430Y4173D01*
X1431Y4173D01*
X1432Y4173D01*
X1433Y4173D01*
X1434Y4173D01*
X1435Y4173D01*
X1436Y4173D01*
X1437Y4173D01*
X1438Y4173D01*
X1439Y4173D01*
X1440Y4173D01*
X1441Y4173D01*
X1442Y4173D01*
X1443Y4173D01*
X1444Y4173D01*
X1445Y4173D01*
X1446Y4173D01*
X1447Y4173D01*
X1448Y4173D01*
X1449Y4173D01*
X1450Y4173D01*
X1451Y4173D01*
X1452Y4173D01*
X1453Y4173D01*
X1454Y4173D01*
X1455Y4173D01*
X1456Y4173D01*
X1457Y4173D01*
X1458Y4173D01*
X1459Y4173D01*
X1460Y4173D01*
X1461Y4173D01*
X1462Y4173D01*
X1463Y4173D01*
X1464Y4173D01*
X1465Y4173D01*
X1466Y4173D01*
X1467Y4173D01*
X1468Y4173D01*
X1469Y4173D01*
X1470Y4173D01*
X1471Y4173D01*
X1472Y4173D01*
X1473Y4173D01*
X1474Y4173D01*
X1475Y4173D01*
X1476Y4173D01*
X1477Y4173D01*
X1478Y4173D01*
X1479Y4173D01*
X1480Y4173D01*
X1481Y4173D01*
X1482Y4173D01*
X1483Y4173D01*
X1484Y4173D01*
X1485Y4173D01*
X1486Y4173D01*
X1487Y4173D01*
X1488Y4173D01*
X1489Y4173D01*
X1490Y4173D01*
X1491Y4173D01*
X1492Y4173D01*
X1493Y4173D01*
X1494Y4173D01*
X1495Y4173D01*
X1496Y4173D01*
X1497Y4173D01*
X1498Y4173D01*
X1499Y4173D01*
X1500Y4173D01*
X1501Y4173D01*
X1502Y4173D01*
X1503Y4173D01*
X1504Y4173D01*
X1505Y4173D01*
X1506Y4173D01*
X1507Y4173D01*
X1508Y4173D01*
X1509Y4173D01*
X1510Y4173D01*
X1511Y4173D01*
X1512Y4173D01*
X1513Y4173D01*
X1514Y4173D01*
X1515Y4173D01*
X1516Y4173D01*
X1517Y4173D01*
X1518Y4173D01*
X1519Y4173D01*
X1520Y4173D01*
X1521Y4173D01*
X1522Y4173D01*
X1523Y4173D01*
X1524Y4173D01*
X1525Y4173D01*
X1526Y4173D01*
X1527Y4173D01*
X1528Y4173D01*
X1529Y4173D01*
X1530Y4173D01*
X1531Y4173D01*
X1532Y4173D01*
X1533Y4173D01*
X1534Y4173D01*
X1535Y4173D01*
X1536Y4173D01*
X1537Y4173D01*
X1538Y4173D01*
X1539Y4173D01*
X1540Y4173D01*
X1541Y4173D01*
X1542Y4173D01*
X1543Y4173D01*
X1544Y4173D01*
X1545Y4173D01*
X1546Y4173D01*
X1547Y4173D01*
X1548Y4173D01*
X1549Y4173D01*
X1550Y4173D01*
X1551Y4173D01*
X1552Y4173D01*
X1553Y4173D01*
X1554Y4173D01*
X1555Y4173D01*
X1556Y4173D01*
X1557Y4173D01*
X1558Y4173D01*
X1559Y4173D01*
X1560Y4173D01*
X1561Y4173D01*
X1562Y4173D01*
X1563Y4173D01*
X1564Y4173D01*
X1565Y4173D01*
X1566Y4173D01*
X1567Y4173D01*
X1568Y4173D01*
X1569Y4173D01*
X1570Y4173D01*
X1571Y4173D01*
X1572Y4173D01*
X1573Y4173D01*
X1574Y4173D01*
X1575Y4173D01*
X1576Y4173D01*
X1577Y4173D01*
X1578Y4173D01*
X1579Y4173D01*
X1580Y4173D01*
X1581Y4173D01*
X1582Y4173D01*
X1583Y4173D01*
X1584Y4173D01*
X1585Y4173D01*
X1586Y4173D01*
X1587Y4173D01*
X1588Y4173D01*
X1589Y4173D01*
X1590Y4173D01*
X1591Y4173D01*
X1592Y4172D01*
X1593Y4172D01*
X1594Y4172D01*
X1595Y4172D01*
X1596Y4172D01*
X1597Y4172D01*
X1598Y4172D01*
X1599Y4172D01*
X1600Y4172D01*
X1601Y4172D01*
X1602Y4172D01*
X1603Y4172D01*
X1604Y4172D01*
X1605Y4172D01*
X1606Y4172D01*
X1607Y4171D01*
X1608Y4171D01*
X1609Y4171D01*
X1610Y4171D01*
X1611Y4171D01*
X1612Y4171D01*
X1613Y4171D01*
X1614Y4171D01*
X1615Y4171D01*
X1616Y4171D01*
X1617Y4170D01*
X1618Y4170D01*
X1619Y4170D01*
X1620Y4170D01*
X1621Y4170D01*
X1622Y4170D01*
X1623Y4170D01*
X1624Y4170D01*
X1625Y4170D01*
X1626Y4169D01*
X1627Y4169D01*
X1628Y4169D01*
X1629Y4169D01*
X1630Y4169D01*
X1631Y4169D01*
X1632Y4169D01*
X1633Y4168D01*
X1634Y4168D01*
X1635Y4168D01*
X1636Y4168D01*
X1637Y4168D01*
X1638Y4168D01*
X1639Y4167D01*
X1640Y4167D01*
X1641Y4167D01*
X1642Y4167D01*
X1643Y4167D01*
X1644Y4167D01*
X1645Y4166D01*
X1646Y4166D01*
X1647Y4166D01*
X1648Y4166D01*
X1649Y4166D01*
X1650Y4166D01*
X1651Y4165D01*
X1652Y4165D01*
X1653Y4165D01*
X1654Y4165D01*
X1655Y4164D01*
X1656Y4164D01*
X1657Y4164D01*
X1658Y4164D01*
X1659Y4164D01*
X1660Y4163D01*
X1661Y4163D01*
X1662Y4163D01*
X1663Y4163D01*
X1664Y4163D01*
X1665Y4162D01*
X1666Y4162D01*
X1667Y4162D01*
X1668Y4162D01*
X1669Y4161D01*
X1670Y4161D01*
X1671Y4161D01*
X1672Y4161D01*
X1673Y4160D01*
X1674Y4160D01*
X1675Y4160D01*
X1676Y4160D01*
X1677Y4159D01*
X1678Y4159D01*
X1679Y4159D01*
X1680Y4159D01*
X1681Y4158D01*
X1682Y4158D01*
X1683Y4158D01*
X1684Y4157D01*
X1685Y4157D01*
X1686Y4157D01*
X1687Y4157D01*
X1688Y4156D01*
X1689Y4156D01*
X1690Y4156D01*
X1691Y4155D01*
X1692Y4155D01*
X1693Y4155D01*
X1694Y4154D01*
X1695Y4154D01*
X1696Y4154D01*
X1697Y4153D01*
X1698Y4153D01*
X1699Y4153D01*
X1700Y4152D01*
X1701Y4152D01*
X1702Y4152D01*
X1703Y4151D01*
X1704Y4151D01*
X1705Y4151D01*
X1706Y4150D01*
X1707Y4150D01*
X1708Y4150D01*
X1709Y4149D01*
X1710Y4149D01*
X1711Y4149D01*
X1712Y4148D01*
X1713Y4148D01*
X1714Y4148D01*
X1715Y4147D01*
X1716Y4147D01*
X1717Y4146D01*
X1718Y4146D01*
X1719Y4146D01*
X1720Y4145D01*
X1721Y4145D01*
X1722Y4145D01*
X1723Y4144D01*
X1724Y4144D01*
X1725Y4143D01*
X1726Y4143D01*
X1727Y4143D01*
X1728Y4142D01*
X1729Y4142D01*
X1730Y4141D01*
X1731Y4141D01*
X1732Y4140D01*
X1733Y4140D01*
X1734Y4140D01*
X1735Y4139D01*
X1736Y4139D01*
X1737Y4138D01*
X1738Y4138D01*
X1739Y4137D01*
X1740Y4137D01*
X1741Y4137D01*
X1742Y4136D01*
X1743Y4136D01*
X1744Y4135D01*
X1745Y4135D01*
X1746Y4134D01*
X1747Y4134D01*
X1748Y4133D01*
X1749Y4133D01*
X1750Y4132D01*
X1751Y4132D01*
X1752Y4131D01*
X1753Y4131D01*
X1754Y4130D01*
X1755Y4130D01*
X1756Y4129D01*
X1757Y4129D01*
X1758Y4128D01*
X1759Y4128D01*
X1760Y4127D01*
X1761Y4127D01*
X1762Y4126D01*
X1763Y4126D01*
X1764Y4125D01*
X1765Y4125D01*
X1766Y4124D01*
X1767Y4124D01*
X1768Y4123D01*
X1769Y4122D01*
X1770Y4122D01*
X1771Y4121D01*
X1772Y4121D01*
X1773Y4120D01*
X1774Y4120D01*
X1775Y4119D01*
X1776Y4119D01*
X1777Y4118D01*
X1778Y4117D01*
X1779Y4117D01*
X1780Y4116D01*
X1781Y4116D01*
X1782Y4115D01*
X1783Y4114D01*
X1784Y4114D01*
X1785Y4113D01*
X1786Y4112D01*
X1787Y4112D01*
X1788Y4111D01*
X1789Y4111D01*
X1790Y4110D01*
X1791Y4109D01*
X1792Y4109D01*
X1793Y4108D01*
X1794Y4108D01*
X1795Y4107D01*
X1796Y4106D01*
X1797Y4105D01*
X1798Y4105D01*
X1799Y4104D01*
X1800Y4103D01*
X1801Y4103D01*
X1802Y4102D01*
X1803Y4101D01*
X1804Y4101D01*
X1805Y4100D01*
X1806Y4099D01*
X1807Y4099D01*
X1808Y4098D01*
X1809Y4097D01*
X1810Y4097D01*
X1811Y4096D01*
X1812Y4095D01*
X1813Y4094D01*
X1814Y4094D01*
X1815Y4093D01*
X1816Y4092D01*
X1817Y4091D01*
X1818Y4091D01*
X1819Y4090D01*
X1820Y4089D01*
X1821Y4088D01*
X1822Y4088D01*
X1823Y4087D01*
X1824Y4086D01*
X1825Y4085D01*
X1826Y4084D01*
X1827Y4083D01*
X1828Y4083D01*
X1829Y4082D01*
X1830Y4081D01*
X1831Y4080D01*
X1832Y4079D01*
X1833Y4079D01*
X1834Y4078D01*
X1835Y4077D01*
X1836Y4076D01*
X1837Y4075D01*
X1838Y4074D01*
X1839Y4073D01*
X1840Y4073D01*
X1841Y4072D01*
X1842Y4071D01*
X1843Y4070D01*
X1844Y4069D01*
X1845Y4068D01*
X1846Y4067D01*
X1847Y4066D01*
X1848Y4065D01*
X1849Y4064D01*
X1850Y4063D01*
X1851Y4063D01*
X1852Y4062D01*
X1853Y4061D01*
X1854Y4060D01*
X1855Y4059D01*
X1856Y4058D01*
X1857Y4057D01*
X1858Y4056D01*
X1859Y4055D01*
X1860Y4054D01*
X1861Y4053D01*
X1862Y4052D01*
X1863Y4051D01*
X1864Y4050D01*
X1864Y4049D01*
X1865Y4048D01*
X1866Y4047D01*
X1867Y4046D01*
X1868Y4045D01*
X1869Y4044D01*
X1870Y4043D01*
X1871Y4042D01*
X1872Y4041D01*
X1873Y4040D01*
X1874Y4039D01*
X1874Y4038D01*
X1875Y4037D01*
X1876Y4036D01*
X1877Y4035D01*
X1878Y4034D01*
X1879Y4033D01*
X1880Y4032D01*
X1880Y4031D01*
X1881Y4030D01*
X1882Y4029D01*
X1883Y4028D01*
X1884Y4027D01*
X1884Y4026D01*
X1885Y4025D01*
X1886Y4024D01*
X1887Y4023D01*
X1888Y4022D01*
X1889Y4021D01*
X1889Y4020D01*
X1890Y4019D01*
X1891Y4018D01*
X1891Y4017D01*
X1892Y4016D01*
X1893Y4015D01*
X1894Y4014D01*
X1894Y4013D01*
X1895Y4012D01*
X1896Y4011D01*
X1897Y4010D01*
X1897Y4009D01*
X1898Y4008D01*
X1899Y4007D01*
X1900Y4006D01*
X1900Y4005D01*
X1901Y4004D01*
X1902Y4003D01*
X1902Y4002D01*
X1903Y4001D01*
X1904Y4000D01*
X1904Y3999D01*
X1905Y3998D01*
X1906Y3997D01*
X1906Y3996D01*
X1907Y3995D01*
X1908Y3994D01*
X1908Y3993D01*
X1909Y3992D01*
X1910Y3991D01*
X1910Y3990D01*
X1911Y3989D01*
X1911Y3988D01*
X1912Y3987D01*
X1913Y3986D01*
X1913Y3985D01*
X1914Y3984D01*
X1914Y3983D01*
X1915Y3982D01*
X1916Y3981D01*
X1916Y3980D01*
X1917Y3979D01*
X1917Y3978D01*
X1918Y3977D01*
X1919Y3976D01*
X1919Y3975D01*
X1920Y3974D01*
X1920Y3973D01*
X1921Y3972D01*
X1921Y3971D01*
X1922Y3970D01*
X1922Y3969D01*
X1923Y3968D01*
X1924Y3967D01*
X1924Y3966D01*
X1925Y3965D01*
X1925Y3964D01*
X1926Y3963D01*
X1926Y3962D01*
X1927Y3961D01*
X1927Y3960D01*
X1928Y3959D01*
X1928Y3958D01*
X1929Y3957D01*
X1929Y3956D01*
X1930Y3955D01*
X1930Y3954D01*
X1931Y3953D01*
X1931Y3952D01*
X1932Y3951D01*
X1932Y3950D01*
X1933Y3949D01*
X1933Y3947D01*
X1934Y3946D01*
X1934Y3945D01*
X1935Y3944D01*
X1935Y3943D01*
X1936Y3942D01*
X1936Y3941D01*
X1937Y3940D01*
X1937Y3938D01*
X1938Y3937D01*
X1938Y3936D01*
X1939Y3935D01*
X1939Y3934D01*
X1940Y3933D01*
X1940Y3931D01*
X1941Y3930D01*
X1941Y3929D01*
X1942Y3928D01*
X1942Y3926D01*
X1943Y3925D01*
X1943Y3924D01*
X1944Y3923D01*
X1944Y3921D01*
X1945Y3920D01*
X1945Y3918D01*
X1946Y3917D01*
X1946Y3915D01*
X1947Y3914D01*
X1947Y3912D01*
X1948Y3911D01*
X1948Y3910D01*
X1949Y3909D01*
X1949Y3907D01*
X1950Y3906D01*
X1950Y3903D01*
X1951Y3902D01*
X1951Y3900D01*
X1952Y3899D01*
X1952Y3897D01*
X1953Y3896D01*
X1953Y3893D01*
X1954Y3892D01*
X1954Y3890D01*
X1955Y3889D01*
X1955Y3886D01*
X1956Y3885D01*
X1956Y3882D01*
X1957Y3881D01*
X1957Y3878D01*
X1958Y3877D01*
X1958Y3873D01*
X1959Y3872D01*
X1959Y3869D01*
X1960Y3868D01*
X1960Y3864D01*
X1961Y3863D01*
X1961Y3858D01*
X1962Y3857D01*
X1962Y3852D01*
X1963Y3851D01*
X1963Y3845D01*
X1964Y3844D01*
X1964Y3837D01*
X1965Y3836D01*
X1965Y3828D01*
X1966Y3827D01*
X1966Y3814D01*
X1967Y3813D01*
X1967Y361D01*
X1966Y360D01*
X1966Y347D01*
X1965Y346D01*
X1965Y337D01*
X1964Y336D01*
X1964Y330D01*
X1963Y329D01*
X1963Y323D01*
X1962Y322D01*
X1962Y317D01*
X1961Y316D01*
X1961Y311D01*
X1960Y310D01*
X1960Y306D01*
X1959Y305D01*
X1959Y302D01*
X1958Y301D01*
X1958Y297D01*
X1957Y296D01*
X1957Y293D01*
X1956Y292D01*
X1956Y289D01*
X1955Y288D01*
X1955Y285D01*
X1954Y284D01*
X1954Y282D01*
X1953Y281D01*
X1953Y278D01*
X1952Y277D01*
X1952Y275D01*
X1951Y274D01*
X1951Y272D01*
X1950Y271D01*
X1950Y268D01*
X1949Y267D01*
X1949Y265D01*
X1948Y264D01*
X1948Y263D01*
X1947Y262D01*
X1947Y260D01*
X1946Y259D01*
X1946Y257D01*
X1945Y256D01*
X1945Y254D01*
X1944Y253D01*
X1944Y251D01*
X1943Y250D01*
X1943Y249D01*
X1942Y248D01*
X1942Y246D01*
X1941Y245D01*
X1941Y244D01*
X1940Y243D01*
X1940Y241D01*
X1939Y240D01*
X1939Y239D01*
X1938Y238D01*
X1938Y237D01*
X1937Y236D01*
X1937Y234D01*
X1936Y233D01*
X1936Y232D01*
X1935Y231D01*
X1935Y230D01*
X1934Y229D01*
X1934Y228D01*
X1933Y227D01*
X1933Y225D01*
X1932Y224D01*
X1932Y223D01*
X1931Y222D01*
X1931Y221D01*
X1930Y220D01*
X1930Y219D01*
X1929Y218D01*
X1929Y217D01*
X1928Y216D01*
X1928Y215D01*
X1927Y214D01*
X1927Y213D01*
X1926Y212D01*
X1926Y211D01*
X1925Y210D01*
X1925Y209D01*
X1924Y208D01*
X1924Y207D01*
X1923Y206D01*
X1922Y205D01*
X1922Y204D01*
X1921Y203D01*
X1921Y202D01*
X1920Y201D01*
X1920Y200D01*
X1919Y199D01*
X1919Y198D01*
X1918Y197D01*
X1917Y196D01*
X1917Y195D01*
X1916Y194D01*
X1916Y193D01*
X1915Y192D01*
X1914Y191D01*
X1914Y190D01*
X1913Y189D01*
X1913Y188D01*
X1912Y187D01*
X1911Y186D01*
X1911Y185D01*
X1910Y184D01*
X1910Y183D01*
X1909Y182D01*
X1908Y181D01*
X1908Y180D01*
X1907Y179D01*
X1906Y178D01*
X1906Y177D01*
X1905Y176D01*
X1904Y175D01*
X1904Y174D01*
X1903Y173D01*
X1902Y172D01*
X1902Y171D01*
X1901Y170D01*
X1900Y169D01*
X1900Y168D01*
X1899Y167D01*
X1898Y166D01*
X1897Y165D01*
X1897Y164D01*
X1896Y163D01*
X1895Y162D01*
X1894Y161D01*
X1894Y160D01*
X1893Y159D01*
X1892Y158D01*
X1892Y157D01*
X1891Y156D01*
X1890Y155D01*
X1889Y154D01*
X1889Y153D01*
X1888Y152D01*
X1887Y151D01*
X1886Y150D01*
X1885Y149D01*
X1884Y148D01*
X1884Y147D01*
X1883Y146D01*
X1882Y145D01*
X1881Y144D01*
X1880Y143D01*
X1880Y142D01*
X1879Y141D01*
X1878Y140D01*
X1877Y139D01*
X1876Y138D01*
X1875Y137D01*
X1874Y136D01*
X1874Y135D01*
X1873Y134D01*
X1872Y133D01*
X1871Y132D01*
X1870Y131D01*
X1869Y130D01*
X1868Y129D01*
X1867Y128D01*
X1866Y127D01*
X1865Y126D01*
X1864Y125D01*
X1864Y124D01*
X1863Y123D01*
X1862Y122D01*
X1861Y121D01*
X1860Y120D01*
X1859Y119D01*
X1858Y118D01*
X1857Y117D01*
X1856Y116D01*
X1855Y115D01*
X1854Y114D01*
X1853Y113D01*
X1852Y112D01*
X1851Y111D01*
X1850Y111D01*
X1849Y110D01*
X1848Y109D01*
X1847Y108D01*
X1846Y107D01*
X1845Y106D01*
X1844Y105D01*
X1843Y104D01*
X1842Y103D01*
X1841Y102D01*
X1840Y101D01*
X1839Y101D01*
X1838Y100D01*
X1837Y99D01*
X1836Y98D01*
X1835Y97D01*
X1834Y96D01*
X1833Y95D01*
X1832Y95D01*
X1831Y94D01*
X1830Y93D01*
X1829Y92D01*
X1828Y91D01*
X1827Y91D01*
X1826Y90D01*
X1825Y89D01*
X1824Y88D01*
X1823Y87D01*
X1822Y86D01*
X1821Y86D01*
X1820Y85D01*
X1819Y84D01*
X1818Y83D01*
X1817Y83D01*
X1816Y82D01*
X1815Y81D01*
X1814Y80D01*
X1813Y80D01*
X1812Y79D01*
X1811Y78D01*
X1810Y77D01*
X1809Y77D01*
X1808Y76D01*
X1807Y75D01*
X1806Y75D01*
X1805Y74D01*
X1804Y73D01*
X1803Y73D01*
X1802Y72D01*
X1801Y71D01*
X1800Y71D01*
X1799Y70D01*
X1798Y69D01*
X1797Y69D01*
X1796Y68D01*
X1795Y67D01*
X1794Y66D01*
X1793Y66D01*
X1792Y65D01*
X1791Y65D01*
X1790Y64D01*
X1789Y63D01*
X1788Y63D01*
X1787Y62D01*
X1786Y62D01*
X1785Y61D01*
X1784Y60D01*
X1783Y60D01*
X1782Y59D01*
X1781Y58D01*
X1780Y58D01*
X1779Y57D01*
X1778Y57D01*
X1777Y56D01*
X1776Y55D01*
X1775Y55D01*
X1774Y54D01*
X1773Y54D01*
X1772Y53D01*
X1771Y53D01*
X1770Y52D01*
X1769Y52D01*
X1768Y51D01*
X1767Y50D01*
X1766Y50D01*
X1765Y49D01*
X1764Y49D01*
X1763Y48D01*
X1762Y48D01*
X1761Y47D01*
X1760Y47D01*
X1759Y46D01*
X1758Y46D01*
X1757Y45D01*
X1756Y45D01*
X1755Y44D01*
X1754Y44D01*
X1753Y43D01*
X1752Y43D01*
X1751Y42D01*
X1750Y42D01*
X1749Y41D01*
X1748Y41D01*
X1747Y40D01*
X1746Y40D01*
X1745Y39D01*
X1744Y39D01*
X1743Y38D01*
X1742Y38D01*
X1741Y37D01*
X1740Y37D01*
X1739Y37D01*
X1738Y36D01*
X1737Y36D01*
X1736Y35D01*
X1735Y35D01*
X1734Y34D01*
X1733Y34D01*
X1732Y34D01*
X1731Y33D01*
X1730Y33D01*
X1729Y32D01*
X1728Y32D01*
X1727Y31D01*
X1726Y31D01*
X1725Y31D01*
X1724Y30D01*
X1723Y30D01*
X1722Y29D01*
X1721Y29D01*
X1720Y29D01*
X1719Y28D01*
X1718Y28D01*
X1717Y28D01*
X1716Y27D01*
X1715Y27D01*
X1714Y26D01*
X1713Y26D01*
X1712Y26D01*
X1711Y25D01*
X1710Y25D01*
X1709Y25D01*
X1708Y24D01*
X1707Y24D01*
X1706Y24D01*
X1705Y23D01*
X1704Y23D01*
X1703Y23D01*
X1702Y22D01*
X1701Y22D01*
X1700Y22D01*
X1699Y21D01*
X1698Y21D01*
X1697Y21D01*
X1696Y20D01*
X1695Y20D01*
X1694Y20D01*
X1693Y19D01*
X1692Y19D01*
X1691Y19D01*
X1690Y18D01*
X1689Y18D01*
X1688Y18D01*
X1687Y17D01*
X1686Y17D01*
X1685Y17D01*
X1684Y17D01*
X1683Y16D01*
X1682Y16D01*
X1681Y16D01*
X1680Y15D01*
X1679Y15D01*
X1678Y15D01*
X1677Y15D01*
X1676Y14D01*
X1675Y14D01*
X1674Y14D01*
X1673Y14D01*
X1672Y13D01*
X1671Y13D01*
X1670Y13D01*
X1669Y13D01*
X1668Y12D01*
X1667Y12D01*
X1666Y12D01*
X1665Y12D01*
X1664Y11D01*
X1663Y11D01*
X1662Y11D01*
X1661Y11D01*
X1660Y11D01*
X1659Y10D01*
X1658Y10D01*
X1657Y10D01*
X1656Y10D01*
X1655Y9D01*
X1654Y9D01*
X1653Y9D01*
X1652Y9D01*
X1651Y9D01*
X1650Y8D01*
X1649Y8D01*
X1648Y8D01*
X1647Y8D01*
X1646Y8D01*
X1645Y8D01*
X1644Y7D01*
X1643Y7D01*
X1642Y7D01*
X1641Y7D01*
X1640Y7D01*
X1639Y7D01*
X1638Y6D01*
X1637Y6D01*
X1636Y6D01*
X1635Y6D01*
X1634Y6D01*
X1633Y6D01*
X1632Y5D01*
X1631Y5D01*
X1630Y5D01*
X1629Y5D01*
X1628Y5D01*
X1627Y5D01*
X1626Y5D01*
X1625Y4D01*
X1624Y4D01*
X1623Y4D01*
X1622Y4D01*
X1621Y4D01*
X1620Y4D01*
X1619Y4D01*
X1618Y4D01*
X1617Y4D01*
X1616Y3D01*
X1615Y3D01*
X1614Y3D01*
X1613Y3D01*
X1612Y3D01*
X1611Y3D01*
X1610Y3D01*
X1609Y3D01*
X1608Y3D01*
X1607Y3D01*
X1606Y2D01*
X1605Y2D01*
X1604Y2D01*
X1603Y2D01*
X1602Y2D01*
X1601Y2D01*
X1600Y2D01*
X1599Y2D01*
X1598Y2D01*
X1597Y2D01*
X1596Y2D01*
X1595Y2D01*
X1594Y2D01*
X1593Y2D01*
X1592Y1D01*
X1591Y1D01*
X1590Y1D01*
X1589Y1D01*
X1588Y1D01*
X1587Y1D01*
X1586Y1D01*
X1585Y1D01*
X1584Y1D01*
X1583Y1D01*
X1582Y1D01*
X1581Y1D01*
X1580Y1D01*
X1579Y1D01*
X1578Y1D01*
X1577Y1D01*
X1576Y1D01*
X1575Y1D01*
X1574Y1D01*
X1573Y1D01*
X1572Y1D01*
X1571Y1D01*
X1570Y1D01*
X1569Y1D01*
X1568Y1D01*
X1567Y1D01*
X1566Y1D01*
X1565Y1D01*
X1564Y1D01*
X1563Y1D01*
X1562Y1D01*
X1561Y1D01*
X1560Y1D01*
X1559Y1D01*
X1558Y1D01*
X1557Y1D01*
X1556Y1D01*
X1555Y1D01*
X1554Y1D01*
X1553Y1D01*
X1552Y1D01*
X1551Y1D01*
X1550Y1D01*
X1549Y1D01*
X1548Y1D01*
X1547Y1D01*
X1546Y1D01*
X1545Y1D01*
X1544Y1D01*
X1543Y1D01*
X1542Y1D01*
X1541Y1D01*
X1540Y1D01*
X1539Y1D01*
X1538Y1D01*
X1537Y1D01*
X1536Y1D01*
X1535Y1D01*
X1534Y1D01*
X1533Y1D01*
X1532Y1D01*
X1531Y1D01*
X1530Y1D01*
X1529Y1D01*
X1528Y1D01*
X1527Y1D01*
X1526Y1D01*
X1525Y1D01*
X1524Y1D01*
X1523Y1D01*
X1522Y1D01*
X1521Y1D01*
X1520Y1D01*
X1519Y1D01*
X1518Y1D01*
X1517Y1D01*
X1516Y1D01*
X1515Y1D01*
X1514Y1D01*
X1513Y1D01*
X1512Y1D01*
X1511Y1D01*
X1510Y1D01*
X1509Y1D01*
X1508Y1D01*
X1507Y1D01*
X1506Y1D01*
X1505Y1D01*
X1504Y1D01*
X1503Y1D01*
X1502Y1D01*
X1501Y1D01*
X1500Y1D01*
X1499Y1D01*
X1498Y1D01*
X1497Y1D01*
X1496Y1D01*
X1495Y1D01*
X1494Y1D01*
X1493Y1D01*
X1492Y1D01*
X1491Y1D01*
X1490Y1D01*
X1489Y1D01*
X1488Y1D01*
X1487Y1D01*
X1486Y1D01*
X1485Y1D01*
X1484Y1D01*
X1483Y1D01*
X1482Y1D01*
X1481Y1D01*
X1480Y1D01*
X1479Y1D01*
X1478Y1D01*
X1477Y1D01*
X1476Y1D01*
X1475Y1D01*
X1474Y1D01*
X1473Y1D01*
X1472Y1D01*
X1471Y1D01*
X1470Y1D01*
X1469Y1D01*
X1468Y1D01*
X1467Y1D01*
X1466Y1D01*
X1465Y1D01*
X1464Y1D01*
X1463Y1D01*
X1462Y1D01*
X1461Y1D01*
X1460Y1D01*
X1459Y1D01*
X1458Y1D01*
X1457Y1D01*
X1456Y1D01*
X1455Y1D01*
X1454Y1D01*
X1453Y1D01*
X1452Y1D01*
X1451Y1D01*
X1450Y1D01*
X1449Y1D01*
X1448Y1D01*
X1447Y1D01*
X1446Y1D01*
X1445Y1D01*
X1444Y1D01*
X1443Y1D01*
X1442Y1D01*
X1441Y1D01*
X1440Y1D01*
X1439Y1D01*
X1438Y1D01*
X1437Y1D01*
X1436Y1D01*
X1435Y1D01*
X1434Y1D01*
X1433Y1D01*
X1432Y1D01*
X1431Y1D01*
X1430Y1D01*
X1429Y1D01*
X1428Y1D01*
X1427Y1D01*
X1426Y1D01*
X1425Y1D01*
X1424Y1D01*
X1423Y1D01*
X1422Y1D01*
X1421Y1D01*
X1420Y1D01*
X1419Y1D01*
X1418Y1D01*
X1417Y1D01*
X1416Y1D01*
X1415Y1D01*
X1414Y1D01*
X1413Y1D01*
X1412Y1D01*
X1411Y1D01*
X1410Y1D01*
X1409Y1D01*
X1408Y1D01*
X1407Y1D01*
X1406Y1D01*
X1405Y1D01*
X1404Y1D01*
X1403Y1D01*
X1402Y1D01*
X1401Y1D01*
X1400Y1D01*
X1399Y1D01*
X1398Y1D01*
X1397Y1D01*
X1396Y1D01*
X1395Y1D01*
X1394Y1D01*
X1393Y1D01*
X1392Y1D01*
X1391Y1D01*
X1390Y1D01*
X1389Y1D01*
X1388Y1D01*
X1387Y1D01*
X1386Y1D01*
X1385Y1D01*
X1384Y1D01*
X1383Y1D01*
X1382Y1D01*
X1381Y1D01*
X1380Y1D01*
X1379Y1D01*
X1378Y1D01*
X1377Y1D01*
X1376Y1D01*
X1375Y1D01*
X1374Y1D01*
X1373Y1D01*
X1372Y1D01*
X1371Y1D01*
X1370Y1D01*
X1369Y1D01*
X1368Y1D01*
X1367Y1D01*
X1366Y1D01*
X1365Y1D01*
X1364Y1D01*
X1363Y1D01*
X1362Y1D01*
X1361Y1D01*
X1360Y1D01*
X1359Y1D01*
X1358Y1D01*
X1357Y1D01*
X1356Y1D01*
X1355Y1D01*
X1354Y1D01*
X1353Y1D01*
X1352Y1D01*
X1351Y1D01*
X1350Y1D01*
X1349Y1D01*
X1348Y1D01*
X1347Y1D01*
X1346Y1D01*
X1345Y1D01*
X1344Y1D01*
X1343Y1D01*
X1342Y1D01*
X1341Y1D01*
X1340Y1D01*
X1339Y1D01*
X1338Y1D01*
X1337Y1D01*
X1336Y1D01*
X1335Y1D01*
X1334Y1D01*
X1333Y1D01*
X1332Y1D01*
X1331Y1D01*
X1330Y1D01*
X1329Y1D01*
X1328Y1D01*
X1327Y1D01*
X1326Y1D01*
X1325Y1D01*
X1324Y1D01*
X1323Y1D01*
X1322Y1D01*
X1321Y1D01*
X1320Y1D01*
X1319Y1D01*
X1318Y1D01*
X1317Y1D01*
X1316Y1D01*
X1315Y1D01*
X1314Y1D01*
X1313Y1D01*
X1312Y1D01*
X1311Y1D01*
X1310Y1D01*
X1309Y1D01*
X1308Y1D01*
X1307Y1D01*
X1306Y1D01*
X1305Y1D01*
X1304Y1D01*
X1303Y1D01*
X1302Y1D01*
X1301Y1D01*
X1300Y1D01*
X1299Y1D01*
X1298Y1D01*
X1297Y1D01*
X1296Y1D01*
X1295Y1D01*
X1294Y1D01*
X1293Y1D01*
X1292Y1D01*
X1291Y1D01*
X1290Y1D01*
X1289Y1D01*
X1288Y1D01*
X1287Y1D01*
X1286Y1D01*
X1285Y1D01*
X1284Y1D01*
X1283Y1D01*
X1282Y1D01*
X1281Y1D01*
X1280Y1D01*
X1279Y1D01*
X1278Y1D01*
X1277Y1D01*
X1276Y1D01*
X1275Y1D01*
X1274Y1D01*
X1273Y1D01*
X1272Y1D01*
X1271Y1D01*
X1270Y1D01*
X1269Y1D01*
X1268Y1D01*
X1267Y1D01*
X1266Y1D01*
X1265Y1D01*
X1264Y1D01*
X1263Y1D01*
X1262Y1D01*
X1261Y1D01*
X1260Y1D01*
X1259Y1D01*
X1258Y1D01*
X1257Y1D01*
X1256Y1D01*
X1255Y1D01*
X1254Y1D01*
X1253Y1D01*
X1252Y1D01*
X1251Y1D01*
X1250Y1D01*
X1249Y1D01*
X1248Y1D01*
X1247Y1D01*
X1246Y1D01*
X1245Y1D01*
X1244Y1D01*
X1243Y1D01*
X1242Y1D01*
X1241Y1D01*
X1240Y1D01*
X1239Y1D01*
X1238Y1D01*
X1237Y1D01*
X1236Y1D01*
X1235Y1D01*
X1234Y1D01*
X1233Y1D01*
X1232Y1D01*
X1231Y1D01*
X1230Y1D01*
X1229Y1D01*
X1228Y1D01*
X1227Y1D01*
X1226Y1D01*
X1225Y1D01*
X1224Y1D01*
X1223Y1D01*
X1222Y1D01*
X1221Y1D01*
X1220Y1D01*
X1219Y1D01*
X1218Y1D01*
X1217Y1D01*
X1216Y1D01*
X1215Y1D01*
X1214Y1D01*
X1213Y1D01*
X1212Y1D01*
X1211Y1D01*
X1210Y1D01*
X1209Y1D01*
X1208Y1D01*
X1207Y1D01*
X1206Y1D01*
X1205Y1D01*
X1204Y1D01*
X1203Y1D01*
X1202Y1D01*
X1201Y1D01*
X1200Y1D01*
X1199Y1D01*
X1198Y1D01*
X1197Y1D01*
X1196Y1D01*
X1195Y1D01*
X1194Y1D01*
X1193Y1D01*
X1192Y1D01*
X1191Y1D01*
X1190Y1D01*
X1189Y1D01*
X1188Y1D01*
X1187Y1D01*
X1186Y1D01*
X1185Y1D01*
X1184Y1D01*
X1183Y1D01*
X1182Y1D01*
X1181Y1D01*
X1180Y1D01*
X1179Y1D01*
X1178Y1D01*
X1177Y1D01*
X1176Y1D01*
X1175Y1D01*
X1174Y1D01*
X1173Y1D01*
X1172Y1D01*
X1171Y1D01*
X1170Y1D01*
X1169Y1D01*
X1168Y1D01*
X1167Y1D01*
X1166Y1D01*
X1165Y1D01*
X1164Y1D01*
X1163Y1D01*
X1162Y1D01*
X1161Y1D01*
X1160Y1D01*
X1159Y1D01*
X1158Y1D01*
X1157Y1D01*
X1156Y1D01*
X1155Y1D01*
X1154Y1D01*
X1153Y1D01*
X1152Y1D01*
X1151Y1D01*
X1150Y1D01*
X1149Y1D01*
X1148Y1D01*
X1147Y1D01*
X1146Y1D01*
X1145Y1D01*
X1144Y1D01*
X1143Y1D01*
X1142Y1D01*
X1141Y1D01*
X1140Y1D01*
X1139Y1D01*
X1138Y1D01*
X1137Y1D01*
X1136Y1D01*
X1135Y1D01*
X1134Y1D01*
X1133Y1D01*
X1132Y1D01*
X1131Y1D01*
X1130Y1D01*
X1129Y1D01*
X1128Y1D01*
X1127Y1D01*
X1126Y1D01*
X1125Y1D01*
X1124Y1D01*
X1123Y1D01*
X1122Y1D01*
X1121Y1D01*
X1120Y1D01*
X1119Y1D01*
X1118Y1D01*
X1117Y1D01*
X1116Y1D01*
X1115Y1D01*
X1114Y1D01*
X1113Y1D01*
X1112Y1D01*
X1111Y1D01*
X1110Y1D01*
X1109Y1D01*
X1108Y1D01*
X1107Y1D01*
X1106Y1D01*
X1105Y1D01*
X1104Y1D01*
X1103Y1D01*
X1102Y1D01*
X1101Y1D01*
X1100Y1D01*
X1099Y1D01*
X1098Y1D01*
X1097Y1D01*
X1096Y1D01*
X1095Y1D01*
X1094Y1D01*
X1093Y1D01*
X1092Y1D01*
X1091Y1D01*
X1090Y1D01*
X1089Y1D01*
X1088Y1D01*
X1087Y1D01*
X1086Y1D01*
X1085Y1D01*
X1084Y1D01*
X1083Y1D01*
X1082Y1D01*
X1081Y1D01*
X1080Y1D01*
X1079Y1D01*
X1078Y1D01*
X1077Y1D01*
X1076Y1D01*
X1075Y1D01*
X1074Y1D01*
X1073Y1D01*
X1072Y1D01*
X1071Y1D01*
X1070Y1D01*
X1069Y1D01*
X1068Y1D01*
X1067Y1D01*
X1066Y1D01*
X1065Y1D01*
X1064Y1D01*
X1063Y1D01*
X1062Y1D01*
X1061Y1D01*
X1060Y1D01*
X1059Y1D01*
X1058Y1D01*
X1057Y1D01*
X1056Y1D01*
X1055Y1D01*
X1054Y1D01*
X1053Y1D01*
X1052Y1D01*
X1051Y1D01*
X1050Y1D01*
X1049Y1D01*
X1048Y1D01*
X1047Y1D01*
X1046Y1D01*
X1045Y1D01*
X1044Y1D01*
X1043Y1D01*
X1042Y1D01*
X1041Y1D01*
X1040Y1D01*
X1039Y1D01*
X1038Y1D01*
X1037Y1D01*
X1036Y1D01*
X1035Y1D01*
X1034Y1D01*
X1033Y1D01*
X1032Y1D01*
X1031Y1D01*
X1030Y1D01*
X1029Y1D01*
X1028Y1D01*
X1027Y1D01*
X1026Y1D01*
X1025Y1D01*
X1024Y1D01*
X1023Y1D01*
X1022Y1D01*
X1021Y1D01*
X1020Y1D01*
X1019Y1D01*
X1018Y1D01*
X1017Y1D01*
X1016Y1D01*
X1015Y1D01*
X1014Y1D01*
X1013Y1D01*
X1012Y1D01*
X1011Y1D01*
X1010Y1D01*
X1009Y1D01*
X1008Y1D01*
X1007Y1D01*
X1006Y1D01*
X1005Y1D01*
X1004Y1D01*
X1003Y1D01*
X1002Y1D01*
X1001Y1D01*
X1000Y1D01*
X999Y1D01*
X998Y1D01*
X997Y1D01*
X996Y1D01*
X995Y1D01*
X994Y1D01*
X993Y1D01*
X992Y1D01*
X991Y1D01*
X990Y1D01*
X989Y1D01*
X988Y1D01*
X987Y1D01*
X986Y1D01*
X985Y1D01*
X984Y1D01*
X983Y1D01*
X982Y1D01*
X981Y1D01*
X980Y1D01*
X979Y1D01*
X978Y1D01*
X977Y1D01*
X976Y1D01*
X975Y1D01*
X974Y1D01*
X973Y1D01*
X972Y1D01*
X971Y1D01*
X970Y1D01*
X969Y1D01*
X968Y1D01*
X967Y1D01*
X966Y1D01*
X965Y1D01*
X964Y1D01*
X963Y1D01*
X962Y1D01*
X961Y1D01*
X960Y1D01*
X959Y1D01*
X958Y1D01*
X957Y1D01*
X956Y1D01*
X955Y1D01*
X954Y1D01*
X953Y1D01*
X952Y1D01*
X951Y1D01*
X950Y1D01*
X949Y1D01*
X948Y1D01*
X947Y1D01*
X946Y1D01*
X945Y1D01*
X944Y1D01*
X943Y1D01*
X942Y1D01*
X941Y1D01*
X940Y1D01*
X939Y1D01*
X938Y1D01*
X937Y1D01*
X936Y1D01*
X935Y1D01*
X934Y1D01*
X933Y1D01*
X932Y1D01*
X931Y1D01*
X930Y1D01*
X929Y1D01*
X928Y1D01*
X927Y1D01*
X926Y1D01*
X925Y1D01*
X924Y1D01*
X923Y1D01*
X922Y1D01*
X921Y1D01*
X920Y1D01*
X919Y1D01*
X918Y1D01*
X917Y1D01*
X916Y1D01*
X915Y1D01*
X914Y1D01*
X913Y1D01*
X912Y1D01*
X911Y1D01*
X910Y1D01*
X909Y1D01*
X908Y1D01*
X907Y1D01*
X906Y1D01*
X905Y1D01*
X904Y1D01*
X903Y1D01*
X902Y1D01*
X901Y1D01*
X900Y1D01*
X899Y1D01*
X898Y1D01*
X897Y1D01*
X896Y1D01*
X895Y1D01*
X894Y1D01*
X893Y1D01*
X892Y1D01*
X891Y1D01*
X890Y1D01*
X889Y1D01*
X888Y1D01*
X887Y1D01*
X886Y1D01*
X885Y1D01*
X884Y1D01*
X883Y1D01*
X882Y1D01*
X881Y1D01*
X880Y1D01*
X879Y1D01*
X878Y1D01*
X877Y1D01*
X876Y1D01*
X875Y1D01*
X874Y1D01*
X873Y1D01*
X872Y1D01*
X871Y1D01*
X870Y1D01*
X869Y1D01*
X868Y1D01*
X867Y1D01*
X866Y1D01*
X865Y1D01*
X864Y1D01*
X863Y1D01*
X862Y1D01*
X861Y1D01*
X860Y1D01*
X859Y1D01*
X858Y1D01*
X857Y1D01*
X856Y1D01*
X855Y1D01*
X854Y1D01*
X853Y1D01*
X852Y1D01*
X851Y1D01*
X850Y1D01*
X849Y1D01*
X848Y1D01*
X847Y1D01*
X846Y1D01*
X845Y1D01*
X844Y1D01*
X843Y1D01*
X842Y1D01*
X841Y1D01*
X840Y1D01*
X839Y1D01*
X838Y1D01*
X837Y1D01*
X836Y1D01*
X835Y1D01*
X834Y1D01*
X833Y1D01*
X832Y1D01*
X831Y1D01*
X830Y1D01*
X829Y1D01*
X828Y1D01*
X827Y1D01*
X826Y1D01*
X825Y1D01*
X824Y1D01*
X823Y1D01*
X822Y1D01*
X821Y1D01*
X820Y1D01*
X819Y1D01*
X818Y1D01*
X817Y1D01*
X816Y1D01*
X815Y1D01*
X814Y1D01*
X813Y1D01*
X812Y1D01*
X811Y1D01*
X810Y1D01*
X809Y1D01*
X808Y1D01*
X807Y1D01*
X806Y1D01*
X805Y1D01*
X804Y1D01*
X803Y1D01*
X802Y1D01*
X801Y1D01*
X800Y1D01*
X799Y1D01*
X798Y1D01*
X797Y1D01*
X796Y1D01*
X795Y1D01*
X794Y1D01*
X793Y1D01*
X792Y1D01*
X791Y1D01*
X790Y1D01*
X789Y1D01*
X788Y1D01*
X787Y1D01*
X786Y1D01*
X785Y1D01*
X784Y1D01*
X783Y1D01*
X782Y1D01*
X781Y1D01*
X780Y1D01*
X779Y1D01*
X778Y1D01*
X777Y1D01*
X776Y1D01*
X775Y1D01*
X774Y1D01*
X773Y1D01*
X772Y1D01*
X771Y1D01*
X770Y1D01*
X769Y1D01*
X768Y1D01*
X767Y1D01*
X766Y1D01*
X765Y1D01*
X764Y1D01*
X763Y1D01*
X762Y1D01*
X761Y1D01*
X760Y1D01*
X759Y1D01*
X758Y1D01*
X757Y1D01*
X756Y1D01*
X755Y1D01*
X754Y1D01*
X753Y1D01*
X752Y1D01*
X751Y1D01*
X750Y1D01*
X749Y1D01*
X748Y1D01*
X747Y1D01*
X746Y1D01*
X745Y1D01*
X744Y1D01*
X743Y1D01*
X742Y1D01*
X741Y1D01*
X740Y1D01*
X739Y1D01*
X738Y1D01*
X737Y1D01*
X736Y1D01*
X735Y1D01*
X734Y1D01*
X733Y1D01*
X732Y1D01*
X731Y1D01*
X730Y1D01*
X729Y1D01*
X728Y1D01*
X727Y1D01*
X726Y1D01*
X725Y1D01*
X724Y1D01*
X723Y1D01*
X722Y1D01*
X721Y1D01*
X720Y1D01*
X719Y1D01*
X718Y1D01*
X717Y1D01*
X716Y1D01*
X715Y1D01*
X714Y1D01*
X713Y1D01*
X712Y1D01*
X711Y1D01*
X710Y1D01*
X709Y1D01*
X708Y1D01*
X707Y1D01*
X706Y1D01*
X705Y1D01*
X704Y1D01*
X703Y1D01*
X702Y1D01*
X701Y1D01*
X700Y1D01*
X699Y1D01*
X698Y1D01*
X697Y1D01*
X696Y1D01*
X695Y1D01*
X694Y1D01*
X693Y1D01*
X692Y1D01*
X691Y1D01*
X690Y1D01*
X689Y1D01*
X688Y1D01*
X687Y1D01*
X686Y1D01*
X685Y1D01*
X684Y1D01*
X683Y1D01*
X682Y1D01*
X681Y1D01*
X680Y1D01*
X679Y1D01*
X678Y1D01*
X677Y1D01*
X676Y1D01*
X675Y1D01*
X674Y1D01*
X673Y1D01*
X672Y1D01*
X671Y1D01*
X670Y1D01*
X669Y1D01*
X668Y1D01*
X667Y1D01*
X666Y1D01*
X665Y1D01*
X664Y1D01*
X663Y1D01*
X662Y1D01*
X661Y1D01*
X660Y1D01*
X659Y1D01*
X658Y1D01*
X657Y1D01*
X656Y1D01*
X655Y1D01*
X654Y1D01*
X653Y1D01*
X652Y1D01*
X651Y1D01*
X650Y1D01*
X649Y1D01*
X648Y1D01*
X647Y1D01*
X646Y1D01*
X645Y1D01*
X644Y1D01*
X643Y1D01*
X642Y1D01*
X641Y1D01*
X640Y1D01*
X639Y1D01*
X638Y1D01*
X637Y1D01*
X636Y1D01*
X635Y1D01*
X634Y1D01*
X633Y1D01*
X632Y1D01*
X631Y1D01*
X630Y1D01*
X629Y1D01*
X628Y1D01*
X627Y1D01*
X626Y1D01*
X625Y1D01*
X624Y1D01*
X623Y1D01*
X622Y1D01*
X621Y1D01*
X620Y1D01*
X619Y1D01*
X618Y1D01*
X617Y1D01*
X616Y1D01*
X615Y1D01*
X614Y1D01*
X613Y1D01*
X612Y1D01*
X611Y1D01*
X610Y1D01*
X609Y1D01*
X608Y1D01*
X607Y1D01*
X606Y1D01*
X605Y1D01*
X604Y1D01*
X603Y1D01*
X602Y1D01*
X601Y1D01*
X600Y1D01*
X599Y1D01*
X598Y1D01*
X597Y1D01*
X596Y1D01*
X595Y1D01*
X594Y1D01*
X593Y1D01*
X592Y1D01*
X591Y1D01*
X590Y1D01*
X589Y1D01*
X588Y1D01*
X587Y1D01*
X586Y1D01*
X585Y1D01*
X584Y1D01*
X583Y1D01*
X582Y1D01*
X581Y1D01*
X580Y1D01*
X579Y1D01*
X578Y1D01*
X577Y1D01*
X576Y1D01*
X575Y1D01*
X574Y1D01*
X573Y1D01*
X572Y1D01*
X571Y1D01*
X570Y1D01*
X569Y1D01*
X568Y1D01*
X567Y1D01*
X566Y1D01*
X565Y1D01*
X564Y1D01*
X563Y1D01*
X562Y1D01*
X561Y1D01*
X560Y1D01*
X559Y1D01*
X558Y1D01*
X557Y1D01*
X556Y1D01*
X555Y1D01*
X554Y1D01*
X553Y1D01*
X552Y1D01*
X551Y1D01*
X550Y1D01*
X549Y1D01*
X548Y1D01*
X547Y1D01*
X546Y1D01*
X545Y1D01*
X544Y1D01*
X543Y1D01*
X542Y1D01*
X541Y1D01*
X540Y1D01*
X539Y1D01*
X538Y1D01*
X537Y1D01*
X536Y1D01*
X535Y1D01*
X534Y1D01*
X533Y1D01*
X532Y1D01*
X531Y1D01*
X530Y1D01*
X529Y1D01*
X528Y1D01*
X527Y1D01*
X526Y1D01*
X525Y1D01*
X524Y1D01*
X523Y1D01*
X522Y1D01*
X521Y1D01*
X520Y1D01*
X519Y1D01*
X518Y1D01*
X517Y1D01*
X516Y1D01*
X515Y1D01*
X514Y1D01*
X513Y1D01*
X512Y1D01*
X511Y1D01*
X510Y1D01*
X509Y1D01*
X508Y1D01*
X507Y1D01*
X506Y1D01*
X505Y1D01*
X504Y1D01*
X503Y1D01*
X502Y1D01*
X501Y1D01*
X500Y1D01*
X499Y1D01*
X498Y1D01*
X497Y1D01*
X496Y1D01*
X495Y1D01*
X494Y1D01*
X493Y1D01*
X492Y1D01*
X491Y1D01*
X490Y1D01*
X489Y1D01*
X488Y1D01*
X487Y1D01*
X486Y1D01*
X485Y1D01*
X484Y1D01*
X483Y1D01*
X482Y1D01*
X481Y1D01*
X480Y1D01*
X479Y1D01*
X478Y1D01*
X477Y1D01*
X476Y1D01*
X475Y1D01*
X474Y1D01*
X473Y1D01*
X472Y1D01*
X471Y1D01*
X470Y1D01*
X469Y1D01*
X468Y1D01*
X467Y1D01*
X466Y1D01*
X465Y1D01*
X464Y1D01*
X463Y1D01*
X462Y1D01*
X461Y1D01*
X460Y1D01*
X459Y1D01*
X458Y1D01*
X457Y1D01*
X456Y1D01*
X455Y1D01*
X454Y1D01*
X453Y1D01*
X452Y1D01*
X451Y1D01*
X450Y1D01*
X449Y1D01*
X448Y1D01*
X447Y1D01*
X446Y1D01*
X445Y1D01*
X444Y1D01*
X443Y1D01*
X442Y1D01*
X441Y1D01*
X440Y1D01*
X439Y1D01*
X438Y1D01*
X437Y1D01*
X436Y1D01*
X435Y1D01*
X434Y1D01*
X433Y1D01*
X432Y1D01*
X431Y1D01*
X430Y1D01*
X429Y1D01*
X428Y1D01*
X427Y1D01*
X426Y1D01*
X425Y1D01*
X424Y1D01*
X423Y1D01*
X422Y1D01*
X421Y1D01*
X420Y1D01*
X419Y1D01*
X418Y1D01*
X417Y1D01*
X416Y1D01*
X415Y1D01*
X414Y1D01*
X413Y1D01*
X412Y1D01*
X411Y1D01*
X410Y1D01*
X409Y1D01*
X408Y1D01*
X407Y1D01*
X406Y1D01*
X405Y1D01*
X404Y1D01*
X403Y1D01*
X402Y1D01*
X401Y1D01*
X400Y1D01*
X399Y1D01*
X398Y1D01*
X397Y1D01*
X396Y1D01*
X395Y1D01*
X394Y1D01*
X393Y1D01*
X392Y1D01*
X391Y1D01*
X390Y1D01*
X389Y1D01*
X388Y1D01*
X387Y1D01*
X386Y1D01*
X385Y1D01*
X384Y1D01*
X383Y1D01*
X382Y1D01*
X381Y1D01*
X380Y1D01*
X379Y1D01*
X378Y1D01*
X377Y1D01*
X376Y1D01*
X375Y1D01*
X374Y2D01*
X373Y2D01*
X372Y2D01*
X371Y2D01*
X370Y2D01*
X369Y2D01*
X368Y2D01*
X367Y2D01*
X366Y2D01*
X365Y2D01*
X364Y2D01*
X363Y2D01*
X362Y2D01*
X361Y2D01*
X360Y3D01*
X359Y3D01*
X358Y3D01*
X357Y3D01*
X356Y3D01*
X355Y3D01*
X354Y3D01*
X353Y3D01*
X352Y3D01*
X351Y3D01*
X350Y4D01*
X349Y4D01*
X348Y4D01*
X347Y4D01*
X346Y4D01*
X345Y4D01*
X344Y4D01*
X343Y4D01*
X342Y4D01*
X341Y5D01*
X340Y5D01*
X339Y5D01*
X338Y5D01*
X337Y5D01*
X336Y5D01*
X335Y5D01*
X334Y6D01*
X333Y6D01*
X332Y6D01*
X331Y6D01*
X330Y6D01*
X329Y6D01*
X328Y7D01*
X327Y7D01*
X326Y7D01*
X325Y7D01*
X324Y7D01*
X323Y7D01*
X322Y8D01*
X321Y8D01*
X320Y8D01*
X319Y8D01*
X318Y8D01*
X317Y8D01*
X316Y9D01*
X315Y9D01*
X314Y9D01*
X313Y9D01*
X312Y9D01*
X311Y10D01*
X310Y10D01*
X309Y10D01*
X308Y10D01*
X307Y11D01*
X306Y11D01*
X305Y11D01*
X304Y11D01*
X303Y11D01*
X302Y12D01*
X301Y12D01*
X300Y12D01*
X299Y12D01*
X298Y13D01*
X297Y13D01*
X296Y13D01*
X295Y13D01*
X294Y14D01*
X293Y14D01*
X292Y14D01*
X291Y14D01*
X290Y15D01*
X289Y15D01*
X288Y15D01*
X287Y15D01*
X286Y16D01*
X285Y16D01*
X284Y16D01*
X283Y17D01*
X282Y17D01*
X281Y17D01*
X280Y17D01*
X279Y18D01*
X278Y18D01*
X277Y18D01*
X276Y19D01*
X275Y19D01*
X274Y19D01*
X273Y20D01*
X272Y20D01*
X271Y20D01*
X270Y21D01*
X269Y21D01*
X268Y21D01*
X267Y22D01*
X266Y22D01*
X265Y22D01*
X264Y23D01*
X263Y23D01*
X262Y23D01*
X261Y24D01*
X260Y24D01*
X259Y24D01*
X258Y25D01*
X257Y25D01*
X256Y25D01*
X255Y26D01*
X254Y26D01*
X253Y26D01*
X252Y27D01*
X251Y27D01*
X250Y28D01*
X249Y28D01*
X248Y28D01*
X247Y29D01*
X246Y29D01*
X245Y29D01*
X244Y30D01*
X243Y30D01*
X242Y31D01*
X241Y31D01*
X240Y31D01*
X239Y32D01*
X238Y32D01*
X237Y33D01*
X236Y33D01*
X235Y34D01*
X234Y34D01*
X233Y34D01*
X232Y35D01*
X231Y35D01*
X230Y36D01*
X229Y36D01*
X228Y37D01*
X227Y37D01*
X226Y37D01*
X225Y38D01*
X224Y38D01*
X223Y39D01*
X222Y39D01*
X221Y40D01*
X220Y40D01*
X219Y41D01*
X218Y41D01*
X217Y42D01*
X216Y42D01*
X215Y43D01*
X214Y43D01*
X213Y44D01*
X212Y44D01*
X211Y45D01*
X210Y45D01*
X209Y46D01*
X208Y46D01*
X207Y47D01*
X206Y47D01*
X205Y48D01*
X204Y48D01*
X203Y49D01*
X202Y49D01*
X201Y50D01*
X200Y50D01*
X199Y51D01*
X198Y52D01*
X197Y52D01*
X196Y53D01*
X195Y53D01*
X194Y54D01*
X193Y54D01*
X192Y55D01*
X191Y55D01*
X190Y56D01*
X189Y57D01*
X188Y57D01*
X187Y58D01*
X186Y58D01*
X185Y59D01*
X184Y60D01*
X183Y60D01*
X182Y61D01*
X181Y62D01*
X180Y62D01*
X179Y63D01*
X178Y63D01*
X177Y64D01*
X176Y65D01*
X175Y65D01*
X174Y66D01*
X173Y66D01*
X172Y67D01*
X171Y68D01*
X170Y69D01*
X169Y69D01*
X168Y70D01*
X167Y71D01*
X166Y71D01*
X165Y72D01*
X164Y73D01*
X163Y73D01*
X162Y74D01*
X161Y75D01*
X160Y75D01*
X159Y76D01*
X158Y77D01*
X157Y77D01*
X156Y78D01*
X155Y79D01*
X154Y80D01*
X153Y80D01*
X152Y81D01*
X151Y82D01*
X150Y83D01*
X149Y83D01*
X148Y84D01*
X147Y85D01*
X146Y86D01*
X145Y86D01*
X144Y87D01*
X143Y88D01*
X142Y89D01*
X141Y90D01*
X140Y90D01*
X139Y91D01*
X138Y92D01*
X137Y93D01*
X136Y94D01*
X135Y95D01*
X134Y95D01*
X133Y96D01*
X132Y97D01*
X131Y98D01*
X130Y99D01*
X129Y100D01*
X128Y101D01*
X127Y101D01*
X126Y102D01*
X125Y103D01*
X124Y104D01*
X123Y105D01*
X122Y106D01*
X121Y107D01*
X120Y108D01*
X119Y109D01*
X118Y110D01*
X117Y111D01*
X116Y111D01*
X115Y112D01*
X114Y113D01*
X113Y114D01*
X112Y115D01*
X111Y116D01*
X110Y117D01*
X109Y118D01*
X108Y119D01*
X107Y120D01*
X106Y121D01*
X105Y122D01*
X104Y123D01*
X103Y124D01*
X103Y125D01*
X102Y126D01*
X101Y127D01*
X100Y128D01*
X99Y129D01*
X98Y130D01*
X97Y131D01*
X96Y132D01*
X95Y133D01*
X94Y134D01*
X93Y135D01*
X93Y136D01*
X92Y137D01*
X91Y138D01*
X90Y139D01*
X89Y140D01*
X88Y141D01*
X87Y142D01*
X87Y143D01*
X86Y144D01*
X85Y145D01*
X84Y146D01*
X83Y147D01*
X83Y148D01*
X82Y149D01*
X81Y150D01*
X80Y151D01*
X79Y152D01*
X78Y153D01*
X78Y154D01*
X77Y155D01*
X76Y156D01*
X75Y157D01*
X75Y158D01*
X74Y159D01*
X73Y160D01*
X73Y161D01*
X72Y162D01*
X71Y163D01*
X70Y164D01*
X70Y165D01*
X69Y166D01*
X68Y167D01*
X67Y168D01*
X67Y169D01*
X66Y170D01*
X65Y171D01*
X65Y172D01*
X64Y173D01*
X63Y174D01*
X63Y175D01*
X62Y176D01*
X61Y177D01*
X61Y178D01*
X60Y179D01*
X59Y180D01*
X59Y181D01*
X58Y182D01*
X57Y183D01*
X57Y184D01*
X56Y185D01*
X56Y186D01*
X55Y187D01*
X54Y188D01*
X54Y189D01*
X53Y190D01*
X53Y191D01*
X52Y192D01*
X51Y193D01*
X51Y194D01*
X50Y195D01*
X50Y196D01*
X49Y197D01*
X48Y198D01*
X48Y199D01*
X47Y200D01*
X47Y201D01*
X46Y202D01*
X46Y203D01*
X45Y204D01*
X45Y205D01*
X44Y206D01*
X43Y207D01*
X43Y208D01*
X42Y209D01*
X42Y210D01*
X41Y211D01*
X41Y212D01*
X40Y213D01*
X40Y214D01*
X39Y215D01*
X39Y216D01*
X38Y217D01*
X38Y218D01*
X37Y219D01*
X37Y220D01*
X36Y221D01*
X36Y222D01*
X35Y223D01*
X35Y224D01*
X34Y225D01*
X34Y227D01*
X33Y228D01*
X33Y229D01*
X32Y230D01*
X32Y231D01*
X31Y232D01*
X31Y233D01*
X30Y234D01*
X30Y235D01*
X29Y236D01*
X29Y238D01*
X28Y239D01*
X28Y240D01*
X27Y241D01*
X27Y243D01*
X26Y244D01*
X26Y245D01*
X25Y246D01*
X25Y248D01*
X24Y249D01*
X24Y250D01*
X23Y251D01*
X23Y253D01*
X22Y254D01*
X22Y256D01*
X21Y257D01*
X21Y259D01*
X20Y260D01*
X20Y262D01*
X19Y263D01*
X19Y264D01*
X18Y265D01*
X18Y267D01*
X17Y268D01*
X17Y271D01*
X16Y272D01*
X16Y274D01*
X15Y275D01*
X15Y277D01*
X14Y278D01*
X14Y281D01*
X13Y282D01*
X13Y284D01*
X12Y285D01*
X12Y288D01*
X11Y289D01*
X11Y292D01*
X10Y293D01*
X10Y296D01*
X9Y297D01*
X9Y301D01*
X8Y302D01*
X8Y305D01*
X7Y306D01*
X7Y310D01*
X6Y311D01*
X6Y316D01*
X5Y317D01*
X5Y322D01*
X4Y323D01*
X4Y329D01*
X3Y330D01*
X3Y336D01*
X2Y337D01*
X2Y346D01*
X1Y347D01*
X1Y360D01*
X0Y361D01*
X0Y3813D01*
X1Y3814D01*
X1Y3827D01*
X2Y3828D01*
X2Y3837D01*
X3Y3838D01*
X3Y3844D01*
X4Y3845D01*
X4Y3851D01*
X5Y3852D01*
X5Y3857D01*
X6Y3858D01*
X6Y3863D01*
X7Y3864D01*
X7Y3868D01*
X8Y3869D01*
X8Y3872D01*
X9Y3873D01*
X9Y3877D01*
X10Y3878D01*
X10Y3881D01*
X11Y3882D01*
X11Y3885D01*
X12Y3886D01*
X12Y3889D01*
X13Y3890D01*
X13Y3892D01*
X14Y3893D01*
X14Y3896D01*
X15Y3897D01*
X15Y3899D01*
X16Y3900D01*
X16Y3902D01*
X17Y3903D01*
X17Y3906D01*
X18Y3907D01*
X18Y3909D01*
X19Y3910D01*
X19Y3911D01*
X20Y3912D01*
X20Y3914D01*
X21Y3915D01*
X21Y3917D01*
X22Y3918D01*
X22Y3920D01*
X23Y3921D01*
X23Y3923D01*
X24Y3924D01*
X24Y3925D01*
X25Y3926D01*
X25Y3928D01*
X26Y3929D01*
X26Y3930D01*
X27Y3931D01*
X27Y3933D01*
X28Y3934D01*
X28Y3935D01*
X29Y3936D01*
X29Y3937D01*
X30Y3938D01*
X30Y3940D01*
X31Y3941D01*
X31Y3942D01*
X32Y3943D01*
X32Y3944D01*
X33Y3945D01*
X33Y3946D01*
X34Y3947D01*
X34Y3949D01*
X35Y3950D01*
X35Y3951D01*
X36Y3952D01*
X36Y3953D01*
X37Y3954D01*
X37Y3955D01*
X38Y3956D01*
X38Y3957D01*
X39Y3958D01*
X39Y3959D01*
X40Y3960D01*
X40Y3961D01*
X41Y3962D01*
X41Y3963D01*
X42Y3964D01*
X42Y3965D01*
X43Y3966D01*
X43Y3967D01*
X44Y3968D01*
X45Y3969D01*
X45Y3970D01*
X46Y3971D01*
X46Y3972D01*
X47Y3973D01*
X47Y3974D01*
X48Y3975D01*
X48Y3976D01*
X49Y3977D01*
X50Y3978D01*
X50Y3979D01*
X51Y3980D01*
X51Y3981D01*
X52Y3982D01*
X53Y3983D01*
X53Y3984D01*
X54Y3985D01*
X54Y3986D01*
X55Y3987D01*
X56Y3988D01*
X56Y3989D01*
X57Y3990D01*
X57Y3991D01*
X58Y3992D01*
X59Y3993D01*
X59Y3994D01*
X60Y3995D01*
X61Y3996D01*
X61Y3997D01*
X62Y3998D01*
X63Y3999D01*
X63Y4000D01*
X64Y4001D01*
X65Y4002D01*
X65Y4003D01*
X66Y4004D01*
X67Y4005D01*
X67Y4006D01*
X68Y4007D01*
X69Y4008D01*
X70Y4009D01*
X70Y4010D01*
X71Y4011D01*
X72Y4012D01*
X73Y4013D01*
X73Y4014D01*
X74Y4015D01*
X75Y4016D01*
X75Y4017D01*
X76Y4018D01*
X77Y4019D01*
X78Y4020D01*
X78Y4021D01*
X79Y4022D01*
X80Y4023D01*
X81Y4024D01*
X82Y4025D01*
X83Y4026D01*
X83Y4027D01*
X84Y4028D01*
X85Y4029D01*
X86Y4030D01*
X87Y4031D01*
X87Y4032D01*
X88Y4033D01*
X89Y4034D01*
X90Y4035D01*
X91Y4036D01*
X92Y4037D01*
X93Y4038D01*
X93Y4039D01*
X94Y4040D01*
X95Y4041D01*
X96Y4042D01*
X97Y4043D01*
X98Y4044D01*
X99Y4045D01*
X100Y4046D01*
X101Y4047D01*
X102Y4048D01*
X103Y4049D01*
X103Y4050D01*
X104Y4051D01*
X105Y4052D01*
X106Y4053D01*
X107Y4054D01*
X108Y4055D01*
X109Y4056D01*
X110Y4057D01*
X111Y4058D01*
X112Y4059D01*
X113Y4060D01*
X114Y4061D01*
X115Y4062D01*
X116Y4063D01*
X117Y4063D01*
X118Y4064D01*
X119Y4065D01*
X120Y4066D01*
X121Y4067D01*
X122Y4068D01*
X123Y4069D01*
X124Y4070D01*
X125Y4071D01*
X126Y4072D01*
X127Y4073D01*
X128Y4073D01*
X129Y4074D01*
X130Y4075D01*
X131Y4076D01*
X132Y4077D01*
X133Y4078D01*
X134Y4079D01*
X135Y4079D01*
X136Y4080D01*
X137Y4081D01*
X138Y4082D01*
X139Y4083D01*
X140Y4083D01*
X141Y4084D01*
X142Y4085D01*
X143Y4086D01*
X144Y4087D01*
X145Y4088D01*
X146Y4088D01*
X147Y4089D01*
X148Y4090D01*
X149Y4091D01*
X150Y4091D01*
X151Y4092D01*
X152Y4093D01*
X153Y4094D01*
X154Y4094D01*
X155Y4095D01*
X156Y4096D01*
X157Y4097D01*
X158Y4097D01*
X159Y4098D01*
X160Y4099D01*
X161Y4099D01*
X162Y4100D01*
X163Y4101D01*
X164Y4101D01*
X165Y4102D01*
X166Y4103D01*
X167Y4103D01*
X168Y4104D01*
X169Y4105D01*
X170Y4105D01*
X171Y4106D01*
X172Y4107D01*
X173Y4108D01*
X174Y4108D01*
X175Y4109D01*
X176Y4109D01*
X177Y4110D01*
X178Y4111D01*
X179Y4111D01*
X180Y4112D01*
X181Y4112D01*
X182Y4113D01*
X183Y4114D01*
X184Y4114D01*
X185Y4115D01*
X186Y4116D01*
X187Y4116D01*
X188Y4117D01*
X189Y4117D01*
X190Y4118D01*
X191Y4119D01*
X192Y4119D01*
X193Y4120D01*
X194Y4120D01*
X195Y4121D01*
X196Y4121D01*
X197Y4122D01*
X198Y4122D01*
X199Y4123D01*
X200Y4124D01*
X201Y4124D01*
X202Y4125D01*
X203Y4125D01*
X204Y4126D01*
X205Y4126D01*
X206Y4127D01*
X207Y4127D01*
X208Y4128D01*
X209Y4128D01*
X210Y4129D01*
X211Y4129D01*
X212Y4130D01*
X213Y4130D01*
X214Y4131D01*
X215Y4131D01*
X216Y4132D01*
X217Y4132D01*
X218Y4133D01*
X219Y4133D01*
X220Y4134D01*
X221Y4134D01*
X222Y4135D01*
X223Y4135D01*
X224Y4136D01*
X225Y4136D01*
X226Y4137D01*
X227Y4137D01*
X228Y4137D01*
X229Y4138D01*
X230Y4138D01*
X231Y4139D01*
X232Y4139D01*
X233Y4140D01*
X234Y4140D01*
X235Y4140D01*
X236Y4141D01*
X237Y4141D01*
X238Y4142D01*
X239Y4142D01*
X240Y4143D01*
X241Y4143D01*
X242Y4143D01*
X243Y4144D01*
X244Y4144D01*
X245Y4145D01*
X246Y4145D01*
X247Y4145D01*
X248Y4146D01*
X249Y4146D01*
X250Y4146D01*
X251Y4147D01*
X252Y4147D01*
X253Y4148D01*
X254Y4148D01*
X255Y4148D01*
X256Y4149D01*
X257Y4149D01*
X258Y4149D01*
X259Y4150D01*
X260Y4150D01*
X261Y4150D01*
X262Y4151D01*
X263Y4151D01*
X264Y4151D01*
X265Y4152D01*
X266Y4152D01*
X267Y4152D01*
X268Y4153D01*
X269Y4153D01*
X270Y4153D01*
X271Y4154D01*
X272Y4154D01*
X273Y4154D01*
X274Y4155D01*
X275Y4155D01*
X276Y4155D01*
X277Y4156D01*
X278Y4156D01*
X279Y4156D01*
X280Y4157D01*
X281Y4157D01*
X282Y4157D01*
X283Y4157D01*
X284Y4158D01*
X285Y4158D01*
X286Y4158D01*
X287Y4159D01*
X288Y4159D01*
X289Y4159D01*
X290Y4159D01*
X291Y4160D01*
X292Y4160D01*
X293Y4160D01*
X294Y4160D01*
X295Y4161D01*
X296Y4161D01*
X297Y4161D01*
X298Y4161D01*
X299Y4162D01*
X300Y4162D01*
X301Y4162D01*
X302Y4162D01*
X303Y4163D01*
X304Y4163D01*
X305Y4163D01*
X306Y4163D01*
X307Y4163D01*
X308Y4164D01*
X309Y4164D01*
X310Y4164D01*
X311Y4164D01*
X312Y4164D01*
X313Y4165D01*
X314Y4165D01*
X315Y4165D01*
X316Y4165D01*
X317Y4166D01*
X318Y4166D01*
X319Y4166D01*
X320Y4166D01*
X321Y4166D01*
X322Y4166D01*
X323Y4167D01*
X324Y4167D01*
X325Y4167D01*
X326Y4167D01*
X327Y4167D01*
X328Y4167D01*
X329Y4168D01*
X330Y4168D01*
X331Y4168D01*
X332Y4168D01*
X333Y4168D01*
X334Y4168D01*
X335Y4169D01*
X336Y4169D01*
X337Y4169D01*
X338Y4169D01*
X339Y4169D01*
X340Y4169D01*
X341Y4169D01*
X342Y4170D01*
X343Y4170D01*
X344Y4170D01*
X345Y4170D01*
X346Y4170D01*
X347Y4170D01*
X348Y4170D01*
X349Y4170D01*
X350Y4170D01*
X351Y4171D01*
X352Y4171D01*
X353Y4171D01*
X354Y4171D01*
X355Y4171D01*
X356Y4171D01*
X357Y4171D01*
X358Y4171D01*
X359Y4171D01*
X360Y4171D01*
X361Y4172D01*
X362Y4172D01*
X363Y4172D01*
X364Y4172D01*
X365Y4172D01*
X366Y4172D01*
X367Y4172D01*
X368Y4172D01*
X369Y4172D01*
X370Y4172D01*
X371Y4172D01*
X372Y4172D01*
X373Y4172D01*
X374Y4172D01*
X375Y4172D01*
X376Y4173D01*
D02*
G04 End of contour*
M02*