G04 MADE WITH FRITZING*
G04 WWW.FRITZING.ORG*
G04 DOUBLE SIDED*
G04 HOLES PLATED*
G04 CONTOUR ON CENTER OF CONTOUR VECTOR*
%ASAXBY*%
%FSLAX23Y23*%
%MOIN*%
%OFA0B0*%
%SFA1.0B1.0*%
%ADD10C,0.080000*%
%ADD11C,0.075000*%
%ADD12C,0.085000*%
%ADD13C,0.088000*%
%ADD14C,0.049370*%
%ADD15C,0.062000*%
%ADD16R,0.088000X0.088000*%
%ADD17C,0.030000*%
%ADD18R,0.001000X0.001000*%
%LNMASK0*%
G90*
G70*
G54D10*
X120Y743D03*
X220Y743D03*
X1820Y1543D03*
X1920Y1543D03*
X470Y2693D03*
X470Y2793D03*
G54D11*
X1720Y1143D03*
X1820Y1143D03*
X120Y343D03*
X220Y343D03*
G54D12*
X1820Y843D03*
X1820Y443D03*
G54D13*
X120Y1143D03*
X120Y1243D03*
X120Y1343D03*
X120Y1443D03*
X1820Y2143D03*
X1820Y2043D03*
X1820Y1943D03*
X1820Y1843D03*
X1820Y243D03*
X1720Y243D03*
G54D14*
X1420Y3343D03*
X1420Y2943D03*
X720Y1943D03*
X720Y3043D03*
X920Y2443D03*
X820Y1643D03*
G54D15*
X1520Y743D03*
X1520Y843D03*
X1520Y943D03*
X1520Y1043D03*
X1520Y1143D03*
X1520Y1243D03*
X1520Y1343D03*
X1520Y1443D03*
X1520Y1543D03*
X1520Y1643D03*
X1520Y1743D03*
X1520Y1843D03*
X1520Y1943D03*
X1520Y2043D03*
X1520Y2143D03*
X520Y2143D03*
X520Y2043D03*
X520Y1943D03*
X520Y1843D03*
X520Y1743D03*
X520Y1643D03*
X520Y1543D03*
X520Y1443D03*
X520Y1343D03*
X520Y1243D03*
X520Y1143D03*
X520Y1043D03*
X520Y943D03*
X520Y843D03*
X520Y743D03*
G54D16*
X120Y1143D03*
X1820Y2143D03*
G54D17*
G36*
X1849Y214D02*
X1791Y214D01*
X1791Y272D01*
X1849Y272D01*
X1849Y214D01*
G37*
D02*
G54D18*
X494Y2179D02*
X548Y2179D01*
X1491Y2179D02*
X1545Y2179D01*
X487Y2178D02*
X555Y2178D01*
X1485Y2178D02*
X1552Y2178D01*
X484Y2177D02*
X558Y2177D01*
X1481Y2177D02*
X1555Y2177D01*
X481Y2176D02*
X560Y2176D01*
X1479Y2176D02*
X1558Y2176D01*
X479Y2175D02*
X563Y2175D01*
X1477Y2175D02*
X1560Y2175D01*
X477Y2174D02*
X564Y2174D01*
X1475Y2174D02*
X1562Y2174D01*
X476Y2173D02*
X566Y2173D01*
X1473Y2173D02*
X1563Y2173D01*
X474Y2172D02*
X568Y2172D01*
X1471Y2172D02*
X1565Y2172D01*
X473Y2171D02*
X569Y2171D01*
X1470Y2171D02*
X1566Y2171D01*
X472Y2170D02*
X570Y2170D01*
X1469Y2170D02*
X1568Y2170D01*
X471Y2169D02*
X571Y2169D01*
X1468Y2169D02*
X1569Y2169D01*
X470Y2168D02*
X572Y2168D01*
X1467Y2168D02*
X1570Y2168D01*
X469Y2167D02*
X573Y2167D01*
X1466Y2167D02*
X1571Y2167D01*
X468Y2166D02*
X574Y2166D01*
X1465Y2166D02*
X1571Y2166D01*
X467Y2165D02*
X575Y2165D01*
X1464Y2165D02*
X1572Y2165D01*
X466Y2164D02*
X576Y2164D01*
X1464Y2164D02*
X1573Y2164D01*
X466Y2163D02*
X576Y2163D01*
X1463Y2163D02*
X1574Y2163D01*
X465Y2162D02*
X577Y2162D01*
X1462Y2162D02*
X1574Y2162D01*
X464Y2161D02*
X577Y2161D01*
X1462Y2161D02*
X1575Y2161D01*
X464Y2160D02*
X578Y2160D01*
X1461Y2160D02*
X1575Y2160D01*
X463Y2159D02*
X578Y2159D01*
X1461Y2159D02*
X1576Y2159D01*
X463Y2158D02*
X579Y2158D01*
X1460Y2158D02*
X1576Y2158D01*
X462Y2157D02*
X579Y2157D01*
X1460Y2157D02*
X1577Y2157D01*
X462Y2156D02*
X580Y2156D01*
X1459Y2156D02*
X1577Y2156D01*
X462Y2155D02*
X580Y2155D01*
X1459Y2155D02*
X1577Y2155D01*
X461Y2154D02*
X580Y2154D01*
X1459Y2154D02*
X1578Y2154D01*
X461Y2153D02*
X581Y2153D01*
X1458Y2153D02*
X1578Y2153D01*
X461Y2152D02*
X581Y2152D01*
X1458Y2152D02*
X1578Y2152D01*
X460Y2151D02*
X581Y2151D01*
X1458Y2151D02*
X1579Y2151D01*
X460Y2150D02*
X582Y2150D01*
X1458Y2150D02*
X1579Y2150D01*
X460Y2149D02*
X520Y2149D01*
X522Y2149D02*
X582Y2149D01*
X1457Y2149D02*
X1516Y2149D01*
X1519Y2149D02*
X1579Y2149D01*
X460Y2148D02*
X517Y2148D01*
X525Y2148D02*
X582Y2148D01*
X1457Y2148D02*
X1513Y2148D01*
X1521Y2148D02*
X1579Y2148D01*
X460Y2147D02*
X516Y2147D01*
X526Y2147D02*
X582Y2147D01*
X1457Y2147D02*
X1512Y2147D01*
X1523Y2147D02*
X1579Y2147D01*
X460Y2146D02*
X515Y2146D01*
X527Y2146D02*
X582Y2146D01*
X1457Y2146D02*
X1512Y2146D01*
X1523Y2146D02*
X1580Y2146D01*
X460Y2145D02*
X515Y2145D01*
X527Y2145D02*
X582Y2145D01*
X1457Y2145D02*
X1511Y2145D01*
X1524Y2145D02*
X1580Y2145D01*
X460Y2144D02*
X514Y2144D01*
X528Y2144D02*
X582Y2144D01*
X1457Y2144D02*
X1511Y2144D01*
X1524Y2144D02*
X1580Y2144D01*
X459Y2143D02*
X514Y2143D01*
X528Y2143D02*
X583Y2143D01*
X1457Y2143D02*
X1511Y2143D01*
X1524Y2143D02*
X1580Y2143D01*
X460Y2142D02*
X514Y2142D01*
X528Y2142D02*
X583Y2142D01*
X1457Y2142D02*
X1511Y2142D01*
X1524Y2142D02*
X1580Y2142D01*
X460Y2141D02*
X515Y2141D01*
X527Y2141D02*
X582Y2141D01*
X1457Y2141D02*
X1511Y2141D01*
X1524Y2141D02*
X1580Y2141D01*
X460Y2140D02*
X515Y2140D01*
X527Y2140D02*
X582Y2140D01*
X1457Y2140D02*
X1512Y2140D01*
X1523Y2140D02*
X1579Y2140D01*
X460Y2139D02*
X516Y2139D01*
X526Y2139D02*
X582Y2139D01*
X1457Y2139D02*
X1512Y2139D01*
X1523Y2139D02*
X1579Y2139D01*
X460Y2138D02*
X517Y2138D01*
X525Y2138D02*
X582Y2138D01*
X1457Y2138D02*
X1514Y2138D01*
X1521Y2138D02*
X1579Y2138D01*
X460Y2137D02*
X582Y2137D01*
X1457Y2137D02*
X1579Y2137D01*
X460Y2136D02*
X582Y2136D01*
X1458Y2136D02*
X1579Y2136D01*
X461Y2135D02*
X581Y2135D01*
X1458Y2135D02*
X1579Y2135D01*
X461Y2134D02*
X581Y2134D01*
X1458Y2134D02*
X1578Y2134D01*
X461Y2133D02*
X581Y2133D01*
X1458Y2133D02*
X1578Y2133D01*
X461Y2132D02*
X580Y2132D01*
X1459Y2132D02*
X1578Y2132D01*
X462Y2131D02*
X580Y2131D01*
X1459Y2131D02*
X1577Y2131D01*
X462Y2130D02*
X580Y2130D01*
X1459Y2130D02*
X1577Y2130D01*
X463Y2129D02*
X579Y2129D01*
X1460Y2129D02*
X1577Y2129D01*
X463Y2128D02*
X579Y2128D01*
X1460Y2128D02*
X1576Y2128D01*
X463Y2127D02*
X578Y2127D01*
X1461Y2127D02*
X1576Y2127D01*
X464Y2126D02*
X578Y2126D01*
X1461Y2126D02*
X1575Y2126D01*
X465Y2125D02*
X577Y2125D01*
X1462Y2125D02*
X1575Y2125D01*
X465Y2124D02*
X577Y2124D01*
X1462Y2124D02*
X1574Y2124D01*
X466Y2123D02*
X576Y2123D01*
X1463Y2123D02*
X1573Y2123D01*
X466Y2122D02*
X575Y2122D01*
X1464Y2122D02*
X1573Y2122D01*
X467Y2121D02*
X575Y2121D01*
X1464Y2121D02*
X1572Y2121D01*
X468Y2120D02*
X574Y2120D01*
X1465Y2120D02*
X1571Y2120D01*
X469Y2119D02*
X573Y2119D01*
X1466Y2119D02*
X1570Y2119D01*
X470Y2118D02*
X572Y2118D01*
X1467Y2118D02*
X1569Y2118D01*
X471Y2117D02*
X571Y2117D01*
X1468Y2117D02*
X1568Y2117D01*
X472Y2116D02*
X570Y2116D01*
X1469Y2116D02*
X1567Y2116D01*
X473Y2115D02*
X569Y2115D01*
X1470Y2115D02*
X1566Y2115D01*
X474Y2114D02*
X567Y2114D01*
X1472Y2114D02*
X1565Y2114D01*
X476Y2113D02*
X566Y2113D01*
X1473Y2113D02*
X1563Y2113D01*
X478Y2112D02*
X564Y2112D01*
X1475Y2112D02*
X1561Y2112D01*
X480Y2111D02*
X562Y2111D01*
X1477Y2111D02*
X1559Y2111D01*
X482Y2110D02*
X560Y2110D01*
X1479Y2110D02*
X1557Y2110D01*
X485Y2109D02*
X557Y2109D01*
X1482Y2109D02*
X1555Y2109D01*
X488Y2108D02*
X554Y2108D01*
X1485Y2108D02*
X1551Y2108D01*
X494Y2079D02*
X548Y2079D01*
X1491Y2079D02*
X1545Y2079D01*
X487Y2078D02*
X555Y2078D01*
X1485Y2078D02*
X1552Y2078D01*
X484Y2077D02*
X558Y2077D01*
X1481Y2077D02*
X1555Y2077D01*
X481Y2076D02*
X561Y2076D01*
X1479Y2076D02*
X1558Y2076D01*
X479Y2075D02*
X563Y2075D01*
X1477Y2075D02*
X1560Y2075D01*
X477Y2074D02*
X565Y2074D01*
X1475Y2074D02*
X1562Y2074D01*
X476Y2073D02*
X566Y2073D01*
X1473Y2073D02*
X1564Y2073D01*
X474Y2072D02*
X568Y2072D01*
X1471Y2072D02*
X1565Y2072D01*
X473Y2071D02*
X569Y2071D01*
X1470Y2071D02*
X1566Y2071D01*
X472Y2070D02*
X570Y2070D01*
X1469Y2070D02*
X1568Y2070D01*
X470Y2069D02*
X571Y2069D01*
X1468Y2069D02*
X1569Y2069D01*
X470Y2068D02*
X572Y2068D01*
X1467Y2068D02*
X1570Y2068D01*
X469Y2067D02*
X573Y2067D01*
X1466Y2067D02*
X1571Y2067D01*
X468Y2066D02*
X574Y2066D01*
X1465Y2066D02*
X1571Y2066D01*
X467Y2065D02*
X575Y2065D01*
X1464Y2065D02*
X1572Y2065D01*
X466Y2064D02*
X576Y2064D01*
X1464Y2064D02*
X1573Y2064D01*
X466Y2063D02*
X576Y2063D01*
X1463Y2063D02*
X1574Y2063D01*
X465Y2062D02*
X577Y2062D01*
X1462Y2062D02*
X1574Y2062D01*
X464Y2061D02*
X577Y2061D01*
X1462Y2061D02*
X1575Y2061D01*
X464Y2060D02*
X578Y2060D01*
X1461Y2060D02*
X1575Y2060D01*
X463Y2059D02*
X578Y2059D01*
X1461Y2059D02*
X1576Y2059D01*
X463Y2058D02*
X579Y2058D01*
X1460Y2058D02*
X1576Y2058D01*
X462Y2057D02*
X579Y2057D01*
X1460Y2057D02*
X1577Y2057D01*
X462Y2056D02*
X580Y2056D01*
X1459Y2056D02*
X1577Y2056D01*
X462Y2055D02*
X580Y2055D01*
X1459Y2055D02*
X1577Y2055D01*
X461Y2054D02*
X581Y2054D01*
X1459Y2054D02*
X1578Y2054D01*
X461Y2053D02*
X581Y2053D01*
X1458Y2053D02*
X1578Y2053D01*
X461Y2052D02*
X581Y2052D01*
X1458Y2052D02*
X1578Y2052D01*
X460Y2051D02*
X581Y2051D01*
X1458Y2051D02*
X1579Y2051D01*
X460Y2050D02*
X582Y2050D01*
X1458Y2050D02*
X1579Y2050D01*
X460Y2049D02*
X520Y2049D01*
X522Y2049D02*
X582Y2049D01*
X1457Y2049D02*
X1516Y2049D01*
X1519Y2049D02*
X1579Y2049D01*
X460Y2048D02*
X517Y2048D01*
X525Y2048D02*
X582Y2048D01*
X1457Y2048D02*
X1513Y2048D01*
X1522Y2048D02*
X1579Y2048D01*
X460Y2047D02*
X516Y2047D01*
X526Y2047D02*
X582Y2047D01*
X1457Y2047D02*
X1512Y2047D01*
X1523Y2047D02*
X1579Y2047D01*
X460Y2046D02*
X515Y2046D01*
X527Y2046D02*
X582Y2046D01*
X1457Y2046D02*
X1512Y2046D01*
X1523Y2046D02*
X1580Y2046D01*
X460Y2045D02*
X515Y2045D01*
X527Y2045D02*
X582Y2045D01*
X1457Y2045D02*
X1511Y2045D01*
X1524Y2045D02*
X1580Y2045D01*
X460Y2044D02*
X514Y2044D01*
X528Y2044D02*
X582Y2044D01*
X1457Y2044D02*
X1511Y2044D01*
X1524Y2044D02*
X1580Y2044D01*
X459Y2043D02*
X514Y2043D01*
X528Y2043D02*
X583Y2043D01*
X1457Y2043D02*
X1511Y2043D01*
X1524Y2043D02*
X1580Y2043D01*
X460Y2042D02*
X514Y2042D01*
X528Y2042D02*
X583Y2042D01*
X1457Y2042D02*
X1511Y2042D01*
X1524Y2042D02*
X1580Y2042D01*
X460Y2041D02*
X515Y2041D01*
X527Y2041D02*
X582Y2041D01*
X1457Y2041D02*
X1511Y2041D01*
X1524Y2041D02*
X1580Y2041D01*
X460Y2040D02*
X515Y2040D01*
X527Y2040D02*
X582Y2040D01*
X1457Y2040D02*
X1512Y2040D01*
X1523Y2040D02*
X1580Y2040D01*
X460Y2039D02*
X516Y2039D01*
X526Y2039D02*
X582Y2039D01*
X1457Y2039D02*
X1512Y2039D01*
X1523Y2039D02*
X1579Y2039D01*
X460Y2038D02*
X517Y2038D01*
X525Y2038D02*
X582Y2038D01*
X1457Y2038D02*
X1514Y2038D01*
X1521Y2038D02*
X1579Y2038D01*
X460Y2037D02*
X582Y2037D01*
X1457Y2037D02*
X1579Y2037D01*
X460Y2036D02*
X582Y2036D01*
X1458Y2036D02*
X1579Y2036D01*
X461Y2035D02*
X581Y2035D01*
X1458Y2035D02*
X1579Y2035D01*
X461Y2034D02*
X581Y2034D01*
X1458Y2034D02*
X1578Y2034D01*
X461Y2033D02*
X581Y2033D01*
X1458Y2033D02*
X1578Y2033D01*
X461Y2032D02*
X580Y2032D01*
X1459Y2032D02*
X1578Y2032D01*
X462Y2031D02*
X580Y2031D01*
X1459Y2031D02*
X1577Y2031D01*
X462Y2030D02*
X580Y2030D01*
X1459Y2030D02*
X1577Y2030D01*
X463Y2029D02*
X579Y2029D01*
X1460Y2029D02*
X1577Y2029D01*
X463Y2028D02*
X579Y2028D01*
X1460Y2028D02*
X1576Y2028D01*
X464Y2027D02*
X578Y2027D01*
X1461Y2027D02*
X1576Y2027D01*
X464Y2026D02*
X578Y2026D01*
X1461Y2026D02*
X1575Y2026D01*
X465Y2025D02*
X577Y2025D01*
X1462Y2025D02*
X1575Y2025D01*
X465Y2024D02*
X577Y2024D01*
X1462Y2024D02*
X1574Y2024D01*
X466Y2023D02*
X576Y2023D01*
X1463Y2023D02*
X1573Y2023D01*
X466Y2022D02*
X575Y2022D01*
X1464Y2022D02*
X1573Y2022D01*
X467Y2021D02*
X575Y2021D01*
X1464Y2021D02*
X1572Y2021D01*
X468Y2020D02*
X574Y2020D01*
X1465Y2020D02*
X1571Y2020D01*
X469Y2019D02*
X573Y2019D01*
X1466Y2019D02*
X1570Y2019D01*
X470Y2018D02*
X572Y2018D01*
X1467Y2018D02*
X1569Y2018D01*
X471Y2017D02*
X571Y2017D01*
X1468Y2017D02*
X1568Y2017D01*
X472Y2016D02*
X570Y2016D01*
X1469Y2016D02*
X1567Y2016D01*
X473Y2015D02*
X569Y2015D01*
X1470Y2015D02*
X1566Y2015D01*
X474Y2014D02*
X567Y2014D01*
X1472Y2014D02*
X1565Y2014D01*
X476Y2013D02*
X566Y2013D01*
X1473Y2013D02*
X1563Y2013D01*
X478Y2012D02*
X564Y2012D01*
X1475Y2012D02*
X1561Y2012D01*
X480Y2011D02*
X562Y2011D01*
X1477Y2011D02*
X1560Y2011D01*
X482Y2010D02*
X560Y2010D01*
X1479Y2010D02*
X1557Y2010D01*
X485Y2009D02*
X557Y2009D01*
X1482Y2009D02*
X1555Y2009D01*
X488Y2008D02*
X554Y2008D01*
X1485Y2008D02*
X1551Y2008D01*
X494Y1979D02*
X548Y1979D01*
X1491Y1979D02*
X1545Y1979D01*
X487Y1978D02*
X555Y1978D01*
X1485Y1978D02*
X1552Y1978D01*
X484Y1977D02*
X558Y1977D01*
X1481Y1977D02*
X1555Y1977D01*
X481Y1976D02*
X561Y1976D01*
X1479Y1976D02*
X1558Y1976D01*
X479Y1975D02*
X563Y1975D01*
X1476Y1975D02*
X1560Y1975D01*
X477Y1974D02*
X565Y1974D01*
X1475Y1974D02*
X1562Y1974D01*
X476Y1973D02*
X566Y1973D01*
X1473Y1973D02*
X1563Y1973D01*
X474Y1972D02*
X568Y1972D01*
X1471Y1972D02*
X1565Y1972D01*
X473Y1971D02*
X569Y1971D01*
X1470Y1971D02*
X1566Y1971D01*
X472Y1970D02*
X570Y1970D01*
X1469Y1970D02*
X1568Y1970D01*
X470Y1969D02*
X571Y1969D01*
X1468Y1969D02*
X1569Y1969D01*
X469Y1968D02*
X572Y1968D01*
X1467Y1968D02*
X1570Y1968D01*
X469Y1967D02*
X573Y1967D01*
X1466Y1967D02*
X1571Y1967D01*
X468Y1966D02*
X574Y1966D01*
X1465Y1966D02*
X1571Y1966D01*
X467Y1965D02*
X575Y1965D01*
X1464Y1965D02*
X1572Y1965D01*
X466Y1964D02*
X576Y1964D01*
X1464Y1964D02*
X1573Y1964D01*
X466Y1963D02*
X576Y1963D01*
X1463Y1963D02*
X1574Y1963D01*
X465Y1962D02*
X577Y1962D01*
X1462Y1962D02*
X1574Y1962D01*
X464Y1961D02*
X577Y1961D01*
X1462Y1961D02*
X1575Y1961D01*
X464Y1960D02*
X578Y1960D01*
X1461Y1960D02*
X1575Y1960D01*
X463Y1959D02*
X578Y1959D01*
X1461Y1959D02*
X1576Y1959D01*
X463Y1958D02*
X579Y1958D01*
X1460Y1958D02*
X1576Y1958D01*
X462Y1957D02*
X579Y1957D01*
X1460Y1957D02*
X1577Y1957D01*
X462Y1956D02*
X580Y1956D01*
X1459Y1956D02*
X1577Y1956D01*
X462Y1955D02*
X580Y1955D01*
X1459Y1955D02*
X1577Y1955D01*
X461Y1954D02*
X581Y1954D01*
X1459Y1954D02*
X1578Y1954D01*
X461Y1953D02*
X581Y1953D01*
X1458Y1953D02*
X1578Y1953D01*
X461Y1952D02*
X581Y1952D01*
X1458Y1952D02*
X1578Y1952D01*
X460Y1951D02*
X581Y1951D01*
X1458Y1951D02*
X1579Y1951D01*
X460Y1950D02*
X582Y1950D01*
X1458Y1950D02*
X1579Y1950D01*
X460Y1949D02*
X520Y1949D01*
X522Y1949D02*
X582Y1949D01*
X1457Y1949D02*
X1516Y1949D01*
X1519Y1949D02*
X1579Y1949D01*
X460Y1948D02*
X517Y1948D01*
X525Y1948D02*
X582Y1948D01*
X1457Y1948D02*
X1513Y1948D01*
X1522Y1948D02*
X1579Y1948D01*
X460Y1947D02*
X516Y1947D01*
X526Y1947D02*
X582Y1947D01*
X1457Y1947D02*
X1512Y1947D01*
X1523Y1947D02*
X1579Y1947D01*
X460Y1946D02*
X515Y1946D01*
X527Y1946D02*
X582Y1946D01*
X1457Y1946D02*
X1512Y1946D01*
X1523Y1946D02*
X1580Y1946D01*
X460Y1945D02*
X515Y1945D01*
X527Y1945D02*
X582Y1945D01*
X1457Y1945D02*
X1511Y1945D01*
X1524Y1945D02*
X1580Y1945D01*
X460Y1944D02*
X514Y1944D01*
X528Y1944D02*
X582Y1944D01*
X1457Y1944D02*
X1511Y1944D01*
X1524Y1944D02*
X1580Y1944D01*
X459Y1943D02*
X514Y1943D01*
X528Y1943D02*
X583Y1943D01*
X1457Y1943D02*
X1511Y1943D01*
X1524Y1943D02*
X1580Y1943D01*
X460Y1942D02*
X514Y1942D01*
X528Y1942D02*
X583Y1942D01*
X1457Y1942D02*
X1511Y1942D01*
X1524Y1942D02*
X1580Y1942D01*
X460Y1941D02*
X515Y1941D01*
X527Y1941D02*
X582Y1941D01*
X1457Y1941D02*
X1511Y1941D01*
X1524Y1941D02*
X1580Y1941D01*
X460Y1940D02*
X515Y1940D01*
X527Y1940D02*
X582Y1940D01*
X1457Y1940D02*
X1512Y1940D01*
X1523Y1940D02*
X1579Y1940D01*
X460Y1939D02*
X516Y1939D01*
X526Y1939D02*
X582Y1939D01*
X1457Y1939D02*
X1512Y1939D01*
X1523Y1939D02*
X1579Y1939D01*
X460Y1938D02*
X517Y1938D01*
X525Y1938D02*
X582Y1938D01*
X1457Y1938D02*
X1514Y1938D01*
X1521Y1938D02*
X1579Y1938D01*
X460Y1937D02*
X582Y1937D01*
X1457Y1937D02*
X1579Y1937D01*
X460Y1936D02*
X582Y1936D01*
X1458Y1936D02*
X1579Y1936D01*
X461Y1935D02*
X581Y1935D01*
X1458Y1935D02*
X1579Y1935D01*
X461Y1934D02*
X581Y1934D01*
X1458Y1934D02*
X1578Y1934D01*
X461Y1933D02*
X581Y1933D01*
X1458Y1933D02*
X1578Y1933D01*
X461Y1932D02*
X580Y1932D01*
X1459Y1932D02*
X1578Y1932D01*
X462Y1931D02*
X580Y1931D01*
X1459Y1931D02*
X1577Y1931D01*
X462Y1930D02*
X580Y1930D01*
X1459Y1930D02*
X1577Y1930D01*
X463Y1929D02*
X579Y1929D01*
X1460Y1929D02*
X1577Y1929D01*
X463Y1928D02*
X579Y1928D01*
X1460Y1928D02*
X1576Y1928D01*
X464Y1927D02*
X578Y1927D01*
X1461Y1927D02*
X1576Y1927D01*
X464Y1926D02*
X578Y1926D01*
X1461Y1926D02*
X1575Y1926D01*
X465Y1925D02*
X577Y1925D01*
X1462Y1925D02*
X1575Y1925D01*
X465Y1924D02*
X577Y1924D01*
X1462Y1924D02*
X1574Y1924D01*
X466Y1923D02*
X576Y1923D01*
X1463Y1923D02*
X1573Y1923D01*
X466Y1922D02*
X575Y1922D01*
X1464Y1922D02*
X1573Y1922D01*
X467Y1921D02*
X575Y1921D01*
X1464Y1921D02*
X1572Y1921D01*
X468Y1920D02*
X574Y1920D01*
X1465Y1920D02*
X1571Y1920D01*
X469Y1919D02*
X573Y1919D01*
X1466Y1919D02*
X1570Y1919D01*
X470Y1918D02*
X572Y1918D01*
X1467Y1918D02*
X1569Y1918D01*
X471Y1917D02*
X571Y1917D01*
X1468Y1917D02*
X1568Y1917D01*
X472Y1916D02*
X570Y1916D01*
X1469Y1916D02*
X1567Y1916D01*
X473Y1915D02*
X569Y1915D01*
X1470Y1915D02*
X1566Y1915D01*
X474Y1914D02*
X567Y1914D01*
X1472Y1914D02*
X1565Y1914D01*
X476Y1913D02*
X566Y1913D01*
X1473Y1913D02*
X1563Y1913D01*
X478Y1912D02*
X564Y1912D01*
X1475Y1912D02*
X1561Y1912D01*
X480Y1911D02*
X562Y1911D01*
X1477Y1911D02*
X1559Y1911D01*
X482Y1910D02*
X560Y1910D01*
X1479Y1910D02*
X1557Y1910D01*
X485Y1909D02*
X557Y1909D01*
X1482Y1909D02*
X1555Y1909D01*
X488Y1908D02*
X554Y1908D01*
X1485Y1908D02*
X1551Y1908D01*
X494Y1879D02*
X548Y1879D01*
X1491Y1879D02*
X1546Y1879D01*
X487Y1878D02*
X555Y1878D01*
X1485Y1878D02*
X1552Y1878D01*
X484Y1877D02*
X558Y1877D01*
X1481Y1877D02*
X1555Y1877D01*
X481Y1876D02*
X561Y1876D01*
X1479Y1876D02*
X1558Y1876D01*
X479Y1875D02*
X563Y1875D01*
X1477Y1875D02*
X1560Y1875D01*
X477Y1874D02*
X565Y1874D01*
X1475Y1874D02*
X1562Y1874D01*
X476Y1873D02*
X566Y1873D01*
X1473Y1873D02*
X1564Y1873D01*
X474Y1872D02*
X568Y1872D01*
X1471Y1872D02*
X1565Y1872D01*
X473Y1871D02*
X569Y1871D01*
X1470Y1871D02*
X1566Y1871D01*
X472Y1870D02*
X570Y1870D01*
X1469Y1870D02*
X1568Y1870D01*
X470Y1869D02*
X571Y1869D01*
X1468Y1869D02*
X1569Y1869D01*
X469Y1868D02*
X572Y1868D01*
X1467Y1868D02*
X1570Y1868D01*
X469Y1867D02*
X573Y1867D01*
X1466Y1867D02*
X1571Y1867D01*
X468Y1866D02*
X574Y1866D01*
X1465Y1866D02*
X1571Y1866D01*
X467Y1865D02*
X575Y1865D01*
X1464Y1865D02*
X1572Y1865D01*
X466Y1864D02*
X576Y1864D01*
X1464Y1864D02*
X1573Y1864D01*
X466Y1863D02*
X576Y1863D01*
X1463Y1863D02*
X1574Y1863D01*
X465Y1862D02*
X577Y1862D01*
X1462Y1862D02*
X1574Y1862D01*
X464Y1861D02*
X577Y1861D01*
X1462Y1861D02*
X1575Y1861D01*
X464Y1860D02*
X578Y1860D01*
X1461Y1860D02*
X1575Y1860D01*
X463Y1859D02*
X578Y1859D01*
X1461Y1859D02*
X1576Y1859D01*
X463Y1858D02*
X579Y1858D01*
X1460Y1858D02*
X1576Y1858D01*
X462Y1857D02*
X579Y1857D01*
X1460Y1857D02*
X1577Y1857D01*
X462Y1856D02*
X580Y1856D01*
X1459Y1856D02*
X1577Y1856D01*
X462Y1855D02*
X580Y1855D01*
X1459Y1855D02*
X1577Y1855D01*
X461Y1854D02*
X581Y1854D01*
X1459Y1854D02*
X1578Y1854D01*
X461Y1853D02*
X581Y1853D01*
X1458Y1853D02*
X1578Y1853D01*
X461Y1852D02*
X581Y1852D01*
X1458Y1852D02*
X1578Y1852D01*
X460Y1851D02*
X581Y1851D01*
X1458Y1851D02*
X1579Y1851D01*
X460Y1850D02*
X582Y1850D01*
X1458Y1850D02*
X1579Y1850D01*
X460Y1849D02*
X519Y1849D01*
X523Y1849D02*
X582Y1849D01*
X1457Y1849D02*
X1516Y1849D01*
X1519Y1849D02*
X1579Y1849D01*
X460Y1848D02*
X517Y1848D01*
X525Y1848D02*
X582Y1848D01*
X1457Y1848D02*
X1513Y1848D01*
X1522Y1848D02*
X1579Y1848D01*
X460Y1847D02*
X516Y1847D01*
X526Y1847D02*
X582Y1847D01*
X1457Y1847D02*
X1512Y1847D01*
X1523Y1847D02*
X1579Y1847D01*
X460Y1846D02*
X515Y1846D01*
X527Y1846D02*
X582Y1846D01*
X1457Y1846D02*
X1511Y1846D01*
X1524Y1846D02*
X1580Y1846D01*
X460Y1845D02*
X514Y1845D01*
X527Y1845D02*
X582Y1845D01*
X1457Y1845D02*
X1511Y1845D01*
X1524Y1845D02*
X1580Y1845D01*
X460Y1844D02*
X514Y1844D01*
X528Y1844D02*
X582Y1844D01*
X1457Y1844D02*
X1511Y1844D01*
X1524Y1844D02*
X1580Y1844D01*
X459Y1843D02*
X514Y1843D01*
X528Y1843D02*
X583Y1843D01*
X1457Y1843D02*
X1511Y1843D01*
X1524Y1843D02*
X1580Y1843D01*
X460Y1842D02*
X514Y1842D01*
X528Y1842D02*
X583Y1842D01*
X1457Y1842D02*
X1511Y1842D01*
X1524Y1842D02*
X1580Y1842D01*
X460Y1841D02*
X514Y1841D01*
X527Y1841D02*
X582Y1841D01*
X1457Y1841D02*
X1511Y1841D01*
X1524Y1841D02*
X1580Y1841D01*
X460Y1840D02*
X515Y1840D01*
X527Y1840D02*
X582Y1840D01*
X1457Y1840D02*
X1512Y1840D01*
X1523Y1840D02*
X1580Y1840D01*
X460Y1839D02*
X516Y1839D01*
X526Y1839D02*
X582Y1839D01*
X1457Y1839D02*
X1512Y1839D01*
X1523Y1839D02*
X1579Y1839D01*
X460Y1838D02*
X517Y1838D01*
X525Y1838D02*
X582Y1838D01*
X1457Y1838D02*
X1514Y1838D01*
X1521Y1838D02*
X1579Y1838D01*
X460Y1837D02*
X582Y1837D01*
X1457Y1837D02*
X1579Y1837D01*
X460Y1836D02*
X582Y1836D01*
X1458Y1836D02*
X1579Y1836D01*
X461Y1835D02*
X581Y1835D01*
X1458Y1835D02*
X1579Y1835D01*
X461Y1834D02*
X581Y1834D01*
X1458Y1834D02*
X1578Y1834D01*
X461Y1833D02*
X581Y1833D01*
X1458Y1833D02*
X1578Y1833D01*
X461Y1832D02*
X580Y1832D01*
X1459Y1832D02*
X1578Y1832D01*
X462Y1831D02*
X580Y1831D01*
X1459Y1831D02*
X1577Y1831D01*
X462Y1830D02*
X580Y1830D01*
X1459Y1830D02*
X1577Y1830D01*
X463Y1829D02*
X579Y1829D01*
X1460Y1829D02*
X1577Y1829D01*
X463Y1828D02*
X579Y1828D01*
X1460Y1828D02*
X1576Y1828D01*
X464Y1827D02*
X578Y1827D01*
X1461Y1827D02*
X1576Y1827D01*
X464Y1826D02*
X578Y1826D01*
X1461Y1826D02*
X1575Y1826D01*
X465Y1825D02*
X577Y1825D01*
X1462Y1825D02*
X1575Y1825D01*
X465Y1824D02*
X577Y1824D01*
X1462Y1824D02*
X1574Y1824D01*
X466Y1823D02*
X576Y1823D01*
X1463Y1823D02*
X1573Y1823D01*
X466Y1822D02*
X575Y1822D01*
X1464Y1822D02*
X1573Y1822D01*
X467Y1821D02*
X575Y1821D01*
X1464Y1821D02*
X1572Y1821D01*
X468Y1820D02*
X574Y1820D01*
X1465Y1820D02*
X1571Y1820D01*
X469Y1819D02*
X573Y1819D01*
X1466Y1819D02*
X1570Y1819D01*
X470Y1818D02*
X572Y1818D01*
X1467Y1818D02*
X1569Y1818D01*
X471Y1817D02*
X571Y1817D01*
X1468Y1817D02*
X1568Y1817D01*
X472Y1816D02*
X570Y1816D01*
X1469Y1816D02*
X1567Y1816D01*
X473Y1815D02*
X569Y1815D01*
X1470Y1815D02*
X1566Y1815D01*
X475Y1814D02*
X567Y1814D01*
X1472Y1814D02*
X1565Y1814D01*
X476Y1813D02*
X566Y1813D01*
X1473Y1813D02*
X1563Y1813D01*
X478Y1812D02*
X564Y1812D01*
X1475Y1812D02*
X1561Y1812D01*
X480Y1811D02*
X562Y1811D01*
X1477Y1811D02*
X1559Y1811D01*
X482Y1810D02*
X560Y1810D01*
X1479Y1810D02*
X1557Y1810D01*
X485Y1809D02*
X557Y1809D01*
X1482Y1809D02*
X1555Y1809D01*
X488Y1808D02*
X554Y1808D01*
X1485Y1808D02*
X1551Y1808D01*
X492Y1779D02*
X547Y1779D01*
X1491Y1779D02*
X1546Y1779D01*
X486Y1778D02*
X554Y1778D01*
X1485Y1778D02*
X1552Y1778D01*
X483Y1777D02*
X557Y1777D01*
X1481Y1777D02*
X1555Y1777D01*
X480Y1776D02*
X560Y1776D01*
X1479Y1776D02*
X1558Y1776D01*
X478Y1775D02*
X562Y1775D01*
X1476Y1775D02*
X1560Y1775D01*
X476Y1774D02*
X564Y1774D01*
X1475Y1774D02*
X1562Y1774D01*
X475Y1773D02*
X565Y1773D01*
X1473Y1773D02*
X1564Y1773D01*
X473Y1772D02*
X567Y1772D01*
X1471Y1772D02*
X1565Y1772D01*
X472Y1771D02*
X568Y1771D01*
X1470Y1771D02*
X1566Y1771D01*
X471Y1770D02*
X569Y1770D01*
X1469Y1770D02*
X1568Y1770D01*
X469Y1769D02*
X570Y1769D01*
X1468Y1769D02*
X1569Y1769D01*
X468Y1768D02*
X571Y1768D01*
X1467Y1768D02*
X1570Y1768D01*
X468Y1767D02*
X572Y1767D01*
X1466Y1767D02*
X1571Y1767D01*
X467Y1766D02*
X573Y1766D01*
X1465Y1766D02*
X1571Y1766D01*
X466Y1765D02*
X574Y1765D01*
X1464Y1765D02*
X1572Y1765D01*
X465Y1764D02*
X575Y1764D01*
X1464Y1764D02*
X1573Y1764D01*
X465Y1763D02*
X575Y1763D01*
X1463Y1763D02*
X1574Y1763D01*
X464Y1762D02*
X576Y1762D01*
X1462Y1762D02*
X1574Y1762D01*
X463Y1761D02*
X576Y1761D01*
X1462Y1761D02*
X1575Y1761D01*
X463Y1760D02*
X577Y1760D01*
X1461Y1760D02*
X1575Y1760D01*
X462Y1759D02*
X577Y1759D01*
X1461Y1759D02*
X1576Y1759D01*
X462Y1758D02*
X578Y1758D01*
X1460Y1758D02*
X1576Y1758D01*
X461Y1757D02*
X578Y1757D01*
X1460Y1757D02*
X1577Y1757D01*
X461Y1756D02*
X579Y1756D01*
X1459Y1756D02*
X1577Y1756D01*
X461Y1755D02*
X579Y1755D01*
X1459Y1755D02*
X1577Y1755D01*
X460Y1754D02*
X579Y1754D01*
X1459Y1754D02*
X1578Y1754D01*
X460Y1753D02*
X580Y1753D01*
X1458Y1753D02*
X1578Y1753D01*
X460Y1752D02*
X580Y1752D01*
X1458Y1752D02*
X1578Y1752D01*
X459Y1751D02*
X580Y1751D01*
X1458Y1751D02*
X1579Y1751D01*
X459Y1750D02*
X581Y1750D01*
X1458Y1750D02*
X1579Y1750D01*
X459Y1749D02*
X518Y1749D01*
X522Y1749D02*
X581Y1749D01*
X1457Y1749D02*
X1516Y1749D01*
X1519Y1749D02*
X1579Y1749D01*
X459Y1748D02*
X516Y1748D01*
X524Y1748D02*
X581Y1748D01*
X1457Y1748D02*
X1514Y1748D01*
X1521Y1748D02*
X1579Y1748D01*
X459Y1747D02*
X515Y1747D01*
X525Y1747D02*
X581Y1747D01*
X1457Y1747D02*
X1512Y1747D01*
X1522Y1747D02*
X1579Y1747D01*
X459Y1746D02*
X514Y1746D01*
X526Y1746D02*
X581Y1746D01*
X1457Y1746D02*
X1512Y1746D01*
X1523Y1746D02*
X1580Y1746D01*
X459Y1745D02*
X514Y1745D01*
X526Y1745D02*
X582Y1745D01*
X1457Y1745D02*
X1511Y1745D01*
X1524Y1745D02*
X1580Y1745D01*
X458Y1744D02*
X513Y1744D01*
X526Y1744D02*
X582Y1744D01*
X1457Y1744D02*
X1511Y1744D01*
X1524Y1744D02*
X1580Y1744D01*
X458Y1743D02*
X513Y1743D01*
X526Y1743D02*
X581Y1743D01*
X1457Y1743D02*
X1511Y1743D01*
X1524Y1743D02*
X1580Y1743D01*
X458Y1742D02*
X513Y1742D01*
X526Y1742D02*
X581Y1742D01*
X1457Y1742D02*
X1511Y1742D01*
X1524Y1742D02*
X1580Y1742D01*
X459Y1741D02*
X514Y1741D01*
X526Y1741D02*
X581Y1741D01*
X1457Y1741D02*
X1511Y1741D01*
X1524Y1741D02*
X1580Y1741D01*
X459Y1740D02*
X514Y1740D01*
X526Y1740D02*
X581Y1740D01*
X1457Y1740D02*
X1512Y1740D01*
X1523Y1740D02*
X1579Y1740D01*
X459Y1739D02*
X515Y1739D01*
X525Y1739D02*
X581Y1739D01*
X1457Y1739D02*
X1513Y1739D01*
X1522Y1739D02*
X1579Y1739D01*
X459Y1738D02*
X516Y1738D01*
X524Y1738D02*
X581Y1738D01*
X1457Y1738D02*
X1514Y1738D01*
X1521Y1738D02*
X1579Y1738D01*
X459Y1737D02*
X581Y1737D01*
X1457Y1737D02*
X1579Y1737D01*
X459Y1736D02*
X581Y1736D01*
X1458Y1736D02*
X1579Y1736D01*
X460Y1735D02*
X580Y1735D01*
X1458Y1735D02*
X1579Y1735D01*
X460Y1734D02*
X580Y1734D01*
X1458Y1734D02*
X1578Y1734D01*
X460Y1733D02*
X580Y1733D01*
X1458Y1733D02*
X1578Y1733D01*
X460Y1732D02*
X579Y1732D01*
X1459Y1732D02*
X1578Y1732D01*
X461Y1731D02*
X579Y1731D01*
X1459Y1731D02*
X1577Y1731D01*
X461Y1730D02*
X579Y1730D01*
X1459Y1730D02*
X1577Y1730D01*
X462Y1729D02*
X578Y1729D01*
X1460Y1729D02*
X1577Y1729D01*
X462Y1728D02*
X578Y1728D01*
X1460Y1728D02*
X1576Y1728D01*
X462Y1727D02*
X577Y1727D01*
X1461Y1727D02*
X1576Y1727D01*
X463Y1726D02*
X577Y1726D01*
X1461Y1726D02*
X1575Y1726D01*
X464Y1725D02*
X576Y1725D01*
X1462Y1725D02*
X1575Y1725D01*
X464Y1724D02*
X576Y1724D01*
X1462Y1724D02*
X1574Y1724D01*
X465Y1723D02*
X575Y1723D01*
X1463Y1723D02*
X1573Y1723D01*
X465Y1722D02*
X574Y1722D01*
X1464Y1722D02*
X1573Y1722D01*
X466Y1721D02*
X574Y1721D01*
X1464Y1721D02*
X1572Y1721D01*
X467Y1720D02*
X573Y1720D01*
X1465Y1720D02*
X1571Y1720D01*
X468Y1719D02*
X572Y1719D01*
X1466Y1719D02*
X1570Y1719D01*
X469Y1718D02*
X571Y1718D01*
X1467Y1718D02*
X1569Y1718D01*
X470Y1717D02*
X570Y1717D01*
X1468Y1717D02*
X1568Y1717D01*
X471Y1716D02*
X569Y1716D01*
X1469Y1716D02*
X1567Y1716D01*
X472Y1715D02*
X568Y1715D01*
X1470Y1715D02*
X1566Y1715D01*
X473Y1714D02*
X566Y1714D01*
X1472Y1714D02*
X1565Y1714D01*
X475Y1713D02*
X565Y1713D01*
X1473Y1713D02*
X1563Y1713D01*
X477Y1712D02*
X563Y1712D01*
X1475Y1712D02*
X1561Y1712D01*
X479Y1711D02*
X561Y1711D01*
X1477Y1711D02*
X1559Y1711D01*
X481Y1710D02*
X559Y1710D01*
X1479Y1710D02*
X1557Y1710D01*
X484Y1709D02*
X556Y1709D01*
X1482Y1709D02*
X1555Y1709D01*
X487Y1708D02*
X553Y1708D01*
X1486Y1708D02*
X1551Y1708D01*
X493Y1679D02*
X548Y1679D01*
X1491Y1679D02*
X1546Y1679D01*
X487Y1678D02*
X555Y1678D01*
X1485Y1678D02*
X1552Y1678D01*
X484Y1677D02*
X558Y1677D01*
X1481Y1677D02*
X1555Y1677D01*
X481Y1676D02*
X561Y1676D01*
X1479Y1676D02*
X1558Y1676D01*
X479Y1675D02*
X563Y1675D01*
X1476Y1675D02*
X1560Y1675D01*
X477Y1674D02*
X565Y1674D01*
X1475Y1674D02*
X1562Y1674D01*
X476Y1673D02*
X566Y1673D01*
X1473Y1673D02*
X1564Y1673D01*
X474Y1672D02*
X568Y1672D01*
X1471Y1672D02*
X1565Y1672D01*
X473Y1671D02*
X569Y1671D01*
X1470Y1671D02*
X1566Y1671D01*
X472Y1670D02*
X570Y1670D01*
X1469Y1670D02*
X1568Y1670D01*
X470Y1669D02*
X571Y1669D01*
X1468Y1669D02*
X1569Y1669D01*
X469Y1668D02*
X572Y1668D01*
X1467Y1668D02*
X1570Y1668D01*
X469Y1667D02*
X573Y1667D01*
X1466Y1667D02*
X1571Y1667D01*
X468Y1666D02*
X574Y1666D01*
X1465Y1666D02*
X1571Y1666D01*
X467Y1665D02*
X575Y1665D01*
X1464Y1665D02*
X1572Y1665D01*
X466Y1664D02*
X576Y1664D01*
X1464Y1664D02*
X1573Y1664D01*
X466Y1663D02*
X576Y1663D01*
X1463Y1663D02*
X1574Y1663D01*
X465Y1662D02*
X577Y1662D01*
X1462Y1662D02*
X1574Y1662D01*
X464Y1661D02*
X577Y1661D01*
X1462Y1661D02*
X1575Y1661D01*
X464Y1660D02*
X578Y1660D01*
X1461Y1660D02*
X1575Y1660D01*
X463Y1659D02*
X578Y1659D01*
X1461Y1659D02*
X1576Y1659D01*
X463Y1658D02*
X579Y1658D01*
X1460Y1658D02*
X1576Y1658D01*
X462Y1657D02*
X579Y1657D01*
X1460Y1657D02*
X1577Y1657D01*
X462Y1656D02*
X580Y1656D01*
X1459Y1656D02*
X1577Y1656D01*
X462Y1655D02*
X580Y1655D01*
X1459Y1655D02*
X1577Y1655D01*
X461Y1654D02*
X581Y1654D01*
X1459Y1654D02*
X1578Y1654D01*
X461Y1653D02*
X581Y1653D01*
X1458Y1653D02*
X1578Y1653D01*
X461Y1652D02*
X581Y1652D01*
X1458Y1652D02*
X1578Y1652D01*
X460Y1651D02*
X581Y1651D01*
X1458Y1651D02*
X1579Y1651D01*
X460Y1650D02*
X582Y1650D01*
X1458Y1650D02*
X1579Y1650D01*
X460Y1649D02*
X519Y1649D01*
X523Y1649D02*
X582Y1649D01*
X1457Y1649D02*
X1516Y1649D01*
X1519Y1649D02*
X1579Y1649D01*
X460Y1648D02*
X517Y1648D01*
X525Y1648D02*
X582Y1648D01*
X1457Y1648D02*
X1514Y1648D01*
X1521Y1648D02*
X1579Y1648D01*
X460Y1647D02*
X516Y1647D01*
X526Y1647D02*
X582Y1647D01*
X1457Y1647D02*
X1512Y1647D01*
X1522Y1647D02*
X1579Y1647D01*
X460Y1646D02*
X515Y1646D01*
X527Y1646D02*
X582Y1646D01*
X1457Y1646D02*
X1512Y1646D01*
X1523Y1646D02*
X1580Y1646D01*
X460Y1645D02*
X515Y1645D01*
X527Y1645D02*
X582Y1645D01*
X1457Y1645D02*
X1511Y1645D01*
X1524Y1645D02*
X1580Y1645D01*
X460Y1644D02*
X514Y1644D01*
X527Y1644D02*
X582Y1644D01*
X1457Y1644D02*
X1511Y1644D01*
X1524Y1644D02*
X1580Y1644D01*
X459Y1643D02*
X514Y1643D01*
X527Y1643D02*
X583Y1643D01*
X1457Y1643D02*
X1511Y1643D01*
X1524Y1643D02*
X1580Y1643D01*
X460Y1642D02*
X514Y1642D01*
X527Y1642D02*
X583Y1642D01*
X1457Y1642D02*
X1511Y1642D01*
X1524Y1642D02*
X1580Y1642D01*
X460Y1641D02*
X515Y1641D01*
X527Y1641D02*
X582Y1641D01*
X1457Y1641D02*
X1511Y1641D01*
X1524Y1641D02*
X1580Y1641D01*
X460Y1640D02*
X515Y1640D01*
X527Y1640D02*
X582Y1640D01*
X1457Y1640D02*
X1512Y1640D01*
X1523Y1640D02*
X1579Y1640D01*
X460Y1639D02*
X516Y1639D01*
X526Y1639D02*
X582Y1639D01*
X1457Y1639D02*
X1513Y1639D01*
X1522Y1639D02*
X1579Y1639D01*
X460Y1638D02*
X517Y1638D01*
X525Y1638D02*
X582Y1638D01*
X1457Y1638D02*
X1514Y1638D01*
X1521Y1638D02*
X1579Y1638D01*
X460Y1637D02*
X582Y1637D01*
X1457Y1637D02*
X1579Y1637D01*
X460Y1636D02*
X582Y1636D01*
X1458Y1636D02*
X1579Y1636D01*
X461Y1635D02*
X581Y1635D01*
X1458Y1635D02*
X1579Y1635D01*
X461Y1634D02*
X581Y1634D01*
X1458Y1634D02*
X1578Y1634D01*
X461Y1633D02*
X581Y1633D01*
X1458Y1633D02*
X1578Y1633D01*
X461Y1632D02*
X580Y1632D01*
X1459Y1632D02*
X1578Y1632D01*
X462Y1631D02*
X580Y1631D01*
X1459Y1631D02*
X1577Y1631D01*
X462Y1630D02*
X580Y1630D01*
X1459Y1630D02*
X1577Y1630D01*
X463Y1629D02*
X579Y1629D01*
X1460Y1629D02*
X1577Y1629D01*
X463Y1628D02*
X579Y1628D01*
X1460Y1628D02*
X1576Y1628D01*
X464Y1627D02*
X578Y1627D01*
X1461Y1627D02*
X1576Y1627D01*
X464Y1626D02*
X578Y1626D01*
X1461Y1626D02*
X1575Y1626D01*
X465Y1625D02*
X577Y1625D01*
X1462Y1625D02*
X1575Y1625D01*
X465Y1624D02*
X577Y1624D01*
X1462Y1624D02*
X1574Y1624D01*
X466Y1623D02*
X576Y1623D01*
X1463Y1623D02*
X1573Y1623D01*
X466Y1622D02*
X575Y1622D01*
X1464Y1622D02*
X1573Y1622D01*
X467Y1621D02*
X575Y1621D01*
X1464Y1621D02*
X1572Y1621D01*
X468Y1620D02*
X574Y1620D01*
X1465Y1620D02*
X1571Y1620D01*
X469Y1619D02*
X573Y1619D01*
X1466Y1619D02*
X1570Y1619D01*
X470Y1618D02*
X572Y1618D01*
X1467Y1618D02*
X1569Y1618D01*
X471Y1617D02*
X571Y1617D01*
X1468Y1617D02*
X1568Y1617D01*
X472Y1616D02*
X570Y1616D01*
X1469Y1616D02*
X1567Y1616D01*
X473Y1615D02*
X569Y1615D01*
X1470Y1615D02*
X1566Y1615D01*
X475Y1614D02*
X567Y1614D01*
X1472Y1614D02*
X1565Y1614D01*
X476Y1613D02*
X566Y1613D01*
X1473Y1613D02*
X1563Y1613D01*
X478Y1612D02*
X564Y1612D01*
X1475Y1612D02*
X1561Y1612D01*
X480Y1611D02*
X562Y1611D01*
X1477Y1611D02*
X1559Y1611D01*
X482Y1610D02*
X560Y1610D01*
X1479Y1610D02*
X1557Y1610D01*
X485Y1609D02*
X557Y1609D01*
X1482Y1609D02*
X1555Y1609D01*
X488Y1608D02*
X554Y1608D01*
X1486Y1608D02*
X1551Y1608D01*
X493Y1579D02*
X548Y1579D01*
X1491Y1579D02*
X1546Y1579D01*
X487Y1578D02*
X555Y1578D01*
X1485Y1578D02*
X1552Y1578D01*
X484Y1577D02*
X558Y1577D01*
X1481Y1577D02*
X1555Y1577D01*
X481Y1576D02*
X561Y1576D01*
X1479Y1576D02*
X1558Y1576D01*
X479Y1575D02*
X563Y1575D01*
X1476Y1575D02*
X1560Y1575D01*
X477Y1574D02*
X565Y1574D01*
X1475Y1574D02*
X1562Y1574D01*
X476Y1573D02*
X566Y1573D01*
X1473Y1573D02*
X1564Y1573D01*
X474Y1572D02*
X568Y1572D01*
X1471Y1572D02*
X1565Y1572D01*
X473Y1571D02*
X569Y1571D01*
X1470Y1571D02*
X1566Y1571D01*
X472Y1570D02*
X570Y1570D01*
X1469Y1570D02*
X1568Y1570D01*
X470Y1569D02*
X571Y1569D01*
X1468Y1569D02*
X1569Y1569D01*
X469Y1568D02*
X572Y1568D01*
X1467Y1568D02*
X1570Y1568D01*
X469Y1567D02*
X573Y1567D01*
X1466Y1567D02*
X1571Y1567D01*
X468Y1566D02*
X574Y1566D01*
X1465Y1566D02*
X1571Y1566D01*
X467Y1565D02*
X575Y1565D01*
X1464Y1565D02*
X1572Y1565D01*
X466Y1564D02*
X576Y1564D01*
X1464Y1564D02*
X1573Y1564D01*
X466Y1563D02*
X576Y1563D01*
X1463Y1563D02*
X1574Y1563D01*
X465Y1562D02*
X577Y1562D01*
X1462Y1562D02*
X1574Y1562D01*
X464Y1561D02*
X577Y1561D01*
X1462Y1561D02*
X1575Y1561D01*
X464Y1560D02*
X578Y1560D01*
X1461Y1560D02*
X1575Y1560D01*
X463Y1559D02*
X578Y1559D01*
X1461Y1559D02*
X1576Y1559D01*
X463Y1558D02*
X579Y1558D01*
X1460Y1558D02*
X1576Y1558D01*
X462Y1557D02*
X579Y1557D01*
X1460Y1557D02*
X1577Y1557D01*
X462Y1556D02*
X580Y1556D01*
X1459Y1556D02*
X1577Y1556D01*
X462Y1555D02*
X580Y1555D01*
X1459Y1555D02*
X1577Y1555D01*
X461Y1554D02*
X581Y1554D01*
X1459Y1554D02*
X1578Y1554D01*
X461Y1553D02*
X581Y1553D01*
X1458Y1553D02*
X1578Y1553D01*
X461Y1552D02*
X581Y1552D01*
X1458Y1552D02*
X1578Y1552D01*
X460Y1551D02*
X581Y1551D01*
X1458Y1551D02*
X1579Y1551D01*
X460Y1550D02*
X582Y1550D01*
X1458Y1550D02*
X1579Y1550D01*
X460Y1549D02*
X519Y1549D01*
X523Y1549D02*
X582Y1549D01*
X1457Y1549D02*
X1516Y1549D01*
X1519Y1549D02*
X1579Y1549D01*
X460Y1548D02*
X517Y1548D01*
X525Y1548D02*
X582Y1548D01*
X1457Y1548D02*
X1514Y1548D01*
X1521Y1548D02*
X1579Y1548D01*
X460Y1547D02*
X516Y1547D01*
X526Y1547D02*
X582Y1547D01*
X1457Y1547D02*
X1512Y1547D01*
X1522Y1547D02*
X1579Y1547D01*
X460Y1546D02*
X515Y1546D01*
X527Y1546D02*
X582Y1546D01*
X1457Y1546D02*
X1512Y1546D01*
X1523Y1546D02*
X1580Y1546D01*
X460Y1545D02*
X515Y1545D01*
X527Y1545D02*
X582Y1545D01*
X1457Y1545D02*
X1511Y1545D01*
X1524Y1545D02*
X1580Y1545D01*
X460Y1544D02*
X514Y1544D01*
X527Y1544D02*
X582Y1544D01*
X1457Y1544D02*
X1511Y1544D01*
X1524Y1544D02*
X1580Y1544D01*
X459Y1543D02*
X514Y1543D01*
X527Y1543D02*
X582Y1543D01*
X1457Y1543D02*
X1511Y1543D01*
X1524Y1543D02*
X1580Y1543D01*
X460Y1542D02*
X514Y1542D01*
X527Y1542D02*
X582Y1542D01*
X1457Y1542D02*
X1511Y1542D01*
X1524Y1542D02*
X1580Y1542D01*
X460Y1541D02*
X515Y1541D01*
X527Y1541D02*
X582Y1541D01*
X1457Y1541D02*
X1511Y1541D01*
X1524Y1541D02*
X1580Y1541D01*
X460Y1540D02*
X515Y1540D01*
X527Y1540D02*
X582Y1540D01*
X1457Y1540D02*
X1512Y1540D01*
X1523Y1540D02*
X1579Y1540D01*
X460Y1539D02*
X516Y1539D01*
X526Y1539D02*
X582Y1539D01*
X1457Y1539D02*
X1513Y1539D01*
X1522Y1539D02*
X1579Y1539D01*
X460Y1538D02*
X517Y1538D01*
X525Y1538D02*
X582Y1538D01*
X1457Y1538D02*
X1514Y1538D01*
X1521Y1538D02*
X1579Y1538D01*
X460Y1537D02*
X582Y1537D01*
X1457Y1537D02*
X1579Y1537D01*
X460Y1536D02*
X582Y1536D01*
X1458Y1536D02*
X1579Y1536D01*
X461Y1535D02*
X581Y1535D01*
X1458Y1535D02*
X1579Y1535D01*
X461Y1534D02*
X581Y1534D01*
X1458Y1534D02*
X1578Y1534D01*
X461Y1533D02*
X581Y1533D01*
X1458Y1533D02*
X1578Y1533D01*
X461Y1532D02*
X580Y1532D01*
X1459Y1532D02*
X1578Y1532D01*
X462Y1531D02*
X580Y1531D01*
X1459Y1531D02*
X1577Y1531D01*
X462Y1530D02*
X580Y1530D01*
X1459Y1530D02*
X1577Y1530D01*
X463Y1529D02*
X579Y1529D01*
X1460Y1529D02*
X1577Y1529D01*
X463Y1528D02*
X579Y1528D01*
X1460Y1528D02*
X1576Y1528D01*
X464Y1527D02*
X578Y1527D01*
X1461Y1527D02*
X1576Y1527D01*
X464Y1526D02*
X578Y1526D01*
X1461Y1526D02*
X1575Y1526D01*
X465Y1525D02*
X577Y1525D01*
X1462Y1525D02*
X1575Y1525D01*
X465Y1524D02*
X577Y1524D01*
X1462Y1524D02*
X1574Y1524D01*
X466Y1523D02*
X576Y1523D01*
X1463Y1523D02*
X1573Y1523D01*
X466Y1522D02*
X575Y1522D01*
X1464Y1522D02*
X1573Y1522D01*
X467Y1521D02*
X575Y1521D01*
X1464Y1521D02*
X1572Y1521D01*
X468Y1520D02*
X574Y1520D01*
X1465Y1520D02*
X1571Y1520D01*
X469Y1519D02*
X573Y1519D01*
X1466Y1519D02*
X1570Y1519D01*
X470Y1518D02*
X572Y1518D01*
X1467Y1518D02*
X1569Y1518D01*
X471Y1517D02*
X571Y1517D01*
X1468Y1517D02*
X1568Y1517D01*
X472Y1516D02*
X570Y1516D01*
X1469Y1516D02*
X1567Y1516D01*
X473Y1515D02*
X569Y1515D01*
X1470Y1515D02*
X1566Y1515D01*
X475Y1514D02*
X567Y1514D01*
X1472Y1514D02*
X1565Y1514D01*
X476Y1513D02*
X566Y1513D01*
X1473Y1513D02*
X1563Y1513D01*
X478Y1512D02*
X564Y1512D01*
X1475Y1512D02*
X1561Y1512D01*
X480Y1511D02*
X562Y1511D01*
X1477Y1511D02*
X1559Y1511D01*
X482Y1510D02*
X560Y1510D01*
X1479Y1510D02*
X1557Y1510D01*
X485Y1509D02*
X557Y1509D01*
X1482Y1509D02*
X1555Y1509D01*
X488Y1508D02*
X554Y1508D01*
X1486Y1508D02*
X1551Y1508D01*
X493Y1479D02*
X549Y1479D01*
X1490Y1479D02*
X1546Y1479D01*
X487Y1478D02*
X555Y1478D01*
X1485Y1478D02*
X1552Y1478D01*
X484Y1477D02*
X558Y1477D01*
X1481Y1477D02*
X1555Y1477D01*
X481Y1476D02*
X561Y1476D01*
X1479Y1476D02*
X1558Y1476D01*
X479Y1475D02*
X563Y1475D01*
X1476Y1475D02*
X1560Y1475D01*
X477Y1474D02*
X565Y1474D01*
X1475Y1474D02*
X1562Y1474D01*
X476Y1473D02*
X566Y1473D01*
X1473Y1473D02*
X1564Y1473D01*
X474Y1472D02*
X568Y1472D01*
X1471Y1472D02*
X1565Y1472D01*
X473Y1471D02*
X569Y1471D01*
X1470Y1471D02*
X1566Y1471D01*
X472Y1470D02*
X570Y1470D01*
X1469Y1470D02*
X1568Y1470D01*
X470Y1469D02*
X571Y1469D01*
X1468Y1469D02*
X1569Y1469D01*
X469Y1468D02*
X572Y1468D01*
X1467Y1468D02*
X1570Y1468D01*
X469Y1467D02*
X573Y1467D01*
X1466Y1467D02*
X1571Y1467D01*
X468Y1466D02*
X574Y1466D01*
X1465Y1466D02*
X1571Y1466D01*
X467Y1465D02*
X575Y1465D01*
X1464Y1465D02*
X1572Y1465D01*
X466Y1464D02*
X576Y1464D01*
X1464Y1464D02*
X1573Y1464D01*
X466Y1463D02*
X576Y1463D01*
X1463Y1463D02*
X1574Y1463D01*
X465Y1462D02*
X577Y1462D01*
X1462Y1462D02*
X1574Y1462D01*
X464Y1461D02*
X577Y1461D01*
X1462Y1461D02*
X1575Y1461D01*
X464Y1460D02*
X578Y1460D01*
X1461Y1460D02*
X1575Y1460D01*
X463Y1459D02*
X578Y1459D01*
X1461Y1459D02*
X1576Y1459D01*
X463Y1458D02*
X579Y1458D01*
X1460Y1458D02*
X1576Y1458D01*
X462Y1457D02*
X579Y1457D01*
X1460Y1457D02*
X1577Y1457D01*
X462Y1456D02*
X580Y1456D01*
X1459Y1456D02*
X1577Y1456D01*
X462Y1455D02*
X580Y1455D01*
X1459Y1455D02*
X1577Y1455D01*
X461Y1454D02*
X581Y1454D01*
X1459Y1454D02*
X1578Y1454D01*
X461Y1453D02*
X581Y1453D01*
X1458Y1453D02*
X1578Y1453D01*
X461Y1452D02*
X581Y1452D01*
X1458Y1452D02*
X1578Y1452D01*
X460Y1451D02*
X581Y1451D01*
X1458Y1451D02*
X1579Y1451D01*
X460Y1450D02*
X582Y1450D01*
X1458Y1450D02*
X1579Y1450D01*
X460Y1449D02*
X519Y1449D01*
X522Y1449D02*
X582Y1449D01*
X1457Y1449D02*
X1516Y1449D01*
X1519Y1449D02*
X1579Y1449D01*
X460Y1448D02*
X517Y1448D01*
X525Y1448D02*
X582Y1448D01*
X1457Y1448D02*
X1514Y1448D01*
X1521Y1448D02*
X1579Y1448D01*
X460Y1447D02*
X516Y1447D01*
X526Y1447D02*
X582Y1447D01*
X1457Y1447D02*
X1512Y1447D01*
X1523Y1447D02*
X1579Y1447D01*
X460Y1446D02*
X515Y1446D01*
X527Y1446D02*
X582Y1446D01*
X1457Y1446D02*
X1512Y1446D01*
X1523Y1446D02*
X1580Y1446D01*
X460Y1445D02*
X515Y1445D01*
X527Y1445D02*
X582Y1445D01*
X1457Y1445D02*
X1511Y1445D01*
X1524Y1445D02*
X1580Y1445D01*
X460Y1444D02*
X514Y1444D01*
X527Y1444D02*
X582Y1444D01*
X1457Y1444D02*
X1511Y1444D01*
X1524Y1444D02*
X1580Y1444D01*
X459Y1443D02*
X514Y1443D01*
X527Y1443D02*
X582Y1443D01*
X1457Y1443D02*
X1511Y1443D01*
X1524Y1443D02*
X1580Y1443D01*
X460Y1442D02*
X514Y1442D01*
X527Y1442D02*
X582Y1442D01*
X1457Y1442D02*
X1511Y1442D01*
X1524Y1442D02*
X1580Y1442D01*
X460Y1441D02*
X515Y1441D01*
X527Y1441D02*
X582Y1441D01*
X1457Y1441D02*
X1511Y1441D01*
X1524Y1441D02*
X1580Y1441D01*
X460Y1440D02*
X515Y1440D01*
X527Y1440D02*
X582Y1440D01*
X1457Y1440D02*
X1512Y1440D01*
X1523Y1440D02*
X1580Y1440D01*
X460Y1439D02*
X516Y1439D01*
X526Y1439D02*
X582Y1439D01*
X1457Y1439D02*
X1513Y1439D01*
X1522Y1439D02*
X1579Y1439D01*
X460Y1438D02*
X517Y1438D01*
X525Y1438D02*
X582Y1438D01*
X1457Y1438D02*
X1514Y1438D01*
X1521Y1438D02*
X1579Y1438D01*
X460Y1437D02*
X582Y1437D01*
X1457Y1437D02*
X1579Y1437D01*
X460Y1436D02*
X582Y1436D01*
X1458Y1436D02*
X1579Y1436D01*
X461Y1435D02*
X581Y1435D01*
X1458Y1435D02*
X1579Y1435D01*
X461Y1434D02*
X581Y1434D01*
X1458Y1434D02*
X1578Y1434D01*
X461Y1433D02*
X581Y1433D01*
X1458Y1433D02*
X1578Y1433D01*
X461Y1432D02*
X580Y1432D01*
X1459Y1432D02*
X1578Y1432D01*
X462Y1431D02*
X580Y1431D01*
X1459Y1431D02*
X1577Y1431D01*
X462Y1430D02*
X580Y1430D01*
X1459Y1430D02*
X1577Y1430D01*
X463Y1429D02*
X579Y1429D01*
X1460Y1429D02*
X1577Y1429D01*
X463Y1428D02*
X579Y1428D01*
X1460Y1428D02*
X1576Y1428D01*
X464Y1427D02*
X578Y1427D01*
X1461Y1427D02*
X1576Y1427D01*
X464Y1426D02*
X578Y1426D01*
X1461Y1426D02*
X1575Y1426D01*
X465Y1425D02*
X577Y1425D01*
X1462Y1425D02*
X1575Y1425D01*
X465Y1424D02*
X577Y1424D01*
X1462Y1424D02*
X1574Y1424D01*
X466Y1423D02*
X576Y1423D01*
X1463Y1423D02*
X1573Y1423D01*
X466Y1422D02*
X575Y1422D01*
X1464Y1422D02*
X1573Y1422D01*
X467Y1421D02*
X575Y1421D01*
X1464Y1421D02*
X1572Y1421D01*
X468Y1420D02*
X574Y1420D01*
X1465Y1420D02*
X1571Y1420D01*
X469Y1419D02*
X573Y1419D01*
X1466Y1419D02*
X1570Y1419D01*
X470Y1418D02*
X572Y1418D01*
X1467Y1418D02*
X1569Y1418D01*
X471Y1417D02*
X571Y1417D01*
X1468Y1417D02*
X1568Y1417D01*
X472Y1416D02*
X570Y1416D01*
X1469Y1416D02*
X1567Y1416D01*
X473Y1415D02*
X569Y1415D01*
X1470Y1415D02*
X1566Y1415D01*
X475Y1414D02*
X567Y1414D01*
X1472Y1414D02*
X1565Y1414D01*
X476Y1413D02*
X566Y1413D01*
X1473Y1413D02*
X1563Y1413D01*
X478Y1412D02*
X564Y1412D01*
X1475Y1412D02*
X1561Y1412D01*
X480Y1411D02*
X562Y1411D01*
X1477Y1411D02*
X1559Y1411D01*
X482Y1410D02*
X560Y1410D01*
X1479Y1410D02*
X1557Y1410D01*
X485Y1409D02*
X557Y1409D01*
X1482Y1409D02*
X1555Y1409D01*
X488Y1408D02*
X554Y1408D01*
X1486Y1408D02*
X1551Y1408D01*
X493Y1379D02*
X549Y1379D01*
X1490Y1379D02*
X1546Y1379D01*
X487Y1378D02*
X555Y1378D01*
X1484Y1378D02*
X1552Y1378D01*
X484Y1377D02*
X558Y1377D01*
X1481Y1377D02*
X1555Y1377D01*
X481Y1376D02*
X561Y1376D01*
X1479Y1376D02*
X1558Y1376D01*
X479Y1375D02*
X563Y1375D01*
X1476Y1375D02*
X1560Y1375D01*
X477Y1374D02*
X565Y1374D01*
X1475Y1374D02*
X1562Y1374D01*
X476Y1373D02*
X566Y1373D01*
X1473Y1373D02*
X1564Y1373D01*
X474Y1372D02*
X568Y1372D01*
X1471Y1372D02*
X1565Y1372D01*
X473Y1371D02*
X569Y1371D01*
X1470Y1371D02*
X1566Y1371D01*
X472Y1370D02*
X570Y1370D01*
X1469Y1370D02*
X1568Y1370D01*
X470Y1369D02*
X571Y1369D01*
X1468Y1369D02*
X1569Y1369D01*
X469Y1368D02*
X572Y1368D01*
X1467Y1368D02*
X1570Y1368D01*
X469Y1367D02*
X573Y1367D01*
X1466Y1367D02*
X1571Y1367D01*
X468Y1366D02*
X574Y1366D01*
X1465Y1366D02*
X1571Y1366D01*
X467Y1365D02*
X575Y1365D01*
X1464Y1365D02*
X1572Y1365D01*
X466Y1364D02*
X576Y1364D01*
X1464Y1364D02*
X1573Y1364D01*
X466Y1363D02*
X576Y1363D01*
X1463Y1363D02*
X1574Y1363D01*
X465Y1362D02*
X577Y1362D01*
X1462Y1362D02*
X1574Y1362D01*
X464Y1361D02*
X577Y1361D01*
X1462Y1361D02*
X1575Y1361D01*
X464Y1360D02*
X578Y1360D01*
X1461Y1360D02*
X1575Y1360D01*
X463Y1359D02*
X578Y1359D01*
X1461Y1359D02*
X1576Y1359D01*
X463Y1358D02*
X579Y1358D01*
X1460Y1358D02*
X1576Y1358D01*
X462Y1357D02*
X579Y1357D01*
X1460Y1357D02*
X1577Y1357D01*
X462Y1356D02*
X580Y1356D01*
X1459Y1356D02*
X1577Y1356D01*
X462Y1355D02*
X580Y1355D01*
X1459Y1355D02*
X1577Y1355D01*
X461Y1354D02*
X581Y1354D01*
X1459Y1354D02*
X1578Y1354D01*
X461Y1353D02*
X581Y1353D01*
X1458Y1353D02*
X1578Y1353D01*
X461Y1352D02*
X581Y1352D01*
X1458Y1352D02*
X1578Y1352D01*
X460Y1351D02*
X581Y1351D01*
X1458Y1351D02*
X1579Y1351D01*
X460Y1350D02*
X582Y1350D01*
X1458Y1350D02*
X1579Y1350D01*
X460Y1349D02*
X519Y1349D01*
X523Y1349D02*
X582Y1349D01*
X1457Y1349D02*
X1516Y1349D01*
X1519Y1349D02*
X1579Y1349D01*
X460Y1348D02*
X517Y1348D01*
X525Y1348D02*
X582Y1348D01*
X1457Y1348D02*
X1514Y1348D01*
X1521Y1348D02*
X1579Y1348D01*
X460Y1347D02*
X516Y1347D01*
X526Y1347D02*
X582Y1347D01*
X1457Y1347D02*
X1512Y1347D01*
X1522Y1347D02*
X1579Y1347D01*
X460Y1346D02*
X515Y1346D01*
X527Y1346D02*
X582Y1346D01*
X1457Y1346D02*
X1512Y1346D01*
X1523Y1346D02*
X1580Y1346D01*
X460Y1345D02*
X514Y1345D01*
X527Y1345D02*
X582Y1345D01*
X1457Y1345D02*
X1511Y1345D01*
X1524Y1345D02*
X1580Y1345D01*
X459Y1344D02*
X514Y1344D01*
X528Y1344D02*
X582Y1344D01*
X1457Y1344D02*
X1511Y1344D01*
X1524Y1344D02*
X1580Y1344D01*
X459Y1343D02*
X514Y1343D01*
X528Y1343D02*
X583Y1343D01*
X1457Y1343D02*
X1511Y1343D01*
X1524Y1343D02*
X1580Y1343D01*
X460Y1342D02*
X514Y1342D01*
X528Y1342D02*
X582Y1342D01*
X1457Y1342D02*
X1511Y1342D01*
X1524Y1342D02*
X1580Y1342D01*
X460Y1341D02*
X515Y1341D01*
X527Y1341D02*
X582Y1341D01*
X1457Y1341D02*
X1511Y1341D01*
X1524Y1341D02*
X1580Y1341D01*
X460Y1340D02*
X515Y1340D01*
X527Y1340D02*
X582Y1340D01*
X1457Y1340D02*
X1512Y1340D01*
X1523Y1340D02*
X1579Y1340D01*
X460Y1339D02*
X516Y1339D01*
X526Y1339D02*
X582Y1339D01*
X1457Y1339D02*
X1513Y1339D01*
X1522Y1339D02*
X1579Y1339D01*
X460Y1338D02*
X517Y1338D01*
X525Y1338D02*
X582Y1338D01*
X1457Y1338D02*
X1514Y1338D01*
X1521Y1338D02*
X1579Y1338D01*
X460Y1337D02*
X582Y1337D01*
X1457Y1337D02*
X1579Y1337D01*
X460Y1336D02*
X582Y1336D01*
X1458Y1336D02*
X1579Y1336D01*
X461Y1335D02*
X581Y1335D01*
X1458Y1335D02*
X1579Y1335D01*
X461Y1334D02*
X581Y1334D01*
X1458Y1334D02*
X1578Y1334D01*
X461Y1333D02*
X581Y1333D01*
X1458Y1333D02*
X1578Y1333D01*
X461Y1332D02*
X580Y1332D01*
X1459Y1332D02*
X1578Y1332D01*
X462Y1331D02*
X580Y1331D01*
X1459Y1331D02*
X1577Y1331D01*
X462Y1330D02*
X580Y1330D01*
X1459Y1330D02*
X1577Y1330D01*
X463Y1329D02*
X579Y1329D01*
X1460Y1329D02*
X1577Y1329D01*
X463Y1328D02*
X579Y1328D01*
X1460Y1328D02*
X1576Y1328D01*
X464Y1327D02*
X578Y1327D01*
X1461Y1327D02*
X1576Y1327D01*
X464Y1326D02*
X578Y1326D01*
X1461Y1326D02*
X1575Y1326D01*
X465Y1325D02*
X577Y1325D01*
X1462Y1325D02*
X1575Y1325D01*
X465Y1324D02*
X577Y1324D01*
X1462Y1324D02*
X1574Y1324D01*
X466Y1323D02*
X576Y1323D01*
X1463Y1323D02*
X1573Y1323D01*
X466Y1322D02*
X575Y1322D01*
X1464Y1322D02*
X1573Y1322D01*
X467Y1321D02*
X575Y1321D01*
X1464Y1321D02*
X1572Y1321D01*
X468Y1320D02*
X574Y1320D01*
X1465Y1320D02*
X1571Y1320D01*
X469Y1319D02*
X573Y1319D01*
X1466Y1319D02*
X1570Y1319D01*
X470Y1318D02*
X572Y1318D01*
X1467Y1318D02*
X1569Y1318D01*
X471Y1317D02*
X571Y1317D01*
X1468Y1317D02*
X1568Y1317D01*
X472Y1316D02*
X570Y1316D01*
X1469Y1316D02*
X1567Y1316D01*
X473Y1315D02*
X569Y1315D01*
X1470Y1315D02*
X1566Y1315D01*
X475Y1314D02*
X567Y1314D01*
X1472Y1314D02*
X1565Y1314D01*
X476Y1313D02*
X566Y1313D01*
X1473Y1313D02*
X1563Y1313D01*
X478Y1312D02*
X564Y1312D01*
X1475Y1312D02*
X1561Y1312D01*
X480Y1311D02*
X562Y1311D01*
X1477Y1311D02*
X1559Y1311D01*
X482Y1310D02*
X560Y1310D01*
X1479Y1310D02*
X1557Y1310D01*
X485Y1309D02*
X557Y1309D01*
X1482Y1309D02*
X1554Y1309D01*
X488Y1308D02*
X554Y1308D01*
X1486Y1308D02*
X1551Y1308D01*
X493Y1279D02*
X549Y1279D01*
X1490Y1279D02*
X1546Y1279D01*
X487Y1278D02*
X555Y1278D01*
X1484Y1278D02*
X1552Y1278D01*
X484Y1277D02*
X558Y1277D01*
X1481Y1277D02*
X1555Y1277D01*
X481Y1276D02*
X561Y1276D01*
X1479Y1276D02*
X1558Y1276D01*
X479Y1275D02*
X563Y1275D01*
X1476Y1275D02*
X1560Y1275D01*
X477Y1274D02*
X565Y1274D01*
X1475Y1274D02*
X1562Y1274D01*
X476Y1273D02*
X566Y1273D01*
X1473Y1273D02*
X1564Y1273D01*
X474Y1272D02*
X568Y1272D01*
X1471Y1272D02*
X1565Y1272D01*
X473Y1271D02*
X569Y1271D01*
X1470Y1271D02*
X1566Y1271D01*
X472Y1270D02*
X570Y1270D01*
X1469Y1270D02*
X1568Y1270D01*
X470Y1269D02*
X571Y1269D01*
X1468Y1269D02*
X1569Y1269D01*
X469Y1268D02*
X572Y1268D01*
X1467Y1268D02*
X1570Y1268D01*
X469Y1267D02*
X573Y1267D01*
X1466Y1267D02*
X1571Y1267D01*
X468Y1266D02*
X574Y1266D01*
X1465Y1266D02*
X1571Y1266D01*
X467Y1265D02*
X575Y1265D01*
X1464Y1265D02*
X1572Y1265D01*
X466Y1264D02*
X576Y1264D01*
X1464Y1264D02*
X1573Y1264D01*
X466Y1263D02*
X576Y1263D01*
X1463Y1263D02*
X1574Y1263D01*
X465Y1262D02*
X577Y1262D01*
X1462Y1262D02*
X1574Y1262D01*
X464Y1261D02*
X577Y1261D01*
X1462Y1261D02*
X1575Y1261D01*
X464Y1260D02*
X578Y1260D01*
X1461Y1260D02*
X1575Y1260D01*
X463Y1259D02*
X578Y1259D01*
X1461Y1259D02*
X1576Y1259D01*
X463Y1258D02*
X579Y1258D01*
X1460Y1258D02*
X1576Y1258D01*
X462Y1257D02*
X579Y1257D01*
X1460Y1257D02*
X1577Y1257D01*
X462Y1256D02*
X580Y1256D01*
X1459Y1256D02*
X1577Y1256D01*
X462Y1255D02*
X580Y1255D01*
X1459Y1255D02*
X1577Y1255D01*
X461Y1254D02*
X581Y1254D01*
X1459Y1254D02*
X1578Y1254D01*
X461Y1253D02*
X581Y1253D01*
X1458Y1253D02*
X1578Y1253D01*
X461Y1252D02*
X581Y1252D01*
X1458Y1252D02*
X1578Y1252D01*
X460Y1251D02*
X581Y1251D01*
X1458Y1251D02*
X1579Y1251D01*
X460Y1250D02*
X582Y1250D01*
X1458Y1250D02*
X1579Y1250D01*
X460Y1249D02*
X519Y1249D01*
X523Y1249D02*
X582Y1249D01*
X1457Y1249D02*
X1516Y1249D01*
X1519Y1249D02*
X1579Y1249D01*
X460Y1248D02*
X517Y1248D01*
X525Y1248D02*
X582Y1248D01*
X1457Y1248D02*
X1514Y1248D01*
X1521Y1248D02*
X1579Y1248D01*
X460Y1247D02*
X516Y1247D01*
X526Y1247D02*
X582Y1247D01*
X1457Y1247D02*
X1512Y1247D01*
X1522Y1247D02*
X1579Y1247D01*
X460Y1246D02*
X515Y1246D01*
X527Y1246D02*
X582Y1246D01*
X1457Y1246D02*
X1512Y1246D01*
X1523Y1246D02*
X1580Y1246D01*
X460Y1245D02*
X515Y1245D01*
X527Y1245D02*
X582Y1245D01*
X1457Y1245D02*
X1511Y1245D01*
X1524Y1245D02*
X1580Y1245D01*
X459Y1244D02*
X514Y1244D01*
X527Y1244D02*
X582Y1244D01*
X1457Y1244D02*
X1511Y1244D01*
X1524Y1244D02*
X1580Y1244D01*
X459Y1243D02*
X514Y1243D01*
X527Y1243D02*
X583Y1243D01*
X1457Y1243D02*
X1511Y1243D01*
X1524Y1243D02*
X1580Y1243D01*
X460Y1242D02*
X514Y1242D01*
X527Y1242D02*
X583Y1242D01*
X1457Y1242D02*
X1511Y1242D01*
X1524Y1242D02*
X1580Y1242D01*
X460Y1241D02*
X515Y1241D01*
X527Y1241D02*
X583Y1241D01*
X1457Y1241D02*
X1511Y1241D01*
X1524Y1241D02*
X1580Y1241D01*
X460Y1240D02*
X515Y1240D01*
X527Y1240D02*
X583Y1240D01*
X1457Y1240D02*
X1512Y1240D01*
X1523Y1240D02*
X1579Y1240D01*
X460Y1239D02*
X516Y1239D01*
X526Y1239D02*
X582Y1239D01*
X1457Y1239D02*
X1513Y1239D01*
X1522Y1239D02*
X1579Y1239D01*
X460Y1238D02*
X517Y1238D01*
X525Y1238D02*
X582Y1238D01*
X1457Y1238D02*
X1514Y1238D01*
X1521Y1238D02*
X1579Y1238D01*
X460Y1237D02*
X582Y1237D01*
X1457Y1237D02*
X1579Y1237D01*
X460Y1236D02*
X582Y1236D01*
X1458Y1236D02*
X1579Y1236D01*
X461Y1235D02*
X582Y1235D01*
X1458Y1235D02*
X1579Y1235D01*
X461Y1234D02*
X582Y1234D01*
X1458Y1234D02*
X1578Y1234D01*
X461Y1233D02*
X581Y1233D01*
X1458Y1233D02*
X1578Y1233D01*
X461Y1232D02*
X580Y1232D01*
X1459Y1232D02*
X1578Y1232D01*
X462Y1231D02*
X580Y1231D01*
X1459Y1231D02*
X1577Y1231D01*
X462Y1230D02*
X580Y1230D01*
X1459Y1230D02*
X1577Y1230D01*
X463Y1229D02*
X579Y1229D01*
X1460Y1229D02*
X1577Y1229D01*
X463Y1228D02*
X579Y1228D01*
X1460Y1228D02*
X1576Y1228D01*
X464Y1227D02*
X578Y1227D01*
X1461Y1227D02*
X1576Y1227D01*
X464Y1226D02*
X578Y1226D01*
X1461Y1226D02*
X1575Y1226D01*
X465Y1225D02*
X577Y1225D01*
X1462Y1225D02*
X1575Y1225D01*
X465Y1224D02*
X577Y1224D01*
X1462Y1224D02*
X1574Y1224D01*
X466Y1223D02*
X576Y1223D01*
X1463Y1223D02*
X1573Y1223D01*
X466Y1222D02*
X575Y1222D01*
X1464Y1222D02*
X1573Y1222D01*
X467Y1221D02*
X575Y1221D01*
X1464Y1221D02*
X1572Y1221D01*
X468Y1220D02*
X574Y1220D01*
X1465Y1220D02*
X1571Y1220D01*
X469Y1219D02*
X573Y1219D01*
X1466Y1219D02*
X1570Y1219D01*
X470Y1218D02*
X572Y1218D01*
X1467Y1218D02*
X1569Y1218D01*
X471Y1217D02*
X571Y1217D01*
X1468Y1217D02*
X1568Y1217D01*
X472Y1216D02*
X570Y1216D01*
X1469Y1216D02*
X1567Y1216D01*
X473Y1215D02*
X569Y1215D01*
X1470Y1215D02*
X1566Y1215D01*
X475Y1214D02*
X567Y1214D01*
X1472Y1214D02*
X1565Y1214D01*
X476Y1213D02*
X566Y1213D01*
X1473Y1213D02*
X1563Y1213D01*
X478Y1212D02*
X564Y1212D01*
X1475Y1212D02*
X1561Y1212D01*
X480Y1211D02*
X562Y1211D01*
X1477Y1211D02*
X1559Y1211D01*
X482Y1210D02*
X560Y1210D01*
X1479Y1210D02*
X1557Y1210D01*
X485Y1209D02*
X557Y1209D01*
X1482Y1209D02*
X1554Y1209D01*
X488Y1208D02*
X554Y1208D01*
X1486Y1208D02*
X1551Y1208D01*
X1782Y1180D02*
X1856Y1180D01*
X493Y1179D02*
X549Y1179D01*
X1490Y1179D02*
X1546Y1179D01*
X1782Y1179D02*
X1856Y1179D01*
X487Y1178D02*
X555Y1178D01*
X1484Y1178D02*
X1552Y1178D01*
X1782Y1178D02*
X1856Y1178D01*
X484Y1177D02*
X558Y1177D01*
X1481Y1177D02*
X1555Y1177D01*
X1782Y1177D02*
X1856Y1177D01*
X481Y1176D02*
X561Y1176D01*
X1479Y1176D02*
X1558Y1176D01*
X1782Y1176D02*
X1856Y1176D01*
X479Y1175D02*
X563Y1175D01*
X1476Y1175D02*
X1560Y1175D01*
X1782Y1175D02*
X1856Y1175D01*
X477Y1174D02*
X565Y1174D01*
X1475Y1174D02*
X1562Y1174D01*
X1782Y1174D02*
X1856Y1174D01*
X476Y1173D02*
X566Y1173D01*
X1473Y1173D02*
X1564Y1173D01*
X1782Y1173D02*
X1856Y1173D01*
X474Y1172D02*
X568Y1172D01*
X1471Y1172D02*
X1565Y1172D01*
X1782Y1172D02*
X1856Y1172D01*
X473Y1171D02*
X569Y1171D01*
X1470Y1171D02*
X1566Y1171D01*
X1782Y1171D02*
X1856Y1171D01*
X472Y1170D02*
X570Y1170D01*
X1469Y1170D02*
X1568Y1170D01*
X1782Y1170D02*
X1856Y1170D01*
X470Y1169D02*
X571Y1169D01*
X1468Y1169D02*
X1569Y1169D01*
X1782Y1169D02*
X1856Y1169D01*
X469Y1168D02*
X572Y1168D01*
X1467Y1168D02*
X1570Y1168D01*
X1782Y1168D02*
X1856Y1168D01*
X469Y1167D02*
X573Y1167D01*
X1466Y1167D02*
X1571Y1167D01*
X1782Y1167D02*
X1856Y1167D01*
X468Y1166D02*
X574Y1166D01*
X1465Y1166D02*
X1571Y1166D01*
X1782Y1166D02*
X1856Y1166D01*
X467Y1165D02*
X575Y1165D01*
X1464Y1165D02*
X1572Y1165D01*
X1782Y1165D02*
X1856Y1165D01*
X466Y1164D02*
X576Y1164D01*
X1464Y1164D02*
X1573Y1164D01*
X1782Y1164D02*
X1856Y1164D01*
X466Y1163D02*
X576Y1163D01*
X1463Y1163D02*
X1574Y1163D01*
X1782Y1163D02*
X1856Y1163D01*
X465Y1162D02*
X577Y1162D01*
X1462Y1162D02*
X1574Y1162D01*
X1782Y1162D02*
X1856Y1162D01*
X464Y1161D02*
X577Y1161D01*
X1462Y1161D02*
X1575Y1161D01*
X1782Y1161D02*
X1856Y1161D01*
X464Y1160D02*
X578Y1160D01*
X1461Y1160D02*
X1575Y1160D01*
X1782Y1160D02*
X1856Y1160D01*
X463Y1159D02*
X578Y1159D01*
X1461Y1159D02*
X1576Y1159D01*
X1782Y1159D02*
X1856Y1159D01*
X463Y1158D02*
X579Y1158D01*
X1460Y1158D02*
X1576Y1158D01*
X1782Y1158D02*
X1856Y1158D01*
X462Y1157D02*
X579Y1157D01*
X1460Y1157D02*
X1577Y1157D01*
X1782Y1157D02*
X1856Y1157D01*
X462Y1156D02*
X580Y1156D01*
X1459Y1156D02*
X1577Y1156D01*
X1782Y1156D02*
X1856Y1156D01*
X462Y1155D02*
X580Y1155D01*
X1459Y1155D02*
X1577Y1155D01*
X1782Y1155D02*
X1856Y1155D01*
X461Y1154D02*
X581Y1154D01*
X1459Y1154D02*
X1578Y1154D01*
X1782Y1154D02*
X1856Y1154D01*
X461Y1153D02*
X581Y1153D01*
X1458Y1153D02*
X1578Y1153D01*
X1782Y1153D02*
X1856Y1153D01*
X461Y1152D02*
X581Y1152D01*
X1458Y1152D02*
X1578Y1152D01*
X1782Y1152D02*
X1818Y1152D01*
X1821Y1152D02*
X1856Y1152D01*
X460Y1151D02*
X581Y1151D01*
X1458Y1151D02*
X1579Y1151D01*
X1782Y1151D02*
X1815Y1151D01*
X1824Y1151D02*
X1856Y1151D01*
X460Y1150D02*
X582Y1150D01*
X1458Y1150D02*
X1579Y1150D01*
X1782Y1150D02*
X1813Y1150D01*
X1825Y1150D02*
X1856Y1150D01*
X460Y1149D02*
X519Y1149D01*
X523Y1149D02*
X582Y1149D01*
X1457Y1149D02*
X1515Y1149D01*
X1520Y1149D02*
X1579Y1149D01*
X1782Y1149D02*
X1812Y1149D01*
X1826Y1149D02*
X1856Y1149D01*
X460Y1148D02*
X517Y1148D01*
X525Y1148D02*
X582Y1148D01*
X1457Y1148D02*
X1514Y1148D01*
X1521Y1148D02*
X1579Y1148D01*
X1782Y1148D02*
X1811Y1148D01*
X1827Y1148D02*
X1856Y1148D01*
X460Y1147D02*
X516Y1147D01*
X526Y1147D02*
X582Y1147D01*
X1457Y1147D02*
X1512Y1147D01*
X1522Y1147D02*
X1579Y1147D01*
X1782Y1147D02*
X1811Y1147D01*
X1828Y1147D02*
X1856Y1147D01*
X460Y1146D02*
X515Y1146D01*
X527Y1146D02*
X582Y1146D01*
X1457Y1146D02*
X1512Y1146D01*
X1523Y1146D02*
X1580Y1146D01*
X1782Y1146D02*
X1810Y1146D01*
X1828Y1146D02*
X1856Y1146D01*
X460Y1145D02*
X515Y1145D01*
X527Y1145D02*
X582Y1145D01*
X1457Y1145D02*
X1511Y1145D01*
X1524Y1145D02*
X1580Y1145D01*
X1782Y1145D02*
X1810Y1145D01*
X1828Y1145D02*
X1856Y1145D01*
X459Y1144D02*
X514Y1144D01*
X527Y1144D02*
X582Y1144D01*
X1457Y1144D02*
X1511Y1144D01*
X1524Y1144D02*
X1580Y1144D01*
X1782Y1144D02*
X1810Y1144D01*
X1828Y1144D02*
X1856Y1144D01*
X459Y1143D02*
X514Y1143D01*
X527Y1143D02*
X583Y1143D01*
X1457Y1143D02*
X1511Y1143D01*
X1524Y1143D02*
X1580Y1143D01*
X1782Y1143D02*
X1810Y1143D01*
X1828Y1143D02*
X1856Y1143D01*
X460Y1142D02*
X514Y1142D01*
X527Y1142D02*
X583Y1142D01*
X1457Y1142D02*
X1511Y1142D01*
X1524Y1142D02*
X1580Y1142D01*
X1782Y1142D02*
X1810Y1142D01*
X1828Y1142D02*
X1856Y1142D01*
X460Y1141D02*
X515Y1141D01*
X527Y1141D02*
X583Y1141D01*
X1457Y1141D02*
X1511Y1141D01*
X1524Y1141D02*
X1580Y1141D01*
X1782Y1141D02*
X1810Y1141D01*
X1828Y1141D02*
X1856Y1141D01*
X460Y1140D02*
X515Y1140D01*
X527Y1140D02*
X583Y1140D01*
X1457Y1140D02*
X1512Y1140D01*
X1523Y1140D02*
X1580Y1140D01*
X1782Y1140D02*
X1810Y1140D01*
X1828Y1140D02*
X1856Y1140D01*
X460Y1139D02*
X516Y1139D01*
X526Y1139D02*
X582Y1139D01*
X1457Y1139D02*
X1513Y1139D01*
X1522Y1139D02*
X1579Y1139D01*
X1782Y1139D02*
X1811Y1139D01*
X1828Y1139D02*
X1856Y1139D01*
X460Y1138D02*
X517Y1138D01*
X525Y1138D02*
X582Y1138D01*
X1457Y1138D02*
X1514Y1138D01*
X1521Y1138D02*
X1579Y1138D01*
X1782Y1138D02*
X1811Y1138D01*
X1827Y1138D02*
X1856Y1138D01*
X460Y1137D02*
X582Y1137D01*
X1457Y1137D02*
X1579Y1137D01*
X1782Y1137D02*
X1812Y1137D01*
X1826Y1137D02*
X1856Y1137D01*
X460Y1136D02*
X582Y1136D01*
X1458Y1136D02*
X1579Y1136D01*
X1782Y1136D02*
X1814Y1136D01*
X1825Y1136D02*
X1856Y1136D01*
X461Y1135D02*
X582Y1135D01*
X1458Y1135D02*
X1579Y1135D01*
X1782Y1135D02*
X1815Y1135D01*
X1823Y1135D02*
X1856Y1135D01*
X461Y1134D02*
X582Y1134D01*
X1458Y1134D02*
X1578Y1134D01*
X1782Y1134D02*
X1856Y1134D01*
X461Y1133D02*
X581Y1133D01*
X1458Y1133D02*
X1578Y1133D01*
X1782Y1133D02*
X1856Y1133D01*
X461Y1132D02*
X580Y1132D01*
X1459Y1132D02*
X1578Y1132D01*
X1782Y1132D02*
X1856Y1132D01*
X462Y1131D02*
X580Y1131D01*
X1459Y1131D02*
X1577Y1131D01*
X1782Y1131D02*
X1856Y1131D01*
X462Y1130D02*
X580Y1130D01*
X1459Y1130D02*
X1577Y1130D01*
X1782Y1130D02*
X1856Y1130D01*
X463Y1129D02*
X579Y1129D01*
X1460Y1129D02*
X1577Y1129D01*
X1782Y1129D02*
X1856Y1129D01*
X463Y1128D02*
X579Y1128D01*
X1460Y1128D02*
X1576Y1128D01*
X1782Y1128D02*
X1856Y1128D01*
X464Y1127D02*
X578Y1127D01*
X1461Y1127D02*
X1576Y1127D01*
X1782Y1127D02*
X1856Y1127D01*
X464Y1126D02*
X578Y1126D01*
X1461Y1126D02*
X1575Y1126D01*
X1782Y1126D02*
X1856Y1126D01*
X465Y1125D02*
X577Y1125D01*
X1462Y1125D02*
X1575Y1125D01*
X1782Y1125D02*
X1856Y1125D01*
X465Y1124D02*
X577Y1124D01*
X1462Y1124D02*
X1574Y1124D01*
X1782Y1124D02*
X1856Y1124D01*
X466Y1123D02*
X576Y1123D01*
X1463Y1123D02*
X1573Y1123D01*
X1782Y1123D02*
X1856Y1123D01*
X466Y1122D02*
X575Y1122D01*
X1464Y1122D02*
X1573Y1122D01*
X1782Y1122D02*
X1856Y1122D01*
X467Y1121D02*
X575Y1121D01*
X1464Y1121D02*
X1572Y1121D01*
X1782Y1121D02*
X1856Y1121D01*
X468Y1120D02*
X574Y1120D01*
X1465Y1120D02*
X1571Y1120D01*
X1782Y1120D02*
X1856Y1120D01*
X469Y1119D02*
X573Y1119D01*
X1466Y1119D02*
X1570Y1119D01*
X1782Y1119D02*
X1856Y1119D01*
X470Y1118D02*
X572Y1118D01*
X1467Y1118D02*
X1569Y1118D01*
X1782Y1118D02*
X1856Y1118D01*
X471Y1117D02*
X571Y1117D01*
X1468Y1117D02*
X1568Y1117D01*
X1782Y1117D02*
X1856Y1117D01*
X472Y1116D02*
X570Y1116D01*
X1469Y1116D02*
X1567Y1116D01*
X1782Y1116D02*
X1856Y1116D01*
X473Y1115D02*
X569Y1115D01*
X1470Y1115D02*
X1566Y1115D01*
X1782Y1115D02*
X1856Y1115D01*
X475Y1114D02*
X567Y1114D01*
X1472Y1114D02*
X1565Y1114D01*
X1782Y1114D02*
X1856Y1114D01*
X476Y1113D02*
X566Y1113D01*
X1473Y1113D02*
X1563Y1113D01*
X1782Y1113D02*
X1856Y1113D01*
X478Y1112D02*
X564Y1112D01*
X1475Y1112D02*
X1561Y1112D01*
X1782Y1112D02*
X1856Y1112D01*
X480Y1111D02*
X562Y1111D01*
X1477Y1111D02*
X1559Y1111D01*
X1782Y1111D02*
X1856Y1111D01*
X482Y1110D02*
X560Y1110D01*
X1479Y1110D02*
X1557Y1110D01*
X1782Y1110D02*
X1856Y1110D01*
X485Y1109D02*
X557Y1109D01*
X1482Y1109D02*
X1555Y1109D01*
X1782Y1109D02*
X1856Y1109D01*
X488Y1108D02*
X554Y1108D01*
X1486Y1108D02*
X1551Y1108D01*
X1782Y1108D02*
X1856Y1108D01*
X1782Y1107D02*
X1856Y1107D01*
X1782Y1106D02*
X1856Y1106D01*
X493Y1079D02*
X549Y1079D01*
X1490Y1079D02*
X1546Y1079D01*
X487Y1078D02*
X555Y1078D01*
X1484Y1078D02*
X1552Y1078D01*
X484Y1077D02*
X558Y1077D01*
X1481Y1077D02*
X1555Y1077D01*
X481Y1076D02*
X561Y1076D01*
X1478Y1076D02*
X1558Y1076D01*
X479Y1075D02*
X563Y1075D01*
X1476Y1075D02*
X1560Y1075D01*
X477Y1074D02*
X565Y1074D01*
X1475Y1074D02*
X1562Y1074D01*
X476Y1073D02*
X566Y1073D01*
X1473Y1073D02*
X1564Y1073D01*
X474Y1072D02*
X568Y1072D01*
X1471Y1072D02*
X1565Y1072D01*
X473Y1071D02*
X569Y1071D01*
X1470Y1071D02*
X1566Y1071D01*
X472Y1070D02*
X570Y1070D01*
X1469Y1070D02*
X1568Y1070D01*
X470Y1069D02*
X571Y1069D01*
X1468Y1069D02*
X1569Y1069D01*
X469Y1068D02*
X572Y1068D01*
X1467Y1068D02*
X1570Y1068D01*
X469Y1067D02*
X573Y1067D01*
X1466Y1067D02*
X1571Y1067D01*
X468Y1066D02*
X574Y1066D01*
X1465Y1066D02*
X1571Y1066D01*
X467Y1065D02*
X575Y1065D01*
X1464Y1065D02*
X1572Y1065D01*
X466Y1064D02*
X576Y1064D01*
X1464Y1064D02*
X1573Y1064D01*
X466Y1063D02*
X576Y1063D01*
X1463Y1063D02*
X1574Y1063D01*
X465Y1062D02*
X577Y1062D01*
X1462Y1062D02*
X1574Y1062D01*
X464Y1061D02*
X577Y1061D01*
X1462Y1061D02*
X1575Y1061D01*
X464Y1060D02*
X578Y1060D01*
X1461Y1060D02*
X1575Y1060D01*
X463Y1059D02*
X578Y1059D01*
X1461Y1059D02*
X1576Y1059D01*
X463Y1058D02*
X579Y1058D01*
X1460Y1058D02*
X1576Y1058D01*
X462Y1057D02*
X579Y1057D01*
X1460Y1057D02*
X1577Y1057D01*
X462Y1056D02*
X580Y1056D01*
X1459Y1056D02*
X1577Y1056D01*
X462Y1055D02*
X580Y1055D01*
X1459Y1055D02*
X1577Y1055D01*
X461Y1054D02*
X581Y1054D01*
X1459Y1054D02*
X1578Y1054D01*
X461Y1053D02*
X581Y1053D01*
X1458Y1053D02*
X1578Y1053D01*
X461Y1052D02*
X581Y1052D01*
X1458Y1052D02*
X1578Y1052D01*
X460Y1051D02*
X581Y1051D01*
X1458Y1051D02*
X1579Y1051D01*
X460Y1050D02*
X582Y1050D01*
X1458Y1050D02*
X1579Y1050D01*
X460Y1049D02*
X519Y1049D01*
X523Y1049D02*
X582Y1049D01*
X1457Y1049D02*
X1516Y1049D01*
X1519Y1049D02*
X1579Y1049D01*
X460Y1048D02*
X517Y1048D01*
X525Y1048D02*
X582Y1048D01*
X1457Y1048D02*
X1513Y1048D01*
X1522Y1048D02*
X1579Y1048D01*
X460Y1047D02*
X516Y1047D01*
X526Y1047D02*
X582Y1047D01*
X1457Y1047D02*
X1512Y1047D01*
X1523Y1047D02*
X1579Y1047D01*
X460Y1046D02*
X515Y1046D01*
X527Y1046D02*
X582Y1046D01*
X1457Y1046D02*
X1512Y1046D01*
X1523Y1046D02*
X1580Y1046D01*
X460Y1045D02*
X515Y1045D01*
X527Y1045D02*
X582Y1045D01*
X1457Y1045D02*
X1511Y1045D01*
X1524Y1045D02*
X1580Y1045D01*
X459Y1044D02*
X514Y1044D01*
X528Y1044D02*
X582Y1044D01*
X1457Y1044D02*
X1511Y1044D01*
X1524Y1044D02*
X1580Y1044D01*
X459Y1043D02*
X514Y1043D01*
X528Y1043D02*
X583Y1043D01*
X1457Y1043D02*
X1511Y1043D01*
X1524Y1043D02*
X1580Y1043D01*
X460Y1042D02*
X514Y1042D01*
X528Y1042D02*
X583Y1042D01*
X1457Y1042D02*
X1511Y1042D01*
X1524Y1042D02*
X1580Y1042D01*
X460Y1041D02*
X515Y1041D01*
X527Y1041D02*
X583Y1041D01*
X1457Y1041D02*
X1511Y1041D01*
X1524Y1041D02*
X1580Y1041D01*
X460Y1040D02*
X515Y1040D01*
X527Y1040D02*
X583Y1040D01*
X1457Y1040D02*
X1512Y1040D01*
X1523Y1040D02*
X1579Y1040D01*
X460Y1039D02*
X516Y1039D01*
X526Y1039D02*
X582Y1039D01*
X1457Y1039D02*
X1512Y1039D01*
X1523Y1039D02*
X1579Y1039D01*
X460Y1038D02*
X517Y1038D01*
X525Y1038D02*
X582Y1038D01*
X1457Y1038D02*
X1514Y1038D01*
X1521Y1038D02*
X1579Y1038D01*
X460Y1037D02*
X582Y1037D01*
X1457Y1037D02*
X1579Y1037D01*
X460Y1036D02*
X582Y1036D01*
X1458Y1036D02*
X1579Y1036D01*
X461Y1035D02*
X582Y1035D01*
X1458Y1035D02*
X1579Y1035D01*
X461Y1034D02*
X582Y1034D01*
X1458Y1034D02*
X1578Y1034D01*
X461Y1033D02*
X581Y1033D01*
X1458Y1033D02*
X1578Y1033D01*
X461Y1032D02*
X580Y1032D01*
X1459Y1032D02*
X1578Y1032D01*
X462Y1031D02*
X580Y1031D01*
X1459Y1031D02*
X1577Y1031D01*
X462Y1030D02*
X580Y1030D01*
X1459Y1030D02*
X1577Y1030D01*
X463Y1029D02*
X579Y1029D01*
X1460Y1029D02*
X1577Y1029D01*
X463Y1028D02*
X579Y1028D01*
X1460Y1028D02*
X1576Y1028D01*
X464Y1027D02*
X578Y1027D01*
X1461Y1027D02*
X1576Y1027D01*
X464Y1026D02*
X578Y1026D01*
X1461Y1026D02*
X1575Y1026D01*
X465Y1025D02*
X577Y1025D01*
X1462Y1025D02*
X1575Y1025D01*
X465Y1024D02*
X577Y1024D01*
X1462Y1024D02*
X1574Y1024D01*
X466Y1023D02*
X576Y1023D01*
X1463Y1023D02*
X1573Y1023D01*
X466Y1022D02*
X575Y1022D01*
X1464Y1022D02*
X1573Y1022D01*
X467Y1021D02*
X575Y1021D01*
X1465Y1021D02*
X1572Y1021D01*
X468Y1020D02*
X574Y1020D01*
X1465Y1020D02*
X1571Y1020D01*
X469Y1019D02*
X573Y1019D01*
X1466Y1019D02*
X1570Y1019D01*
X470Y1018D02*
X572Y1018D01*
X1467Y1018D02*
X1569Y1018D01*
X471Y1017D02*
X571Y1017D01*
X1468Y1017D02*
X1568Y1017D01*
X472Y1016D02*
X570Y1016D01*
X1469Y1016D02*
X1567Y1016D01*
X473Y1015D02*
X569Y1015D01*
X1470Y1015D02*
X1566Y1015D01*
X475Y1014D02*
X567Y1014D01*
X1472Y1014D02*
X1565Y1014D01*
X476Y1013D02*
X566Y1013D01*
X1473Y1013D02*
X1563Y1013D01*
X478Y1012D02*
X564Y1012D01*
X1475Y1012D02*
X1561Y1012D01*
X480Y1011D02*
X562Y1011D01*
X1477Y1011D02*
X1559Y1011D01*
X482Y1010D02*
X560Y1010D01*
X1479Y1010D02*
X1557Y1010D01*
X485Y1009D02*
X557Y1009D01*
X1482Y1009D02*
X1554Y1009D01*
X488Y1008D02*
X553Y1008D01*
X1486Y1008D02*
X1551Y1008D01*
X493Y979D02*
X549Y979D01*
X1490Y979D02*
X1546Y979D01*
X487Y978D02*
X555Y978D01*
X1484Y978D02*
X1552Y978D01*
X484Y977D02*
X558Y977D01*
X1481Y977D02*
X1555Y977D01*
X481Y976D02*
X561Y976D01*
X1478Y976D02*
X1558Y976D01*
X479Y975D02*
X563Y975D01*
X1476Y975D02*
X1560Y975D01*
X477Y974D02*
X565Y974D01*
X1475Y974D02*
X1562Y974D01*
X476Y973D02*
X566Y973D01*
X1473Y973D02*
X1564Y973D01*
X474Y972D02*
X568Y972D01*
X1471Y972D02*
X1565Y972D01*
X473Y971D02*
X569Y971D01*
X1470Y971D02*
X1566Y971D01*
X472Y970D02*
X570Y970D01*
X1469Y970D02*
X1568Y970D01*
X470Y969D02*
X571Y969D01*
X1468Y969D02*
X1569Y969D01*
X469Y968D02*
X572Y968D01*
X1467Y968D02*
X1570Y968D01*
X469Y967D02*
X573Y967D01*
X1466Y967D02*
X1571Y967D01*
X468Y966D02*
X574Y966D01*
X1465Y966D02*
X1571Y966D01*
X467Y965D02*
X575Y965D01*
X1464Y965D02*
X1572Y965D01*
X466Y964D02*
X576Y964D01*
X1464Y964D02*
X1573Y964D01*
X466Y963D02*
X576Y963D01*
X1463Y963D02*
X1574Y963D01*
X465Y962D02*
X577Y962D01*
X1462Y962D02*
X1574Y962D01*
X464Y961D02*
X577Y961D01*
X1462Y961D02*
X1575Y961D01*
X464Y960D02*
X578Y960D01*
X1461Y960D02*
X1575Y960D01*
X463Y959D02*
X578Y959D01*
X1461Y959D02*
X1576Y959D01*
X463Y958D02*
X579Y958D01*
X1460Y958D02*
X1576Y958D01*
X462Y957D02*
X579Y957D01*
X1460Y957D02*
X1577Y957D01*
X462Y956D02*
X580Y956D01*
X1459Y956D02*
X1577Y956D01*
X462Y955D02*
X580Y955D01*
X1459Y955D02*
X1577Y955D01*
X461Y954D02*
X581Y954D01*
X1459Y954D02*
X1578Y954D01*
X461Y953D02*
X581Y953D01*
X1458Y953D02*
X1578Y953D01*
X461Y952D02*
X581Y952D01*
X1458Y952D02*
X1578Y952D01*
X460Y951D02*
X581Y951D01*
X1458Y951D02*
X1579Y951D01*
X460Y950D02*
X582Y950D01*
X1458Y950D02*
X1579Y950D01*
X460Y949D02*
X519Y949D01*
X523Y949D02*
X582Y949D01*
X1457Y949D02*
X1516Y949D01*
X1519Y949D02*
X1579Y949D01*
X460Y948D02*
X517Y948D01*
X525Y948D02*
X582Y948D01*
X1457Y948D02*
X1513Y948D01*
X1522Y948D02*
X1579Y948D01*
X460Y947D02*
X516Y947D01*
X526Y947D02*
X582Y947D01*
X1457Y947D02*
X1512Y947D01*
X1523Y947D02*
X1579Y947D01*
X460Y946D02*
X515Y946D01*
X527Y946D02*
X582Y946D01*
X1457Y946D02*
X1512Y946D01*
X1523Y946D02*
X1580Y946D01*
X460Y945D02*
X515Y945D01*
X527Y945D02*
X582Y945D01*
X1457Y945D02*
X1511Y945D01*
X1524Y945D02*
X1580Y945D01*
X459Y944D02*
X514Y944D01*
X528Y944D02*
X582Y944D01*
X1457Y944D02*
X1511Y944D01*
X1524Y944D02*
X1580Y944D01*
X459Y943D02*
X514Y943D01*
X528Y943D02*
X583Y943D01*
X1457Y943D02*
X1511Y943D01*
X1524Y943D02*
X1580Y943D01*
X460Y942D02*
X514Y942D01*
X528Y942D02*
X583Y942D01*
X1457Y942D02*
X1511Y942D01*
X1524Y942D02*
X1580Y942D01*
X460Y941D02*
X515Y941D01*
X527Y941D02*
X583Y941D01*
X1457Y941D02*
X1511Y941D01*
X1524Y941D02*
X1580Y941D01*
X460Y940D02*
X515Y940D01*
X527Y940D02*
X583Y940D01*
X1457Y940D02*
X1512Y940D01*
X1523Y940D02*
X1580Y940D01*
X460Y939D02*
X516Y939D01*
X526Y939D02*
X582Y939D01*
X1457Y939D02*
X1512Y939D01*
X1523Y939D02*
X1579Y939D01*
X460Y938D02*
X517Y938D01*
X525Y938D02*
X582Y938D01*
X1457Y938D02*
X1514Y938D01*
X1521Y938D02*
X1579Y938D01*
X460Y937D02*
X582Y937D01*
X1457Y937D02*
X1579Y937D01*
X460Y936D02*
X582Y936D01*
X1458Y936D02*
X1579Y936D01*
X461Y935D02*
X582Y935D01*
X1458Y935D02*
X1579Y935D01*
X461Y934D02*
X582Y934D01*
X1458Y934D02*
X1578Y934D01*
X461Y933D02*
X581Y933D01*
X1458Y933D02*
X1578Y933D01*
X461Y932D02*
X580Y932D01*
X1459Y932D02*
X1578Y932D01*
X462Y931D02*
X580Y931D01*
X1459Y931D02*
X1577Y931D01*
X462Y930D02*
X580Y930D01*
X1459Y930D02*
X1577Y930D01*
X463Y929D02*
X579Y929D01*
X1460Y929D02*
X1577Y929D01*
X463Y928D02*
X579Y928D01*
X1460Y928D02*
X1576Y928D01*
X464Y927D02*
X578Y927D01*
X1461Y927D02*
X1576Y927D01*
X464Y926D02*
X578Y926D01*
X1461Y926D02*
X1575Y926D01*
X465Y925D02*
X577Y925D01*
X1462Y925D02*
X1575Y925D01*
X465Y924D02*
X577Y924D01*
X1462Y924D02*
X1574Y924D01*
X466Y923D02*
X576Y923D01*
X1463Y923D02*
X1573Y923D01*
X466Y922D02*
X575Y922D01*
X1464Y922D02*
X1573Y922D01*
X467Y921D02*
X575Y921D01*
X1465Y921D02*
X1572Y921D01*
X468Y920D02*
X574Y920D01*
X1465Y920D02*
X1571Y920D01*
X469Y919D02*
X573Y919D01*
X1466Y919D02*
X1570Y919D01*
X470Y918D02*
X572Y918D01*
X1467Y918D02*
X1569Y918D01*
X471Y917D02*
X571Y917D01*
X1468Y917D02*
X1568Y917D01*
X472Y916D02*
X570Y916D01*
X1469Y916D02*
X1567Y916D01*
X473Y915D02*
X569Y915D01*
X1470Y915D02*
X1566Y915D01*
X475Y914D02*
X567Y914D01*
X1472Y914D02*
X1565Y914D01*
X476Y913D02*
X566Y913D01*
X1473Y913D02*
X1563Y913D01*
X478Y912D02*
X564Y912D01*
X1475Y912D02*
X1561Y912D01*
X480Y911D02*
X562Y911D01*
X1477Y911D02*
X1559Y911D01*
X482Y910D02*
X560Y910D01*
X1479Y910D02*
X1557Y910D01*
X485Y909D02*
X557Y909D01*
X1482Y909D02*
X1554Y909D01*
X488Y908D02*
X553Y908D01*
X1486Y908D02*
X1551Y908D01*
X493Y879D02*
X549Y879D01*
X1490Y879D02*
X1546Y879D01*
X487Y878D02*
X555Y878D01*
X1484Y878D02*
X1552Y878D01*
X484Y877D02*
X558Y877D01*
X1481Y877D02*
X1555Y877D01*
X481Y876D02*
X561Y876D01*
X1478Y876D02*
X1558Y876D01*
X479Y875D02*
X563Y875D01*
X1476Y875D02*
X1560Y875D01*
X477Y874D02*
X565Y874D01*
X1475Y874D02*
X1562Y874D01*
X476Y873D02*
X566Y873D01*
X1473Y873D02*
X1564Y873D01*
X474Y872D02*
X568Y872D01*
X1471Y872D02*
X1565Y872D01*
X473Y871D02*
X569Y871D01*
X1470Y871D02*
X1566Y871D01*
X472Y870D02*
X570Y870D01*
X1469Y870D02*
X1568Y870D01*
X470Y869D02*
X571Y869D01*
X1468Y869D02*
X1569Y869D01*
X469Y868D02*
X572Y868D01*
X1467Y868D02*
X1570Y868D01*
X469Y867D02*
X573Y867D01*
X1466Y867D02*
X1571Y867D01*
X468Y866D02*
X574Y866D01*
X1465Y866D02*
X1571Y866D01*
X467Y865D02*
X575Y865D01*
X1464Y865D02*
X1572Y865D01*
X466Y864D02*
X576Y864D01*
X1464Y864D02*
X1573Y864D01*
X466Y863D02*
X576Y863D01*
X1463Y863D02*
X1574Y863D01*
X465Y862D02*
X577Y862D01*
X1462Y862D02*
X1574Y862D01*
X464Y861D02*
X577Y861D01*
X1462Y861D02*
X1575Y861D01*
X464Y860D02*
X578Y860D01*
X1461Y860D02*
X1575Y860D01*
X463Y859D02*
X578Y859D01*
X1461Y859D02*
X1576Y859D01*
X463Y858D02*
X579Y858D01*
X1460Y858D02*
X1576Y858D01*
X462Y857D02*
X579Y857D01*
X1460Y857D02*
X1577Y857D01*
X462Y856D02*
X580Y856D01*
X1459Y856D02*
X1577Y856D01*
X462Y855D02*
X580Y855D01*
X1459Y855D02*
X1577Y855D01*
X461Y854D02*
X581Y854D01*
X1459Y854D02*
X1578Y854D01*
X461Y853D02*
X581Y853D01*
X1458Y853D02*
X1578Y853D01*
X461Y852D02*
X581Y852D01*
X1458Y852D02*
X1578Y852D01*
X460Y851D02*
X581Y851D01*
X1458Y851D02*
X1579Y851D01*
X460Y850D02*
X582Y850D01*
X1458Y850D02*
X1579Y850D01*
X460Y849D02*
X519Y849D01*
X523Y849D02*
X582Y849D01*
X1457Y849D02*
X1515Y849D01*
X1519Y849D02*
X1579Y849D01*
X460Y848D02*
X517Y848D01*
X525Y848D02*
X582Y848D01*
X1457Y848D02*
X1513Y848D01*
X1522Y848D02*
X1579Y848D01*
X460Y847D02*
X516Y847D01*
X526Y847D02*
X582Y847D01*
X1457Y847D02*
X1512Y847D01*
X1523Y847D02*
X1579Y847D01*
X460Y846D02*
X515Y846D01*
X527Y846D02*
X582Y846D01*
X1457Y846D02*
X1512Y846D01*
X1523Y846D02*
X1580Y846D01*
X460Y845D02*
X515Y845D01*
X527Y845D02*
X582Y845D01*
X1457Y845D02*
X1511Y845D01*
X1524Y845D02*
X1580Y845D01*
X459Y844D02*
X514Y844D01*
X528Y844D02*
X582Y844D01*
X1457Y844D02*
X1511Y844D01*
X1524Y844D02*
X1580Y844D01*
X459Y843D02*
X514Y843D01*
X528Y843D02*
X583Y843D01*
X1457Y843D02*
X1511Y843D01*
X1524Y843D02*
X1580Y843D01*
X460Y842D02*
X514Y842D01*
X528Y842D02*
X583Y842D01*
X1457Y842D02*
X1511Y842D01*
X1524Y842D02*
X1580Y842D01*
X460Y841D02*
X515Y841D01*
X527Y841D02*
X583Y841D01*
X1457Y841D02*
X1511Y841D01*
X1524Y841D02*
X1580Y841D01*
X460Y840D02*
X515Y840D01*
X527Y840D02*
X583Y840D01*
X1457Y840D02*
X1512Y840D01*
X1523Y840D02*
X1579Y840D01*
X460Y839D02*
X516Y839D01*
X526Y839D02*
X582Y839D01*
X1457Y839D02*
X1512Y839D01*
X1523Y839D02*
X1579Y839D01*
X460Y838D02*
X517Y838D01*
X525Y838D02*
X582Y838D01*
X1457Y838D02*
X1514Y838D01*
X1521Y838D02*
X1579Y838D01*
X460Y837D02*
X582Y837D01*
X1457Y837D02*
X1579Y837D01*
X460Y836D02*
X582Y836D01*
X1458Y836D02*
X1579Y836D01*
X461Y835D02*
X582Y835D01*
X1458Y835D02*
X1579Y835D01*
X461Y834D02*
X582Y834D01*
X1458Y834D02*
X1578Y834D01*
X461Y833D02*
X581Y833D01*
X1458Y833D02*
X1578Y833D01*
X461Y832D02*
X580Y832D01*
X1459Y832D02*
X1578Y832D01*
X462Y831D02*
X580Y831D01*
X1459Y831D02*
X1577Y831D01*
X462Y830D02*
X580Y830D01*
X1459Y830D02*
X1577Y830D01*
X463Y829D02*
X579Y829D01*
X1460Y829D02*
X1577Y829D01*
X463Y828D02*
X579Y828D01*
X1460Y828D02*
X1576Y828D01*
X464Y827D02*
X578Y827D01*
X1461Y827D02*
X1576Y827D01*
X464Y826D02*
X578Y826D01*
X1461Y826D02*
X1575Y826D01*
X465Y825D02*
X577Y825D01*
X1462Y825D02*
X1575Y825D01*
X465Y824D02*
X577Y824D01*
X1462Y824D02*
X1574Y824D01*
X466Y823D02*
X576Y823D01*
X1463Y823D02*
X1573Y823D01*
X466Y822D02*
X575Y822D01*
X1464Y822D02*
X1573Y822D01*
X467Y821D02*
X575Y821D01*
X1465Y821D02*
X1572Y821D01*
X468Y820D02*
X574Y820D01*
X1465Y820D02*
X1571Y820D01*
X469Y819D02*
X573Y819D01*
X1466Y819D02*
X1570Y819D01*
X470Y818D02*
X572Y818D01*
X1467Y818D02*
X1569Y818D01*
X471Y817D02*
X571Y817D01*
X1468Y817D02*
X1568Y817D01*
X472Y816D02*
X570Y816D01*
X1469Y816D02*
X1567Y816D01*
X473Y815D02*
X569Y815D01*
X1470Y815D02*
X1566Y815D01*
X475Y814D02*
X567Y814D01*
X1472Y814D02*
X1565Y814D01*
X476Y813D02*
X566Y813D01*
X1473Y813D02*
X1563Y813D01*
X478Y812D02*
X564Y812D01*
X1475Y812D02*
X1561Y812D01*
X480Y811D02*
X562Y811D01*
X1477Y811D02*
X1559Y811D01*
X482Y810D02*
X560Y810D01*
X1479Y810D02*
X1557Y810D01*
X485Y809D02*
X557Y809D01*
X1482Y809D02*
X1554Y809D01*
X488Y808D02*
X553Y808D01*
X1486Y808D02*
X1551Y808D01*
X493Y779D02*
X549Y779D01*
X1490Y779D02*
X1546Y779D01*
X487Y778D02*
X555Y778D01*
X1484Y778D02*
X1552Y778D01*
X484Y777D02*
X558Y777D01*
X1481Y777D02*
X1555Y777D01*
X481Y776D02*
X561Y776D01*
X1478Y776D02*
X1558Y776D01*
X479Y775D02*
X563Y775D01*
X1476Y775D02*
X1560Y775D01*
X477Y774D02*
X565Y774D01*
X1474Y774D02*
X1562Y774D01*
X476Y773D02*
X566Y773D01*
X1473Y773D02*
X1564Y773D01*
X474Y772D02*
X568Y772D01*
X1471Y772D02*
X1565Y772D01*
X473Y771D02*
X569Y771D01*
X1470Y771D02*
X1566Y771D01*
X472Y770D02*
X570Y770D01*
X1469Y770D02*
X1568Y770D01*
X470Y769D02*
X571Y769D01*
X1468Y769D02*
X1569Y769D01*
X469Y768D02*
X572Y768D01*
X1467Y768D02*
X1570Y768D01*
X469Y767D02*
X573Y767D01*
X1466Y767D02*
X1571Y767D01*
X468Y766D02*
X574Y766D01*
X1465Y766D02*
X1571Y766D01*
X467Y765D02*
X575Y765D01*
X1464Y765D02*
X1572Y765D01*
X466Y764D02*
X576Y764D01*
X1463Y764D02*
X1573Y764D01*
X466Y763D02*
X576Y763D01*
X1463Y763D02*
X1573Y763D01*
X465Y762D02*
X577Y762D01*
X1462Y762D02*
X1574Y762D01*
X464Y761D02*
X577Y761D01*
X1462Y761D02*
X1575Y761D01*
X464Y760D02*
X578Y760D01*
X1461Y760D02*
X1575Y760D01*
X463Y759D02*
X578Y759D01*
X1461Y759D02*
X1576Y759D01*
X463Y758D02*
X579Y758D01*
X1460Y758D02*
X1576Y758D01*
X462Y757D02*
X579Y757D01*
X1460Y757D02*
X1577Y757D01*
X462Y756D02*
X580Y756D01*
X1459Y756D02*
X1577Y756D01*
X462Y755D02*
X580Y755D01*
X1459Y755D02*
X1577Y755D01*
X461Y754D02*
X581Y754D01*
X1459Y754D02*
X1578Y754D01*
X461Y753D02*
X581Y753D01*
X1458Y753D02*
X1578Y753D01*
X461Y752D02*
X581Y752D01*
X1458Y752D02*
X1578Y752D01*
X460Y751D02*
X581Y751D01*
X1458Y751D02*
X1579Y751D01*
X460Y750D02*
X582Y750D01*
X1457Y750D02*
X1579Y750D01*
X460Y749D02*
X519Y749D01*
X523Y749D02*
X582Y749D01*
X1457Y749D02*
X1515Y749D01*
X1520Y749D02*
X1579Y749D01*
X460Y748D02*
X517Y748D01*
X525Y748D02*
X582Y748D01*
X1457Y748D02*
X1513Y748D01*
X1521Y748D02*
X1579Y748D01*
X460Y747D02*
X516Y747D01*
X526Y747D02*
X582Y747D01*
X1457Y747D02*
X1512Y747D01*
X1522Y747D02*
X1579Y747D01*
X460Y746D02*
X515Y746D01*
X527Y746D02*
X582Y746D01*
X1457Y746D02*
X1512Y746D01*
X1523Y746D02*
X1579Y746D01*
X460Y745D02*
X515Y745D01*
X527Y745D02*
X582Y745D01*
X1457Y745D02*
X1511Y745D01*
X1524Y745D02*
X1579Y745D01*
X459Y744D02*
X514Y744D01*
X527Y744D02*
X582Y744D01*
X1457Y744D02*
X1511Y744D01*
X1524Y744D02*
X1580Y744D01*
X459Y743D02*
X514Y743D01*
X527Y743D02*
X583Y743D01*
X1457Y743D02*
X1511Y743D01*
X1524Y743D02*
X1580Y743D01*
X460Y742D02*
X514Y742D01*
X527Y742D02*
X583Y742D01*
X1457Y742D02*
X1511Y742D01*
X1524Y742D02*
X1580Y742D01*
X460Y741D02*
X515Y741D01*
X527Y741D02*
X583Y741D01*
X1457Y741D02*
X1511Y741D01*
X1524Y741D02*
X1579Y741D01*
X460Y740D02*
X515Y740D01*
X527Y740D02*
X583Y740D01*
X1457Y740D02*
X1512Y740D01*
X1523Y740D02*
X1579Y740D01*
X460Y739D02*
X516Y739D01*
X526Y739D02*
X582Y739D01*
X1457Y739D02*
X1513Y739D01*
X1522Y739D02*
X1579Y739D01*
X460Y738D02*
X517Y738D01*
X525Y738D02*
X582Y738D01*
X1457Y738D02*
X1514Y738D01*
X1521Y738D02*
X1579Y738D01*
X460Y737D02*
X582Y737D01*
X1457Y737D02*
X1579Y737D01*
X460Y736D02*
X582Y736D01*
X1458Y736D02*
X1579Y736D01*
X461Y735D02*
X582Y735D01*
X1458Y735D02*
X1578Y735D01*
X461Y734D02*
X582Y734D01*
X1458Y734D02*
X1578Y734D01*
X461Y733D02*
X581Y733D01*
X1458Y733D02*
X1578Y733D01*
X461Y732D02*
X580Y732D01*
X1459Y732D02*
X1578Y732D01*
X462Y731D02*
X580Y731D01*
X1459Y731D02*
X1577Y731D01*
X462Y730D02*
X580Y730D01*
X1459Y730D02*
X1577Y730D01*
X463Y729D02*
X579Y729D01*
X1460Y729D02*
X1576Y729D01*
X463Y728D02*
X579Y728D01*
X1460Y728D02*
X1576Y728D01*
X464Y727D02*
X578Y727D01*
X1461Y727D02*
X1576Y727D01*
X464Y726D02*
X578Y726D01*
X1461Y726D02*
X1575Y726D01*
X465Y725D02*
X577Y725D01*
X1462Y725D02*
X1574Y725D01*
X465Y724D02*
X577Y724D01*
X1462Y724D02*
X1574Y724D01*
X466Y723D02*
X576Y723D01*
X1463Y723D02*
X1573Y723D01*
X466Y722D02*
X575Y722D01*
X1464Y722D02*
X1573Y722D01*
X467Y721D02*
X575Y721D01*
X1464Y721D02*
X1572Y721D01*
X468Y720D02*
X574Y720D01*
X1465Y720D02*
X1571Y720D01*
X469Y719D02*
X573Y719D01*
X1466Y719D02*
X1570Y719D01*
X470Y718D02*
X572Y718D01*
X1467Y718D02*
X1569Y718D01*
X471Y717D02*
X571Y717D01*
X1468Y717D02*
X1568Y717D01*
X472Y716D02*
X570Y716D01*
X1469Y716D02*
X1567Y716D01*
X473Y715D02*
X569Y715D01*
X1470Y715D02*
X1566Y715D01*
X475Y714D02*
X567Y714D01*
X1472Y714D02*
X1564Y714D01*
X476Y713D02*
X566Y713D01*
X1473Y713D02*
X1563Y713D01*
X478Y712D02*
X564Y712D01*
X1475Y712D02*
X1561Y712D01*
X480Y711D02*
X562Y711D01*
X1477Y711D02*
X1559Y711D01*
X482Y710D02*
X560Y710D01*
X1479Y710D02*
X1557Y710D01*
X485Y709D02*
X557Y709D01*
X1482Y709D02*
X1554Y709D01*
X488Y708D02*
X553Y708D01*
X1486Y708D02*
X1551Y708D01*
X183Y380D02*
X257Y380D01*
X183Y379D02*
X257Y379D01*
X183Y378D02*
X257Y378D01*
X183Y377D02*
X257Y377D01*
X183Y376D02*
X257Y376D01*
X183Y375D02*
X257Y375D01*
X183Y374D02*
X257Y374D01*
X183Y373D02*
X257Y373D01*
X183Y372D02*
X257Y372D01*
X183Y371D02*
X257Y371D01*
X183Y370D02*
X257Y370D01*
X183Y369D02*
X257Y369D01*
X183Y368D02*
X257Y368D01*
X183Y367D02*
X257Y367D01*
X183Y366D02*
X257Y366D01*
X183Y365D02*
X257Y365D01*
X183Y364D02*
X257Y364D01*
X183Y363D02*
X257Y363D01*
X183Y362D02*
X257Y362D01*
X183Y361D02*
X257Y361D01*
X183Y360D02*
X257Y360D01*
X183Y359D02*
X257Y359D01*
X183Y358D02*
X257Y358D01*
X183Y357D02*
X257Y357D01*
X183Y356D02*
X257Y356D01*
X183Y355D02*
X257Y355D01*
X183Y354D02*
X257Y354D01*
X183Y353D02*
X257Y353D01*
X183Y352D02*
X218Y352D01*
X221Y352D02*
X257Y352D01*
X183Y351D02*
X215Y351D01*
X224Y351D02*
X257Y351D01*
X183Y350D02*
X213Y350D01*
X226Y350D02*
X257Y350D01*
X183Y349D02*
X212Y349D01*
X227Y349D02*
X257Y349D01*
X183Y348D02*
X212Y348D01*
X228Y348D02*
X257Y348D01*
X183Y347D02*
X211Y347D01*
X228Y347D02*
X257Y347D01*
X183Y346D02*
X211Y346D01*
X228Y346D02*
X257Y346D01*
X183Y345D02*
X210Y345D01*
X229Y345D02*
X257Y345D01*
X183Y344D02*
X210Y344D01*
X229Y344D02*
X257Y344D01*
X183Y343D02*
X210Y343D01*
X229Y343D02*
X257Y343D01*
X183Y342D02*
X210Y342D01*
X229Y342D02*
X257Y342D01*
X183Y341D02*
X211Y341D01*
X229Y341D02*
X257Y341D01*
X183Y340D02*
X211Y340D01*
X228Y340D02*
X257Y340D01*
X183Y339D02*
X211Y339D01*
X228Y339D02*
X257Y339D01*
X183Y338D02*
X212Y338D01*
X227Y338D02*
X257Y338D01*
X183Y337D02*
X213Y337D01*
X226Y337D02*
X257Y337D01*
X183Y336D02*
X214Y336D01*
X225Y336D02*
X257Y336D01*
X183Y335D02*
X216Y335D01*
X223Y335D02*
X257Y335D01*
X183Y334D02*
X257Y334D01*
X183Y333D02*
X257Y333D01*
X183Y332D02*
X257Y332D01*
X183Y331D02*
X257Y331D01*
X183Y330D02*
X257Y330D01*
X183Y329D02*
X257Y329D01*
X183Y328D02*
X257Y328D01*
X183Y327D02*
X257Y327D01*
X183Y326D02*
X257Y326D01*
X183Y325D02*
X257Y325D01*
X183Y324D02*
X257Y324D01*
X183Y323D02*
X257Y323D01*
X183Y322D02*
X257Y322D01*
X183Y321D02*
X257Y321D01*
X183Y320D02*
X257Y320D01*
X183Y319D02*
X257Y319D01*
X183Y318D02*
X257Y318D01*
X183Y317D02*
X257Y317D01*
X183Y316D02*
X257Y316D01*
X183Y315D02*
X257Y315D01*
X183Y314D02*
X257Y314D01*
X183Y313D02*
X257Y313D01*
X183Y312D02*
X257Y312D01*
X183Y311D02*
X257Y311D01*
X183Y310D02*
X257Y310D01*
X183Y309D02*
X257Y309D01*
X183Y308D02*
X257Y308D01*
X183Y307D02*
X257Y307D01*
X183Y306D02*
X256Y306D01*
D02*
G04 End of Mask0*
M02*